<?xml version="1.0" encoding="utf-8"?>
<!-- Generator: Adobe Illustrator 25.0.0, SVG Export Plug-In . SVG Version: 6.00 Build 0)  -->
<svg version="1.1" id="レイヤー_1" xmlns="http://www.w3.org/2000/svg" xmlns:xlink="http://www.w3.org/1999/xlink" x="0px"
	 y="0px" width="107.6px" height="158.6px" viewBox="0 0 107.6 158.6" style="enable-background:new 0 0 107.6 158.6;"
	 xml:space="preserve">
<style type="text/css">
	.st0{fill:#5D6970;}
	.st1{fill:#898989;}
	.st2{fill:#76A22D;}
	.st3{fill:#221815;}
</style>
<path class="st0" d="M17.3,125.4c0-0.5-0.2-0.6-0.9-0.8c-0.6-0.1-0.8-0.1-0.8-0.4c0-0.2,0.3-0.2,0.6-0.2c0.7,0,2.3,0.1,2.8,0.1
	c0.6,0,3.3-0.1,4.9-0.1c0.3,0,0.3,0.2,0.3,0.6v1.9c0,0.1-0.1,0.1-0.2,0.1c-0.2,0-0.2-0.2-0.5-0.9c-0.3-0.7-0.4-1-3.7-1
	c-0.7,0-0.8,0.2-0.8,0.9v3.3c0,0.4,0.3,0.4,0.9,0.4h1.7c1.4,0,1-1.7,1.5-1.7c0.2,0,0.3,0.2,0.3,0.4c0,0.4-0.1,0.7-0.1,1.6
	c0,0.8,0.1,1.4,0.1,1.9c0,0.2,0,0.4-0.2,0.4c-0.3,0-0.3-0.3-0.4-0.9c-0.2-1-0.3-1.2-2.7-1.2c-0.9,0-1,0.1-1,0.5v3.8
	c0,0.8,0.1,0.9,2.3,0.9c1.3,0,1.8-0.2,2.2-0.6c0.9-1,0.8-1.6,1.1-1.6c0.2,0,0.2,0.1,0.2,0.2c0,0.1-0.1,0.2-0.1,0.3l-0.4,2
	c-0.1,0.3-0.2,0.4-0.5,0.4h-5.5c-1.1,0-1.7,0-2,0c-0.3,0-0.4,0.1-0.5,0.1c-0.2,0-0.4,0-0.4-0.2c0-0.3,0.3-0.2,0.8-0.4
	c0.5-0.2,1-0.1,1-0.9V125.4z"/>
<path class="st0" d="M31.7,127c1.4,0,2.7,0.5,2.7,0.7c0.1,0.5,0.1,0.8,0.1,1c0,0.1-0.1,0.2-0.2,0.2c-0.3,0-0.7-1.5-2.6-1.5
	c-2.2,0-3.8,1.7-3.8,4.1c0,2.4,1.3,4.1,3.4,4.2c2.6,0,2.9-1.9,3.2-1.9c0.2,0,0.2,0.2,0.2,0.9c0,0.9-1.7,1.5-3.3,1.5
	c-2.9,0-5.2-1.9-5.2-4.6C26.2,128.9,28.1,127,31.7,127"/>
<path class="st0" d="M40.7,127c2.7,0,4.7,2,4.7,4.6c0,2.6-2.1,4.6-4.9,4.6c-2.8,0-4.8-2-4.8-4.6C35.8,128.9,37.9,127,40.7,127
	 M40.6,135.7c2.2,0,3.2-1.5,3.2-4.1c0-2.7-1.4-4.1-3.1-4.1c-1.8,0-3.2,1.4-3.2,4.1C37.6,134.2,38.6,135.7,40.6,135.7"/>
<path class="st0" d="M53.2,125.4c0-0.5-0.2-0.6-0.9-0.8c-0.6-0.1-0.9-0.1-0.9-0.4c0-0.2,0.3-0.2,0.6-0.2c0.7,0,2.3,0.1,2.8,0.1
	c0.6,0,3.3-0.1,5-0.1c0.3,0,0.3,0.2,0.3,0.6v1.9c0,0.1-0.1,0.1-0.2,0.1c-0.2,0-0.2-0.2-0.5-0.9c-0.2-0.7-0.4-1-3.7-1
	c-0.7,0-0.8,0.2-0.8,0.9v3.3c0,0.4,0.3,0.4,1,0.4h1.7c1.4,0,1-1.7,1.5-1.7c0.2,0,0.2,0.2,0.2,0.4c0,0.4-0.1,0.7-0.1,1.6
	c0,0.8,0.1,1.4,0.1,1.9c0,0.2,0,0.4-0.2,0.4c-0.3,0-0.3-0.3-0.4-0.9c-0.2-1-0.4-1.2-2.7-1.2c-0.9,0-1,0.1-1,0.5v3.8
	c0,0.8,0.1,0.9,2.3,0.9c1.3,0,1.8-0.2,2.1-0.6c1-1,0.8-1.6,1.2-1.6c0.2,0,0.2,0.1,0.2,0.2c0,0.1-0.1,0.2-0.1,0.3l-0.3,2
	c-0.1,0.3-0.2,0.4-0.5,0.4h-5.5c-1.1,0-1.7,0-2,0c-0.4,0-0.5,0.1-0.6,0.1c-0.2,0-0.5,0-0.5-0.2c0-0.3,0.4-0.2,0.9-0.4
	c0.5-0.2,1-0.1,1-0.9V125.4z"/>
<path class="st0" d="M67.1,134.6c0,0.7,0.4,0.7,0.8,0.8c0.4,0,0.8,0.1,0.8,0.3c0,0.2-0.2,0.2-0.4,0.2c-0.4,0-1.3-0.1-1.9-0.1
	c-0.6,0-1.2,0.1-1.7,0.1c-0.3,0-0.5,0-0.5-0.2c0-0.2,0.3-0.2,0.7-0.3c0.4-0.1,0.7-0.1,0.7-0.8v-2.4c0-0.4-0.3-0.8-0.7-1.3l-2-2.7
	c-0.7-0.8-1.2-0.6-1.2-0.9c0-0.1,0.1-0.2,0.3-0.2c0.6,0,1.1,0.1,1.7,0.1c0.5,0,1.1-0.1,1.6-0.1c0.2,0,0.3,0.1,0.3,0.2
	c0,0.3-1,0.1-1,0.5c0,0.6,2.1,3,2.4,3.3c0.1-0.1,2.1-2.6,2.1-3.1c0-0.5-0.9-0.4-0.9-0.7c0-0.1,0.1-0.2,0.3-0.2
	c0.2,0,0.5,0.1,1.2,0.1c0.8,0,1-0.1,1.3-0.1c0.2,0,0.3,0,0.3,0.2c0,0.2-0.7,0.2-1.5,1.3l-1.6,2c-0.7,0.8-0.9,1.1-0.9,1.7V134.6z"/>
<path class="st0" d="M75,130.8c0,0.2,0.1,0.3,0.5,0.3H77c0.6,0,0.9,0,1.2-0.3c0.3-0.2,0.4-0.9,0.6-0.9c0.2,0,0.2,0.1,0.2,0.3
	c0,0.2-0.1,0.5-0.1,1.2c0,0.7,0,1.2,0,1.4c0,0.1-0.1,0.2-0.2,0.2c-0.2,0-0.1-0.4-0.5-1c-0.2-0.3-0.7-0.5-1.2-0.5h-1.5
	c-0.4,0-0.5,0.1-0.5,0.4v2.8c0,0.4,0.3,0.7,2.1,0.7c1.1,0,1.8-0.3,2.1-0.7c0.4-0.6,0.5-1.1,0.7-1.1c0.1,0,0.2,0.1,0.2,0.2
	c0,0.2-0.2,1.1-0.3,1.5c-0.1,0.4-0.1,0.6-0.3,0.6c-0.4,0-1.8-0.1-3.6-0.1c-1.7,0-3,0.1-3.5,0.1c-0.3,0-0.4-0.1-0.4-0.2
	c0-0.3,0.4-0.2,0.8-0.3c0.5-0.1,0.8-0.2,0.8-0.8v-5.8c0-0.9-0.2-1.1-0.6-1.1c-0.4,0-0.6-0.1-0.6-0.2c0-0.1,0.1-0.2,0.3-0.2
	c0.6,0,1.4,0.1,3,0.1c1.7,0,2.8-0.1,3.7-0.1c0.5,0,0.5,0.1,0.5,0.3v1.4c0,0.2,0,0.3-0.1,0.3c-0.3,0-0.2-0.6-0.6-1
	c-0.5-0.4-1.2-0.6-2.6-0.6c-1.4,0-1.5,0.2-1.5,0.6V130.8z"/>
<path class="st1" d="M84.2,125.1c0,1.1-1.4,2.2-1.8,2.2c-0.1,0-0.2,0-0.2-0.2c0-0.2,1.1-0.8,1.1-1.5c0-0.6-1-0.6-1-1.1
	c0-0.6,0.3-0.8,0.8-0.8C83.8,123.7,84.2,124.4,84.2,125.1"/>
<path class="st0" d="M86,133.6c0-0.4,0.1-0.5,0.3-0.5c0.4,0-0.1,2.5,2.8,2.5c1.4,0,2-0.6,2-1.5c0-2.1-4.6-1.8-4.6-4.9
	c0-1.5,1.2-2.3,3-2.3c1.3,0,2.2,0.5,2.2,0.7c0,0.3,0.1,1,0.1,1.3c0,0.2-0.1,0.4-0.2,0.4c-0.2,0-0.2-0.3-0.5-0.8
	c-0.3-0.5-0.7-1.1-2-1.1c-1,0-1.5,0.4-1.5,1.3c0,2,4.8,1.8,4.8,4.6c0,1.7-1.3,2.7-3.2,2.7c-1.8,0-3.1-0.4-3.1-1.1V133.6z"/>
<path class="st2" d="M44.4,36.5c4.1-5.1,8.7-8.8,13.3-10.2C49.9,25.2,42,27.5,36,32.5L44.4,36.5z"/>
<path class="st2" d="M65.4,59.2c1-2.2,1.9-4.5,2.6-6.8l-9.1-4.2l-6.1,13.1l9,4.2C63.1,63.6,64.4,61.4,65.4,59.2"/>
<path class="st2" d="M38.2,67c0.2,3.9,1.3,6.9,3,8.6l5.7-12.2l-8.2-3.8C38.2,62.2,38,64.7,38.2,67"/>
<path class="st2" d="M59.1,69.2l-8.2-3.8l-5.7,12.2c0.2,0,0.4,0,0.5,0C49.9,77.5,54.8,74.3,59.1,69.2"/>
<path class="st2" d="M42.3,48.4c-1,2.3-1.9,4.6-2.6,6.8l9,4.2l6.1-13.1l-9-4.2C44.6,44,43.3,46.2,42.3,48.4"/>
<path class="st2" d="M74,40.3c0.2,3-0.1,6.2-0.8,9.6l8.4,3.9c0-7.9-3.3-15.4-9.2-20.8C73.3,35.1,73.8,37.6,74,40.3"/>
<path class="st2" d="M48.6,38.4l8.2,3.8l5.7-12.2c-0.2,0-0.4,0-0.5,0C57.8,30,52.9,33.3,48.6,38.4"/>
<path class="st2" d="M63.3,71.1c-4.1,5.1-8.8,8.8-13.3,10.2c7.9,1.1,15.8-1.2,21.8-6.3L63.3,71.1z"/>
<path class="st2" d="M72,54.3c-0.7,2.2-1.5,4.5-2.6,6.8c-1.1,2.2-2.2,4.4-3.5,6.3l9.2,4.3c1.5-1.8,2.9-3.9,4-6.2
	c1.1-2.3,1.7-4.6,2.1-7L72,54.3z"/>
<path class="st2" d="M33.7,67.2c-0.2-3,0.1-6.2,0.8-9.5l-8.5-3.9c0,7.8,3.3,15.4,9.2,20.7C34.4,72.4,33.9,70,33.7,67.2"/>
<path class="st2" d="M69.5,40.6c-0.2-3.9-1.3-6.9-3-8.7l-5.7,12.2L69,48C69.5,45.4,69.7,42.9,69.5,40.6"/>
<path class="st2" d="M35.7,53.3c0.7-2.3,1.6-4.5,2.6-6.8c1.1-2.3,2.2-4.4,3.5-6.4l-9.2-4.3c-1.5,1.9-2.9,3.9-4,6.2
	c-1.1,2.3-1.7,4.6-2.2,7L35.7,53.3z"/>
<path class="st2" d="M53.8,107.6C24.1,107.6,0,83.5,0,53.8C0,24.1,24.1,0,53.8,0c29.7,0,53.8,24.1,53.8,53.8
	C107.6,83.5,83.5,107.6,53.8,107.6 M53.8,4.2C26.4,4.2,4.2,26.4,4.2,53.8c0,27.4,22.2,49.6,49.6,49.6c27.4,0,49.6-22.3,49.6-49.6
	C103.4,26.4,81.2,4.2,53.8,4.2"/>
<path class="st2" d="M90.1,53.8c0,20-16.2,36.2-36.3,36.2c-12,0-23.2-5.9-29.9-15.7l2.4-1L14.9,59.5L17,77.3L20,76
	c7.4,11.3,20.1,18.2,33.8,18.2c22.3,0,40.5-18.1,40.5-40.4H90.1z"/>
<path class="st2" d="M92.7,48.1l-2.1-17.9l-3.1,1.3c-7.4-11.3-20.1-18.2-33.8-18.2c-22.3,0-40.4,18.1-40.4,40.5h4.2
	c0-20,16.3-36.3,36.3-36.3c12,0,23.1,5.9,29.9,15.7l-2.4,1L92.7,48.1z"/>
<polygon class="st3" points="32.3,157.2 21.9,157.2 21.9,156.1 26.6,156.1 26.6,149.8 22.8,149.8 22.8,148.8 31.3,148.8 31.3,149.8 
	27.8,149.8 27.8,156.1 32.3,156.1 "/>
<polygon class="st3" points="35.5,156.8 35.5,155.7 43.4,155.7 43.4,150 35.5,150 35.5,149 44.5,149 44.5,157.5 43.4,157.5 
	43.4,156.8 "/>
<path class="st3" d="M48.2,149.4v-1h10c0.1,0,0.3-0.1,0.5-0.3l0.8,0.8c-1.1,1.8-2.3,3.5-3.9,5l-0.8-0.7c0.3-0.3,0.8-0.7,1.6-1.7
	c0.9-1.1,1.1-1.5,1.4-2.1H48.2z M49.4,157.5c1.2-0.7,2.2-1.4,2.9-3.4c0.6-1.6,0.6-3,0.7-4.2l1.2,0.2c0.1,0,0.2,0.1,0.2,0.2
	c0,0.1,0,0.1-0.3,0.3c-0.2,2.1-0.4,3.5-1.4,5.3c-0.6,1-1.1,1.5-2.3,2.3L49.4,157.5z"/>
<path class="st3" d="M67,158.6v-6.9c-1.7,1.2-2.7,1.7-3.9,2.3l-1-0.9c1.2-0.4,2.5-0.8,4.7-2.4c2-1.5,3-2.6,3.7-3.4l1,0.8
	c0.1,0,0.2,0.1,0.2,0.3c0,0.1,0,0.1-0.2,0.1c-0.1,0-0.2,0-0.3,0c-1.2,1.1-1.6,1.5-2.9,2.5v7.8H67z"/>
<path class="st3" d="M83.3,149c-0.6,0.4-0.6,0.4-0.8,0.6c-1.1,2.3-1.3,2.7-1.9,3.5c1.9,1.5,2.9,2.7,3.8,4l-1,0.8
	c-1-1.6-2.1-2.9-3.6-3.9c-2.4,2.6-4.1,3.3-5.1,3.8l-0.8-1c1.2-0.4,2.7-0.9,4.5-2.8c1.8-1.9,2.4-3.4,2.9-4.7h-5.9v-1h6.4
	c0.2,0,0.5-0.2,0.6-0.3L83.3,149z M84.4,148.2c0.6,0.5,1.1,1.1,1.2,1.3l-0.6,0.6c-0.3-0.5-0.9-1-1.2-1.4L84.4,148.2z M85.3,146.4
	c0.4,0.3,0.8,0.8,1.3,1.3l-0.6,0.6c-0.2-0.3-0.6-0.9-1.3-1.4L85.3,146.4z"/>
</svg>
