<?xml version="1.0" encoding="utf-8"?>
<!-- Generator: Adobe Illustrator 25.0.0, SVG Export Plug-In . SVG Version: 6.00 Build 0)  -->
<svg version="1.1" id="レイヤー_1" xmlns="http://www.w3.org/2000/svg" xmlns:xlink="http://www.w3.org/1999/xlink" x="0px"
	 y="0px" width="107.6px" height="158.7px" viewBox="0 0 107.6 158.7" style="enable-background:new 0 0 107.6 158.7;"
	 xml:space="preserve">
<style type="text/css">
	.st0{fill:#5D6970;}
	.st1{fill:#898989;}
	.st2{fill:#E8C689;}
	.st3{fill:#D0850A;}
	.st4{fill:#221815;}
</style>
<path class="st0" d="M16.2,125.5c0-0.7-0.5-0.8-1.3-0.8c-0.3,0-0.7-0.1-0.7-0.3c0-0.3,0.3-0.3,0.5-0.3c0.8,0,1.5,0.1,2.3,0.1
	c0.7,0,1.4-0.1,2.2-0.1c0.4,0,0.6,0,0.6,0.4c0,0.2-0.5,0.2-1,0.2c-0.6,0-1,0.2-1,1.1v8.7c0,0.7,0.3,0.7,0.7,0.7c0.4,0,1.4,0,2.2-0.1
	c1.4-0.2,2.1-1.8,2.4-1.8c0.2,0,0.2,0.2,0.2,0.3c0,0.3-0.1,1.2-0.3,2c-0.1,0.3-0.3,0.4-0.4,0.4c-1,0-2.2-0.1-5.2-0.1
	c-0.9,0-1.8,0.1-2.8,0.1c-0.5,0-0.5-0.1-0.5-0.3c0-0.3,0.2-0.3,0.4-0.3c1.1-0.1,1.5-0.2,1.5-1.3V125.5z"/>
<path class="st0" d="M27.1,134.7c0,0.5,0.2,0.7,0.7,0.7c0.5,0,0.7,0.1,0.7,0.3c0,0.2-0.1,0.2-0.5,0.2c-0.4,0-1-0.1-1.6-0.1
	c-0.6,0-1.3,0.1-1.9,0.1c-0.2,0-0.2-0.1-0.2-0.2c0-0.2,0.2-0.3,0.6-0.3c0.5,0,0.8-0.2,0.8-0.7v-6.3c0-0.5-0.2-0.6-0.6-0.7
	c-0.4,0-0.6-0.1-0.6-0.3c0-0.1,0.1-0.2,0.3-0.2c0.4,0,1,0.1,1.7,0.1c0.7,0,1.3-0.1,1.7-0.1c0.2,0,0.3,0.1,0.3,0.2
	c0,0.2-0.2,0.3-0.7,0.3c-0.5,0-0.6,0.1-0.6,0.7V134.7z"/>
<path class="st0" d="M32.5,130.8c0,0.3,0.1,0.4,0.7,0.4c0.9,0,1.7,0,2.1-0.3c0.5-0.4,0.4-1,0.7-1c0.1,0,0.2,0.1,0.2,0.3
	c0,0.4-0.1,0.6-0.1,1.3c0,0.5,0.1,1.1,0.1,1.3c0,0.2-0.1,0.3-0.2,0.3c-0.3,0-0.2-0.3-0.4-0.9c-0.3-0.6-1.3-0.5-2-0.5
	c-0.9,0-1,0.1-1,0.5v2.5c0,0.6,0.4,0.7,0.8,0.8c0.4,0.1,0.8,0,0.8,0.3c0,0.2-0.1,0.2-0.4,0.2c-0.5,0-1.2-0.1-1.8-0.1
	c-0.7,0-1.5,0.1-2,0.1c-0.2,0-0.3-0.1-0.3-0.3c0-0.2,0.4-0.2,0.7-0.3c0.4-0.1,0.8-0.2,0.8-0.8v-6.2c0-0.5-0.3-0.6-0.7-0.7
	c-0.4,0-0.7,0-0.7-0.2c0-0.2,0.1-0.2,0.5-0.2c0.6,0,1.4,0.1,3.2,0.1c1.2,0,2.4-0.1,3.4-0.1c0.3,0,0.4,0.1,0.4,0.3v1.6
	c0,0.1,0,0.2-0.1,0.2c-0.3,0-0.3-0.7-0.9-1.2c-0.6-0.4-1.5-0.5-2.7-0.5c-0.9,0-1,0.2-1,1.1V130.8z"/>
<path class="st0" d="M41.3,130.8c0,0.2,0.1,0.3,0.5,0.3h1.5c0.5,0,0.9,0,1.2-0.3c0.3-0.2,0.4-0.8,0.5-0.8c0.1,0,0.2,0.1,0.2,0.3
	c0,0.2-0.1,0.5-0.1,1.1c0,0.7,0,1.2,0,1.4c0,0.2-0.1,0.2-0.2,0.2c-0.2,0-0.1-0.4-0.4-1.1c-0.2-0.3-0.8-0.4-1.3-0.4h-1.5
	c-0.4,0-0.5,0.1-0.5,0.3v2.8c0,0.5,0.4,0.7,2.1,0.7c1.1,0,1.8-0.2,2.1-0.7c0.4-0.6,0.5-1.1,0.7-1.1c0.1,0,0.2,0.1,0.2,0.2
	c0,0.1-0.2,1-0.3,1.5c-0.1,0.4-0.1,0.6-0.3,0.6c-0.4,0-1.8-0.1-3.7-0.1c-1.6,0-2.9,0.1-3.5,0.1c-0.2,0-0.4-0.1-0.4-0.2
	c0-0.3,0.4-0.3,0.8-0.3c0.5-0.1,0.8-0.2,0.8-0.8v-5.8c0-0.9-0.2-1.1-0.6-1.1c-0.4,0-0.6-0.1-0.6-0.2c0-0.1,0-0.2,0.3-0.2
	c0.5,0,1.4,0.1,3,0.1c1.7,0,2.8-0.1,3.7-0.1c0.4,0,0.5,0.1,0.5,0.4v1.4c0,0.2,0,0.2-0.1,0.2c-0.3,0-0.2-0.6-0.6-0.9
	c-0.5-0.4-1.2-0.6-2.6-0.6c-1.4,0-1.5,0.2-1.5,0.5V130.8z"/>
<path class="st0" d="M54.4,125.4c0-0.5-0.2-0.6-0.9-0.8c-0.6-0.1-0.9-0.1-0.9-0.4c0-0.2,0.3-0.3,0.6-0.3c0.7,0,2.3,0.1,2.8,0.1
	c0.6,0,3.3-0.1,4.9-0.1c0.3,0,0.3,0.2,0.3,0.6v1.9c0,0.1-0.1,0.1-0.1,0.1c-0.3,0-0.2-0.2-0.5-0.9c-0.3-0.7-0.4-1-3.7-1
	c-0.7,0-0.8,0.3-0.8,0.9v3.3c0,0.4,0.3,0.4,1,0.4h1.7c1.5,0,1-1.7,1.5-1.7c0.3,0,0.3,0.2,0.3,0.4c0,0.4-0.1,0.7-0.1,1.6
	c0,0.8,0.1,1.3,0.1,1.9c0,0.1,0,0.3-0.2,0.3c-0.3,0-0.3-0.3-0.4-0.9c-0.2-1-0.4-1.1-2.7-1.1c-0.9,0-1.1,0.1-1.1,0.5v3.7
	c0,0.9,0.1,1,2.3,1c1.3,0,1.8-0.2,2.2-0.7c0.9-1.1,0.8-1.5,1.2-1.5c0.1,0,0.2,0.1,0.2,0.2c0,0.1-0.1,0.2-0.1,0.3l-0.4,2
	c-0.1,0.3-0.2,0.4-0.5,0.4h-5.5c-1,0-1.6,0-1.9,0c-0.4,0-0.5,0-0.6,0c-0.2,0-0.4,0-0.4-0.3c0-0.3,0.3-0.3,0.8-0.4
	c0.5-0.1,1.1-0.1,1.1-0.8V125.4z"/>
<path class="st0" d="M68.2,134.7c0,0.7,0.5,0.7,0.9,0.8c0.4,0,0.8,0.1,0.8,0.3c0,0.2-0.2,0.2-0.4,0.2c-0.5,0-1.3-0.1-1.9-0.1
	c-0.6,0-1.2,0.1-1.7,0.1c-0.4,0-0.5,0-0.5-0.2c0-0.3,0.4-0.3,0.7-0.3c0.4-0.1,0.7-0.1,0.7-0.8v-2.3c0-0.4-0.3-0.8-0.7-1.3l-2-2.7
	c-0.7-0.8-1.2-0.6-1.2-0.9c0-0.1,0.1-0.2,0.3-0.2c0.5,0,1.1,0.1,1.6,0.1c0.6,0,1.1-0.1,1.6-0.1c0.2,0,0.3,0.1,0.3,0.2
	c0,0.3-1,0.1-1,0.5c0,0.6,2,3,2.4,3.2c0.2-0.1,2.1-2.6,2.1-3c0-0.5-0.9-0.4-0.9-0.7c0-0.1,0.1-0.2,0.3-0.2c0.2,0,0.5,0.1,1.2,0.1
	c0.8,0,1-0.1,1.3-0.1c0.2,0,0.3,0,0.3,0.2c0,0.3-0.7,0.3-1.5,1.3l-1.6,2c-0.7,0.8-0.9,1.1-0.9,1.7V134.7z"/>
<path class="st0" d="M76.2,130.8c0,0.2,0.1,0.3,0.5,0.3h1.5c0.6,0,0.9,0,1.2-0.3c0.3-0.2,0.4-0.8,0.6-0.8c0.2,0,0.2,0.1,0.2,0.3
	c0,0.2-0.1,0.5-0.1,1.1c0,0.7,0,1.2,0,1.4c0,0.2-0.1,0.2-0.2,0.2c-0.2,0-0.1-0.4-0.4-1.1c-0.2-0.3-0.7-0.4-1.2-0.4h-1.5
	c-0.4,0-0.5,0.1-0.5,0.3v2.8c0,0.5,0.3,0.7,2.1,0.7c1.1,0,1.8-0.2,2.1-0.7c0.4-0.6,0.5-1.1,0.7-1.1c0.1,0,0.2,0.1,0.2,0.2
	c0,0.1-0.2,1-0.3,1.5c-0.1,0.4-0.1,0.6-0.3,0.6c-0.4,0-1.7-0.1-3.6-0.1c-1.7,0-3,0.1-3.5,0.1c-0.3,0-0.4-0.1-0.4-0.2
	c0-0.3,0.4-0.3,0.8-0.3c0.5-0.1,0.8-0.2,0.8-0.8v-5.8c0-0.9-0.2-1.1-0.6-1.1c-0.4,0-0.6-0.1-0.6-0.2c0-0.1,0.1-0.2,0.3-0.2
	c0.5,0,1.4,0.1,3,0.1c1.7,0,2.8-0.1,3.7-0.1c0.5,0,0.5,0.1,0.5,0.4v1.4c0,0.2,0,0.2-0.1,0.2c-0.3,0-0.2-0.6-0.7-0.9
	c-0.5-0.4-1.2-0.6-2.5-0.6c-1.4,0-1.5,0.2-1.5,0.5V130.8z"/>
<path class="st1" d="M85.4,125.1c0,1.1-1.4,2.2-1.8,2.2c-0.1,0-0.2,0-0.2-0.1c0-0.2,1.1-0.8,1.1-1.4c0-0.6-1-0.6-1-1.1
	c0-0.6,0.3-0.8,0.8-0.8C85,123.8,85.4,124.5,85.4,125.1"/>
<path class="st0" d="M87.2,133.6c0-0.3,0.1-0.5,0.3-0.5c0.4,0-0.1,2.5,2.8,2.5c1.4,0,2-0.6,2-1.5c0-2.1-4.6-1.8-4.6-4.8
	c0-1.5,1.2-2.3,3-2.3c1.3,0,2.1,0.5,2.1,0.7c0,0.3,0.1,1,0.1,1.4c0,0.2-0.1,0.4-0.2,0.4c-0.2,0-0.2-0.3-0.4-0.9
	c-0.3-0.4-0.7-1.1-2-1.1c-0.9,0-1.5,0.4-1.5,1.4c0,1.9,4.7,1.7,4.7,4.6c0,1.7-1.3,2.7-3.2,2.7c-1.8,0-3.1-0.4-3.1-1V133.6z"/>
<rect x="53.9" y="24.3" class="st2" width="29.5" height="29.5"/>
<path class="st3" d="M53.8,107.6C24.1,107.6,0,83.5,0,53.8C0,24.2,24.1,0,53.8,0c29.6,0,53.8,24.2,53.8,53.8
	C107.6,83.5,83.4,107.6,53.8,107.6 M53.8,4.2C26.4,4.2,4.2,26.5,4.2,53.8c0,27.4,22.3,49.7,49.7,49.7c27.3,0,49.6-22.3,49.6-49.7
	C103.4,26.5,81.2,4.2,53.8,4.2"/>
<path class="st3" d="M22.1,85.5h63.4V22.1H22.1V85.5z M81.3,51.8H55.9V26.3h25.4V51.8z M51.7,51.8H26.3V26.3h25.5V51.8z M26.3,56
	h25.5v25.4H26.3V56z M55.9,56h25.4v25.4H55.9V56z"/>
<path class="st4" d="M16.3,151.9v-1h8.4c0.1,0,0.5-0.2,0.8-0.4l0.9,1.1c-0.3,0.3-0.4,0.3-0.5,0.5c-1.3,2.6-1.5,2.9-1.9,3.5
	c-1.8,2.2-3.2,2.7-4.8,3.2l-0.9-0.9c1.3-0.3,2.6-0.7,4.2-2.3c1.4-1.4,1.8-2.7,2.1-3.6H16.3z M24.7,148.8h-6.8v-1h6.8V148.8z"/>
<path class="st4" d="M33.7,158.6v-6.9c-1.7,1.2-2.7,1.7-3.9,2.3l-1-0.9c1.2-0.4,2.5-0.8,4.7-2.4c2-1.5,3-2.6,3.7-3.4l1,0.8
	c0.1,0,0.2,0.1,0.2,0.3c0,0.1,0,0.1-0.2,0.1c-0.1,0-0.2,0-0.3,0c-1.2,1.1-1.6,1.5-2.9,2.5v7.8H33.7z"/>
<path class="st4" d="M41.2,149.6v-1h8c0.1,0,0.4-0.1,0.6-0.3l1.1,0.9c-0.4,0.4-0.4,0.5-0.5,0.7c-1.1,3.8-2,5.2-3.9,6.7
	c-1,0.8-1.9,1.2-3.2,1.8l-1-1c1.2-0.4,2.7-0.9,4.3-2.4c1.9-1.8,2.3-3.7,2.6-5.4H41.2z"/>
<path class="st4" d="M53.8,149.4v-1h10c0.1,0,0.3-0.1,0.5-0.3l0.8,0.8c-1.1,1.8-2.3,3.5-3.9,5l-0.8-0.7c0.3-0.3,0.8-0.7,1.6-1.7
	c0.9-1.1,1.1-1.5,1.4-2.1H53.8z M55,157.6c1.2-0.7,2.2-1.4,2.9-3.4c0.6-1.6,0.6-3,0.7-4.2l1.2,0.2c0.1,0,0.2,0.1,0.2,0.2
	c0,0.1,0,0.1-0.3,0.3c-0.2,2.1-0.4,3.5-1.4,5.3c-0.6,1-1.1,1.5-2.3,2.3L55,157.6z"/>
<path class="st4" d="M72.7,158.6v-6.9c-1.7,1.2-2.7,1.7-3.9,2.3l-1-0.9c1.2-0.4,2.5-0.8,4.7-2.4c2-1.5,3-2.6,3.7-3.4l1,0.8
	c0.1,0,0.2,0.1,0.2,0.3c0,0.1,0,0.1-0.2,0.1c-0.1,0-0.2,0-0.3,0c-1.2,1.1-1.6,1.5-2.9,2.5v7.8H72.7z"/>
<path class="st4" d="M88.9,149.1c-0.6,0.4-0.6,0.4-0.8,0.6c-1.1,2.3-1.3,2.7-1.9,3.5c1.9,1.5,2.9,2.7,3.8,4l-1,0.8
	c-1-1.6-2.1-2.9-3.6-3.9c-2.4,2.6-4.1,3.3-5.1,3.8l-0.8-1c1.2-0.4,2.7-0.9,4.5-2.8c1.8-1.9,2.4-3.4,2.9-4.7h-5.9v-1h6.4
	c0.2,0,0.5-0.2,0.6-0.3L88.9,149.1z M90,148.2c0.6,0.5,1.1,1.1,1.2,1.3l-0.6,0.6c-0.3-0.5-0.9-1-1.2-1.4L90,148.2z M90.9,146.5
	c0.4,0.3,0.8,0.8,1.3,1.3l-0.6,0.6c-0.2-0.3-0.6-0.9-1.3-1.4L90.9,146.5z"/>
</svg>
