<?xml version="1.0" encoding="utf-8"?>
<!-- Generator: Adobe Illustrator 25.0.0, SVG Export Plug-In . SVG Version: 6.00 Build 0)  -->
<svg version="1.1" id="レイヤー_1" xmlns="http://www.w3.org/2000/svg" xmlns:xlink="http://www.w3.org/1999/xlink" x="0px"
	 y="0px" width="107.6px" height="159.2px" viewBox="0 0 107.6 159.2" style="enable-background:new 0 0 107.6 159.2;"
	 xml:space="preserve">
<style type="text/css">
	.st0{fill:#5D6970;}
	.st1{fill:#898989;}
	.st2{fill:#0069A0;}
	.st3{fill:#221815;}
</style>
<path class="st0" d="M11,123.7c0.3,0,1.2,0,1.9,0.2c1.7,0.3,1.7,0.4,1.7,2c0,0.2,0,0.2-0.1,0.2c-0.6,0-0.9-1.9-3.5-1.9
	c-2.4,0-4.8,2.3-4.8,5.9c0,2.7,1.6,5.4,4.7,5.4c1.7,0,2.4-0.8,2.9-1.3c0.5-0.5,0.7-0.9,0.8-0.9c0.1,0,0.2,0.1,0.2,0.2
	c0,1-0.3,1.6-0.4,1.8c-0.1,0.3-1.7,0.9-3.4,0.9c-3.6,0-6.9-2.2-6.9-6.1C4.1,126.9,6.3,123.7,11,123.7"/>
<path class="st0" d="M17.4,128.3c0-0.5-0.2-0.6-0.9-0.6c-0.2,0-0.3-0.1-0.3-0.2c0-0.2,0.1-0.3,0.3-0.3c0.6,0,1.1,0.1,1.7,0.1
	c0.6,0,1.1-0.1,1.5-0.1c0.2,0,0.4,0,0.4,0.2c0,0.2-0.2,0.2-0.6,0.3c-0.4,0-0.6,0.1-0.6,0.6v2.5c0,0.2,0.1,0.3,0.3,0.3h4.4
	c0.2,0,0.3-0.1,0.3-0.3v-2.7c0-0.4-0.2-0.4-0.7-0.4c-0.4,0-0.5-0.1-0.5-0.2c0-0.2,0.1-0.2,0.2-0.2c0.6,0,1.2,0.1,1.8,0.1
	c0.6,0,1.1-0.1,1.7-0.1c0.1,0,0.2,0.1,0.2,0.2c0,0.2-0.3,0.2-0.7,0.3c-0.4,0-0.7,0.1-0.7,0.6v6.5c0,0.6,0.2,0.7,0.5,0.7
	c0.4,0,0.8,0,0.8,0.3c0,0.1,0,0.3-0.2,0.3c-0.6,0-1.2-0.1-1.8-0.1c-0.6,0-1.3,0.1-1.9,0.1c-0.2,0-0.3-0.1-0.3-0.2
	c0-0.3,0.4-0.3,0.7-0.3c0.4,0,0.7-0.1,0.7-0.7v-2.6c0-0.3-0.1-0.3-0.3-0.3h-4.4c-0.2,0-0.3,0-0.3,0.3v2.6c0,0.5,0.2,0.7,0.6,0.7
	c0.6,0,0.7,0.1,0.7,0.3c0,0.2-0.1,0.2-0.3,0.2c-0.6,0-1.2-0.1-1.8-0.1c-0.6,0-1.3,0.1-1.9,0.1c-0.2,0-0.2-0.1-0.2-0.2
	c0-0.3,0.4-0.3,0.8-0.3c0.3-0.1,0.7-0.2,0.7-0.7V128.3z"/>
<path class="st0" d="M30.9,130.8c0,0.2,0.1,0.3,0.5,0.3h1.4c0.6,0,0.9,0,1.3-0.3c0.3-0.2,0.4-0.8,0.5-0.8c0.2,0,0.2,0.1,0.2,0.3
	c0,0.2-0.1,0.5-0.1,1.1c0,0.7,0,1.1,0,1.4c0,0.2,0,0.2-0.2,0.2c-0.2,0-0.1-0.5-0.4-1.1c-0.2-0.3-0.8-0.5-1.3-0.5h-1.5
	c-0.3,0-0.5,0.1-0.5,0.3v2.8c0,0.5,0.4,0.7,2.1,0.7c1.2,0,1.8-0.2,2.2-0.7c0.4-0.6,0.5-1.1,0.7-1.1c0.2,0,0.2,0.1,0.2,0.2
	c0,0.1-0.2,1-0.3,1.5c-0.1,0.4-0.1,0.6-0.3,0.6c-0.4,0-1.7-0.1-3.7-0.1c-1.6,0-2.9,0.1-3.4,0.1c-0.2,0-0.3-0.1-0.3-0.2
	c0-0.3,0.4-0.3,0.7-0.3c0.5-0.1,0.8-0.2,0.8-0.8v-5.8c0-0.9-0.2-1.1-0.6-1.1c-0.4,0-0.6-0.1-0.6-0.2c0-0.1,0.1-0.2,0.3-0.2
	c0.5,0,1.4,0.1,3,0.1c1.7,0,2.8-0.1,3.7-0.1c0.5,0,0.5,0.1,0.5,0.4v1.4c0,0.2,0,0.3-0.1,0.3c-0.3,0-0.2-0.6-0.7-1
	c-0.5-0.4-1.2-0.6-2.5-0.6c-1.4,0-1.5,0.2-1.5,0.6V130.8z"/>
<path class="st0" d="M43,127c1.4,0,2.7,0.5,2.7,0.7c0.1,0.5,0.1,0.8,0.1,1c0,0.2-0.1,0.2-0.2,0.2c-0.3,0-0.7-1.5-2.6-1.5
	c-2.2,0-3.9,1.7-3.9,4.1c0,2.4,1.3,4.1,3.4,4.2c2.6,0,2.9-1.9,3.2-1.9c0.2,0,0.2,0.2,0.2,0.8c0,0.9-1.7,1.5-3.3,1.5
	c-3,0-5.2-1.9-5.2-4.5C37.4,128.9,39.3,127,43,127"/>
<path class="st0" d="M50.1,130.9c0,0.2,0,0.2,0.1,0.2c0,0,0.2-0.1,0.3-0.2l2.7-2.2c0.3-0.3,0.7-0.6,0.7-0.8c0-0.2-0.2-0.2-0.4-0.2
	c-0.3,0-0.7,0-0.7-0.2c0-0.1,0.1-0.3,0.4-0.3c0.4,0,0.8,0.1,1.5,0.1c0.8,0,1.2-0.1,1.5-0.1c0.2,0,0.3,0.1,0.3,0.2
	c0,0.2-0.2,0.2-0.5,0.2c-0.4,0.1-0.8,0.3-1,0.5l-3.3,2.4c-0.1,0.1-0.1,0.1-0.1,0.2c0,0.1,0.1,0.1,0.1,0.2l3.7,3.5
	c1.1,1,1.7,1.1,1.7,1.3c0,0.2-0.2,0.2-0.4,0.2c-0.4,0-0.9-0.1-1.6-0.1c-1,0-1.4,0.1-1.7,0.1c-0.2,0-0.2-0.1-0.2-0.2
	c0-0.5,0.9-0.1,0.9-0.5c0-0.2-0.2-0.4-0.8-0.9l-2.7-2.5c-0.1-0.1-0.2-0.2-0.3-0.2c-0.1,0-0.2,0.1-0.2,0.2v2.6c0,1,0.3,1,0.8,1
	c0.4,0,0.5,0.1,0.5,0.3c0,0.2-0.1,0.2-0.4,0.2c-0.5,0-1-0.1-1.6-0.1c-0.7,0-1.3,0.1-1.8,0.1c-0.2,0-0.3-0.1-0.3-0.2
	c0-0.2,0.1-0.3,0.6-0.3c0.6,0,0.7-0.3,0.7-0.7v-6.3c0-0.5-0.2-0.7-0.7-0.7c-0.4,0-0.5-0.1-0.5-0.2c0-0.2,0.1-0.3,0.4-0.3
	c0.3,0,0.7,0.1,1.7,0.1c0.9,0,1.2-0.1,1.5-0.1c0.2,0,0.3,0.1,0.3,0.2c0,0.2-0.2,0.3-0.6,0.3c-0.4,0-0.5,0.2-0.5,0.7V130.9z"/>
<path class="st0" d="M64.5,125.4c0-0.5-0.2-0.6-1-0.8c-0.6-0.1-0.9-0.2-0.9-0.4c0-0.2,0.3-0.2,0.6-0.2c0.7,0,2.3,0.1,2.8,0.1
	c0.6,0,3.3-0.1,5-0.1c0.3,0,0.3,0.2,0.3,0.6v1.9c0,0.1-0.1,0.1-0.1,0.1c-0.2,0-0.2-0.2-0.5-0.8c-0.3-0.7-0.4-1-3.7-1
	c-0.7,0-0.8,0.3-0.8,0.9v3.3c0,0.4,0.3,0.4,1,0.4h1.7c1.4,0,1-1.7,1.5-1.7c0.3,0,0.3,0.2,0.3,0.4c0,0.4-0.1,0.7-0.1,1.6
	c0,0.8,0.1,1.3,0.1,1.9c0,0.2,0,0.3-0.2,0.3c-0.3,0-0.3-0.3-0.4-0.9c-0.2-1-0.3-1.2-2.7-1.2c-0.9,0-1.1,0.1-1.1,0.5v3.8
	c0,0.9,0.1,1,2.4,1c1.3,0,1.7-0.2,2.2-0.7c0.9-1.1,0.8-1.5,1.1-1.5c0.2,0,0.2,0.1,0.2,0.2c0,0.1-0.1,0.2-0.1,0.3l-0.3,2
	c-0.1,0.3-0.2,0.4-0.5,0.4h-5.5c-1.1,0-1.7,0-2,0c-0.4,0-0.4,0-0.5,0c-0.2,0-0.5,0-0.5-0.2c0-0.3,0.4-0.3,0.8-0.4
	c0.5-0.1,1.1-0.1,1.1-0.9V125.4z"/>
<path class="st0" d="M78.2,134.6c0,0.7,0.5,0.7,0.8,0.8c0.4,0,0.8,0,0.8,0.3c0,0.2-0.2,0.2-0.5,0.2c-0.4,0-1.3-0.1-1.8-0.1
	c-0.6,0-1.3,0.1-1.7,0.1c-0.4,0-0.5,0-0.5-0.2c0-0.3,0.4-0.3,0.8-0.3c0.4-0.1,0.7-0.1,0.7-0.8v-2.3c0-0.4-0.3-0.8-0.7-1.3l-2-2.7
	c-0.7-0.9-1.2-0.6-1.2-0.9c0-0.1,0.1-0.2,0.3-0.2c0.5,0,1.1,0.1,1.6,0.1c0.5,0,1.1-0.1,1.6-0.1c0.2,0,0.3,0.1,0.3,0.2
	c0,0.4-1,0.1-1,0.5c0,0.6,2.1,3,2.4,3.3c0.1-0.1,2.1-2.6,2.1-3.1s-1-0.3-1-0.7c0-0.1,0.1-0.2,0.3-0.2c0.3,0,0.6,0.1,1.2,0.1
	c0.7,0,1-0.1,1.2-0.1c0.2,0,0.3,0,0.3,0.2c0,0.2-0.7,0.3-1.5,1.3l-1.7,2c-0.7,0.8-1,1.1-1,1.7V134.6z"/>
<path class="st0" d="M86.2,130.8c0,0.2,0.1,0.3,0.5,0.3h1.4c0.6,0,0.9,0,1.2-0.3c0.3-0.2,0.4-0.8,0.6-0.8c0.2,0,0.2,0.1,0.2,0.3
	c0,0.2,0,0.5-0.1,1.1c0,0.7,0,1.1,0,1.4c0,0.2-0.1,0.2-0.2,0.2c-0.2,0-0.1-0.5-0.5-1.1c-0.2-0.3-0.8-0.5-1.3-0.5h-1.5
	c-0.4,0-0.5,0.1-0.5,0.3v2.8c0,0.5,0.4,0.7,2.1,0.7c1.1,0,1.9-0.2,2.1-0.7c0.4-0.6,0.5-1.1,0.7-1.1c0.1,0,0.2,0.1,0.2,0.2
	c0,0.1-0.2,1-0.3,1.5c-0.1,0.4-0.1,0.6-0.3,0.6c-0.4,0-1.7-0.1-3.6-0.1c-1.7,0-3,0.1-3.5,0.1c-0.2,0-0.3-0.1-0.3-0.2
	c0-0.3,0.4-0.3,0.8-0.3c0.4-0.1,0.7-0.2,0.7-0.8v-5.8c0-0.9-0.1-1.1-0.6-1.1c-0.4,0-0.6-0.1-0.6-0.2c0-0.1,0.1-0.2,0.3-0.2
	c0.5,0,1.3,0.1,3,0.1c1.6,0,2.8-0.1,3.7-0.1c0.4,0,0.5,0.1,0.5,0.4v1.4c0,0.2,0,0.3-0.1,0.3c-0.3,0-0.2-0.6-0.6-1
	c-0.5-0.4-1.2-0.6-2.6-0.6c-1.4,0-1.4,0.2-1.4,0.6V130.8z"/>
<path class="st1" d="M95.4,125.1c0,1.1-1.4,2.2-1.8,2.2c-0.1,0-0.2,0-0.2-0.1c0-0.2,1.1-0.8,1.1-1.4c0-0.6-0.9-0.6-0.9-1.2
	c0-0.6,0.3-0.8,0.8-0.8C95,123.7,95.4,124.4,95.4,125.1"/>
<path class="st0" d="M97.2,133.6c0-0.4,0.1-0.5,0.3-0.5c0.4,0-0.1,2.5,2.8,2.5c1.4,0,2-0.6,2-1.5c0-2.1-4.7-1.8-4.7-4.9
	c0-1.5,1.3-2.3,3-2.3c1.3,0,2.2,0.5,2.2,0.7c0,0.3,0.1,1,0.1,1.4c0,0.2-0.1,0.4-0.2,0.4c-0.2,0-0.2-0.3-0.5-0.9
	c-0.3-0.4-0.8-1.1-2-1.1c-0.9,0-1.5,0.4-1.5,1.4c0,1.9,4.7,1.7,4.7,4.6c0,1.7-1.3,2.7-3.2,2.7c-1.8,0-3-0.4-3-1.1V133.6z"/>
<path class="st2" d="M53.8,0C24.1,0,0,24.1,0,53.8c0,29.7,24.1,53.8,53.8,53.8c29.7,0,53.8-24.2,53.8-53.8C107.6,24.1,83.5,0,53.8,0
	 M53.8,103.4c-27.4,0-49.7-22.3-49.7-49.6c0-9.4,2.6-18.2,7.2-25.7c2.9,0.3,10.6,1.1,17.9,4.7C22.2,38.4,17,46.8,17,58.2
	c0,6.8,1.7,12.6,4.9,16.7c3,3.9,7,6,11.4,6c7.9,0,16.4-7.2,16.4-22.9c0-11.7-5.3-19.9-12.7-25.4c5.4-3,11.4-4.4,16.5-4.4
	c4.8,0,10.5,1.3,15.7,4c-6.8,5.4-12,14-12,25.7c0,15.7,8.5,22.9,16.4,22.9c7.8,0,16.2-7.1,16.2-22.7c0-11.8-5.6-20.5-12.9-26.1
	c2.2-1.1,4.4-2,6.7-2.6v2.8l12-5.3l-12-5.4l0,3.6c-3.5,0.8-7.1,2.1-10.6,4.2c-6.4-3.7-13.6-5.6-19.6-5.6c-6.2,0-13.8,2-20.4,6
	c-5.8-3.3-12.5-5.2-19-6C23,12,37.5,4.2,53.8,4.2c27.4,0,49.6,22.3,49.6,49.6C103.4,81.2,81.2,103.4,53.8,103.4 M33.2,35
	c6.7,4.4,12.3,11.5,12.3,23c0,12.9-6.3,18.8-12.2,18.8c-5.8,0-12-5.8-12-18.5C21.2,47.6,26.4,39.9,33.2,35 M73,34.6
	c7.1,4.9,12.6,12.8,12.6,23.7c0,12.7-6.3,18.5-12,18.5c-5.9,0-12.2-5.9-12.2-18.8C61.3,47.1,66.5,39.3,73,34.6"/>
<path class="st2" d="M73.8,66.4c3.2,0,5.8-3.9,5.8-8.6c0-4.8-2.6-8.6-5.8-8.6c-3.3,0-5.8,3.9-5.8,8.6C68,62.5,70.6,66.4,73.8,66.4"
	/>
<path class="st2" d="M33.2,66.4c3.3,0,5.9-3.9,5.9-8.6c0-4.8-2.6-8.6-5.9-8.6c-3.2,0-5.8,3.9-5.8,8.6C27.3,62.5,29.9,66.4,33.2,66.4
	"/>
<path class="st3" d="M21.5,151.8v1h-4.5c-0.2,1.1-0.4,2.3-1.3,3.5c-0.9,1.2-1.9,1.7-2.9,2.2l-1.2-0.9c1.1-0.3,2.1-0.7,3-1.7
	c0.9-1,1.1-2.1,1.2-3.1h-5.3v-1h5.4c0-0.3,0-0.6,0-1.2c0-0.6,0-0.9,0-1.3c-1.8,0.4-2.6,0.6-3.8,0.7l-0.6-1.1c1.1,0,2.1,0,4-0.6
	c1.7-0.4,2.5-0.9,3.1-1.1l0.8,0.7c0,0,0.2,0.1,0.2,0.2c0,0.1-0.1,0.1-0.2,0.1c-0.1,0-0.2,0-0.4,0c-1,0.4-1.2,0.4-2.1,0.7
	c0,0.4,0,0.8,0,1.5c0,0.6,0,1,0,1.3H21.5z"/>
<polygon class="st3" points="32.9,158.3 24.3,158.3 24.3,157.5 28.2,157.5 28.2,152.4 25.2,152.4 25.2,151.5 32.1,151.5 32.1,152.4 
	29.1,152.4 29.1,157.5 32.9,157.5 "/>
<path class="st3" d="M36.6,151.8c0.2,0.4,0.7,1.2,1,2l-0.8,0.4c-0.3-0.9-0.7-1.6-1-2L36.6,151.8z M37.6,158.5
	c1.2-0.4,2.5-0.9,3.8-2.7c1.2-1.7,1.4-3.3,1.6-4.6l0.7,0.3c0.3,0.1,0.4,0.2,0.4,0.2c0,0.1,0,0.1-0.3,0.2c-0.4,1.4-0.9,3.1-1.7,4.3
	c-1.2,1.7-2.5,2.4-3.6,2.9L37.6,158.5z M39.3,151.1c0.3,0.4,0.7,1.2,1,2l-0.8,0.3c-0.3-0.9-0.8-1.7-1-2L39.3,151.1z"/>
<path class="st3" d="M55.4,149c0.2,0,0.3,0,0.5-0.1l0.7,0.8c-0.6,0.5-0.6,0.6-0.7,0.9c-1.2,3.1-1.9,4.4-3.6,6
	c-1,0.9-1.7,1.4-2.9,2.1l-1-0.9c1.3-0.6,2.7-1.3,4.3-3.3c1.5-1.9,1.8-3.4,2.1-4.6h-4.3c-0.6,0.9-1.3,1.7-2.8,3l-0.9-0.7
	c0.8-0.6,1.6-1.2,2.6-2.6c0.9-1.2,1.1-1.9,1.3-2.5l1,0.4c0.3,0.1,0.3,0.2,0.3,0.3c0,0.1-0.2,0.2-0.5,0.2c-0.1,0.3-0.3,0.6-0.5,1
	H55.4z"/>
<path class="st3" d="M59.6,149.4v-1h10c0.1,0,0.3-0.1,0.5-0.3l0.8,0.8c-1.1,1.8-2.3,3.5-3.9,5l-0.8-0.7c0.3-0.3,0.8-0.7,1.6-1.7
	c0.9-1.1,1.1-1.5,1.4-2.1H59.6z M60.8,157.5c1.2-0.7,2.2-1.4,2.9-3.4c0.6-1.6,0.6-3,0.7-4.2l1.2,0.2c0.1,0,0.2,0.1,0.2,0.2
	c0,0.1,0,0.1-0.3,0.3c-0.2,2.1-0.4,3.5-1.4,5.3c-0.6,1-1.1,1.5-2.3,2.3L60.8,157.5z"/>
<path class="st3" d="M78.4,158.6v-6.9c-1.7,1.2-2.7,1.7-3.9,2.3l-1-0.9c1.2-0.4,2.5-0.8,4.7-2.4c2-1.5,3-2.6,3.7-3.4l1,0.8
	c0.1,0,0.2,0.1,0.2,0.3c0,0.1,0,0.1-0.2,0.1c-0.1,0-0.2,0-0.3,0c-1.2,1.1-1.6,1.5-2.9,2.5v7.8H78.4z"/>
<path class="st3" d="M94.7,149c-0.6,0.4-0.6,0.4-0.8,0.6c-1.1,2.3-1.3,2.7-1.9,3.5c1.9,1.5,2.9,2.7,3.8,4l-1,0.8
	c-1-1.6-2.1-2.9-3.6-3.9c-2.4,2.6-4.1,3.3-5.1,3.8l-0.8-1c1.2-0.4,2.7-0.9,4.5-2.8c1.8-1.9,2.4-3.4,2.9-4.7h-5.9v-1h6.4
	c0.2,0,0.5-0.2,0.6-0.3L94.7,149z M95.8,148.2c0.6,0.5,1.1,1.1,1.2,1.3l-0.6,0.6c-0.3-0.5-0.9-1-1.2-1.4L95.8,148.2z M96.7,146.4
	c0.4,0.3,0.8,0.8,1.3,1.3l-0.6,0.6c-0.2-0.3-0.6-0.9-1.3-1.4L96.7,146.4z"/>
</svg>
