<?xml version="1.0" encoding="utf-8"?>
<!-- Generator: Adobe Illustrator 25.0.0, SVG Export Plug-In . SVG Version: 6.00 Build 0)  -->
<svg version="1.1" id="レイヤー_1" xmlns="http://www.w3.org/2000/svg" xmlns:xlink="http://www.w3.org/1999/xlink" x="0px"
	 y="0px" width="225.8px" height="79.2px" viewBox="0 0 225.8 79.2" style="enable-background:new 0 0 225.8 79.2;"
	 xml:space="preserve">
<style type="text/css">
	.st0{fill:#221815;}
	.st1{fill:#D2111B;}
</style>
<path class="st0" d="M186.8,23.8c-0.5,1.3-1.4,2.7-4.6,2.7l-2.2,0V7.7l2.2,0c3.2,0,4.1,1.4,4.6,2.7c0.5,1.3,0.5,2.9,0.5,6.7
	C187.3,20.9,187.3,22.5,186.8,23.8 M182.5,2.9h-7.5v28.4h7.5c4.5,0,7.3-1.5,8.6-4.4c1.1-2.4,1.4-4.2,1.4-9.8c0-5.6-0.3-7.4-1.4-9.8
	C189.7,4.4,186.9,2.9,182.5,2.9 M162.6,24.5c-0.3,1.9-1.8,2.8-3.7,2.8c-1.9,0-3.4-0.9-3.7-2.8c-0.1-0.9-0.2-3.7-0.2-7.4
	c0-3.7,0-6.5,0.2-7.4c0.3-1.9,1.8-2.8,3.7-2.8c1.9,0,3.4,0.9,3.7,2.8c0.2,0.9,0.2,3.7,0.2,7.4C162.8,20.8,162.7,23.6,162.6,24.5
	 M158.9,2c-5.9,0-8.3,3.5-8.9,6.9c-0.3,1.6-0.2,4.6-0.2,8.2c0,3.6,0,6.6,0.2,8.2c0.5,3.4,2.9,6.9,8.9,6.9c5.9,0,8.3-3.5,8.9-6.9
	c0.3-1.6,0.2-4.6,0.2-8.2c0-3.6,0-6.6-0.2-8.2C167.2,5.5,164.8,2,158.9,2 M137.8,24.5c-0.3,1.9-1.8,2.8-3.7,2.8
	c-1.9,0-3.4-0.8-3.7-2.8c-0.2-0.9-0.2-3.7-0.2-7.4c0-3.7,0-6.5,0.2-7.4c0.3-1.9,1.8-2.8,3.7-2.8c1.9,0,3.4,0.9,3.7,2.8
	c0.1,0.9,0.2,3.7,0.2,7.4C138,20.8,138,23.6,137.8,24.5 M134.2,2c-5.9,0-8.3,3.5-8.9,6.9c-0.3,1.6-0.2,4.6-0.2,8.2
	c0,3.6,0,6.6,0.2,8.2c0.5,3.4,2.9,6.9,8.9,6.9c5.9,0,8.3-3.5,8.9-6.9c0.3-1.6,0.2-4.6,0.2-8.2c0-3.6,0-6.6-0.2-8.2
	C142.5,5.5,140.1,2,134.2,2 M109.7,20.6h3.6c0,1.9,0,3.3-0.1,3.9c-0.3,2-1.6,2.8-3.5,2.8c-1.9,0-3.3-0.8-3.6-2.8
	c-0.2-0.9-0.2-3.7-0.2-7.4c0-3.7,0-6.5,0.2-7.4c0.3-1.9,1.6-2.8,3.5-2.8c1.8,0,3.1,0.9,3.4,2.8c0.1,0.4,0.1,1.4,0.1,2.3h5.1
	c0-1-0.1-2.4-0.2-3.2c-0.5-3.3-2.6-6.9-8.4-6.9c-5.9,0-8.2,3.5-8.7,6.9c-0.3,1.6-0.2,4.6-0.2,8.2c0,3.6,0,6.6,0.2,8.2
	c0.5,3.4,3.1,6.9,8.3,6.9c2.5,0,4.4-1,5.6-2.9l0.7,1.9h2.7V20.6v-4.5h-8.6V20.6z"/>
<path class="st0" d="M151.8,54.8c0-2,1.5-3.1,3.4-3.1c1.9,0,3.6,1.1,3.6,3.9h4.9c-0.1-6.3-4.4-8.6-8.5-8.6c-4.3,0-8.6,2.7-8.6,7.8
	c0,8.2,12.3,8.5,12.3,14.3c0,2.1-1.6,3.3-3.8,3.3c-2.2,0-4-1.5-4.3-4.4h-5c0.2,6.5,4.9,9.3,9.3,9.3c4.4,0,9-2.3,9-8.2
	C164.1,60.2,151.8,59.7,151.8,54.8 M113.3,68.8c-0.5,1.3-1.4,2.7-4.6,2.7l-2.2,0V52.7l2.2,0c3.2,0,4.1,1.4,4.6,2.7
	c0.5,1.3,0.5,2.9,0.5,6.7C113.8,65.9,113.8,67.5,113.3,68.8 M109,47.9h-7.5v28.4h7.5c4.5,0,7.3-1.5,8.6-4.4c1.1-2.4,1.4-4.2,1.4-9.8
	c0-5.6-0.3-7.4-1.4-9.8C116.2,49.4,113.4,47.9,109,47.9 M220.8,47.9v18l-7-18h-6v28.4h5V56.8l7.8,19.5h5.3V47.9H220.8z M170.6,76.3
	h5.3V47.9h-5.3V76.3z M130.7,64.4h8.6v-4.8h-8.6v-6.9h9.7v-4.8h-14.8v28.4h15.1v-4.8h-10V64.4z M192,65.6h3.6c0,1.9,0,3.3-0.1,3.9
	c-0.3,2-1.6,2.8-3.5,2.8c-1.9,0-3.3-0.9-3.6-2.8c-0.1-0.9-0.2-3.7-0.2-7.4c0-3.7,0-6.5,0.2-7.4c0.3-1.9,1.6-2.8,3.5-2.8
	c1.8,0,3.1,0.9,3.4,2.8c0.1,0.4,0.1,1.4,0.1,2.3h5.1c0-1-0.1-2.4-0.2-3.2c-0.5-3.3-2.6-6.9-8.4-6.9c-5.9,0-8.2,3.5-8.7,6.9
	c-0.3,1.6-0.2,4.6-0.2,8.2c0,3.6,0,6.6,0.2,8.2c0.5,3.4,3.1,6.9,8.3,6.9c2.5,0,4.4-1,5.6-2.9l0.7,1.9h2.7V65.6h0v-4.5H192V65.6z"/>
<path class="st1" d="M0,39.6L39.6,0C17.7,0,0,17.7,0,39.6"/>
<path class="st1" d="M39.6,79.2L0,39.6C0,61.5,17.7,79.2,39.6,79.2"/>
<path class="st1" d="M19.8,39.6l19.8,19.8l19.8-19.8l-5-4.9l-9.9,9.9l-9.9-9.9l19.8-19.8l24.8,24.8C79.2,17.7,61.5,0,39.6,0l9.9,9.9
	L19.8,39.6z"/>
<path class="st1" d="M39.6,79.2c21.9,0,39.6-17.7,39.6-39.6L39.6,79.2z"/>
</svg>
