<?xml version="1.0" encoding="utf-8"?>
<!-- Generator: Adobe Illustrator 25.0.0, SVG Export Plug-In . SVG Version: 6.00 Build 0)  -->
<svg version="1.1" id="レイヤー_1" xmlns="http://www.w3.org/2000/svg" xmlns:xlink="http://www.w3.org/1999/xlink" x="0px"
	 y="0px" width="141.2px" height="159.2px" viewBox="0 0 141.2 159.2" style="enable-background:new 0 0 141.2 159.2;"
	 xml:space="preserve">
<style type="text/css">
	.st0{fill:#5D6970;}
	.st1{fill:#898989;}
	.st2{fill:#B94645;}
	.st3{fill:#221815;}
</style>
<path class="st0" d="M6.9,123.8c0.3,0,1.2,0.1,1.9,0.2c1.7,0.3,1.7,0.4,1.7,2c0,0.2,0,0.2-0.1,0.2c-0.6,0-0.9-1.8-3.4-1.8
	c-2.4,0-4.8,2.3-4.8,5.9c0,2.7,1.6,5.4,4.7,5.4c1.7,0,2.4-0.8,2.9-1.3c0.4-0.6,0.6-0.9,0.8-0.9c0.1,0,0.2,0.1,0.2,0.2
	c0,1-0.3,1.6-0.4,1.8c-0.1,0.3-1.7,0.9-3.4,0.9c-3.6,0-6.9-2.2-6.9-6.1C0,127,2.2,123.8,6.9,123.8"/>
<path class="st0" d="M16.7,127c2.7,0,4.7,2,4.7,4.6c0,2.6-2,4.5-4.9,4.5c-2.8,0-4.8-1.9-4.8-4.5C11.8,129,13.8,127,16.7,127
	 M16.6,135.7c2.2,0,3.2-1.5,3.2-4c0-2.7-1.4-4.1-3.1-4.1c-1.8,0-3.2,1.4-3.2,4.1C13.5,134.2,14.6,135.7,16.6,135.7"/>
<path class="st0" d="M28.6,133.2c0.1,0.1,0.1,0.2,0.2,0.2c0,0,0.1,0,0.1-0.2l2.7-5.3c0.2-0.4,0.4-0.7,0.7-0.7c0.6,0,1.3,0,1.9,0
	c0.3,0,0.4,0,0.4,0.3c0,0.2-0.3,0.2-0.8,0.2c-0.4,0-0.7,0-0.7,0.7v6.5c0,0.3,0.3,0.4,0.7,0.5c0.4,0,0.9,0,0.9,0.3
	c0,0.1-0.1,0.2-0.4,0.2c-0.6,0-1.2-0.1-1.7-0.1c-0.7,0-1.3,0.1-1.8,0.1c-0.3,0-0.4,0-0.4-0.2c0-0.2,0.3-0.3,0.7-0.3
	c0.4-0.1,0.7-0.2,0.7-0.6v-5.3c0-0.2-0.1-0.4-0.1-0.4c-0.1,0-0.1,0.1-0.2,0.3l-2.9,5.9c0,0.1-0.1,0.2-0.2,0.2
	c-0.1,0-0.1-0.1-0.2-0.2l-3-5.7c-0.1-0.3-0.2-0.5-0.3-0.5c-0.1,0-0.1,0.2-0.1,0.5v5.2c0,0.4,0.4,0.5,0.8,0.5
	c0.6,0.1,0.8,0.1,0.8,0.3c0,0.1-0.1,0.2-0.2,0.2c-0.4,0-1-0.1-1.7-0.1c-0.8,0-1.3,0.1-1.7,0.1c-0.2,0-0.2,0-0.2-0.2
	c0-0.3,0.4-0.3,0.8-0.3c0.4,0,0.7-0.2,0.8-0.8l0.3-4.6c0.1-1,0.1-1.4,0.1-1.8c0-0.4-0.3-0.5-0.9-0.6c-0.5,0-0.6-0.1-0.6-0.3
	c0-0.1,0.1-0.2,0.4-0.2c0.3,0,0.8,0.1,2.1,0.1c0.1,0,0.2,0.1,0.3,0.2L28.6,133.2z"/>
<path class="st0" d="M41.5,133.2c0.1,0.1,0.1,0.2,0.2,0.2c0,0,0.1,0,0.1-0.2l2.7-5.3c0.2-0.4,0.4-0.7,0.7-0.7c0.6,0,1.3,0,1.9,0
	c0.2,0,0.4,0,0.4,0.3c0,0.2-0.3,0.2-0.8,0.2c-0.4,0-0.7,0-0.7,0.7v6.5c0,0.3,0.3,0.4,0.7,0.5c0.4,0,0.9,0,0.9,0.3
	c0,0.1-0.1,0.2-0.4,0.2c-0.6,0-1.2-0.1-1.8-0.1c-0.7,0-1.3,0.1-1.8,0.1c-0.3,0-0.4,0-0.4-0.2c0-0.2,0.3-0.3,0.7-0.3
	c0.3-0.1,0.7-0.2,0.7-0.6v-5.3c0-0.2,0-0.4-0.1-0.4c0,0-0.1,0.1-0.2,0.3l-2.9,5.9c0,0.1-0.1,0.2-0.2,0.2c-0.1,0-0.1-0.1-0.2-0.2
	l-3-5.7c-0.1-0.3-0.2-0.5-0.3-0.5c-0.1,0-0.1,0.2-0.1,0.5l0,5.2c0,0.4,0.4,0.5,0.8,0.5c0.6,0.1,0.8,0.1,0.8,0.3
	c0,0.1-0.1,0.2-0.2,0.2c-0.4,0-1-0.1-1.7-0.1c-0.8,0-1.3,0.1-1.7,0.1c-0.2,0-0.2,0-0.2-0.2c0-0.3,0.4-0.3,0.8-0.3
	c0.4,0,0.7-0.2,0.8-0.8l0.3-4.6c0-1,0.1-1.4,0.1-1.8c0-0.4-0.3-0.5-0.9-0.6c-0.5,0-0.6-0.1-0.6-0.3c0-0.1,0.1-0.2,0.4-0.2
	c0.3,0,0.7,0.1,2.1,0.1c0.1,0,0.2,0.1,0.3,0.2L41.5,133.2z"/>
<path class="st0" d="M49.6,128.3c0-0.5-0.3-0.6-0.6-0.6c-0.3,0-0.6,0-0.6-0.2c0-0.1,0.1-0.2,0.3-0.2c0.6,0,1.2,0.1,1.8,0.1
	c0.6,0,1.2-0.1,1.6-0.1c0.2,0,0.3,0.1,0.3,0.2c0,0.1-0.2,0.2-0.5,0.3c-0.3,0-0.9,0.2-0.9,0.5v4.6c0,1.9,0.7,2.7,2.5,2.7
	c1.8,0,2.7-0.9,2.7-3.4v-3.6c0-0.6-0.6-0.8-0.9-0.9c-0.3-0.1-0.4-0.1-0.4-0.2c0-0.1,0.1-0.2,0.3-0.2c0.3,0,0.8,0.1,1.3,0.1
	c0.8,0,0.9-0.1,1.4-0.1c0.1,0,0.2,0.1,0.2,0.2c0,0.2-0.2,0.2-0.4,0.3c-0.4,0.1-0.9,0.2-0.9,0.9v4.1c0,2.6-1.3,3.5-3.3,3.5
	c-2.9,0-3.9-1-3.9-2.8V128.3z"/>
<path class="st0" d="M67.7,133.5c0.1,0.1,0.1,0.1,0.2,0.1c0.1,0,0.1-0.1,0.1-0.2v-4.9c0-0.6-0.1-0.7-0.7-0.8
	c-0.6-0.1-0.9-0.1-0.9-0.3c0-0.2,0.1-0.2,0.3-0.2c0.3,0,0.9,0.1,1.5,0.1c0.7,0,1-0.1,1.4-0.1c0.3,0,0.4,0.1,0.4,0.2
	c0,0.2-0.3,0.2-0.6,0.3c-0.5,0-0.8,0.2-0.8,0.9v6.6c0,0.5,0,0.8,0,0.8c0,0.1,0,0.2-0.1,0.2c-0.1,0-0.2-0.1-0.3-0.2l-6.6-6.9
	c-0.1-0.1-0.1-0.1-0.2-0.1c-0.1,0-0.1,0.3-0.1,0.7v3.6c0,2,0.2,2.1,0.9,2.2c0.5,0,0.9,0.1,0.9,0.3c0,0.2-0.1,0.2-0.3,0.2
	c-0.4,0-0.9-0.1-1.7-0.1c-0.8,0-1.3,0.1-1.6,0.1c-0.2,0-0.3,0-0.3-0.2c0-0.4,1.1-0.2,1.2-0.5c0.2-0.2,0.3-1.1,0.3-2v-4.5
	c0-0.8-0.4-1-1-1.1c-0.5,0-0.6-0.1-0.6-0.2c0-0.1,0.1-0.2,0.3-0.2c0.3,0,1.1,0.1,1.9,0.1c0.5,0,0.6,0.1,0.7,0.2L67.7,133.5z"/>
<path class="st0" d="M73.8,134.7c0,0.5,0.2,0.7,0.8,0.7c0.5,0,0.7,0.1,0.7,0.3c0,0.1-0.1,0.2-0.5,0.2c-0.4,0-1-0.1-1.7-0.1
	c-0.7,0-1.2,0.1-1.9,0.1c-0.2,0-0.2-0.1-0.2-0.2c0-0.2,0.2-0.3,0.6-0.3c0.5,0,0.7-0.2,0.7-0.7v-6.3c0-0.5-0.2-0.7-0.5-0.7
	c-0.5,0-0.7-0.1-0.7-0.3c0-0.1,0.1-0.2,0.3-0.2c0.4,0,0.9,0.1,1.6,0.1c0.7,0,1.3-0.1,1.7-0.1c0.2,0,0.3,0.1,0.3,0.2
	c0,0.2-0.2,0.3-0.7,0.3c-0.5,0-0.7,0.2-0.7,0.7V134.7z"/>
<path class="st0" d="M81.3,134.6c0,0.6,0.4,0.8,0.8,0.8c0.4,0,0.8,0,0.8,0.3c0,0.2-0.2,0.2-0.3,0.2c-0.7,0-1.4-0.1-2.1-0.1
	c-0.7,0-1.4,0.1-2,0.1c-0.2,0-0.3-0.1-0.3-0.2c0-0.3,0.4-0.3,0.8-0.3c0.4,0,0.8-0.2,0.8-0.8v-5.3c0-1.3-0.1-1.4-0.9-1.4
	c-2.4,0-2.3,1.6-2.8,1.6c-0.2,0-0.2-0.1-0.2-0.2c0-0.2,0.1-0.3,0.5-1.4c0.3-1,0.4-1.1,0.6-1.1c0.2,0,0.4,0.8,1,0.8H83
	c0.4,0,1.1,0,1.4-0.3c0.3-0.1,0.3-0.4,0.4-0.4c0.2,0,0.2,0.2,0.2,1.2c0,1.1-0.2,1.3-0.3,1.3c-0.2,0-0.2-0.3-0.4-0.7
	c-0.2-0.4-0.5-0.7-1.8-0.7c-1.1,0-1.2,0.1-1.2,1.4V134.6z"/>
<path class="st0" d="M90.8,134.7c0,0.7,0.4,0.7,0.8,0.8c0.4,0,0.8,0,0.8,0.3c0,0.2-0.2,0.2-0.5,0.2c-0.4,0-1.3-0.1-1.8-0.1
	c-0.6,0-1.2,0.1-1.7,0.1c-0.4,0-0.5,0-0.5-0.2c0-0.3,0.4-0.3,0.7-0.3c0.4-0.1,0.7-0.1,0.7-0.8v-2.3c0-0.4-0.2-0.8-0.6-1.3l-2-2.7
	c-0.7-0.8-1.2-0.6-1.2-0.9c0-0.1,0.1-0.2,0.3-0.2c0.5,0,1.1,0.1,1.6,0.1c0.5,0,1.1-0.1,1.6-0.1c0.2,0,0.3,0.1,0.3,0.3
	c0,0.3-1,0.1-1,0.4c0,0.6,2.1,3.1,2.4,3.3c0.1-0.1,2.1-2.6,2.1-3.1s-1-0.3-1-0.7c0-0.1,0.1-0.2,0.3-0.2c0.3,0,0.5,0.1,1.2,0.1
	c0.8,0,1-0.1,1.3-0.1c0.2,0,0.2,0,0.2,0.2c0,0.3-0.7,0.3-1.5,1.3l-1.6,2c-0.7,0.9-0.9,1.1-0.9,1.7V134.7z"/>
<path class="st0" d="M102.2,125.4c0-0.5-0.2-0.6-0.9-0.8c-0.6-0.1-0.8-0.1-0.8-0.4c0-0.2,0.3-0.3,0.6-0.3c0.7,0,2.3,0.1,2.8,0.1
	c0.6,0,3.3-0.1,5-0.1c0.3,0,0.3,0.3,0.3,0.6v1.9c0,0.1-0.1,0.1-0.2,0.1c-0.3,0-0.2-0.2-0.5-0.9c-0.3-0.7-0.4-1-3.7-1
	c-0.7,0-0.8,0.3-0.8,0.9v3.3c0,0.4,0.3,0.4,0.9,0.4h1.7c1.4,0,1-1.7,1.5-1.7c0.3,0,0.3,0.2,0.3,0.4c0,0.4-0.1,0.7-0.1,1.6
	c0,0.8,0.1,1.3,0.1,1.9c0,0.1,0,0.3-0.2,0.3c-0.3,0-0.3-0.3-0.4-0.9c-0.2-1-0.3-1.2-2.7-1.2c-0.9,0-1,0.1-1,0.5v3.8
	c0,0.9,0.1,1,2.3,1c1.3,0,1.8-0.2,2.2-0.7c0.9-1.1,0.8-1.6,1.2-1.6c0.2,0,0.2,0.1,0.2,0.2c0,0.1-0.1,0.2-0.1,0.3l-0.4,2
	c-0.1,0.3-0.2,0.4-0.4,0.4h-5.5c-1.1,0-1.7,0-2,0c-0.3,0-0.4,0-0.5,0c-0.2,0-0.5,0-0.5-0.2c0-0.3,0.3-0.3,0.8-0.4c0.5-0.1,1,0,1-0.8
	V125.4z"/>
<path class="st0" d="M116,134.7c0,0.7,0.4,0.7,0.8,0.8c0.4,0,0.8,0,0.8,0.3c0,0.2-0.2,0.2-0.5,0.2c-0.4,0-1.3-0.1-1.8-0.1
	c-0.6,0-1.2,0.1-1.7,0.1c-0.4,0-0.5,0-0.5-0.2c0-0.3,0.4-0.3,0.7-0.3c0.4-0.1,0.7-0.1,0.7-0.8v-2.3c0-0.4-0.3-0.8-0.6-1.3l-2-2.7
	c-0.7-0.8-1.2-0.6-1.2-0.9c0-0.1,0.1-0.2,0.3-0.2c0.5,0,1.1,0.1,1.6,0.1c0.5,0,1.1-0.1,1.6-0.1c0.2,0,0.3,0.1,0.3,0.3
	c0,0.3-1,0.1-1,0.4c0,0.6,2.1,3.1,2.4,3.3c0.1-0.1,2.1-2.6,2.1-3.1s-1-0.3-1-0.7c0-0.1,0.1-0.2,0.3-0.2c0.3,0,0.5,0.1,1.2,0.1
	c0.8,0,1-0.1,1.3-0.1c0.2,0,0.3,0,0.3,0.2c0,0.3-0.7,0.3-1.5,1.3l-1.6,2c-0.7,0.9-0.9,1.1-0.9,1.7V134.7z"/>
<path class="st0" d="M124,130.8c0,0.2,0.1,0.3,0.5,0.3h1.5c0.6,0,0.9,0,1.2-0.3c0.3-0.2,0.4-0.8,0.6-0.8c0.2,0,0.2,0.1,0.2,0.3
	c0,0.2-0.1,0.5-0.1,1.2c0,0.7,0,1.2,0,1.4c0,0.1-0.1,0.2-0.2,0.2c-0.2,0-0.1-0.5-0.4-1.1c-0.2-0.3-0.8-0.4-1.3-0.4h-1.5
	c-0.4,0-0.5,0.1-0.5,0.3v2.8c0,0.5,0.3,0.7,2.1,0.7c1.1,0,1.8-0.2,2.1-0.7c0.4-0.6,0.5-1.1,0.7-1.1c0.1,0,0.2,0.1,0.2,0.2
	c0,0.2-0.2,1-0.3,1.5c-0.1,0.4-0.1,0.6-0.3,0.6c-0.5,0-1.8-0.1-3.7-0.1c-1.7,0-3,0.1-3.5,0.1c-0.2,0-0.3,0-0.3-0.2
	c0-0.3,0.4-0.3,0.8-0.3c0.5-0.1,0.8-0.2,0.8-0.8v-5.8c0-0.9-0.2-1.1-0.6-1.1c-0.4,0-0.6-0.1-0.6-0.2c0-0.2,0.1-0.3,0.3-0.3
	c0.5,0,1.4,0.1,3,0.1c1.7,0,2.8-0.1,3.7-0.1c0.4,0,0.5,0.1,0.5,0.4v1.4c0,0.2,0,0.3-0.1,0.3c-0.3,0-0.2-0.6-0.7-1
	c-0.5-0.4-1.2-0.6-2.6-0.6c-1.4,0-1.5,0.2-1.5,0.5V130.8z"/>
<path class="st1" d="M133.1,125.1c0,1.1-1.4,2.2-1.8,2.2c-0.1,0-0.2,0-0.2-0.1c0-0.2,1.1-0.8,1.1-1.4c0-0.6-1-0.6-1-1.1
	c0-0.6,0.3-0.8,0.8-0.8C132.8,123.8,133.1,124.4,133.1,125.1"/>
<path class="st0" d="M135,133.7c0-0.4,0.1-0.5,0.3-0.5c0.4,0-0.1,2.5,2.8,2.5c1.4,0,2-0.6,2-1.5c0-2.1-4.6-1.8-4.6-4.8
	c0-1.5,1.2-2.3,3-2.3c1.3,0,2.2,0.5,2.2,0.7c0,0.3,0.1,1,0.1,1.4c0,0.2,0,0.4-0.2,0.4c-0.2,0-0.2-0.3-0.5-0.9
	c-0.3-0.4-0.7-1.1-2-1.1c-1,0-1.5,0.4-1.5,1.4c0,1.9,4.8,1.7,4.8,4.6c0,1.7-1.3,2.7-3.2,2.7c-1.8,0-3-0.4-3-1V133.7z"/>
<path class="st2" d="M70.6,107.3C41,107.3,17,83.2,17,53.7C17,24.1,41,0,70.6,0c29.6,0,53.6,24.1,53.6,53.7
	C124.3,83.2,100.2,107.3,70.6,107.3 M70.6,4.2c-27.3,0-49.5,22.2-49.5,49.5c0,27.3,22.2,49.5,49.5,49.5c27.3,0,49.5-22.2,49.5-49.5
	C120.1,26.4,97.9,4.2,70.6,4.2"/>
<path class="st2" d="M108.8,74.3V29.6h6.5v-4.2h-10.7v6.3h-5.2c-3.8,0-5.7-0.9-11.3-4.6C83.7,24.2,75,24.6,69,29.5
	c-4-3-8.1-4.4-12.9-4.4c-4.3,0-8.2,2.3-11.6,4.3C42.2,30.7,40,32,38.6,32h-2.1v-6.5H25.9v4.2h6.5v44.7h-8.8v4.2h12.9v-8.5h8.1
	c2.3,0,4.4,1,6.1,2.2l0.1,0.1c0,0.1,6.7,5.7,11.9,9.9c2.7,2.1,5.5,3.1,8.3,3.1c3.2,0,6.4-1.4,9.2-4.2l8.6-8.6
	c1.7-1.4,4.2-2.6,6.5-2.6h9.4v8.5h12.9v-4.2H108.8z M65.4,78.9c-3.6-2.8-7.8-6.3-10.1-8.2l0,0c-0.6-0.5-1.2-1-1.9-1.6
	c-1.2-1.3-3.9-4.7-1.2-7.5c0.6-0.6,2-2,5,1c1.2,1.2,15.3,13.8,18.8,16.8C73.4,81.3,69.7,82.4,65.4,78.9 M79,76.4
	c-7.2-6.4-18-16-18.9-16.9c-3.7-3.7-7.8-4.1-10.8-1c-2.3,2.2-2.8,4.9-2.2,7.4c-0.8-0.2-1.6-0.3-2.5-0.3h-8.1V36.1h2.1
	c2.5,0,5.1-1.5,7.9-3.2c3-1.7,6.3-3.7,9.5-3.7c3.6,0,6.8,1,9.8,3.2c-3.2,3.1-6.9,6.9-9.4,9.7c-2.2,2.4-3.2,7.9,0.1,11.2
	c1.5,1.5,3.5,2.3,5.6,2.3c2.1,0,4.2-0.8,5.7-2.4l5.2-5.4c0.6-0.6,1.1-0.9,1.6-0.9c0.3,0,0.7,0.2,1.1,0.6
	c1.5,1.5,11.5,11.5,11.5,11.5c1.6,1.5,2.4,2.9,2.6,4.3c0.2,1.3-0.3,2.6-1.6,3.9L86,69.5c-0.6,0.5-1.2,1.1-1.7,1.6v0L79,76.4z
	 M95.3,65.7c-0.5,0-1,0.1-1.5,0.1c0.3-1.2,0.3-2.2,0.2-3.1c-0.4-2.2-1.6-4.4-3.8-6.6c0,0-10.1-10.1-11.5-11.5
	c-2.5-2.5-5.9-2.4-8.6,0.3l-5.2,5.4c-1.4,1.5-4,1.5-5.4,0c-1.5-1.5-0.8-4.5,0.1-5.5c3-3.3,7.7-8,11.2-11.3
	c4.8-4.7,12.2-4.8,15.2-2.9c5.9,3.8,8.6,5.3,13.6,5.3h5.2v29.8H95.3z"/>
<polygon class="st3" points="15.2,156.8 15.2,155.8 23.2,155.8 23.2,150.1 15.2,150.1 15.2,149 24.3,149 24.3,157.5 23.2,157.5 
	23.2,156.8 "/>
<path class="st3" d="M34.8,158.9c-1.4-0.9-3.1-1.9-7.1-3l0.4-1.1c4.1,1,6,2.3,7.2,3L34.8,158.9z M33.9,150.2
	c-1.1-0.7-2.1-1.2-5.2-2.1L29,147c3.2,0.8,4.5,1.6,5.3,2.1L33.9,150.2z M33.8,154c-0.9-0.5-2.2-1.3-5-2.1l0.3-1
	c3,0.9,4.1,1.5,5.1,2.1L33.8,154z"/>
<polygon class="st3" points="47.6,157.5 47.6,158.4 38.2,158.4 38.2,157.5 43.7,157.5 44.3,153.1 40,153.1 40,152.2 45.4,152.2 
	44.6,157.5 "/>
<path class="st3" d="M50.5,155.6h10.8v1.1H50.5V155.6z M52.1,149.1H60v1.1h-7.9V149.1z"/>
<path class="st3" d="M70.7,152.5c-0.1,1.3-0.2,2.6-1.1,4s-2,1.9-3,2.3l-1-0.9c0.9-0.3,2-0.6,2.9-1.9c0.9-1.3,1-2.4,1-3.4h-5.1v-1h11
	v1H70.7z M73.3,148.8h-7.1v-1h7.1V148.8z"/>
<path class="st3" d="M82,153.5c-0.9,0.6-1.7,1.1-3.2,1.8l-0.9-0.7c1.1-0.3,2.1-0.7,4-2.1c1.6-1.2,2.3-2.1,2.8-2.6l0.7,0.6
	c0.1,0.1,0.2,0.2,0.2,0.3c0,0.1,0,0.1-0.1,0.1c-0.1,0-0.3,0-0.3,0c-0.9,0.8-1.4,1.4-2.3,2v6.3H82V153.5z"/>
<path class="st3" d="M88.8,149.4v-1h10c0.1,0,0.3-0.1,0.5-0.3l0.8,0.8c-1.1,1.8-2.3,3.5-3.9,5l-0.8-0.7c0.3-0.3,0.8-0.7,1.6-1.7
	c0.9-1.1,1.1-1.5,1.4-2.1H88.8z M90,157.6c1.2-0.7,2.2-1.4,2.9-3.4c0.6-1.6,0.6-3,0.7-4.2l1.2,0.2c0.1,0,0.2,0.1,0.2,0.2
	c0,0.1,0,0.1-0.3,0.3c-0.2,2.1-0.4,3.5-1.4,5.3c-0.6,1-1.1,1.5-2.3,2.3L90,157.6z"/>
<path class="st3" d="M107.6,158.6v-6.9c-1.7,1.2-2.7,1.7-3.9,2.3l-1-0.9c1.2-0.4,2.5-0.8,4.7-2.4c2-1.5,3-2.6,3.7-3.4l1,0.8
	c0.1,0,0.2,0.1,0.2,0.3c0,0.1,0,0.1-0.2,0.1c-0.1,0-0.2,0-0.3,0c-1.2,1.1-1.6,1.5-2.9,2.5v7.8H107.6z"/>
<path class="st3" d="M123.9,149.1c-0.6,0.4-0.6,0.4-0.8,0.6c-1.1,2.3-1.3,2.7-1.9,3.5c1.9,1.5,2.9,2.7,3.8,4l-1,0.8
	c-1-1.6-2.1-2.9-3.6-3.9c-2.4,2.6-4.1,3.3-5.1,3.8l-0.8-1c1.2-0.4,2.7-0.9,4.5-2.8c1.8-1.9,2.4-3.4,2.9-4.7h-5.9v-1h6.4
	c0.2,0,0.5-0.2,0.6-0.3L123.9,149.1z M125,148.2c0.6,0.5,1.1,1.1,1.2,1.3l-0.6,0.6c-0.3-0.5-0.9-1-1.2-1.4L125,148.2z M125.9,146.5
	c0.4,0.3,0.8,0.8,1.3,1.3l-0.6,0.6c-0.2-0.3-0.6-0.9-1.3-1.4L125.9,146.5z"/>
</svg>
