<?xml version="1.0" encoding="utf-8"?>
<!-- Generator: Adobe Illustrator 25.0.0, SVG Export Plug-In . SVG Version: 6.00 Build 0)  -->
<svg version="1.1" id="レイヤー_1" xmlns="http://www.w3.org/2000/svg" xmlns:xlink="http://www.w3.org/1999/xlink" x="0px"
	 y="0px" width="89.3px" height="58.5px" viewBox="0 0 89.3 58.5" style="enable-background:new 0 0 89.3 58.5;"
	 xml:space="preserve">
<style type="text/css">
	.st0{fill:#4B575E;}
	.st1{fill:#006E38;}
</style>
<g>
	<g>
		<g>
			<path class="st0" d="M10.5,46.4L10.5,46.4c0,0-0.1,0.4-0.1,0.4c-0.1,0.2-0.3,0.2-1.8,0.2H2.1c-0.4,0-0.5,0-0.7-0.3l0-0.1H0.9
				l0,0.1c-0.2,1-0.5,2.2-0.8,3L0,49.9h0.7l0-0.1c0.3-0.7,0.6-1.2,0.8-1.5c0.3-0.3,0.7-0.5,2.1-0.5c0,0,0.8,0,1.1,0
				C4.7,48.1,3,55.9,3,55.9c-0.3,1.5-0.4,1.5-1.8,1.6l-0.1,0L1,58.3h4.9L6,57.6l-0.1,0c-0.7-0.1-1.2-0.1-1.3-0.3
				c-0.1-0.1-0.1-0.2-0.1-0.4c0-0.2,0.1-0.5,0.1-0.9c0,0,1.7-7.9,1.7-8.1c0.2,0,1,0,1,0c1.1,0,2,0.1,2.8,0.1
				C9.6,50.9,8.8,54.7,8,58.2l0,0.1l0.2,0.2l0.1,0c0.3-0.1,0.8-0.2,1.2-0.3l0.1,0l0-0.1c0.1-0.9,0.5-2.3,0.7-3.1
				c0.8-1.4,2.8-3.2,3.4-3.2c0.1,0,0.1,0,0.1,0c0.1,0.1,0.1,0.4-0.1,1l-0.9,4c-0.2,0.9-0.2,1.3,0,1.6c0.1,0.1,0.2,0.2,0.4,0.2
				c0.5,0,1.6-0.6,2.5-1.7l0.1-0.1l-0.3-0.6l-0.1,0.1c-0.5,0.4-1,0.7-1.1,0.7c0,0,0,0,0,0c0-0.1,0-0.2,0.1-0.4l0.9-4.1
				c0.1-0.4,0.1-0.7,0.1-1c0-0.3-0.1-0.6-0.2-0.7c-0.1-0.2-0.3-0.2-0.6-0.2c-0.3,0-0.7,0.1-1.1,0.4c-0.5,0.3-1.7,1-3,2.5
				c0.1-0.6,0.4-2,0.4-2c0.3-1.6,0.7-3.1,1-4.7c0-0.2,0.1-0.3,0.1-0.4c0-0.1,0-0.2-0.1-0.2c0,0-0.1-0.1-0.2-0.1
				C11.5,46,10.9,46.2,10.5,46.4z"/>
		</g>
		<path class="st0" d="M18.4,51.4c-1.3,1-2.1,2.7-2.1,4.5c0,2.4,1.5,2.6,2,2.6c0.8,0,2.1-0.3,3.7-2l0.1-0.1l-0.4-0.6L21.5,56
			c-0.8,0.8-1.7,1.3-2.4,1.3c-1,0-1.2-1.1-1.2-1.8c0-0.1,0-0.3,0-0.4c2.1-0.5,4.5-1.5,4.5-3.1c0-0.8-0.7-1.5-1.6-1.5
			C20.1,50.4,19.1,50.8,18.4,51.4z M19.5,51.6L19.5,51.6c0.2-0.1,0.4-0.2,0.6-0.2c0.5,0,0.7,0.3,0.7,0.8c0,0.8-0.9,1.5-2.9,2
			C18.3,52.4,19.2,51.7,19.5,51.6z M19.4,51.4C19.4,51.4,19.4,51.4,19.4,51.4L19.4,51.4z"/>
		<path class="st0" d="M26.6,47.1l-0.2,0.7l0.1,0c0.7,0.1,1,0.1,1.1,0.3c0.1,0.2,0.1,0.5-0.1,1.1L26.3,56c-0.3,1.4-0.4,1.4-1.6,1.6
			l-0.1,0l-0.2,0.7h4.7l0.1-0.7l-0.1,0c-0.8-0.1-1.2-0.1-1.3-0.3c-0.1-0.1-0.1-0.2-0.1-0.4c0-0.2,0-0.5,0.1-0.8c0,0,0.4-2.3,0.5-2.5
			c0.2,0.1,1,0.3,1,0.3l0.7,0c2-0.1,4.1-1.4,4.1-3.8c0-1.9-1.3-3-3.7-3H26.6z M29.3,48.7c0.1-0.5,0.2-0.6,0.3-0.7
			c0.2-0.1,0.4-0.1,0.7-0.1c1.4,0,2.1,0.8,2.1,2.2c0,2.3-1.9,3-2.8,3c-0.5,0-0.9-0.1-1.1-0.2C28.5,52.6,29.3,48.7,29.3,48.7z"/>
		<path class="st0" d="M35.2,51.8c-1.2,1-2.1,2.9-2.1,4.7c0,1.4,0.6,2,1.1,2c0.5,0,1-0.3,1.6-0.8c0.7-0.6,1.4-1.3,1.9-2
			c-0.1,0.5-0.2,1.2-0.2,1.2c-0.1,0.4-0.1,0.6-0.1,0.9c0,0.3,0.1,0.5,0.1,0.6c0.1,0.1,0.2,0.2,0.4,0.2c0.5,0,1.6-0.6,2.6-1.8l0-0.1
			L40.2,56l-0.1,0.1c-0.5,0.5-1,0.8-1.1,0.8c0,0,0,0,0-0.1c0-0.1,0-0.2,0.1-0.5c0.4-2.1,0.9-4.4,1.2-5.5l0-0.1l-0.1-0.2h-0.1
			c-0.2,0-0.4,0-0.6-0.1l-0.1,0c-0.3-0.1-0.7-0.1-1.1-0.1C37.4,50.4,36.1,51,35.2,51.8z M34.7,56.2c0-1.5,0.6-3.6,1.8-4.4
			c0.3-0.2,0.7-0.3,1.1-0.3c0.4,0,0.8,0.1,1,0.2c0,0.1,0,0.2,0,0.2c-0.1,0.6-0.3,1.5-0.5,2.1c-0.6,1.2-2.5,3.2-3,3.2
			C34.9,57.2,34.7,56.9,34.7,56.2z"/>
		<g>
			<path class="st0" d="M43.6,52.8c0-0.1,0.1-0.2,0.1-0.2c0.1-0.5,0.2-1,0.2-1.3c0-0.3-0.1-0.5-0.2-0.7c-0.1-0.1-0.2-0.1-0.3-0.1
				c-0.5,0-1.6,0.7-2.5,1.7l-0.1,0.1l0.3,0.6l0.1-0.1c0.5-0.5,1-0.7,1.1-0.8c0,0,0,0,0,0.1c0,0.1-0.1,0.4-0.1,0.5
				C42,54,41.6,56,41.1,58.2l0,0.1l0.2,0.2l0.1,0c0.4-0.1,0.8-0.2,1.2-0.3l0.1,0l0-0.1c0.2-1.2,0.4-2.2,0.7-3.3
				c0.3-0.7,0.8-1.5,1.2-2.1c0.3-0.4,0.6-0.7,0.8-0.7c0.2,0,0.3,0.1,0.5,0.3c0.1,0.1,0.3,0.1,0.5,0c0.2-0.2,0.4-0.3,0.5-0.5
				c0.2-0.3,0.2-0.6,0-0.8c-0.2-0.3-0.5-0.5-0.8-0.5C45.2,50.4,44.3,51.6,43.6,52.8z"/>
		</g>
		<g>
			<path class="st0" d="M49.6,46.1c-0.4,0.1-1.1,0.4-2,0.5l-0.1,0l-0.1,0.6l0.7,0c0.3,0,0.5,0,0.5,0.1c0.1,0.1,0,0.3,0,0.5
				c-0.7,3.2-1.4,6.6-2.3,10.4l0,0.1l0.2,0.2l0.1,0c0.3-0.1,0.7-0.2,1.2-0.3l0.1,0l0.5-2.7c0,0,0-0.2,0.1-0.3
				c0.1-0.2,0.4-0.5,0.8-0.9l0,0c0.5,1.3,0.9,2.3,1.2,3c0.4,0.8,0.7,1.2,1.2,1.2c0.2,0,1-0.1,2-1.6l0-0.1l-0.4-0.5l-0.1,0.1
				c-0.5,0.5-0.8,0.7-0.9,0.7c-0.1,0-0.3-0.2-0.6-0.7c-0.4-0.7-1-2.2-1.4-3.3c0.6-0.6,1.4-1.3,2.1-1.3c0.3,0,0.5,0.1,0.6,0.1
				c0.1,0.1,0.3,0,0.4-0.1c0.2-0.2,0.4-0.5,0.4-0.8c0-0.3-0.3-0.6-0.8-0.6c-0.7,0-1.7,0.7-3,2.1c0,0,0,0,0,0
				c-0.4,0.4-0.8,0.7-1.2,1.2c0.2-0.7,1.6-7.1,1.6-7.1c0-0.1,0-0.3,0-0.4c0-0.1,0-0.1-0.1-0.2c0-0.1-0.1-0.1-0.2-0.1
				C50,46,49.8,46,49.6,46.1z"/>
		</g>
		<g>
			<path class="st0" d="M56.9,46.1c-0.4,0.1-1.1,0.4-2,0.5l-0.1,0l-0.1,0.7h0.6c0.2,0,0.4,0,0.5,0.1c0.1,0.1,0,0.3,0,0.7
				c-0.7,3.5-1.4,6.9-2.1,10.1l0,0.1l0.2,0.2l0.1,0c0.4-0.1,0.8-0.2,1.2-0.3l0.1,0l0-0.1c0.2-0.9,0.5-2.3,0.6-3.1
				c0.8-1.5,2.8-3.3,3.5-3.3c0.1,0,0.1,0,0.1,0c0.1,0.1,0.1,0.3-0.1,1l-0.9,3.9c-0.2,0.8-0.2,1.4,0,1.6c0.1,0.1,0.2,0.2,0.4,0.2
				c0.5,0,1.6-0.6,2.5-1.7l0.1-0.1L61,56.1l-0.1,0.1c-0.5,0.5-1,0.7-1.1,0.7c0,0,0-0.1,0.1-0.5l0.9-3.8c0.2-1,0.2-1.7,0-2
				c-0.1-0.2-0.3-0.2-0.5-0.2c-0.3,0-0.7,0.1-1.2,0.4c-0.5,0.3-1.7,1-2.9,2.5c0.2-0.8,1.4-6.6,1.4-6.6c0-0.2,0.1-0.3,0.1-0.4
				c0-0.1,0-0.2-0.1-0.2c0-0.1-0.1-0.1-0.2-0.1C57.3,46,57.1,46,56.9,46.1z"/>
		</g>
		<path class="st0" d="M64.5,51c-1.3,0.7-2.6,2.3-2.6,4.7c0,1.3,0.6,2.8,2.4,2.8c0.9,0,1.8-0.4,2.7-1.1c1.1-0.9,1.9-2.6,1.9-4.2
			c0-1.7-0.9-2.8-2.4-2.8C65.9,50.4,65.2,50.6,64.5,51z M63.6,55.6c0-2.5,1.1-3.9,1.7-4.2c0.2-0.1,0.4-0.1,0.6-0.1
			c0.8,0,1.3,0.7,1.3,1.9c0,2.2-0.9,3.9-1.8,4.2c-0.2,0.1-0.3,0.1-0.5,0.1l0,0C64.1,57.6,63.6,56.8,63.6,55.6z"/>
		<g>
			<path class="st0" d="M76.8,50.4l-1.2,0.5c0,0-0.6,2.7-0.6,2.8c-0.7,1.3-2.5,3.4-3.4,3.4c0,0-0.1,0-0.1,0c-0.1-0.1-0.1-0.3,0-0.9
				l0.6-2.8l0.3-1.3c0.2-0.8,0.2-1.3,0.1-1.5c-0.1-0.1-0.2-0.1-0.4-0.1c-0.5,0-1.6,0.7-2.6,1.6l-0.1,0.1l0.3,0.6l0.1-0.1
				c0.6-0.5,1-0.7,1.1-0.8c0,0,0,0,0,0.1c0,0.1,0,0.2-0.1,0.4l-0.7,3.1L70,56.2c-0.1,0.5-0.2,0.9-0.2,1.2c0,0.4,0.1,0.6,0.2,0.8
				c0.1,0.2,0.4,0.3,0.6,0.3l0,0c0.4,0,0.9-0.2,1.4-0.6c0.8-0.5,1.7-1.4,2.5-2.4c0,0.1-0.2,1.1-0.2,1.1c-0.1,0.5-0.2,0.9-0.2,1.2
				c0,0.3,0,0.5,0.2,0.6c0.1,0.1,0.2,0.2,0.4,0.2c0.6,0,1.7-0.8,2.5-1.8l0.1-0.1L77,56l-0.1,0.1c-0.5,0.5-1,0.8-1.1,0.8
				c0,0,0,0,0-0.1c0-0.1,0-0.2,0.1-0.4c0.4-2,0.8-3.8,1.3-5.9l0-0.1H76.8z"/>
		</g>
		<g>
			<path class="st0" d="M79.5,51.3c-0.6,0.5-0.9,1.1-0.9,1.7c0,0.9,0.8,1.6,1.5,2.2c0.8,0.6,0.9,0.9,0.9,1.3c0,0.5-0.4,0.9-1,0.9
				c-0.5,0-1.1-0.4-1.5-1c-0.1-0.1-0.2-0.2-0.6-0.1c-0.4,0.2-0.6,0.5-0.5,0.8v0c0,0.6,0.9,1.3,1.8,1.3c1.4,0,3.2-1.3,3.2-2.7
				c0-0.8-0.5-1.3-1.5-2.1c-0.6-0.5-1.1-0.9-1.1-1.4c0-0.5,0.4-0.8,0.8-0.8c0.5,0,0.8,0.2,1.2,0.7c0.1,0.2,0.3,0.2,0.5,0.1
				c0.3-0.2,0.5-0.5,0.5-0.8c0-0.5-0.6-1.1-1.4-1.1C80.9,50.4,80,50.8,79.5,51.3z"/>
		</g>
		<path class="st0" d="M85.3,51.4c-1.3,1-2.1,2.7-2.1,4.5c0,2.4,1.5,2.6,2,2.6c0.8,0,2.1-0.3,3.7-2l0.1-0.1l-0.4-0.6L88.4,56
			c-0.8,0.8-1.7,1.3-2.4,1.3c-1,0-1.2-1.1-1.2-1.8c0-0.1,0-0.3,0-0.4c2.1-0.5,4.5-1.5,4.5-3.1c0-0.8-0.7-1.5-1.6-1.5
			C87,50.4,86.1,50.8,85.3,51.4z M86.4,51.6L86.4,51.6c0.2-0.1,0.4-0.2,0.6-0.2c0.5,0,0.7,0.3,0.7,0.8c0,0.8-0.9,1.5-2.9,2
			C85.3,52.4,86.2,51.7,86.4,51.6z M86.3,51.4L86.3,51.4L86.3,51.4z"/>
	</g>
	<g>
		<path class="st1" d="M46.4,10.5c5.1,0,9.3,4.2,9.3,9.3c0,5.2-4.2,9.3-9.3,9.3c-0.9,0-1.8-0.1-2.6-0.4v1.3c0.8,0.2,1.7,0.3,2.6,0.3
			c2.9,0,5.5-1.2,7.5-3.1c1.9-1.9,3.1-4.6,3.1-7.5c0-2.9-1.2-5.5-3.1-7.5c-1.9-1.9-4.6-3.1-7.5-3.1c-5.8,0-10.5,4.8-10.6,10.6v16.8
			c0.4,0.3,0.8,0.5,1.2,0.7V19.8C37.2,14.8,41.3,10.5,46.4,10.5"/>
		<path class="st1" d="M46.4,4.3c8.6,0,15.5,7,15.5,15.5c0,8.6-7,15.5-15.5,15.5c-0.9,0-1.7-0.1-2.6-0.2v1.2
			c0.8,0.1,1.7,0.2,2.6,0.2c4.6,0,8.8-1.9,11.8-4.9c3-3,4.9-7.2,4.9-11.8c0-4.6-1.9-8.8-4.9-11.8c-3-3-7.2-4.9-11.8-4.9
			c-9.2,0-16.7,7.6-16.8,16.7l0,10.6c0.4,0.6,0.8,1.2,1.2,1.7V19.8C30.9,11.3,37.8,4.3,46.4,4.3"/>
		<path class="st1" d="M46.4,7.4c6.9,0,12.4,5.6,12.4,12.4c0,6.9-5.6,12.4-12.4,12.4c-0.9,0-1.7-0.1-2.6-0.3v1.2
			c0.8,0.2,1.7,0.2,2.6,0.2c3.8,0,7.2-1.5,9.6-4c2.5-2.5,4-5.9,4-9.6c0-3.8-1.5-7.2-4-9.7c-2.5-2.5-5.9-4-9.6-4
			c-7.5,0-13.6,6.2-13.7,13.7l0,14.4c0.4,0.4,0.8,0.7,1.2,1.1V19.8C34.1,13.1,39.6,7.4,46.4,7.4"/>
		<path class="st1" d="M60.4,5.8C56.8,2.2,51.8,0,46.4,0C35.5,0,26.6,9,26.5,19.8c0,0-0.1,3.6,1.2,6.9v-6.9
			C27.8,9.6,36.1,1.2,46.4,1.2C56.6,1.2,65,9.6,65,19.8c0,10.3-8.4,18.6-18.6,18.6c-0.9,0-1.7-0.1-2.6-0.2v1.2
			c0.8,0.1,1.7,0.2,2.6,0.2c5.5,0,10.4-2.2,14-5.8c3.6-3.6,5.8-8.6,5.8-14C66.2,14.4,64,9.4,60.4,5.8"/>
		<path class="st1" d="M52.6,19.8c0,3.5-2.8,6.3-6.3,6.3c-0.9,0-1.8-0.2-2.6-0.6v1.3c0.8,0.3,1.7,0.5,2.6,0.5c2.1,0,3.9-0.8,5.3-2.2
			c1.3-1.4,2.2-3.2,2.2-5.3s-0.8-3.9-2.2-5.3c-1.4-1.3-3.2-2.2-5.3-2.2c-4.1,0-7.4,3.4-7.5,7.5v18.4c0.4,0.2,0.8,0.3,1.2,0.5V19.8
			c0.1-3.4,2.8-6.3,6.3-6.3C49.8,13.6,52.6,16.4,52.6,19.8"/>
	</g>
</g>
</svg>
