<?xml version="1.0" encoding="utf-8"?>
<!-- Generator: Adobe Illustrator 25.0.0, SVG Export Plug-In . SVG Version: 6.00 Build 0)  -->
<svg version="1.1" id="レイヤー_1" xmlns="http://www.w3.org/2000/svg" xmlns:xlink="http://www.w3.org/1999/xlink" x="0px"
	 y="0px" width="109px" height="158.7px" viewBox="0 0 109 158.7" style="enable-background:new 0 0 109 158.7;"
	 xml:space="preserve">
<style type="text/css">
	.st0{fill:#00498A;}
	.st1{fill:#5D6970;}
	.st2{fill:#898989;}
	.st3{fill:#221815;}
</style>
<path class="st0" d="M23.4,86.5h64V22.5h-64V86.5z M46.9,46v17.1h36.4v7.3H39.6V38.6h43.6V46H46.9z M83.2,50.1v8.7l-32.2,0v-8.7
	H83.2z M27.6,82.3V26.7h55.6v7.8H35.4v40h47.8v7.8H27.6z"/>
<path class="st0" d="M54.5,107.6c-29.6,0-53.8-24.1-53.8-53.8C0.7,24.2,24.8,0,54.5,0c29.7,0,53.8,24.2,53.8,53.8
	C108.3,83.5,84.2,107.6,54.5,107.6 M54.5,4.2C27.1,4.2,4.8,26.5,4.8,53.8c0,27.4,22.3,49.6,49.6,49.6c27.4,0,49.6-22.3,49.6-49.6
	C104.1,26.5,81.9,4.2,54.5,4.2"/>
<path class="st1" d="M6.8,123.8c0.3,0,1.2,0,1.9,0.2c1.7,0.3,1.7,0.4,1.7,2c0,0.2,0,0.2-0.1,0.2c-0.6,0-0.9-1.9-3.4-1.9
	c-2.5,0-4.8,2.3-4.8,5.9c0,2.6,1.6,5.3,4.7,5.3c1.7,0,2.4-0.8,2.9-1.3c0.4-0.6,0.6-0.9,0.8-0.9c0.1,0,0.2,0.1,0.2,0.2
	c0,1-0.3,1.6-0.4,1.8c-0.1,0.3-1.7,0.9-3.4,0.9c-3.6,0-6.9-2.2-6.9-6.1C0,127,2.2,123.8,6.8,123.8"/>
<path class="st1" d="M13.1,128.3c0-0.5-0.3-0.5-0.6-0.6c-0.3,0-0.6,0-0.6-0.3c0-0.1,0.1-0.2,0.3-0.2c0.6,0,1.2,0.1,1.7,0.1
	c0.6,0,1.2-0.1,1.6-0.1c0.2,0,0.3,0.1,0.3,0.2c0,0.1-0.2,0.3-0.6,0.3c-0.3,0.1-0.9,0.2-0.9,0.5v4.6c0,1.9,0.7,2.7,2.5,2.7
	c1.8,0,2.7-0.8,2.7-3.4v-3.6c0-0.6-0.6-0.8-0.9-0.9c-0.3,0-0.4-0.1-0.4-0.2c0-0.1,0.1-0.2,0.3-0.2c0.3,0,0.8,0.1,1.2,0.1
	c0.8,0,0.9-0.1,1.4-0.1c0.2,0,0.3,0.1,0.3,0.2c0,0.2-0.2,0.2-0.4,0.3c-0.4,0-0.9,0.3-0.9,0.9v4.1c0,2.6-1.2,3.5-3.3,3.5
	c-2.9,0-3.8-1-3.8-2.8V128.3z"/>
<path class="st1" d="M22.7,133.6c0-0.4,0.1-0.5,0.3-0.5c0.4,0-0.1,2.5,2.8,2.5c1.4,0,2-0.6,2-1.5c0-2.1-4.6-1.8-4.6-4.8
	c0-1.5,1.3-2.3,3-2.3c1.3,0,2.2,0.5,2.2,0.7c0,0.3,0.1,1,0.1,1.4c0,0.2-0.1,0.4-0.2,0.4c-0.2,0-0.2-0.3-0.5-0.9
	c-0.3-0.5-0.8-1.1-2-1.1c-0.9,0-1.5,0.4-1.5,1.4c0,1.9,4.7,1.7,4.7,4.6c0,1.7-1.3,2.7-3.2,2.7c-1.8,0-3.1-0.4-3.1-1V133.6z"/>
<path class="st1" d="M35.1,134.6c0,0.6,0.4,0.8,0.8,0.9c0.4,0,0.9,0,0.9,0.3c0,0.2-0.2,0.2-0.3,0.2c-0.7,0-1.4-0.1-2.1-0.1
	c-0.7,0-1.4,0.1-2.1,0.1c-0.1,0-0.3-0.1-0.3-0.2c0-0.3,0.4-0.3,0.8-0.3c0.4,0,0.8-0.2,0.8-0.9v-5.3c0-1.3-0.1-1.4-0.8-1.4
	c-2.4,0-2.3,1.6-2.8,1.6c-0.2,0-0.2-0.1-0.2-0.2c0-0.2,0.1-0.3,0.5-1.5c0.3-0.9,0.4-1.1,0.6-1.1c0.2,0,0.4,0.8,1,0.8h4.9
	c0.4,0,1.1,0,1.4-0.3c0.3-0.1,0.3-0.3,0.4-0.3c0.2,0,0.1,0.2,0.1,1.2c0,1.1-0.1,1.2-0.3,1.2c-0.2,0-0.2-0.3-0.4-0.7
	c-0.2-0.4-0.6-0.7-1.8-0.7c-1.1,0-1.2,0.1-1.2,1.4V134.6z"/>
<path class="st1" d="M44.6,127c2.7,0,4.7,1.9,4.7,4.6c0,2.6-2,4.6-4.9,4.6c-2.8,0-4.8-2-4.8-4.6C39.7,128.9,41.7,127,44.6,127
	 M44.5,135.7c2.2,0,3.3-1.5,3.3-4.1c0-2.6-1.4-4.1-3.1-4.1c-1.8,0-3.2,1.4-3.2,4.1C41.4,134.2,42.5,135.7,44.5,135.7"/>
<path class="st1" d="M56.5,133.2c0.1,0.1,0.1,0.1,0.2,0.1c0.1,0,0.1-0.1,0.2-0.1l2.7-5.3c0.2-0.4,0.4-0.7,0.7-0.7c0.6,0,1.3,0,1.9,0
	c0.3,0,0.4,0,0.4,0.3c0,0.2-0.3,0.2-0.9,0.2c-0.4,0-0.7,0.1-0.7,0.7v6.5c0,0.3,0.3,0.4,0.6,0.5c0.4,0,0.9,0,0.9,0.3
	c0,0.1-0.1,0.2-0.4,0.2c-0.6,0-1.2-0.1-1.8-0.1c-0.7,0-1.3,0.1-1.7,0.1c-0.3,0-0.4,0-0.4-0.2c0-0.2,0.3-0.3,0.7-0.3
	c0.3-0.1,0.7-0.1,0.7-0.6v-5.2c0-0.2,0-0.4-0.1-0.4c0,0-0.1,0.1-0.2,0.3l-2.9,5.9c-0.1,0.1-0.1,0.2-0.2,0.2c-0.1,0-0.1-0.1-0.2-0.2
	l-2.9-5.7c-0.1-0.3-0.2-0.5-0.3-0.5c-0.1,0-0.1,0.2-0.1,0.5l0,5.2c0,0.4,0.4,0.4,0.7,0.5c0.7,0.1,0.8,0.1,0.8,0.3
	c0,0.1-0.1,0.2-0.2,0.2c-0.4,0-1-0.1-1.7-0.1c-0.8,0-1.3,0.1-1.7,0.1c-0.2,0-0.2-0.1-0.2-0.2c0-0.3,0.4-0.3,0.7-0.3
	c0.4,0,0.8-0.2,0.8-0.8l0.3-4.6c0-1,0.1-1.5,0.1-1.8c0-0.4-0.3-0.5-0.9-0.5c-0.5,0-0.6-0.1-0.6-0.3c0-0.1,0.1-0.2,0.4-0.2
	c0.3,0,0.8,0.1,2.1,0.1c0.1,0,0.2,0.1,0.3,0.2L56.5,133.2z"/>
<path class="st1" d="M70,125.4c0-0.5-0.2-0.6-0.9-0.8c-0.6-0.1-0.9-0.1-0.9-0.4c0-0.2,0.3-0.2,0.6-0.2c0.7,0,2.3,0.1,2.8,0.1
	c0.6,0,3.3-0.1,4.9-0.1c0.3,0,0.3,0.2,0.3,0.6v1.9c0,0.1-0.1,0.1-0.2,0.1c-0.3,0-0.2-0.2-0.5-0.9c-0.3-0.7-0.4-1-3.7-1
	c-0.7,0-0.8,0.3-0.8,0.9v3.3c0,0.4,0.3,0.4,0.9,0.4h1.7c1.4,0,1-1.7,1.4-1.7c0.2,0,0.3,0.2,0.3,0.4c0,0.4-0.1,0.7-0.1,1.6
	c0,0.8,0.1,1.3,0.1,1.9c0,0.2,0,0.3-0.2,0.3c-0.3,0-0.3-0.3-0.4-0.9c-0.2-1-0.3-1.1-2.7-1.1c-0.9,0-1,0.1-1,0.5v3.8
	c0,0.9,0.1,1,2.3,1c1.3,0,1.7-0.2,2.1-0.7c0.9-1.1,0.8-1.6,1.2-1.6c0.2,0,0.2,0.1,0.2,0.2c0,0.1-0.1,0.2-0.1,0.3l-0.4,2
	c-0.1,0.3-0.2,0.4-0.4,0.4h-5.5c-1.1,0-1.7,0-2,0c-0.3,0-0.4,0-0.6,0c-0.2,0-0.5,0-0.5-0.2c0-0.3,0.4-0.3,0.9-0.4
	c0.5-0.1,1-0.1,1-0.8V125.4z"/>
<path class="st1" d="M83.8,134.6c0,0.7,0.4,0.7,0.8,0.8c0.4,0,0.8,0,0.8,0.3c0,0.2-0.2,0.2-0.4,0.2c-0.4,0-1.3-0.1-1.9-0.1
	c-0.6,0-1.2,0.1-1.7,0.1c-0.4,0-0.5,0-0.5-0.2c0-0.3,0.4-0.3,0.7-0.3c0.4-0.1,0.7-0.1,0.7-0.8v-2.3c0-0.4-0.3-0.8-0.7-1.3l-2-2.7
	c-0.7-0.8-1.2-0.6-1.2-0.9c0-0.1,0.1-0.2,0.3-0.2c0.6,0,1.1,0.1,1.6,0.1c0.5,0,1-0.1,1.6-0.1c0.2,0,0.3,0.1,0.3,0.3
	c0,0.3-1,0.1-1,0.5c0,0.6,2,3,2.4,3.2c0.1-0.1,2.1-2.6,2.1-3.1c0-0.5-1-0.4-1-0.7c0-0.1,0.1-0.2,0.3-0.2c0.3,0,0.5,0.1,1.2,0.1
	c0.8,0,1-0.1,1.3-0.1c0.2,0,0.3,0,0.3,0.2c0,0.3-0.7,0.3-1.5,1.3l-1.6,2c-0.7,0.8-0.9,1.2-0.9,1.7V134.6z"/>
<path class="st1" d="M91.7,130.8c0,0.2,0.1,0.3,0.5,0.3h1.5c0.6,0,0.9,0,1.2-0.3c0.3-0.2,0.4-0.8,0.6-0.8c0.2,0,0.2,0.1,0.2,0.3
	c0,0.2-0.1,0.5-0.1,1.1c0,0.7,0,1.2,0,1.4c0,0.1,0,0.2-0.2,0.2c-0.2,0-0.1-0.5-0.5-1.1c-0.2-0.3-0.7-0.5-1.3-0.5h-1.5
	c-0.4,0-0.5,0.1-0.5,0.3v2.8c0,0.5,0.3,0.7,2.1,0.7c1.1,0,1.8-0.2,2.1-0.7c0.4-0.6,0.5-1.1,0.7-1.1c0.1,0,0.2,0.1,0.2,0.2
	c0,0.1-0.2,1-0.3,1.5c-0.1,0.4-0.1,0.6-0.3,0.6c-0.4,0-1.8-0.1-3.7-0.1c-1.7,0-3,0.1-3.5,0.1c-0.2,0-0.3-0.1-0.3-0.2
	c0-0.3,0.4-0.3,0.8-0.3c0.5-0.1,0.8-0.2,0.8-0.8v-5.8c0-1-0.2-1.1-0.6-1.1c-0.4,0-0.6-0.1-0.6-0.2c0-0.1,0.1-0.3,0.3-0.3
	c0.6,0,1.4,0.1,3,0.1c1.7,0,2.8-0.1,3.7-0.1c0.5,0,0.5,0.1,0.5,0.4v1.4c0,0.2,0,0.3-0.1,0.3c-0.3,0-0.2-0.6-0.7-1
	c-0.5-0.4-1.2-0.6-2.6-0.6c-1.5,0-1.5,0.2-1.5,0.5V130.8z"/>
<path class="st2" d="M100.9,125.1c0,1.1-1.4,2.2-1.8,2.2c-0.1,0-0.2,0-0.2-0.2c0-0.2,1.1-0.8,1.1-1.4c0-0.6-0.9-0.6-0.9-1.1
	c0-0.6,0.3-0.8,0.8-0.8C100.6,123.8,100.9,124.4,100.9,125.1"/>
<path class="st1" d="M102.8,133.6c0-0.4,0.1-0.5,0.3-0.5c0.4,0-0.1,2.5,2.8,2.5c1.4,0,2-0.6,2-1.5c0-2.1-4.6-1.8-4.6-4.8
	c0-1.5,1.2-2.3,3-2.3c1.3,0,2.2,0.5,2.2,0.7c0,0.3,0.1,1,0.1,1.4c0,0.2-0.1,0.4-0.2,0.4c-0.2,0-0.2-0.3-0.5-0.9
	c-0.3-0.5-0.7-1.1-2-1.1c-0.9,0-1.5,0.4-1.5,1.4c0,1.9,4.7,1.7,4.7,4.6c0,1.7-1.3,2.7-3.2,2.7c-1.8,0-3-0.4-3-1V133.6z"/>
<path class="st3" d="M14,150.2c0.2-1.6,0.2-2.5,0.1-3.1l1.4,0.2c0.1,0,0.2,0,0.2,0.1c0,0.1,0,0.1-0.4,0.3c0,0.9-0.1,1.5-0.2,2.5h4.3
	c-0.1,1-0.2,2.9-0.7,5c-0.1,0.4-0.5,1.9-1.2,2.5c-0.5,0.4-1,0.4-2.2,0.5l-0.4-1.2c0.2,0,0.4,0.1,0.9,0.1c0.7,0,1.3,0,1.8-2
	c0.5-1.8,0.5-3,0.5-3.9H15c-0.3,1.2-0.6,2.6-1.6,4.2c-1.1,1.8-2,2.3-3.1,2.9l-0.9-0.9c0.8-0.4,1.7-0.8,2.7-2.3c1-1.4,1.4-2.9,1.6-4
	h-4v-1H14z"/>
<path class="st3" d="M31.7,148.9c-0.6,0.4-0.7,0.4-0.8,0.7c-0.8,1.7-1.2,2.4-2,3.4c1.3,1.1,2.7,2.4,3.9,4.1l-1,0.8
	c-0.4-0.7-0.8-1.3-1.8-2.4c-0.8-0.8-1.4-1.3-1.7-1.6c-1.8,2-3.3,2.8-5.2,3.7l-0.9-1c1.2-0.4,2.7-0.9,4.6-2.8c1.9-1.8,2.5-3.4,3-4.6
	h-5.9v-1h6.3c0.2,0,0.5-0.2,0.7-0.3L31.7,148.9z"/>
<path class="st3" d="M44.9,150.2c-0.3,0.2-0.3,0.3-0.4,0.4c-1,2.4-1.2,2.7-1.9,3.6c0.5,0.3,1,0.7,1.4,1.1l-0.7,0.9
	c-0.6-0.6-0.9-0.9-1.3-1.1c-0.5,0.6-1.1,1.4-2.3,2.2c-1.2,0.9-2.2,1.2-3.1,1.4l-0.7-1c0.7-0.2,1.6-0.4,2.8-1.2
	c1.2-0.7,1.8-1.5,2.4-2.1c-0.8-0.5-1.3-0.8-2.5-1.3l0.7-0.9c1.3,0.6,2,1.1,2.4,1.3c1-1.5,1.4-2.5,1.6-3.3h-4.2
	c-1.3,1.8-2.2,2.5-2.9,3l-1-0.7c0.9-0.6,1.7-1.2,2.9-2.9c1-1.3,1.3-2.1,1.5-2.6l1.1,0.5c0.2,0.1,0.2,0.2,0.2,0.2
	c0,0.2-0.4,0.2-0.5,0.2c-0.2,0.4-0.3,0.5-0.7,1.3h3.5c0.2,0,0.7-0.1,0.9-0.1L44.9,150.2z"/>
<path class="st3" d="M57.8,158c-0.2-0.8-0.6-1.5-0.8-1.9c-2.1,0.4-2.6,0.4-6.3,1.1c-1.6,0.3-1.7,0.3-1.9,0.3
	c-0.2,0.3-0.3,0.4-0.3,0.4c-0.1,0-0.2-0.2-0.2-0.2l-0.4-1.3c0.2,0,0.5,0,1.7-0.1c1-2.4,2.5-6.7,3-8.6l1.3,0.3c0.1,0,0.2,0.1,0.2,0.2
	c0,0.1-0.2,0.2-0.4,0.3c-0.2,0.5-2.1,5.7-2.8,7.7c1.9-0.2,3.8-0.5,5.7-0.9c-0.3-0.4-0.9-1.4-1.7-2.2l1-0.6c1.4,1.7,2.3,3.3,3.1,5.1
	L57.8,158z"/>
<path class="st3" d="M61.8,149.4v-1h10c0.1,0,0.3-0.1,0.5-0.3l0.8,0.8c-1.1,1.8-2.3,3.5-3.9,5l-0.8-0.7c0.3-0.3,0.8-0.7,1.6-1.7
	c0.9-1.1,1.1-1.5,1.4-2.1H61.8z M63,157.6c1.2-0.7,2.2-1.4,2.9-3.4c0.6-1.6,0.6-3,0.7-4.2l1.2,0.2c0.1,0,0.2,0.1,0.2,0.2
	c0,0.1,0,0.1-0.3,0.3c-0.2,2.1-0.4,3.5-1.4,5.3c-0.6,1-1.1,1.5-2.3,2.3L63,157.6z"/>
<path class="st3" d="M80.7,158.6v-6.9c-1.7,1.2-2.7,1.7-3.9,2.3l-1-0.9c1.2-0.4,2.5-0.8,4.7-2.4c2-1.5,3-2.6,3.7-3.4l1,0.8
	c0.1,0,0.2,0.1,0.2,0.3c0,0.1,0,0.1-0.2,0.1c-0.1,0-0.2,0-0.3,0c-1.2,1.1-1.6,1.5-2.9,2.5v7.8H80.7z"/>
<path class="st3" d="M96.9,149.1c-0.6,0.4-0.6,0.4-0.8,0.6c-1.1,2.3-1.3,2.7-1.9,3.5c1.9,1.5,2.9,2.7,3.8,4l-1,0.8
	c-1-1.6-2.1-2.9-3.6-3.9c-2.4,2.6-4.1,3.3-5.1,3.8l-0.8-1c1.2-0.4,2.7-0.9,4.5-2.8c1.8-1.9,2.4-3.4,2.9-4.7h-5.9v-1h6.4
	c0.2,0,0.5-0.2,0.6-0.3L96.9,149.1z M98,148.2c0.6,0.5,1.1,1.1,1.2,1.3l-0.6,0.6c-0.3-0.5-0.9-1-1.2-1.4L98,148.2z M98.9,146.5
	c0.4,0.3,0.8,0.8,1.3,1.3l-0.6,0.6c-0.2-0.3-0.6-0.9-1.3-1.4L98.9,146.5z"/>
</svg>
