<?xml version="1.0" encoding="utf-8"?>
<!-- Generator: Adobe Illustrator 25.0.0, SVG Export Plug-In . SVG Version: 6.00 Build 0)  -->
<svg version="1.1" id="レイヤー_1" xmlns="http://www.w3.org/2000/svg" xmlns:xlink="http://www.w3.org/1999/xlink" x="0px"
	 y="0px" width="443.6px" height="34.9px" viewBox="0 0 443.6 34.9" style="enable-background:new 0 0 443.6 34.9;"
	 xml:space="preserve">
<g>
	<g>
		<path d="M32.4,30.6c-2.2,0.5-3,1.2-4.1,2.5c-4.5-2.8-7.5-7.3-9.3-12.2c-1.2-3.2-2.5-7.6-2.7-16.5c-0.1,0-0.2,0-0.4,0.1
			C15.5,16.8,13.1,28.3,0.1,33L0,32.7c4.4-2.7,8.2-7.6,9.9-11.1c2.6-5.4,3.2-13.1,3.2-17.2c0-1.7-0.1-2.2-0.3-2.8l4.4,1.1
			c0.6,0.1,0.7,0.2,0.7,0.5c0,0.6-0.6,0.8-0.9,0.9c0.3,6.3,2.2,14,5.6,18.8c3.5,5,8,6.7,9.9,7.3L32.4,30.6z"/>
		<path d="M63.6,16.3c-3.5,0.7-6.9,2-10.2,3.4c0.1,0.6,0.4,2.2,0.4,4.3c0,0.8,0,3.2-1.3,3.2c-1.3,0-1.3-2.1-1.3-2.7c0-0.5,0-3,0-3.6
			c-2.4,1.5-5.2,4.2-5.2,6.1c0,2.8,4.8,2.8,5.8,2.8c2,0,4.2-0.4,5.6-0.6c0.7-0.1,0.9-0.1,1.3-0.1c1.6,0,2.2,0.9,2.2,1.6
			c0,0.7-0.7,1.1-1.1,1.2c-0.7,0.1-3.9,0.4-5.6,0.4c-2,0-9.6,0-9.6-4.5c0-3.4,4.5-6.7,6.5-8.1c-0.3-1.9-0.8-3.7-3.1-3.7
			c-2.2,0-4,2.2-4.5,3.1c-1.6,2.5-1.8,2.6-2.4,2.6c-0.9,0-1.1-0.6-1.1-1.5c0-1.3,0.4-1.6,0.8-2c2.6-2.2,4.4-5.2,6.2-8.1
			c-1.1,0.2-2.1,0.4-3.2,0.4c-2.5,0-3.7-1.3-3.6-3.2c1.1,1.1,2.1,1.3,3.7,1.3c1.5,0,3.6-0.3,4.2-0.4c0.5-0.8,2-3.5,2-4.1
			c0-0.5-0.8-1.3-2.5-1.5c0.4-0.4,0.9-0.9,2.2-0.9c1.8,0,3.3,1.3,3.3,2.1c0,0.5-0.3,0.9-0.6,1.3c-0.8,0.9-0.9,1.1-1.9,2.5
			c0.8-0.2,4.3-1.7,5.1-1.7c0.9,0,1.9,0.5,1.9,1.2c0,0.5-0.4,0.8-0.8,0.9c-1.7,0.7-5.7,1.4-7.7,1.7c-3.3,4.7-3.6,5.2-4.1,6.1
			c0.8-0.4,2-1,3.7-1c3.3,0,4,2.2,4.4,3.5c2.5-1.5,6-3.2,7.1-3.7c0.7-0.3,0.9-0.6,0.9-1.1c0-0.5-0.3-0.7-1.1-1.3
			c0.3-0.1,0.4-0.1,0.8-0.1c1.3,0,4.1,1.1,4.1,3.1C64.9,16,64.4,16.2,63.6,16.3z"/>
		<path d="M78.9,32.7c-1.2,0-1.5-0.9-1.8-2.1c-0.2-0.8-1.3-4.2-4.8-7l0.1-0.3c2.5,0.8,4,1.4,5.8,2.9c0.6,0.5,2.5,2.3,2.5,4.5
			C80.7,31.6,80,32.7,78.9,32.7z"/>
		<path d="M105.4,7.2h-4.9l-0.1,3.4c1.8,0.2,5,1.2,5,3.6c0,1-0.6,1.3-1.1,1.3c-1,0-1.5-0.9-1.9-1.7c-0.5-1-1.2-2.1-2-2.7
			c0,1.5,0.1,8.3,0.1,9.7c0,1.6-1.8,1.6-1.9,1.6c-0.6,0-0.9-0.2-0.9-0.8c0-0.4,0.1-2,0.2-2.3c0.1-2.6,0.2-5.6,0.2-7.4v-0.9
			c-0.9,1.6-3.2,5.3-8.6,8.6l-0.1-0.3c3.8-3.7,7.2-9.5,8.2-12.2H96c-0.9,0-2.7,0-4.3,0.3L91,6.1c2.3,0.2,4.5,0.3,5.6,0.3h1.6
			c0-3.5-0.2-4-0.7-5.5l3.5,0.9c0.5,0.1,0.6,0.4,0.6,0.6c0,0.4-0.2,0.5-1.1,1.1c0,1,0,1.7,0,2.8h1l1.1-1.5c0.2-0.3,0.4-0.5,0.5-0.5
			c0.2,0,0.4,0.1,0.7,0.4l1.7,1.5c0.2,0.2,0.4,0.4,0.4,0.6C106,7.2,105.7,7.2,105.4,7.2z M92.5,32.9c-0.8,0-1.4-0.7-1.4-1.4
			c0-0.8,0.3-1,1.6-2c2.1-1.7,2.6-3.4,2.8-4.2h0.2c0.1,0.5,0.1,1.1,0.1,1.9C95.8,31.2,93.9,32.9,92.5,32.9z M114.9,32.4
			c-1.9,1.2-5.2,1.2-8,1.2c-7.5,0-7.5-0.5-7.5-4.5c0-1.9,0-4.5-0.3-5.7l3.3,0.9c0.2,0.1,0.5,0.2,0.5,0.4c0,0.5-0.7,1-1.1,1.2
			c0,0.7,0,3.5,0,4.1c0,0.8,0.3,0.9,0.7,1c0.4,0.1,3.3,0.2,4.7,0.2c4.2,0,4.6-0.4,5.1-1c0.9-1,1.6-3.1,2-4.1h0.2
			c0.2,2.3,0.4,3.4,1,3.7c0.4,0.2,0.5,0.3,0.5,0.7C116,31.2,115.5,32,114.9,32.4z M108.2,27.7c-0.9,0-1.2-0.8-1.6-1.6
			c-0.4-1-1.4-2.6-2.5-3.3l0.1-0.3c4.9,0.8,5.3,3.3,5.3,3.8C109.5,27.2,108.9,27.7,108.2,27.7z M119.9,5.6
			c-0.1,3.1,0.1,9.7,0.2,12.3c0,0.4,0.1,2.2,0.1,2.6c0,1.7-1.5,1.7-1.6,1.7c-1.2,0-1.1-0.8-1.1-1.5h-8c0,0.9-1.1,1.3-1.7,1.3
			c-1.1,0-1.1-0.8-1.1-1.1c0-0.5,0.1-2.6,0.1-3c0.1-4.4,0.2-7.3,0.2-10.1c0-3-0.1-3.7-0.4-5.5l2.9,1.3h7.5l1-0.9
			c0.1-0.1,0.5-0.4,0.6-0.4c0.3,0,0.7,0.3,0.8,0.4l1.2,0.9c0.2,0.2,0.4,0.4,0.4,0.7C121.2,4.8,120.6,5.2,119.9,5.6z M117.6,4.5h-8V9
			h8V4.5z M117.6,9.9h-8v4.5h8V9.9z M117.6,15.3h-8v4.6h8V15.3z M121.2,31.3c-1.1,0-1.4-0.9-1.7-1.9c-0.3-0.8-0.8-2.7-2.8-4.9
			l0.1-0.1c3,0.9,5.8,3.2,5.8,5.3C122.6,30.8,122,31.3,121.2,31.3z"/>
		<path d="M139.7,34.9l-0.2-0.2c7.6-5.2,8.7-12.9,8.7-16c0-2.4-0.7-6.4-3.7-6.4c-2,0-4.4,1.9-5.9,3.8c-1.5,1.9-1.9,2.4-2.7,2.4
			c-1.4,0-3.7-1.3-3.7-3.9c0-0.4,0.1-0.6,0.1-1c0.7,0.9,1.3,1.5,2.3,1.5c0.5,0,0.7,0,3-1.3c3.2-1.9,4.8-2.6,7.1-2.6
			c5.4,0,6.3,5.2,6.3,7.9C151,26.1,146.4,32.3,139.7,34.9z M146.8,7c-0.4,0-2.3-0.3-2.7-0.3c-1.3,0-2.7,0.6-3.8,1.1l-0.1-0.1
			c2-1.9,2-2,2-2.3c0-0.2-0.2-0.4-0.6-0.5c-2.2-1-3.1-1.4-4.2-2.9c-0.7-0.9-0.7-1.4-0.7-1.9c1.7,1.6,2.9,1.9,7.3,3.1
			c2.5,0.7,4,1.9,4,3C148,6.9,147.4,7,146.8,7z"/>
		<path d="M188.9,9.5l1.3-1.3c0.2-0.2,0.4-0.4,0.6-0.4c0.2,0,0.3,0.1,0.5,0.2l1.8,1.5c0.2,0.2,0.5,0.4,0.5,0.7
			c0,0.2-0.2,0.4-0.3,0.5c-0.1,0.1-0.8,0.7-1.1,0.9c-0.5,16.8-0.7,21.8-9.6,22.4c-0.2-1.8-2.6-3.5-4.3-4.3l0.1-0.3
			c1,0.3,3.7,0.9,5.9,0.9c1.3,0,2.7-0.1,3.7-2.4c0.6-1.4,1.5-9.5,1.5-14.6c0-0.8,0-2.3-0.1-3H179c-0.3,3.4-0.9,8-3.1,12.3
			c-2.7,5.4-7.4,9.6-13.3,11.1l-0.1-0.3c5.1-2.5,12.7-8.8,13.6-23.1h-7.6c-0.9,0-2.7,0-4.3,0.3l-0.7-1.5c3,0.3,5.1,0.3,5.6,0.3h7.1
			c0.2-4.8-0.4-7.2-0.8-8.9l4.4,1.4c0.1,0,0.8,0.3,0.8,0.6c0,0.4-0.1,0.5-1.4,1.4c0,1.2,0.1,2.9-0.1,5.5H188.9z"/>
		<path d="M205.1,33c-2.9,0-5.2-2.4-5.2-5.4c0-3,2.4-5.3,5.2-5.3c2.9,0,5.3,2.4,5.3,5.3C210.3,30.5,208,33,205.1,33z M205.1,23.3
			c-2.3,0-4.2,2-4.2,4.3s1.8,4.3,4.2,4.3c2.4,0,4.2-2,4.2-4.3C209.3,25.2,207.4,23.3,205.1,23.3z"/>
		<path d="M242.3,3c0.2,0.2,0.3,0.3,0.3,0.6c0,0.4-0.3,0.4-1.5,0.5c-1.9,2.1-5.1,5.2-9.4,6.9l0-0.1c4.5-3.6,7.5-8.5,8.1-10.3
			L242.3,3z M241.7,10.5c0.3,0.2,0.5,0.4,0.5,0.6c0,0.3-0.3,0.4-1.3,0.6c-0.5,0.9-0.9,1.5-1.5,2.3c0.9,0.4,1.1,0.5,1.1,0.8
			c0,0.3-0.4,0.5-1,0.9c0,2.4,0,10.1,0.1,12.5c0,0.5,0.1,3.4,0.1,4c0,0.3,0,0.6-0.1,0.9c-0.2,0.3-1,0.8-1.7,0.8
			c-0.9,0-0.9-0.8-0.9-1.2c0-0.9,0.2-5.7,0.3-6.7c0-2.5,0.1-6.1,0-9.3c-2.5,2.8-4.3,3.9-5.2,4.5l-0.1-0.1c5.5-6.7,6.9-11.6,7.2-12.6
			L241.7,10.5z M241.3,20.1c2.5,0.2,3.9,0.2,5.6,0.3c0-3.2,0-3.5-0.2-5.1l3.1,0.6c0.3,0.1,0.5,0.2,0.5,0.4c0,0.3-0.1,0.4-1.1,1.1v3
			h1.9l1.3-1.4c0.3-0.3,0.4-0.5,0.6-0.5c0.2,0,0.3,0.1,0.7,0.4l1.7,1.4c0.2,0.2,0.4,0.4,0.4,0.5c0,0.3-0.3,0.4-0.6,0.4h-6v5.3
			c2.6-0.4,5.2-0.9,7.8-1.6l0.1,0.3c-4.9,2.3-8.6,3.5-13.1,4.7c-0.2,0.5-0.4,0.8-0.8,0.8c-0.2,0-0.5-0.3-0.5-0.4L241,27
			c0.5,0,1.2,0.1,1.9,0.1c0.6,0,2.3-0.1,3.9-0.3v-5.6c-1.4,0-3.1,0-4.8,0.3L241.3,20.1z M251.2,7.6l0.9-1.2c0.2-0.3,0.4-0.4,0.6-0.4
			c0.2,0,0.4,0.1,0.7,0.4l1.6,1.2c0.3,0.2,0.4,0.3,0.4,0.6c0,0.3-0.3,0.4-0.6,0.4h-5.6v5.4h2.6l1.2-1.4c0.1-0.1,0.3-0.4,0.5-0.4
			c0.2,0,0.4,0.2,0.7,0.4l1.7,1.3c0.3,0.2,0.4,0.4,0.4,0.6c0,0.3-0.3,0.4-0.6,0.4h-9.6c-0.9,0-2.8,0.1-4.3,0.3l-0.7-1.5
			c2.6,0.2,5.1,0.3,5.8,0.3V8.5c-1.3,0-3,0-4.8,0.3l-0.7-1.4c2,0.1,2.4,0.1,5.5,0.2c-0.1-4.6-0.1-5.1-0.7-7l3.6,1.1
			c0.4,0.1,0.6,0.2,0.6,0.5c0,0.4-0.3,0.5-1.2,1.1c0,0.7-0.1,3.6-0.1,4.2H251.2z M261.1,14.9v7.9c0,0.6,0.1,5.9,0.1,7
			c0,1.8-0.3,3.2-4.1,4.3c-0.3-1-0.7-2.1-3.1-3.6v-0.2c0.8,0.1,1.8,0.2,2.4,0.2c1.9,0,2.3-0.1,2.3-1.2V15c-0.2,0-0.9,0-1.7,0.1
			l-0.5-1.1c0.9,0.1,1.9,0.1,2.8,0.1h2.4l1.2-1.6c0.3-0.3,0.4-0.5,0.6-0.5c0.2,0,0.5,0.3,1,0.8l1.3,1.3c0.2,0.2,0.4,0.3,0.4,0.7
			c0,0.3-0.3,0.3-0.6,0.3H261.1z M260.8,5.5l0.9-1.4c0.1-0.2,0.4-0.4,0.6-0.4c0.3,0,0.5,0.2,0.8,0.4l1.6,1.3
			c0.2,0.2,0.4,0.3,0.4,0.6c0,0.3-0.3,0.4-0.6,0.4H258c-0.4,0-1.3,0-2,0.1l-0.5-1.1c1.3,0.1,2.3,0.1,2.8,0.1H260.8z"/>
		<path d="M296.9,16.4c-3.5,0.7-6.9,2-10.2,3.4c0.1,0.6,0.4,2.2,0.4,4.3c0,0.8,0,3.2-1.3,3.2c-1.3,0-1.3-2.1-1.3-2.7
			c0-0.5,0-3,0-3.6c-2.4,1.5-5.2,4.2-5.2,6.1c0,2.8,4.8,2.8,5.8,2.8c2,0,4.2-0.4,5.6-0.6c0.7-0.1,0.9-0.1,1.3-0.1
			c1.6,0,2.2,0.9,2.2,1.6c0,0.7-0.7,1.1-1.1,1.2c-0.7,0.1-3.9,0.4-5.6,0.4c-2,0-9.6,0-9.6-4.5c0-3.4,4.5-6.7,6.5-8.1
			c-0.3-1.9-0.8-3.7-3.1-3.7c-2.2,0-4,2.2-4.5,3.1c-1.6,2.5-1.8,2.6-2.4,2.6c-0.9,0-1.1-0.6-1.1-1.5c0-1.3,0.4-1.6,0.8-2
			c2.6-2.2,4.4-5.2,6.2-8.1c-1.1,0.2-2.1,0.4-3.2,0.4c-2.5,0-3.7-1.3-3.6-3.2c1.1,1.1,2.1,1.3,3.7,1.3c1.5,0,3.6-0.3,4.2-0.4
			c0.5-0.8,2-3.5,2-4.1c0-0.5-0.8-1.3-2.5-1.5c0.4-0.4,0.9-0.9,2.2-0.9c1.8,0,3.3,1.3,3.3,2.1c0,0.5-0.3,0.9-0.6,1.3
			c-0.8,0.9-0.9,1.1-1.9,2.5c0.8-0.2,4.3-1.7,5.1-1.7c0.9,0,1.9,0.5,1.9,1.2c0,0.5-0.4,0.8-0.8,0.9c-1.7,0.7-5.7,1.4-7.7,1.7
			c-3.3,4.7-3.6,5.2-4.1,6.1c0.8-0.4,2-1,3.7-1c3.3,0,4,2.2,4.4,3.5c2.5-1.5,6-3.2,7.1-3.7c0.7-0.3,0.9-0.6,0.9-1.1
			c0-0.5-0.3-0.7-1.1-1.3c0.3-0.1,0.4-0.1,0.8-0.1c1.3,0,4.1,1.1,4.1,3.1C298.1,16.1,297.7,16.2,296.9,16.4z"/>
		<path d="M312.2,32.8c-1.2,0-1.5-0.9-1.8-2.1c-0.2-0.8-1.3-4.2-4.8-7l0.1-0.3c2.5,0.8,4,1.4,5.8,2.9c0.6,0.5,2.5,2.3,2.5,4.5
			C314,31.7,313.3,32.8,312.2,32.8z"/>
		<path d="M338.7,7.2h-4.9l-0.1,3.4c1.8,0.2,5,1.2,5,3.6c0,1-0.6,1.3-1.1,1.3c-1,0-1.5-0.9-1.9-1.7c-0.5-1-1.2-2.1-2-2.7
			c0,1.5,0.1,8.3,0.1,9.7c0,1.6-1.8,1.6-1.9,1.6c-0.6,0-0.9-0.2-0.9-0.8c0-0.4,0.1-2,0.2-2.3c0.1-2.6,0.2-5.6,0.2-7.4v-0.9
			c-0.9,1.6-3.2,5.3-8.6,8.6l-0.1-0.3c3.8-3.7,7.2-9.5,8.2-12.2h-1.7c-0.9,0-2.7,0-4.3,0.3l-0.7-1.5c2.3,0.2,4.5,0.3,5.6,0.3h1.6
			c0-3.5-0.2-4-0.7-5.5l3.5,0.9c0.5,0.1,0.6,0.4,0.6,0.6c0,0.4-0.2,0.5-1.1,1.1c0,1,0,1.7,0,2.8h1l1.1-1.5c0.2-0.3,0.4-0.5,0.5-0.5
			c0.2,0,0.4,0.1,0.7,0.4l1.7,1.5c0.2,0.2,0.4,0.4,0.4,0.6C339.2,7.2,338.9,7.2,338.7,7.2z M325.7,32.9c-0.8,0-1.4-0.7-1.4-1.4
			c0-0.8,0.3-1,1.6-2c2.1-1.7,2.6-3.4,2.8-4.2h0.2c0.1,0.5,0.1,1.1,0.1,1.9C329.1,31.2,327.1,32.9,325.7,32.9z M348.2,32.4
			c-1.9,1.2-5.2,1.2-8,1.2c-7.5,0-7.5-0.5-7.5-4.5c0-1.9,0-4.5-0.3-5.7l3.3,0.9c0.2,0.1,0.5,0.2,0.5,0.4c0,0.5-0.7,1-1.1,1.2
			c0,0.7,0,3.5,0,4.1c0,0.8,0.3,0.9,0.7,1c0.4,0.1,3.3,0.2,4.7,0.2c4.2,0,4.6-0.4,5.1-1c0.9-1,1.6-3.1,2-4.1h0.2
			c0.2,2.3,0.4,3.4,1,3.7c0.4,0.2,0.5,0.3,0.5,0.7C349.3,31.2,348.8,32,348.2,32.4z M341.4,27.7c-0.9,0-1.2-0.8-1.6-1.6
			c-0.4-1-1.4-2.6-2.5-3.3l0.1-0.3c4.9,0.8,5.3,3.3,5.3,3.8C342.7,27.2,342.1,27.7,341.4,27.7z M353.2,5.7
			c-0.1,3.1,0.1,9.7,0.2,12.3c0,0.4,0.1,2.2,0.1,2.6c0,1.7-1.5,1.7-1.6,1.7c-1.2,0-1.1-0.8-1.1-1.5h-8c0,0.9-1.1,1.3-1.7,1.3
			c-1.1,0-1.1-0.8-1.1-1.1c0-0.5,0.1-2.6,0.1-3c0.1-4.4,0.2-7.3,0.2-10.1c0-3-0.1-3.7-0.4-5.5l2.9,1.3h7.5l1-0.9
			c0.1-0.1,0.5-0.4,0.6-0.4c0.3,0,0.7,0.3,0.8,0.4l1.2,0.9c0.2,0.2,0.4,0.4,0.4,0.7C354.4,4.9,353.9,5.2,353.2,5.7z M350.8,4.6h-8
			v4.5h8V4.6z M350.8,9.9h-8v4.5h8V9.9z M350.8,15.3h-8v4.6h8V15.3z M354.5,31.3c-1.1,0-1.4-0.9-1.7-1.9c-0.3-0.8-0.8-2.7-2.8-4.9
			l0.1-0.1c3,0.9,5.8,3.2,5.8,5.3C355.9,30.8,355.2,31.3,354.5,31.3z"/>
		<path d="M372.9,34.9l-0.2-0.2c7.6-5.2,8.7-12.9,8.7-16c0-2.4-0.7-6.4-3.7-6.4c-2,0-4.4,1.9-5.9,3.8c-1.5,1.9-1.9,2.4-2.7,2.4
			c-1.4,0-3.7-1.3-3.7-3.9c0-0.4,0.1-0.6,0.1-1c0.7,0.9,1.3,1.5,2.3,1.5c0.5,0,0.7,0,3-1.3c3.2-1.9,4.8-2.6,7.1-2.6
			c5.4,0,6.3,5.2,6.3,7.9C384.3,26.2,379.6,32.4,372.9,34.9z M380.1,7.1c-0.4,0-2.3-0.3-2.7-0.3c-1.3,0-2.7,0.6-3.8,1.1l-0.1-0.1
			c2-1.9,2-2,2-2.3c0-0.2-0.2-0.4-0.6-0.5c-2.2-1-3.1-1.4-4.2-2.9C370,1,370,0.5,370,0c1.7,1.6,2.9,1.9,7.3,3.1c2.5,0.7,4,1.9,4,3
			C381.2,6.9,380.7,7.1,380.1,7.1z"/>
		<path d="M422.1,9.5l1.3-1.3c0.2-0.2,0.4-0.4,0.6-0.4c0.2,0,0.3,0.1,0.5,0.2l1.8,1.5c0.2,0.2,0.5,0.4,0.5,0.7
			c0,0.2-0.2,0.4-0.3,0.5c-0.1,0.1-0.8,0.7-1.1,0.9c-0.5,16.8-0.7,21.8-9.6,22.4c-0.2-1.8-2.6-3.5-4.3-4.3l0.1-0.3
			c1,0.3,3.7,0.9,5.9,0.9c1.3,0,2.7-0.1,3.7-2.4c0.6-1.4,1.5-9.5,1.5-14.6c0-0.8,0-2.3-0.1-3h-10.5c-0.3,3.4-0.9,8-3.1,12.3
			c-2.7,5.4-7.4,9.6-13.3,11.1l-0.1-0.3c5.1-2.5,12.7-8.8,13.6-23.1h-7.6c-0.9,0-2.7,0-4.3,0.3l-0.7-1.5c3,0.3,5.1,0.3,5.6,0.3h7.1
			c0.2-4.8-0.4-7.2-0.8-8.9L413,2c0.1,0,0.8,0.3,0.8,0.6c0,0.4-0.1,0.5-1.4,1.4c0,1.2,0.1,2.9-0.1,5.5H422.1z"/>
		<path d="M438.3,33c-2.9,0-5.2-2.4-5.2-5.4c0-3,2.4-5.3,5.2-5.3c2.9,0,5.3,2.4,5.3,5.3C443.6,30.6,441.3,33,438.3,33z M438.3,23.3
			c-2.3,0-4.2,2-4.2,4.3c0,2.3,1.8,4.3,4.2,4.3c2.4,0,4.2-2,4.2-4.3C442.5,25.3,440.7,23.3,438.3,23.3z"/>
	</g>
</g>
</svg>
