<?xml version="1.0" encoding="utf-8"?>
<!-- Generator: Adobe Illustrator 25.0.0, SVG Export Plug-In . SVG Version: 6.00 Build 0)  -->
<svg version="1.1" id="レイヤー_1" xmlns="http://www.w3.org/2000/svg" xmlns:xlink="http://www.w3.org/1999/xlink" x="0px"
	 y="0px" width="198.5px" height="23.3px" viewBox="0 0 198.5 23.3" style="enable-background:new 0 0 198.5 23.3;"
	 xml:space="preserve">
<style type="text/css">
	.st0{fill:#E60012;}
</style>
<path class="st0" d="M45.3,0.9h-3v0.9h-9.7V0.9h-3v0.9h-3.2V4h3.2V5h3V4h9.7V5h3V4h3.2V1.8h-3.2V0.9z M39,8.1h8.7V5.8H39v-1h-3v1
	h-8.7v2.3H36v1.1h-9.6v2.3h4.8c-1.3,1-3.3,1.5-4.8,1.8v2.3c1.4-0.2,6-1,8.7-4.1h4.7c0,0.7,0,1.7,0,1.7c0,1.1,0.7,1.7,2,1.7
	c0,0,6.7,0,6.8,0v-2.2c-0.1,0-5.1,0-5.1,0c-0.6,0-0.6-0.4-0.6-0.7c0,0,0-0.2,0-0.5h5.7V9.2H39V8.1z M47.1,15.8H36
	c0.9-0.7,1.8-1.5,2.5-2.4c0,0-3.5,0-3.5,0c-3.3,2.6-6.7,3.1-8.6,3.5v2.4c0.5,0,2.1-0.3,4.2-0.9c0.7,0.6,1.5,1.1,2.3,1.6
	c-2.4,0.4-4.8,0.6-6.5,0.6V23c4.1,0,7.9-0.5,11-1.3c3.1,0.8,6.8,1.3,11.1,1.3v-2.5c-1.9,0-4.3-0.1-6.6-0.5
	C44.2,18.9,46,17.5,47.1,15.8z M37.3,19c-1.3-0.4-2.4-0.9-3.3-1.4h7.1C40.2,18.1,38.8,18.6,37.3,19z M89.3,1.5h-9.7v2.8h9.7V1.5z
	 M21.1,2.3H1v3.1h20V2.3z M20.5,13.2v-3.1H1.6v3.1H20.5z M0,21.8h22.1v-3.1H0V21.8z M69.4,0.9h-3.1v4C65.7,5,64.9,5.2,64,5.5V2.8h-3
	v3.4c-0.6,0.2-1.1,0.3-1.1,0.3v3.3c0,0,0.5-0.1,1.1-0.3c0,4.7,0,10.2,0,10.2c0,1.5,0.9,3.3,3.3,3.3c0,0,10.2,0,10.4,0v-3.1
	c-0.9,0-9.3,0-9.3,0c-0.9,0-1.4-0.5-1.4-1.4c0,0,0-5.3,0-9.7c0.7-0.2,1.5-0.4,2.3-0.6v8.5h3.1V7.3c1.4-0.4,2.3-0.6,2.3-0.6
	s0,9.7,0,9.9h3V2.7c-0.1,0-3.3,0.9-5.3,1.4V0.9z M94.1,4.4h0.2c1.1,0,4.9-0.2,6.7-0.6c0-0.1,0-2.8,0-3c-4.2,0.7-5.5,0.7-9.6,0.7
	c0,0-0.4,0-0.5,0c0,0.2,0,8.4,0,8.4c0,3.7-0.4,9.4-1.7,13.1h3.3c0.8-2.1,1.5-9.6,1.6-12.5h2.6V23h3.2V10.5c1.1,0,1.8,0,1.8,0v-3
	c0,0-5.8,0-7.6,0V4.4z M89.3,6h-9.5c0,0.2,0,7.2,0,7.2c0,1.3-0.1,5.7-1.3,9.7h3.3c0.5-1.4,0.9-4.6,1.1-7.3l0-0.2c0,0,6.2,0,6.4,0V6z
	 M86.5,12.7H83V8.9h3.4V12.7z M57.4,8.1h1.5v-3h-1.5V0.9h-3.1v4.2h-1.7v3h1.7v9.1c-0.7,0.2-1.3,0.3-1.7,0.4V21
	c1.5-0.3,5.8-1.7,7.3-2.4v-3c-0.6,0.2-1.5,0.6-2.5,0.8V8.1z M149.2,8.5c-0.3,3.9-1.5,8.7-5.8,10.2c0-0.2,0-16.7,0-16.7H140V23l0.1,0
	c7.9-0.7,12.1-5.6,12.6-14.5l0-0.1L149.2,8.5L149.2,8.5z M196,0c-1.3,0-2.4,1.1-2.5,2.4c-0.1,0-17.3,0-17.3,0v3.3c0,0,15.8,0,15.9,0
	c-0.7,7.5-5.4,12.5-13.1,14l0,0V23l0.1,0c10-1.2,16.1-7.7,16.9-17.8c0,0,0.1,0,0.1,0c1.4,0,2.6-1.1,2.6-2.5C198.5,1.2,197.4,0,196,0
	z M196,3.7c-0.6,0-1.1-0.5-1.1-1.1c0-0.6,0.5-1.1,1.1-1.1c0.6,0,1.1,0.5,1.1,1.1C197.1,3.2,196.6,3.7,196,3.7z M156.9,12.8h18.1V9.5
	h-18.1V12.8z M126.6,2.3h-0.8c0-0.1,0-2,0-2h-2.2c0,0,0,1.9,0,2c-0.1,0-12.8,0-12.8,0l0,0c-0.7,3.2-2.6,5.9-5.2,7.6l0,0v3.6l0.1,0
	c3.4-1.3,6.3-4.2,7.8-7.9h9.7c-1,8.5-5.8,13.3-14.1,14.2l0,0v3.2l0.1,0c10.9-0.9,17.1-7.4,17.9-19c0.1,0,1.8,0,1.8,0V0.3h-2.2
	C126.6,0.3,126.6,2.2,126.6,2.3z M133.7,8.7c0,6.7-1.6,8.9-3.3,10.7l0,0v4l0.1,0c4.2-2.6,6.7-5.8,6.7-14.9V2h-3.4V8.7z"/>
</svg>
