<?xml version="1.0" encoding="utf-8"?>
<!-- Generator: Adobe Illustrator 25.0.0, SVG Export Plug-In . SVG Version: 6.00 Build 0)  -->
<svg version="1.1" id="レイヤー_1" xmlns="http://www.w3.org/2000/svg" xmlns:xlink="http://www.w3.org/1999/xlink" x="0px"
	 y="0px" width="850.4px" height="47.2px" viewBox="0 0 850.4 47.2" style="enable-background:new 0 0 850.4 47.2;"
	 xml:space="preserve">
<style type="text/css">
	.st0{fill:#4B575E;}
</style>
<g>
	<path class="st0" d="M34.9,22.8l2.8-3.6c0.4-0.5,0.6-0.6,0.8-0.6c0.4,0,0.8,0.4,1,0.6l4.2,3.7c0.3,0.3,0.6,0.5,0.6,0.9
		c0,0.5-0.4,0.6-0.9,0.6h-37c-3.1,0-4.2,0.1-5.5,0.4L0,22.5c2.4,0.2,4.8,0.3,7.2,0.3H34.9z"/>
	<path class="st0" d="M106,43.5H67.5c-3.1,0-4.2,0.1-5.5,0.4L61.3,42c3.1,0.3,6.6,0.3,7.2,0.3h13.9c0-1.9,0.1-13.2,0.1-14h-6.7
		c-3.1,0-4.2,0.2-5.5,0.4l-0.8-1.9c3.1,0.3,6.6,0.3,7.2,0.3h5.8l0.1-12h-9.9c-2.2,5.4-4.8,10.6-10.8,15.5l-0.3-0.4
		c5.4-9.5,9.2-20.2,9.2-25.2c0-0.5-0.1-0.6-0.2-1.1l6.1,2.3c0.3,0.1,0.6,0.3,0.6,0.7c0,0.8-1.8,1.3-2,1.3c-1,2.8-1.5,4.1-2.2,5.6
		h9.4c0-7.2,0.1-10.3-0.9-12.9l6.2,1.7c0.5,0.1,0.7,0.4,0.7,0.7c0,0.4-0.2,0.5-1.5,1.7c-0.2,1.7-0.2,2.4-0.3,8.8h8.8l2-2.9
		c0.2-0.3,0.4-0.6,0.8-0.6c0.3,0,0.6,0.3,1,0.5l3.6,2.8c0.2,0.2,0.5,0.5,0.5,0.8c0,0.4-0.3,0.7-0.8,0.7H86.7c0,3.3-0.1,8.7-0.1,12
		h6.2l2.3-3c0.3-0.3,0.5-0.6,0.8-0.6c0.3,0,0.6,0.3,0.9,0.5l3.9,3c0.3,0.2,0.5,0.5,0.5,0.8c0,0.5-0.5,0.5-0.8,0.5h-14
		c0,2.2,0,12,0,14h11.6l2.8-3c0.4-0.4,0.6-0.6,0.8-0.6c0.3,0,0.5,0.2,0.9,0.6l3.6,2.9c0.4,0.3,0.6,0.5,0.6,0.8
		C106.8,43.4,106.4,43.5,106,43.5z"/>
	<path class="st0" d="M138.3,46c-7.6,0-10.9-3.8-10.9-9.8c0-1.5,0.1-1.8,0.7-5.2c-4.7-1.8-6.4-3.4-6.4-5.5c0-1.7,0.8-2.8,4.2-6.1
		c0.6-0.6,1.9-1.8,1.9-2.2c0-0.5-0.3-0.7-0.7-0.8c-3.4-1.5-6-2.7-6.2-6.7c3.7,3.3,5.7,3.7,10.2,4.7c0.3-1.9,0.9-5.7,0.9-7.3
		c0-3.1-1.8-3.7-3.8-4.5c0.5-0.6,1.1-1.1,2.8-1.1c2.4,0,6.3,2,6.3,4.1c0,0.9-0.7,2.5-0.9,2.9c-0.9,2-1.5,3.3-2.4,6.8
		c1.2,0.6,2.3,1.7,2.3,2.6c0,1.7-1.8,1.6-3.4,1.6c-0.3,1.1-1.2,5-1.8,8.8c1.7,0,4.6,0.2,5.1,0.4c0.9,0.3,2.5,2,2.5,2.8
		c0,1.3-2.3,1.3-3.2,1.3c-2.3,0-4.2-0.6-5-0.9c-0.1,0.8-0.3,1.8-0.3,3.3c0,1.9,0,7.8,7.6,7.8c3.8,0,8.4-2,8.4-7.5
		c0-5.1-4.5-12.2-8.6-14.8l0.2-0.3c1.4,0.6,13.2,5.1,13.2,14.9C151,44.8,141.4,46,138.3,46z M123.8,24.5c0,2,3.2,3,4.9,3.4l1.6-8.4
		C125.9,20,123.8,22.9,123.8,24.5z"/>
	<path class="st0" d="M188.7,41.4c3.7-1.4,15.9-6.2,15.9-18.6c0-7-4.6-13.6-14.6-13.6c-1.5,0-2.5,0.2-3.2,0.3
		c3.4,1.5,4.3,3.6,4.3,4.4c0,0.7-3.7,9-6.5,14.2c-5.3,9.9-7,10.3-8.4,10.3c-1.1,0-1.7-0.8-3.2-3c-0.7-1-0.9-1.2-2-2.1
		c-1.5-1.3-2.3-3.9-2.3-5.9c0-10.9,9.4-19.7,21.7-19.7c10.4,0,18.9,6,18.9,16c0,10.5-9.1,17.2-20.6,18.2V41.4z M172.4,26.4
		c0,3.2,1.5,7.6,3.4,7.6c1.6,0,3.6-3.7,4.7-5.7c1.6-3.1,6.1-12.2,6.1-15.3c0-0.4-0.1-1.7-1.7-3.2C178,11.4,172.4,19.9,172.4,26.4z"
		/>
	<path class="st0" d="M234.3,31.3c-0.7,3.7-1,5.5-1,6.6c0,0.6,0.3,2.9,0.3,3.4c0,1.6-0.2,2.6-1.6,2.6c-3,0-5.8-6.1-5.8-15
		c0-3.2,0.5-7.4,2-15.7c0.3-1.5,0.4-2.8,0.4-3.4c0-1.6-0.4-2.9-2-4.9c0.4-0.2,0.7-0.4,1.3-0.4c1.8,0,5.6,3.1,5.6,5
		c0,0.9-0.5,2.1-0.7,2.5c-2.1,4.8-3.9,8.8-3.9,14.8c0,3.2,0.9,7.2,1.8,7.2c0.4,0,0.6-0.6,0.8-1c0.5-1.4,3-8,4.5-10.8h0.4
		C235.9,23.7,234.5,30,234.3,31.3z M258.5,39.6c-12.2,0-17.1-2.2-17.1-8.5c0-1.7,0.4-2.2,0.7-2.6c0.9,3.6,1.7,6.8,11,6.8
		c1.1,0,5.8-0.4,6.7-0.4c3.6,0,4.2,1.7,4.2,2.5C264.1,39.6,261.3,39.6,258.5,39.6z M258.4,13.1c-5.4,0.9-9.1,2.9-10,3.6l-0.4-0.3
		c0.7-0.8,4.4-4.1,4.4-4.6c0-0.7-1.6-0.7-2-0.7c-3.1,0-7.5,1.8-8.9,2.3c1.7-4,8.8-5.6,13.7-5.6c2.2,0,6.4,0.7,6.4,3
		C261.6,12,261,12.6,258.4,13.1z"/>
	<path class="st0" d="M286.8,45.4c-1.8,0-2.1-0.8-3.6-4.3c-2-4.6-5.5-7.1-6.7-8.1l0.3-0.6c3.5,0.8,6.3,1.5,9.5,3.9
		c0.4,0.3,3.4,2.6,3.4,5.7C289.6,43.3,288.9,45.4,286.8,45.4z"/>
	<path class="st0" d="M322.8,5.5c-0.9,2.1-1.7,4-3.1,6.6l0.7,0.5c0.4,0.3,0.5,0.5,0.5,0.7c0,0.2-0.1,0.4-0.2,0.6
		c-0.2,0.2-1,0.9-1.2,1.1c0,1.9,0.2,20.4,0.2,20.7c0.1,1.8,0.5,7.1,0.5,8.6c0,2.4-1.4,3-3,3c-1.7,0-2.1-0.6-2.1-1.9
		c0-0.8,0.3-4.3,0.3-5.1c0.2-3.4,0.2-3.6,0.3-16.1c0-2.8,0.1-3.1,0.1-5.7c-3.3,4.3-6.4,6.6-7.8,7.6l-0.3-0.3c3.8-5.4,9-15.7,11-22.2
		c0.3-1,0.4-1.6,0.6-3.6l5.2,3c0.2,0.1,0.7,0.4,0.7,1C325,4.7,324.2,5.1,322.8,5.5z M353.3,43.7H327c-3.5,0-4.5,0.2-5.5,0.4
		l-0.9-1.9c2.4,0.2,4.8,0.3,7.2,0.3h6.1V27.4h-3.7c-3.5,0-4.5,0.2-5.5,0.4l-0.8-1.9c2.4,0.2,4.8,0.3,7.2,0.3h2.8V13.6h-6
		c-3.5,0-4.5,0.2-5.5,0.3l-0.8-1.8c2.4,0.2,4.8,0.3,7.2,0.3h15.4l1.7-3c0.2-0.3,0.5-0.8,0.9-0.8c0.3,0,0.6,0.3,0.9,0.6l4,3.1
		c0.2,0.2,0.5,0.4,0.5,0.8c0,0.5-0.5,0.6-0.8,0.6h-13.3v12.6h5l1.7-2.6c0.2-0.3,0.5-0.7,0.8-0.7c0.3,0,0.6,0.3,0.9,0.5l3.5,2.6
		c0.2,0.2,0.5,0.5,0.5,0.8c0,0.5-0.5,0.6-0.8,0.6h-11.7v15.1h7.7l2.3-2.9c0.2-0.3,0.5-0.7,0.8-0.7c0.4,0,0.6,0.3,1,0.6l3.4,2.9
		c0.2,0.2,0.5,0.4,0.5,0.8C354.1,43.7,353.6,43.7,353.3,43.7z M336.7,11.2c-1.9,0-2.2-1.3-3.1-4.3c-0.2-0.8-1.4-4.1-2.6-5.8l0.3-0.3
		c2.7,1.2,7.8,3.4,7.8,7.6C339.2,10.3,338.1,11.2,336.7,11.2z"/>
	<path class="st0" d="M409.5,27.3c-0.4,0-0.8-0.3-2.2-0.9c-1.1-0.6-2.2-0.7-5.1-0.9v-0.1c3.3-2.2,3.4-2.2,3.4-2.9
		c0-1-1.9-3.5-3.8-3.5c-1.9,0-1.9,2.2-1.9,3.1c0,5.1,2.4,10.7,2.9,11.9c0.9,1.9,1.2,2.7,1.2,3.4c0,6.6-13.8,6.9-15.6,6.9
		c-1.9,0-8.9-0.1-11.1-3.1c-1-1.3-1.1-3-1.1-3.6c0-2.3,0.6-4.1,0.9-5.1c-3.9-0.5-5.4-5-5.4-7.1c0-4.2,3.8-7.1,7-7.1
		c0.3,0,0.4,0,0.8,0.1c0.2-1,0.2-1.2,0.4-2.8c-1.2,0.2-2.7,0.3-3.6,0.3c-2.6,0-6.5-1-5.9-5c1.9,1.9,4,2,5.6,2c1.5,0,2.9-0.1,4.3-0.4
		c0.6-4.1,0.7-5.1,0.7-5.7c0-1.3-0.3-1.8-3.5-2.7c0.7-1.1,1.6-1.8,2.7-1.8c1.7,0,6.1,1.2,6.1,3.1c0,0.4-0.1,1-0.8,2
		c-0.9,1.3-1,1.5-1.8,4.4c1.1-0.3,2.2-0.7,3.3-1.1c0.6-0.3,3.4-1.5,4-1.5c0.9,0,2.7,0.7,2.7,2c0,1.3-1.4,1.8-2.4,2.1
		c-1.5,0.5-6.8,1.6-8.4,1.8c-0.7,3.4-0.8,3.7-1,4.7c0.6,0.7,1.7,1.8,1.7,3.6c0,1.8-0.9,3.5-2.6,6.9c-0.8,1.6-2.7,5.5-2.7,6.7
		c0,3.2,6,3.2,8,3.2c12.5,0,12.7-3.6,12.7-6.2c0-1.6-0.6-8.5-0.6-9.9c0-5.1,1.5-6.7,4.1-6.7c3.4,0,8.7,2.9,8.7,7.1
		C411.2,27,409.8,27.3,409.5,27.3z M377.4,20.7c-0.7,0.1-3.5,1.7-3.5,4.2c0,1.4,1.3,4.3,2.9,4.3c0.6,0,1.1-0.3,1.4-1.1
		c0.7-1.9,0.9-4.7,0.9-5.5C379.1,21.9,378.6,20.5,377.4,20.7z"/>
	<path class="st0" d="M429.8,45.4c-4.1,0-7.4-3.3-7.4-7.5c0-4.2,3.3-7.5,7.4-7.5c4.1,0,7.5,3.3,7.5,7.5
		C437.3,42.1,434,45.4,429.8,45.4z M429.8,32.2c-3.1,0-5.6,2.5-5.6,5.7c0,3.1,2.5,5.6,5.6,5.6c3.2,0,5.7-2.5,5.7-5.6
		C435.5,34.8,433,32.2,429.8,32.2z"/>
	<path class="st0" d="M499.1,20.5c-1.1,0-1.9-0.1-5.3-0.6c-0.5-0.1-3.7-0.4-5.9-0.5c-0.2,8.2-0.6,13.4-3.8,18.3
		c-2.2,3.2-4.9,5.9-8.3,7.8l-0.4-0.3c3-3.4,5.5-7.3,6.9-11.6c1.1-3.3,1.1-4.5,1.5-14.2c-3.1,0.2-6,0.5-9.7,0.9
		c0.1,1.8,0.3,8,0.3,9.5c0,2.3-0.4,3.2-1.7,3.2c-1.8,0-2.5-2.6-2.5-3.3c0-0.3,0.2-1.7,0.2-1.9c0.1-0.8,0.2-3.3,0.2-6.9
		c-2.9,0.5-3.7,0.9-6.8,2c-0.5,0.2-0.8,0.3-1.1,0.3c-1.9,0-4.2-3.3-4.2-5.7c0-0.8,0.4-1.7,0.7-2.5c1.4,3.3,3.3,3.6,4.6,3.6
		c0.7,0,5.8-0.6,6.8-0.7c-0.3-7.4-0.5-7.8-1-8.5c-0.5-0.7-0.7-0.7-3.2-1.5c0.6-0.6,1.2-1.3,3.1-1.3c2.1,0,5.6,1.7,5.6,2.7
		c0,0.2-0.5,1.2-0.5,1.3c-0.6,1.9-0.5,5.9-0.5,6.9c5-0.6,5.5-0.6,9.8-0.9c0-1.3,0.2-7.6-0.1-8.5c-0.4-1.8-1.4-2.1-4.4-2.9
		c1.1-0.7,2.4-1.4,3.6-1.4c1.8,0,6.1,1.6,6.1,3c0,0.3-0.5,1.6-0.6,1.8c-0.6,1.7-0.7,5.8-0.8,7.8c2-0.1,5.5-0.3,5.8-0.4
		c1.1-0.4,1.4-0.5,2.1-0.5c0.3,0,5.1,0.9,5.1,3.4C500.8,20.2,499.9,20.5,499.1,20.5z M497.2,12.7c-0.8,0-1.3-0.6-2.3-2.1
		c-1.4-2-2.2-3.2-4.2-5.1c4.1,0.7,8.1,2.7,8.1,5.4C498.8,12.1,497.9,12.7,497.2,12.7z M502.1,9.6c-1,0-1.4-0.7-2.4-2.3
		c-1.2-1.9-2.9-3.4-4.9-4.7c3.7,0.2,8.8,2,8.8,5.2C503.6,9,502.7,9.6,502.1,9.6z"/>
	<path class="st0" d="M524.3,28.3c-2.5,0-4.5-2-4.5-4.5c0-2.5,2-4.5,4.5-4.5c2.4,0,4.4,2,4.4,4.5C528.8,26.3,526.8,28.3,524.3,28.3z
		"/>
	<path class="st0" d="M546.8,36.9c11.2-10.2,14.4-19.4,14.4-21.2c0-1.6-1.6-2.5-3.2-3.3c0.5-0.4,0.9-0.7,2.3-0.7c3.7,0,7,3.1,7,4.4
		c0,0.4-0.5,0.8-1.1,1.5c-0.2,0.2-3.2,5.5-3.9,6.4c-1.9,2.9-7.1,10.2-15.3,13.3L546.8,36.9z M589.1,31.4c0,0.6,0,3.7-2.5,3.7
		c-1.6,0-2-1.7-2.3-2.9c-1.6-7.5-5.6-14.3-11.1-19.6C582.4,16.6,589.1,25,589.1,31.4z M589.9,9.3c0,2.6-2.2,4.8-4.8,4.8
		c-2.7,0-4.8-2.2-4.8-4.8c0-2.7,2.2-4.8,4.8-4.8C587.8,4.5,589.9,6.6,589.9,9.3z M582.4,9.3c0,1.5,1.2,2.7,2.7,2.7
		c1.5,0,2.7-1.3,2.7-2.7c0-1.6-1.3-2.7-2.7-2.7C583.7,6.5,582.4,7.6,582.4,9.3z"/>
	<path class="st0" d="M643.9,26.2c-0.8,0-2.1-0.1-3.1-0.2c-1-0.1-13.3-0.2-14.2-0.2c-2.9,0-10.7,0.2-13,0.8
		c-0.9,0.3-1.3,0.4-1.7,0.4c-1.9,0-4.7-4-4.7-6c0-0.7,0.2-1.5,0.8-2.8c1.8,3.5,3,4.1,9,4.1c2.9,0,20.5,0,22.2-0.7
		c0.8-0.3,1.4-0.5,2-0.5c0.1,0,6,0.5,6,3.1C647.3,25.1,646.3,26.2,643.9,26.2z"/>
	<path class="st0" d="M695.7,15.8c-1.5,0.5-2.1,1.2-3.1,3.2c-6.1,11.3-11.5,16.4-17.8,20.3c-1.9,1.2-6.2,3.6-10.2,4.4l-0.2-0.4
		c11.1-6.8,20.3-16.7,25.5-28.8c-1.2,0.2-5.2,0.7-7.4,1.1c-0.3,0-1.1,0.4-1.4,0.4c-0.5,0-1.4-0.3-2.3-0.9
		c-4.6,5.5-6.7,7.4-13.5,11.4l-0.4-0.4c6.9-7.4,8.8-9.9,11.5-14.7c1.1-1.9,1.6-3.1,1.6-3.7c0-0.6-1.7-1.9-2.8-2.5
		c0.8-0.3,1.7-0.5,2.5-0.5c1.8,0,6.2,2.3,6.2,4c0,0.6-0.1,0.7-1.5,1.9c-0.7,0.6-0.9,0.9-1.9,2.1c1.3,0.1,7.5-0.3,8.6-0.7
		c0.6-0.2,2.7-1.7,3.2-1.7c0.4,0,0.7,0.2,2.8,2.1c1.5,1.3,1.7,1.6,1.7,2.1C696.9,15.4,696.6,15.5,695.7,15.8z"/>
	<path class="st0" d="M726.1,17.6c-0.3,0.3-0.5,0.6-0.9,1.4c-3.4,6.4-9.3,15-18.3,18.3l-0.2-0.4C717.9,26.6,721,17.3,721,15.7
		c0-1.6-1.6-2.5-3.2-3.3c0.5-0.4,0.9-0.7,2.3-0.7c3.7,0,7,3.1,7,4.4C727.2,16.4,726.7,16.9,726.1,17.6z M749,34
		c-0.5,0.7-1.2,1.1-1.9,1.1c-1.6,0-2-1.7-2.3-2.9c-1.6-7.5-5.6-14.3-11.1-19.6c9.3,4.1,15.8,12.5,15.8,18.9
		C749.6,31.9,749.5,33.2,749,34z"/>
	<path class="st0" d="M798.6,18.4c-1.1,0.7-1.2,0.9-1.5,2.3c-1.8,7.2-4.5,12.1-9.7,16.7c-0.8,0.8-6.5,5.7-11.5,6.6l-0.2-0.4
		c6.4-3.9,11.6-9.6,14.8-16.5c1.5-3.2,3.1-8.7,3.1-9.5c0-0.7-0.5-0.8-1-0.8c-5,0-6,0-10,0.3c-1.4,0.1-8.6,0.9-8.7,0.9
		c-0.3,0-0.5-0.1-1.8-0.5c0,0.4,0.2,4.6,0.2,5.2c0,0.7,0.3,3.4,0.3,4c0,1.8-0.4,2.3-1,2.3c-0.9,0-2.5-1.2-2.8-1.9
		c-0.4-0.8-0.5-2.1-0.5-3.1c0-7.7-0.7-8.5-3.4-9.8c0.7-0.3,1.8-0.6,2.9-0.6c1.2,0,1.6,0.2,3.3,1.1c0.2,0,1.7,0.7,2.6,0.7
		c1.2,0,6.3-0.5,7.3-0.6c-0.1-1.9-0.2-4.7-0.5-5.5c-0.4-1-0.6-1-4.3-2c1.9-1.7,3.6-1.7,3.8-1.7c1.3,0,5.7,1,5.7,2.6
		c0,0.4-0.7,1.9-0.7,2.2c-0.1,0.4-0.3,3.1-0.3,4.1c1.3-0.2,5.5-0.5,6.8-0.5c1.4,0,1.7,0,2.5-0.6c1.4-1,1.5-1.1,1.7-1.1
		c0.5,0,4.4,4,4.4,4.6C799.9,17.6,799.6,17.8,798.6,18.4z"/>
	<path class="st0" d="M848.4,41.4c-1.4,0-2.1-1.3-2.6-2.1c-3.9-6.5-6.2-9.7-10.3-12.9c-7.7,9.2-15.4,14.1-22.6,15.4v-0.4
		c12.1-5.6,24.6-22.6,26.3-29.7c-0.2,0.1-10.3,1.9-12.9,3.2c-1.5,0.8-1.7,0.8-2.1,0.8c-0.8,0-3.9-2.3-3.9-5.6c0-1.3,0.2-1.7,0.5-2.2
		c2.1,2.7,2.5,3.2,4.1,3.2c1.2,0,12.3-1,14.4-2.3c0.4-0.3,2-1.6,2.4-1.6c0.7,0,4.6,3.7,4.6,4.6c0,0.6-0.4,0.7-2,1.3
		c-0.5,0.2-0.7,0.6-1.4,1.9c-3.3,6.1-3.9,7.1-6.5,10.5c6.2,2.6,14.1,8.6,14.1,13.2C850.4,39.9,849.9,41.4,848.4,41.4z"/>
</g>
</svg>
