<?xml version="1.0" encoding="utf-8"?>
<!-- Generator: Adobe Illustrator 25.0.0, SVG Export Plug-In . SVG Version: 6.00 Build 0)  -->
<svg version="1.1" xmlns="http://www.w3.org/2000/svg" xmlns:xlink="http://www.w3.org/1999/xlink" x="0px" y="0px"
	 width="1120.3px" height="70px" viewBox="0 0 1120.3 70" style="enable-background:new 0 0 1120.3 70;" xml:space="preserve">
<style type="text/css">
	.st0{display:none;}
	.st1{display:inline;}
	.st2{fill:#2A78B3;}
	.st3{fill:none;stroke:#2A78B3;stroke-width:0.3;}
	.st4{fill:none;stroke:#2A78B3;stroke-width:0.3;stroke-dasharray:4.2752,4.2752;}
	.st5{display:inline;fill:none;stroke:#2A78B3;stroke-width:0.3;}
	.st6{fill:#4B575E;}
</style>
<g id="レイヤー_2" class="st0">
	<g class="st1">
		<g>
			<path class="st2" d="M322.6-62.7h-1.4v0.6c0.1,0,0.5,0.1,0.8,0.3c0.1,0.1,0.4,0.3,0.4,0.6c0,0.2-0.1,0.3-0.2,0.3
				c-0.1,0-0.2-0.1-0.2-0.1c-0.4-0.6-0.5-0.7-0.8-0.9v0.9c0,0.2,0,1.8,0,2.6c0,0,0,0.1,0,0.2c0,0.2-0.2,0.3-0.3,0.3
				c-0.2,0-0.2-0.1-0.2-0.2c0-0.1,0-0.7,0-0.8c0-0.5,0-0.8,0.1-2.7c-0.5,0.9-1.1,1.7-1.9,2.2l-0.1,0c0.8-0.8,1.6-2.2,1.9-3.2h-0.6
				c-0.3,0-0.7,0-1,0.1L319-63c0.6,0,1.2,0.1,1.3,0.1h0.5l0-1.4c-0.5,0.1-0.9,0.2-1.7,0.2v-0.1c0.7-0.2,1.4-0.5,1.9-0.7
				c0.4-0.2,0.6-0.3,0.8-0.5l0.5,0.5c0,0,0,0.1,0,0.1c0,0.1,0,0.1-0.1,0.1c0,0-0.2,0-0.3-0.1c-0.2,0.1-0.4,0.2-0.7,0.2
				c0,1,0,1.1,0,1.5h0.6l0.2-0.3c0.1-0.1,0.1-0.1,0.1-0.1c0,0,0.1,0.1,0.1,0.1l0.3,0.3c0,0,0.1,0.1,0.1,0.1
				C322.7-62.7,322.7-62.7,322.6-62.7z M326-63.9c0,0-0.2,0.1-0.2,0.2c0,1.5,0,2.5,0.1,3.6c0,0.3,0.1,0.9,0.1,1.2
				c0,0.1,0,0.2-0.2,0.3c-0.1,0-0.2,0-0.2,0c-0.2,0-0.2-0.1-0.2-0.3v-0.3h-1.9c0,0.1,0,0.5,0,0.6c0,0.1-0.2,0.2-0.3,0.2
				c-0.1,0-0.2,0-0.2-0.2c0,0,0-0.2,0-0.3c0-0.1,0.1-0.8,0.1-2.5c0-0.9,0-2.3,0-3.2l0.6,0.4h1.6l0.3-0.3c0,0,0.1-0.1,0.1-0.1
				c0,0,0.1,0,0.1,0l0.4,0.3c0,0,0.1,0,0.1,0.1C326.1-64,326.1-63.9,326-63.9z M325.4-63.9h-1.9v4.6h1.9V-63.9z"/>
			<path class="st2" d="M333.8-58.2c-1.2-0.3-2.2-0.8-2.9-1.6c0,0.1-0.1,0.1-0.1,0.2c-0.9,0.9-2.1,1.5-3.4,1.7v-0.1
				c2-0.6,2.8-1.6,3.2-2.1c-0.7-0.9-1.1-2-1.2-3.3h-1c-0.3,0-0.7,0-1,0.1l-0.2-0.3c0.6,0,1.2,0.1,1.3,0.1h2c0-1.1,0-1.2-0.2-1.7
				l0.8,0.2c0.1,0,0.1,0,0.1,0.1c0,0.1,0,0.1-0.1,0.2c-0.1,0.1-0.1,0.1-0.2,0.1c0,0.2,0,0.8,0,1.1h2.4l0.3-0.4c0,0,0.1-0.1,0.1-0.1
				c0,0,0.1,0.1,0.1,0.1l0.4,0.4c0,0,0.1,0.1,0.1,0.1c0,0.1-0.1,0.1-0.1,0.1h-2.3l0.5,0.2c0,0,0.1,0.1,0.1,0.1
				c0,0.1-0.2,0.2-0.4,0.2c-0.2,1-0.5,1.9-1.1,2.8c1.3,1.2,2.9,1.3,3.3,1.3v0.1C334.4-58.8,334-58.7,333.8-58.2z M329.6-63.5
				c0.1,1.1,0.5,2.1,1.2,3c0.9-1.3,1-2.7,1-3H329.6z"/>
			<path class="st2" d="M336.2-63.9c0.2,0,0.3,0.1,0.6,0.2c0.1,0.1,0.2,0.1,0.4,0.1c0.1,0,2.5-0.2,2.8-0.2c0.3,0,0.4-0.1,0.5-0.2
				c0.1-0.1,0.1-0.1,0.1-0.1c0.1,0,0.6,0.4,0.6,0.5c0,0,0,0,0,0.1c0,0.1,0,0.1-0.2,0.2c-0.1,0.1-0.2,0.1-0.3,0.6
				c-0.1,1-0.2,1.1-0.4,2.1c0,0,0,0,0,0.1c0,0.1,0,0.1,0.2,0.2c0.1,0.1,0.2,0.2,0.2,0.3c0,0.1-0.1,0.1-0.2,0.1c0,0-0.1,0-0.1,0
				c-0.4-0.1-0.6-0.1-1.3-0.1c-0.4,0-1.9,0.1-2.2,0.1c0,0.2,0,0.4-0.2,0.4c-0.3,0-0.3-0.6-0.3-0.6c0-0.1,0-0.5,0-0.5
				c0-0.8-0.1-2.4-0.2-2.8c-0.1-0.3-0.2-0.3-0.5-0.5C336-63.8,336.1-63.9,336.2-63.9z M337-60.3c0,0,0,0.1,0,0.1
				c0.4,0,2.1-0.1,2.5-0.1c0.2,0,0.4,0,0.6,0c0-0.5,0.3-2.7,0.3-3c0-0.2-0.1-0.2-0.2-0.2h0c-1.6,0-1.6,0.1-2.4,0.2c0,0-0.5,0-0.5,0
				c-0.1,0-0.1,0-0.2,0c-0.1,0-0.2-0.1-0.2-0.1c-0.1,0-0.1,0.1-0.1,0.1l0.1,1.6L337-60.3z"/>
			<path class="st2" d="M344.2-63.4c0.3,0,3.2-0.2,3.3-0.3c0,0,0.2-0.2,0.3-0.2c0.1,0,0.6,0.4,0.6,0.6c0,0.1,0,0.1-0.2,0.2
				c-0.1,0.1-0.2,0.2-0.2,0.3c-0.1,0.6-0.4,2-0.5,2.5c0.3,0.1,0.4,0.2,0.4,0.3c0,0.2-0.2,0.2-0.2,0.2c0,0-0.6,0-0.7,0
				c-0.2,0-2.2,0-2.9,0.2c0,0-0.2,0.1-0.3,0.1c-0.2,0-0.6-0.6-0.6-0.8c0-0.1,0-0.2,0.1-0.3c0.2,0.3,0.4,0.5,0.7,0.5
				c0.2,0,0.9-0.1,1.1-0.1c0.3,0,1.8-0.1,1.9-0.1c0.1-0.7,0.3-1.8,0.4-2.8c0,0,0-0.1,0-0.2c0-0.1,0-0.1-0.1-0.1
				c-0.6,0-2.7,0.2-3.1,0.3c0,0-0.4,0.1-0.4,0.1c-0.1,0-0.6-0.4-0.6-0.7c0-0.1,0-0.2,0.1-0.4C343.9-63.4,344.1-63.4,344.2-63.4z
				 M349-63.8c0,0.1-0.1,0.2-0.2,0.2c-0.1,0-0.1,0-0.4-0.3c-0.2-0.2-0.5-0.4-0.9-0.7C348.4-64.6,349-64.2,349-63.8z M349.8-64.4
				c0,0.2-0.1,0.2-0.2,0.2c-0.1,0-0.1,0-0.4-0.3c-0.2-0.2-0.5-0.4-0.8-0.6C349-65.1,349.8-64.8,349.8-64.4z"/>
			<path class="st2" d="M350.4-61.3c1.3-1.3,2-2.7,2-3c0-0.3-0.3-0.4-0.5-0.5c0.1,0,0.2-0.1,0.3-0.1c0.5,0,0.9,0.4,0.9,0.6
				c0,0.1,0,0.1-0.2,0.3c0,0-0.1,0.1-0.2,0.3c0.1,0,0.1,0,0.4,0c0.4,0,0.9-0.1,1.3-0.2c0.1,0,0.1-0.1,0.3-0.2c0.1,0,0.1-0.1,0.1-0.1
				c0.1,0,0.2,0.1,0.3,0.2c0.3,0.2,0.3,0.3,0.3,0.3c0,0.1-0.1,0.1-0.2,0.2c-0.2,0.1-0.3,0.2-0.5,0.6c-0.6,1.3-1.4,2.3-2.1,2.9
				c-0.9,0.8-1.8,1.1-2.1,1.2l0-0.1c1.8-1.1,2.5-2,2.8-2.4c-0.1,0-0.2-0.1-0.3-0.2c-0.5-0.5-0.6-0.7-1.2-1
				C351.2-61.6,350.7-61.4,350.4-61.3L350.4-61.3z M354.5-63.5c-0.2,0-1.3,0.2-1.6,0.2c-0.1,0-0.3-0.1-0.4-0.1
				c-0.2,0.3-0.5,0.7-0.6,0.8c-0.1,0.1-0.1,0.2-0.2,0.2c0.5,0.1,1.6,0.4,1.6,1.1C353.8-61.7,354.1-62.4,354.5-63.5z"/>
			<path class="st2" d="M356.5-60.6c1.9-1.4,3.4-2.8,4.1-3.7c0.1-0.2,0.1-0.3,0.1-0.3c0-0.1,0-0.1-0.1-0.2c0,0-0.3-0.2-0.3-0.2
				c0.1,0,0.2-0.1,0.3-0.1c0.3,0,0.6,0.2,0.8,0.4c0.1,0.1,0.1,0.2,0.1,0.3c0,0.1,0,0.1-0.2,0.2c-0.1,0-0.2,0.1-0.4,0.3
				c-0.9,0.9-1,1-1.3,1.2c0.2,0.1,0.4,0.2,0.4,0.3c0,0-0.1,0.2-0.1,0.2c0,0.1,0,0.2,0,0.5v2.7c0,0.3,0,0.5-0.2,0.5
				c-0.3,0-0.4-0.5-0.4-0.5c0-0.1,0.1-0.3,0.1-0.4c0.1-0.3,0.1-1.1,0.1-1.5c0-0.2-0.1-1.4-0.1-1.5c0-0.1,0-0.1-0.1-0.2
				C358.6-61.7,357.6-61,356.5-60.6L356.5-60.6z"/>
			<path class="st2" d="M364.5-58.6c1.1-0.6,2-1.6,2.3-2c0.7-1,1-2,1.2-2.8c-1.7,0.1-3.3,0.4-3.5,0.4c-0.1,0.1-0.2,0.1-0.2,0.1
				c-0.1,0-0.1,0.1-0.2,0.1c-0.1,0-0.2-0.2-0.3-0.2c-0.1-0.1-0.3-0.3-0.3-0.6c0-0.1,0-0.1,0-0.2c0.2,0.2,0.4,0.4,0.4,0.4
				c0.1,0.1,0.2,0.1,0.4,0.1c0.3,0,3.4-0.3,3.5-0.3c0.1,0,0.3-0.2,0.3-0.2c0.1,0,0.6,0.4,0.6,0.6c0,0.1,0,0.1-0.3,0.2
				c-0.2,0.1-0.2,0.1-0.3,0.4c-0.5,1.4-0.9,2.1-1.7,2.9C366-59.2,365.3-58.8,364.5-58.6L364.5-58.6z M369.5-63.7
				c-0.4,0-0.8-0.3-0.8-0.8c0-0.4,0.3-0.8,0.8-0.8c0.4,0,0.8,0.3,0.8,0.8C370.2-64,369.9-63.7,369.5-63.7z M369.5-64.9
				c-0.3,0-0.5,0.2-0.5,0.5c0,0.3,0.2,0.5,0.5,0.5c0.3,0,0.5-0.2,0.5-0.5C370-64.7,369.7-64.9,369.5-64.9z"/>
			<path class="st2" d="M373.8-57.8c-0.4-0.3-1.9-1.7-1.9-3.9c0-2.2,1.5-3.5,1.9-3.9l0.1,0.1c-1.3,1.4-1.6,2.8-1.6,3.8
				c0,0.9,0.3,2.4,1.6,3.8L373.8-57.8z"/>
			<path class="st2" d="M375.4-59.4c0.5-0.3,1-0.8,1.5-1.2c0.6-0.6,1.2-1.3,1.6-2.1c-0.6,0.1-1.7,0.2-2.1,0.4
				c-0.1,0-0.1,0.1-0.2,0.1c-0.3,0-0.7-0.4-0.7-0.7c0-0.1,0-0.1,0-0.3c0.3,0.4,0.3,0.5,0.7,0.5c0.3,0,2-0.2,2.4-0.2
				c0-0.1,0-0.7,0-0.9c0-0.5-0.1-0.7-0.2-0.7c0,0-0.4-0.2-0.5-0.2c0.1-0.1,0.3-0.1,0.5-0.1c0.4,0,0.8,0.3,0.8,0.4
				c0,0-0.1,0.2-0.1,0.3c-0.1,0.3-0.1,0.8-0.1,1.2c0.9-0.1,1-0.1,1.1-0.1c0.1,0,0.4-0.1,0.4-0.1c0.2,0,0.7,0.1,0.7,0.3
				c0,0,0,0.2-0.2,0.2c0,0-0.1,0-0.1,0c-0.3,0-0.7-0.1-1.1-0.1c-0.3,0-0.6,0-0.9,0c0,1.4,0,1.4,0,1.9c0,0.2,0,1,0,1.2
				c0,0.7-0.2,1.1-0.4,1.1c-0.1,0-0.2-0.1-0.2-0.2c0-0.1-0.1-0.2-0.2-0.4c-0.2-0.2-0.4-0.4-0.7-0.6l0,0c0.4,0.1,0.4,0.1,0.8,0.3
				c0.1,0,0.1,0,0.2,0c0.1,0,0.1,0,0.1-0.5c0-1.1,0-1.7,0-2.2C378.2-61.3,376.9-59.9,375.4-59.4L375.4-59.4z"/>
			<path class="st2" d="M384.1-61.7v0.3c0,0.1,0,0.5-0.2,0.5c-0.2,0-0.3-0.4-0.3-0.6c0-0.1,0-0.1,0-0.4c0-0.1,0-0.2,0-0.8
				c0-0.2,0-0.9-0.1-1.1c-0.1-0.1-0.1-0.2-0.5-0.3c0.2-0.1,0.3-0.2,0.4-0.2c0.1,0,0.7,0.1,0.7,0.3c0,0-0.1,0.3-0.1,0.3
				c0,0.3-0.1,1.1-0.1,1.7V-61.7z M384.6-58.4c1.6-1.2,1.9-2.2,1.9-4.8c0-0.2,0-1-0.1-1.1c-0.1-0.2-0.5-0.2-0.6-0.2
				c0.1-0.1,0.2-0.2,0.5-0.2c0.2,0,0.7,0.1,0.8,0.2c0.1,0,0.1,0.1,0.1,0.1c0,0.1-0.1,0.3-0.1,0.4c0,0.1,0,0.3,0,0.5
				c0,2-0.1,2.2-0.2,3C386.7-60.2,386.3-58.9,384.6-58.4L384.6-58.4z"/>
			<path class="st2" d="M389.8-62.8c0.4,0,1,0,1.2,0.2c0.2,0.2,0.4,0.4,0.4,0.6c0,0.1,0,0.2-0.2,0.2c-0.1,0-0.7-0.4-0.8-0.5
				c-0.3-0.2-0.6-0.3-1-0.4C389.5-62.8,389.6-62.8,389.8-62.8z M395.4-63c-1,1.6-2.3,3-4,3.9c-0.1,0.1-0.1,0.1-0.2,0.2
				c-0.1,0.1-0.2,0.2-0.2,0.2c-0.1,0-0.4-0.2-0.5-0.4c-0.2-0.2-0.2-0.4-0.2-0.8c0.4,0.4,0.5,0.5,0.6,0.5
				C391.2-59.4,393.2-60.6,395.4-63L395.4-63z M390.7-64.6c0.4,0,1.1,0.1,1.3,0.4c0.1,0.1,0.2,0.3,0.2,0.5c0,0.1,0,0.2-0.2,0.2
				c-0.1,0-0.1,0-0.5-0.3c-0.4-0.4-0.7-0.5-1.2-0.7C390.5-64.6,390.5-64.6,390.7-64.6z M394.7-64.1c0.1,0.1,0.3,0.2,0.3,0.5
				c0,0.2-0.1,0.2-0.2,0.2c-0.1,0-0.1,0-0.3-0.2c-0.4-0.5-0.7-0.7-0.8-0.8C393.9-64.4,394.2-64.4,394.7-64.1z M395.8-64.4
				c0,0.1-0.1,0.2-0.2,0.2c-0.1,0-0.1,0-0.3-0.2c-0.2-0.2-0.5-0.4-0.9-0.6C395.5-65.1,395.8-64.6,395.8-64.4z"/>
			<path class="st2" d="M398.1-58.3c1.6-1,1.8-2.6,1.9-4.1c-0.4,0.1-1.7,0.2-2,0.4c-0.1,0.1-0.2,0.1-0.2,0.1c-0.2,0-0.7-0.3-0.7-0.8
				c0-0.1,0-0.1,0-0.2c0.2,0.4,0.4,0.5,0.8,0.5c0.2,0,1.8-0.2,2.2-0.2c0-0.2,0-0.4,0-0.7c0-1.1-0.1-1.1-0.7-1.3
				c0.2-0.1,0.4-0.1,0.5-0.1c0.2,0,0.8,0.2,0.8,0.4c0,0.1,0,0.1-0.1,0.2c0,0.1-0.1,0.3-0.1,0.3c0,0.6,0,0.6-0.1,1.1
				c0.3,0,1.4-0.1,1.6-0.1c0,0,0.3-0.1,0.3-0.1c0.1,0,0.5,0.1,0.7,0.2c0.1,0,0.1,0.1,0.1,0.2c0,0,0,0.2-0.2,0.2c0,0-0.1,0-0.1,0
				c-1-0.2-1.1-0.2-1.5-0.2c-0.4,0-0.8,0-0.9,0C400.3-61.1,400.2-58.9,398.1-58.3L398.1-58.3z"/>
			<path class="st2" d="M404-58.9c0.5-0.4,0.9-1,1.1-1.5c0.4-0.9,0.4-1.6,0.4-2.3c0-0.7,0-0.7-0.6-0.9c0.1-0.1,0.2-0.2,0.4-0.2
				c0.2,0,0.7,0.2,0.7,0.4c0,0-0.1,0.3-0.1,0.3c0,0.1,0,0.7,0,0.8c0,0.8-0.2,1.7-0.8,2.6C404.9-59.4,404.5-59.1,404-58.9L404-58.9z
				 M410.5-62.6c-0.4,1.1-1.3,2-2.2,2.7c-0.1,0.1-0.5,0.4-0.6,0.4c-0.2,0.3-0.2,0.3-0.3,0.3c-0.2,0-0.5-0.6-0.5-0.7
				c0,0,0.1-0.3,0.1-0.3c0.1-0.3,0.1-0.7,0.1-1.8c0-0.3,0-1.6,0-1.8c0-0.2-0.1-0.3-0.5-0.5c0.1,0,0.2-0.1,0.4-0.1
				c0.2,0,0.5,0.2,0.7,0.3c0,0,0.1,0.1,0.1,0.2c0,0-0.1,0.2-0.1,0.3c0,0.1-0.1,0.3-0.1,0.6c0,0.5,0,2.3,0,2.9c0,0.1,0,0.1,0,0.1
				C407.6-60,409-60.7,410.5-62.6L410.5-62.6z"/>
			<path class="st2" d="M418.6-63.5h-1.7c0,0.1,0,0.7,0,0.7c0,0.2-0.2,0.3-0.3,0.3c-0.1,0-0.1,0-0.1-0.2H415v0.6h1.8l0.1-0.2
				c0,0,0.1-0.1,0.1-0.1c0,0,0.1,0,0.2,0.1l0.3,0.2c0.1,0.1,0.1,0.1,0.1,0.1c0,0.1-0.1,0.1-0.1,0.1H415v0.6h2.7l0.2-0.3
				c0,0,0.1-0.1,0.1-0.1c0,0,0.1,0,0.2,0.1l0.3,0.3c0,0,0.1,0.1,0.1,0.1c0,0.1-0.1,0.1-0.1,0.1h-6c-0.2,0-0.7,0-1,0.1l-0.2-0.3
				c0.4,0,0.9,0.1,1.3,0.1h2v-0.6h-1.2c-0.3,0-0.7,0-1,0.1l-0.2-0.3c0.4,0,0.9,0.1,1.3,0.1h1.1v-0.6h-1.3c-0.3,0-0.7,0-1,0.1
				l-0.2-0.3c0.4,0,0.9,0.1,1.3,0.1h1.2c0-0.3,0-0.4,0-0.6h-2c-0.2,0-0.7,0-1,0.1l-0.2-0.3c0.4,0,0.9,0.1,1.3,0.1h1.9l0-0.6h-1.2
				c-0.3,0-0.7,0-1,0.1l-0.2-0.3c0.4,0,0.9,0.1,1.3,0.1h1.1c0-0.5,0-0.6-0.2-0.9l0.8,0.2c0,0,0.1,0,0.1,0.1c0,0.1-0.2,0.2-0.3,0.2
				c0,0.1,0,0.2,0,0.4h1.4l0.1-0.2c0,0,0.1-0.1,0.1-0.1c0,0,0.1,0,0.2,0.1l0.3,0.2c0.1,0,0.1,0.1,0.1,0.1c0,0.1-0.2,0.2-0.3,0.3
				c0,0,0,0.3,0,0.4h0.9L418-64c0.1-0.1,0.1-0.1,0.1-0.1c0,0,0.1,0.1,0.2,0.1l0.3,0.3c0,0,0.1,0.1,0.1,0.1
				C418.7-63.5,418.6-63.5,418.6-63.5z M417.1-60.2c0,0.1,0,1.2,0,1.5c0,0.1,0,0.2,0,0.3c0,0.2-0.2,0.3-0.3,0.3
				c-0.2,0-0.2-0.2-0.1-0.3h-3.5c0,0,0,0.1,0,0.1c0,0,0,0.3-0.3,0.3c-0.1,0-0.2,0-0.2-0.2c0-0.1,0-0.4,0-0.5c0-0.2,0-0.6,0-1
				c0-0.5,0-0.5-0.1-1.1l0.6,0.3h3.4l0.2-0.2c0,0,0.1-0.1,0.1-0.1c0,0,0.1,0,0.1,0.1l0.3,0.2c0,0,0.1,0.1,0.1,0.1
				C417.4-60.4,417.2-60.3,417.1-60.2z M416.6-60.4h-3.5v0.7h3.5V-60.4z M416.6-59.4h-3.5v0.8h3.5V-59.4z M416.5-63.5H415
				c0,0.3,0,0.3,0,0.6h1.5V-63.5z M416.5-64.3H415v0.6h1.4V-64.3z"/>
			<path class="st2" d="M422.1-64.8c-0.1,0.2-0.3,0.7-0.7,1.4l0.2,0.1c0,0,0.1,0.1,0.1,0.1c0,0,0,0.1,0,0.1l-0.2,0.2
				c0,0.3,0,1.8,0,2.1c0,0.1,0,2.2,0,2.4c0,0.1,0,0.2-0.1,0.3c-0.1,0.1-0.2,0.1-0.3,0.1c-0.2,0-0.2-0.2-0.2-0.2c0-0.1,0-0.7,0-0.9
				c0-0.4,0-2,0.1-3.8c-0.2,0.2-0.5,0.6-0.9,1.1c-0.3,0.3-0.5,0.5-0.6,0.5l0-0.1c1-1.3,1.4-2.2,1.9-3.4c0.2-0.5,0.2-0.6,0.2-0.7
				l0.7,0.4c0,0,0.1,0,0.1,0.1C422.4-64.9,422.3-64.8,422.1-64.8z M426.4-59.7c-1.1-0.9-1.9-2.6-2.1-3.3c0,0.5,0,0.6,0,2.2
				c0,0.1,0,0.8,0,0.9h0.6l0.2-0.3c0-0.1,0.1-0.1,0.1-0.1c0.1,0,0.1,0,0.2,0.1l0.3,0.3c0,0,0.1,0.1,0.1,0.1c0,0.1,0,0.1-0.1,0.1
				h-1.3c0,0.1,0,1.4,0,1.4c0,0.1,0,0.2-0.1,0.2c-0.1,0.1-0.2,0.1-0.3,0.1c-0.2,0-0.2-0.1-0.2-0.2c0,0,0-0.4,0-0.6c0-0.2,0-0.8,0-1
				h-0.2c-0.3,0-0.7,0-1,0.1l-0.2-0.3c0.6,0,1.1,0.1,1.4,0.1c0-0.2,0-0.8,0-1c0-0.3,0-1.4,0-1.7c-0.1,0.2-1,2.1-2.4,2.8l0,0
				c0.6-0.6,1.6-1.8,2.2-3.6h-0.7c-0.2,0-0.7,0-1,0.1l-0.2-0.3c0.4,0,0.9,0.1,1.3,0.1h0.7c0-0.6,0-1,0-1.2c0-0.3,0-0.3-0.1-0.5
				l0.7,0.2c0,0,0.1,0,0.1,0.1c0,0.1-0.2,0.2-0.3,0.2c0,0.5,0,0.7,0,1.2h1.5l0.3-0.3c0,0,0.1-0.1,0.1-0.1c0,0,0.1,0,0.1,0.1l0.4,0.3
				c0,0,0.1,0.1,0.1,0.1c0,0.1-0.1,0.1-0.1,0.1h-2.5c0.4,1.5,1.7,3,2.8,3.3v0C427-60.1,426.6-60,426.4-59.7z"/>
			<path class="st2" d="M427.8-57.9c1.3-1.4,1.6-2.8,1.6-3.8c0-0.9-0.3-2.4-1.6-3.8l0.1-0.1c0.4,0.3,1.9,1.7,1.9,3.9
				c0,2.2-1.5,3.5-1.9,3.9L427.8-57.9z"/>
		</g>
	</g>
	<g class="st1">
		<g>
			<path class="st2" d="M933.4-62.5h-1c0,0.9,0,1.8,0,2.7c0.2-0.1,1-0.3,1.1-0.4l0,0.1c-0.4,0.2-0.8,0.5-1.2,0.6
				c-0.6,0.3-0.8,0.4-1,0.5c-0.1,0.2-0.1,0.2-0.2,0.2c0,0-0.1,0-0.1-0.1l-0.4-0.6c0.5,0,0.6-0.1,1.3-0.3v-2.8h-0.1
				c-0.3,0-0.7,0-1,0.1l-0.2-0.3c0.5,0,0.9,0.1,1.3,0.1c0-1.2,0-1.3,0-1.7c0-0.4-0.1-0.6-0.1-0.7l0.7,0.3c0.1,0,0.1,0,0.1,0.1
				c0,0.1-0.2,0.2-0.3,0.3c0,0.8,0,1.1,0,1.7h0.4l0.2-0.2c0-0.1,0.1-0.1,0.1-0.1c0,0,0.1,0.1,0.1,0.1l0.2,0.2c0,0,0.1,0.1,0.1,0.1
				C933.5-62.5,933.4-62.5,933.4-62.5z M936.9-58.4c-0.1,0-1.6,0-1.9,0c-0.9,0-1,0-1.2-0.1c-0.2-0.1-0.2-0.3-0.2-0.5
				c0-0.4,0-2.4,0-2.8c-0.4,0.2-0.7,0.3-0.9,0.5l-0.3-0.2c0.2,0,0.5-0.2,1.2-0.4c0-0.2,0-1.2,0-1.4c0-0.3,0-0.5-0.1-0.9l0.7,0.2
				c0,0,0.1,0,0.1,0.1c0,0,0,0.1-0.3,0.3c0,0.2,0,1.3,0,1.5l1-0.4c0-1.9,0-2.1-0.1-2.6l0.7,0.2c0,0,0.1,0,0.1,0.1c0,0,0,0.1-0.1,0.1
				c-0.1,0.1-0.2,0.2-0.2,0.2c0,0.3,0,0.6,0,1.8l0.9-0.4l0.2-0.3c0.1-0.1,0.1-0.1,0.1-0.1c0,0,0.1,0,0.1,0l0.4,0.2
				c0,0,0.1,0,0.1,0.1c0,0.1,0,0.1-0.2,0.3c0,1.5,0,2.1-0.1,2.4c-0.1,0.6-0.5,0.7-0.7,0.8c-0.1-0.4-0.4-0.5-0.5-0.5l0-0.1
				c0.1,0,0.2,0,0.3,0c0.4,0,0.4-0.2,0.5-0.3c0.1-0.3,0.1-1.6,0.1-2c0-0.1,0-0.3,0-0.5l-1.1,0.5c0,0.2,0,1.3,0,1.5
				c0,0.1,0,1.3,0,1.4c0,0.1,0,0.4-0.4,0.4c-0.1,0-0.2,0-0.2-0.1c0-0.1,0-0.4,0-0.5c0-0.4,0-0.9,0-2.4l-1,0.4c0,0.3,0,2.9,0,3
				c0,0.2,0.2,0.2,0.2,0.2c0,0,1.1,0,1.2,0c1.1,0,1.2,0,1.3-0.1c0.2-0.1,0.2-0.2,0.3-0.4c0.1-0.1,0.1-0.2,0.3-0.8h0.1
				c0,0.1,0,0.5,0,0.6c0,0.1,0,0.3,0.2,0.4c0.1,0,0.1,0,0.1,0.1C937.7-58.9,937.5-58.5,936.9-58.4z"/>
			<path class="st2" d="M945-60.7c0,0.1,0.1,1.6,0.1,2.1c0,0,0,0.2,0,0.2c0,0.2-0.3,0.3-0.4,0.3c-0.2,0-0.2-0.1-0.2-0.2
				c0,0,0-0.2,0-0.3h-3.2c0,0.1,0,0.3,0,0.4c-0.1,0.1-0.3,0.2-0.4,0.2c-0.1,0-0.1-0.1-0.1-0.2c0,0,0-0.2,0-0.3c0-0.7,0-1.8,0-2.1
				c-1,0.7-1.8,0.9-2.3,1l0-0.1c0.8-0.4,1.5-0.8,2.3-1.4c0-0.2,0-0.3,0-0.4l0.3,0.2c0.5-0.4,0.8-0.7,1.4-1.4c0.1-0.1,0.8-0.9,1-1.4
				h-2.7c-0.1,0.1-0.2,0.2-0.4,0.6c0.4,0.1,1.5,0.5,1.5,1.2c0,0.1-0.1,0.3-0.3,0.3c-0.2,0-0.2,0-0.4-0.4c-0.2-0.4-0.6-0.8-0.9-1
				c-0.3,0.4-0.7,0.8-1.6,1.4l-0.1-0.1c1-0.9,1.7-2,2.2-2.9c0.1-0.3,0.2-0.4,0.2-0.5l0.6,0.3c0,0,0.1,0.1,0.1,0.1
				c0,0.1-0.1,0.1-0.3,0.2c-0.1,0.2-0.2,0.2-0.4,0.6h2.6l0.3-0.2c0,0,0.1-0.1,0.1-0.1c0,0,0.1,0,0.1,0.1l0.3,0.3
				c0,0,0.1,0.1,0.1,0.1c0,0.1,0,0.1-0.5,0.2c-0.4,0.6-1.2,1.7-2.5,2.7h2.8l0.3-0.3c0,0,0.1-0.1,0.1-0.1c0,0,0.1,0,0.1,0.1l0.3,0.2
				c0.1,0.1,0.1,0.1,0.1,0.2C945.4-60.9,945.2-60.8,945-60.7z M944.6-60.9h-3.2v2.1h3.2V-60.9z"/>
			<path class="st2" d="M949.6-57.8c-0.4-0.3-1.9-1.7-1.9-3.9c0-2.2,1.5-3.5,1.9-3.9l0.1,0.1c-1.3,1.4-1.6,2.8-1.6,3.8
				c0,0.9,0.3,2.4,1.6,3.8L949.6-57.8z"/>
			<path class="st2" d="M950.5-58.9h0.3c0.3,0,0.5-0.2,0.5-0.5v-4.3c0-0.3-0.2-0.5-0.5-0.5h-0.3v-0.3h2.5c1.7,0,2.7,1.1,2.7,2.9
				c0,1.4-0.7,2.9-2.8,2.9h-2.5V-58.9z M952.4-64.2c-0.4,0-0.5,0.2-0.5,0.5v4.3c0,0.4,0.3,0.5,0.6,0.5h0.4c1.8,0,2.4-1.2,2.4-2.7
				c0-1.2-0.4-2.6-2.1-2.6H952.4z"/>
			<path class="st2" d="M961.2-63c-0.3-0.5-0.5-0.7-0.7-0.8c-0.4-0.3-0.7-0.4-1.3-0.4h-0.9c-0.4,0-0.6,0.2-0.6,0.5v1.9h0.9
				c0.5,0,0.6-0.3,0.7-0.4c0.1-0.1,0.1-0.3,0.1-0.6h0.3v2.3h-0.3v-0.1c0-0.5-0.3-0.9-0.9-0.9h-0.9v2c0,0.3,0.1,0.7,0.6,0.7h0.3v0.3
				h-2.2v-0.3h0.3c0.2,0,0.6-0.1,0.6-0.7v-4.1c0-0.2-0.1-0.5-0.5-0.5h-0.4v-0.3h4.5l0.5,1.4L961.2-63z"/>
			<path class="st2" d="M968.6-63.3c-0.1,0.1-0.1,0.1-0.2,0.1c0,0.3,0,0.5,0,1c0,0.1,0,1.3,0,1.3c0,0.3-0.3,0.3-0.4,0.3
				c-0.2,0-0.2-0.1-0.1-0.5h-2.2c0,0.6,0,1.8,0,2.3c0,0,0,0.2,0,0.2c0,0.3-0.3,0.3-0.4,0.3c-0.2,0-0.2-0.2-0.2-0.2
				c0-0.1,0.1-2,0.1-2.2V-61h-2.2c0,0.4,0,0.5,0,0.5c0,0.1-0.2,0.2-0.3,0.2c-0.1,0-0.2-0.1-0.2-0.2c0,0,0-0.2,0-0.2
				c0-0.3,0-1.4,0-2.1c0-0.5,0-0.8-0.1-1.1l0.7,0.3h2c0-0.3,0-1-0.1-1.3c0-0.2-0.1-0.2-0.1-0.3l0.7,0.2c0.1,0,0.1,0,0.1,0.1
				c0,0.1-0.1,0.2-0.2,0.3c0,0.2,0,0.5,0,1.1h2.1l0.2-0.2c0,0,0.1-0.1,0.1-0.1c0,0,0.1,0,0.1,0l0.3,0.2c0.1,0.1,0.1,0.1,0.1,0.1
				C968.7-63.4,968.6-63.4,968.6-63.3z M965.3-63.4h-2.2v2.2h2.2C965.3-62.8,965.3-63,965.3-63.4z M968-63.4h-2.2c0,0.3,0,1,0,2.2
				h2.2V-63.4z"/>
			<path class="st2" d="M972.7-63.4h-1v1.1c0.2,0,1,0.3,1,0.7c0,0,0,0.2-0.2,0.2c-0.2,0-0.2,0-0.4-0.4c-0.1-0.2-0.2-0.4-0.4-0.4v0.6
				c0,0.2,0,3.1,0,3.3c0,0.1,0,0.2-0.1,0.2c-0.1,0.1-0.2,0.1-0.2,0.1c-0.1,0-0.2-0.1-0.2-0.2c0-0.2,0-0.5,0-0.6c0.1-1,0.1-1.6,0-3.3
				c-0.1,0.2-0.7,1.8-1.5,2.5l0,0c0.8-1.3,1.4-3.1,1.5-3.7c-0.4,0-0.8,0-1.1,0.1l-0.2-0.3c0.7,0.1,1.3,0.1,1.4,0.1
				c0-0.2,0-0.9,0-1.1c0-0.2-0.1-0.5-0.1-0.7l0.6,0.2c0.1,0,0.1,0.1,0.1,0.1c0,0.1-0.2,0.2-0.2,0.2c0,0.1,0,0.6,0,1.2h0.4l0.1-0.2
				c0.1-0.1,0.1-0.1,0.1-0.1c0,0,0.1,0.1,0.2,0.1l0.2,0.2c0,0,0.1,0.1,0.1,0.1C972.8-63.5,972.7-63.4,972.7-63.4z M974.7-63.8h-0.9
				c0,0.4,0,0.9,0,1.2c0.3-0.1,0.7-0.1,1-0.2l0,0.1c0,0-0.4,0.1-0.5,0.2c-0.2,0.1-0.9,0.4-1,0.4c0,0.1,0,0.2-0.2,0.2
				c-0.1,0-0.1,0-0.1-0.1l-0.3-0.5c0.4,0,0.5,0,0.7,0c0-0.6,0-1.5,0-2.1c0-0.4,0-0.6-0.1-0.8l0.6,0.2c0.1,0,0.1,0,0.1,0.1
				c0,0.1,0,0.1-0.2,0.2v0.8h0.4l0.2-0.2c0.1-0.1,0.1-0.1,0.1-0.1c0.1,0,0.1,0,0.1,0.1l0.2,0.2c0,0,0.1,0.1,0.1,0.1
				C974.8-63.8,974.7-63.8,974.7-63.8z M976.2-60.9c0,0.4,0,1.4,0,1.5c0,0.1,0,0.7,0,0.8c0,0.3-0.4,0.3-0.4,0.3
				c-0.1,0-0.1-0.1-0.1-0.4h-2.3c0,0.1,0,0.2,0,0.3c-0.1,0.1-0.2,0.2-0.3,0.2c-0.1,0-0.2-0.1-0.2-0.2c0-0.2,0-0.9,0-1
				c0-0.5,0-0.9,0-1.2c0-0.5,0-0.9,0-1.1l0.6,0.3h0.5c0.2-0.5,0.2-0.6,0.2-0.9L975-62c0,0,0.1,0,0.1,0.1c0,0.1-0.2,0.1-0.3,0.1
				c-0.1,0.1-0.3,0.3-0.5,0.5h1.4l0.2-0.2c0.1-0.1,0.1-0.1,0.1-0.1c0,0,0.1,0,0.1,0.1l0.2,0.2c0.1,0,0.1,0.1,0.1,0.1
				C976.5-61.1,976.4-61.1,976.2-60.9z M975.8-61.1h-2.3v1h2.3V-61.1z M975.8-59.9h-2.3v1.1h2.3V-59.9z M976-62.2
				c-0.8,0-1.1,0-1.1-0.5c0-0.3,0-0.7,0-1c0-0.2,0-0.9,0-1.1c0-0.3,0-0.4-0.1-0.5l0.6,0.2c0.1,0,0.2,0,0.2,0.1c0,0.1,0,0.1-0.3,0.2
				c0,0.1,0,0.6,0,0.9c0.3-0.2,0.7-0.4,0.7-0.4c0.2-0.2,0.4-0.3,0.4-0.4l0.4,0.4c0.1,0.1,0.1,0.1,0.1,0.1c0,0.1-0.1,0.1-0.1,0.1
				c0,0-0.1,0-0.2-0.1c-0.5,0.2-1.2,0.4-1.3,0.4c0,0.2,0,0.9,0,1c0,0.2,0.1,0.2,0.3,0.2c0.5,0,0.7,0,0.8,0c0.2,0,0.3-0.1,0.4-0.8
				h0.1c0,0.1,0.1,0.6,0.2,0.7c0.1,0.1,0.1,0.1,0.1,0.2C977.2-62.2,976.8-62.2,976-62.2z"/>
			<path class="st2" d="M985.2-63.5h-1.7c0,0.1,0,0.7,0,0.7c0,0.2-0.2,0.3-0.3,0.3c-0.1,0-0.1,0-0.1-0.2h-1.4v0.6h1.8l0.1-0.2
				c0,0,0.1-0.1,0.1-0.1c0,0,0.1,0,0.2,0.1l0.3,0.2c0.1,0.1,0.1,0.1,0.1,0.1c0,0.1-0.1,0.1-0.1,0.1h-2.5v0.6h2.7l0.2-0.3
				c0,0,0.1-0.1,0.1-0.1c0,0,0.1,0,0.2,0.1l0.3,0.3c0,0,0.1,0.1,0.1,0.1c0,0.1-0.1,0.1-0.1,0.1h-6c-0.2,0-0.7,0-1,0.1l-0.2-0.3
				c0.4,0,0.9,0.1,1.3,0.1h2v-0.6H980c-0.3,0-0.7,0-1,0.1l-0.2-0.3c0.4,0,0.9,0.1,1.3,0.1h1.1v-0.6H980c-0.3,0-0.7,0-1,0.1l-0.2-0.3
				c0.4,0,0.9,0.1,1.3,0.1h1.2c0-0.3,0-0.4,0-0.6h-2c-0.2,0-0.7,0-1,0.1l-0.2-0.3c0.4,0,0.9,0.1,1.3,0.1h1.9l0-0.6h-1.2
				c-0.3,0-0.7,0-1,0.1l-0.2-0.3c0.4,0,0.9,0.1,1.3,0.1h1.1c0-0.5,0-0.6-0.2-0.9l0.8,0.2c0,0,0.1,0,0.1,0.1c0,0.1-0.2,0.2-0.3,0.2
				c0,0.1,0,0.2,0,0.4h1.4l0.1-0.2c0,0,0.1-0.1,0.1-0.1c0,0,0.1,0,0.2,0.1l0.3,0.2c0.1,0,0.1,0.1,0.1,0.1c0,0.1-0.2,0.2-0.3,0.3
				c0,0,0,0.3,0,0.4h0.9l0.2-0.3c0.1-0.1,0.1-0.1,0.1-0.1c0,0,0.1,0.1,0.2,0.1l0.3,0.3c0,0,0.1,0.1,0.1,0.1
				C985.4-63.5,985.3-63.5,985.2-63.5z M983.7-60.2c0,0.1,0,1.2,0,1.5c0,0.1,0,0.2,0,0.3c0,0.2-0.2,0.3-0.3,0.3
				c-0.2,0-0.2-0.2-0.1-0.3h-3.5c0,0,0,0.1,0,0.1c0,0,0,0.3-0.3,0.3c-0.1,0-0.2,0-0.2-0.2c0-0.1,0-0.4,0-0.5c0-0.2,0-0.6,0-1
				c0-0.5,0-0.5-0.1-1.1l0.6,0.3h3.4l0.2-0.2c0,0,0.1-0.1,0.1-0.1c0,0,0.1,0,0.1,0.1l0.3,0.2c0,0,0.1,0.1,0.1,0.1
				C984-60.4,983.8-60.3,983.7-60.2z M983.3-60.4h-3.5v0.7h3.5V-60.4z M983.3-59.4h-3.5v0.8h3.5V-59.4z M983.1-63.5h-1.4
				c0,0.3,0,0.3,0,0.6h1.5V-63.5z M983.1-64.3h-1.4v0.6h1.4V-64.3z"/>
			<path class="st2" d="M988.7-64.8c-0.1,0.2-0.3,0.7-0.7,1.4l0.2,0.1c0,0,0.1,0.1,0.1,0.1c0,0,0,0.1,0,0.1l-0.2,0.2
				c0,0.3,0,1.8,0,2.1c0,0.1,0,2.2,0,2.4c0,0.1,0,0.2-0.1,0.3c-0.1,0.1-0.2,0.1-0.3,0.1c-0.2,0-0.2-0.2-0.2-0.2c0-0.1,0-0.7,0-0.9
				c0-0.4,0-2,0.1-3.8c-0.2,0.2-0.5,0.6-0.9,1.1c-0.3,0.3-0.5,0.5-0.6,0.5l0-0.1c1-1.3,1.4-2.2,1.9-3.4c0.2-0.5,0.2-0.6,0.2-0.7
				L989-65c0,0,0.1,0,0.1,0.1C989-64.9,988.9-64.8,988.7-64.8z M993-59.7c-1.1-0.9-1.9-2.6-2.1-3.3c0,0.5,0,0.6,0,2.2
				c0,0.1,0,0.8,0,0.9h0.6l0.2-0.3c0-0.1,0.1-0.1,0.1-0.1c0.1,0,0.1,0,0.2,0.1l0.3,0.3c0,0,0.1,0.1,0.1,0.1c0,0.1,0,0.1-0.1,0.1H991
				c0,0.1,0,1.4,0,1.4c0,0.1,0,0.2-0.1,0.2c-0.1,0.1-0.2,0.1-0.3,0.1c-0.2,0-0.2-0.1-0.2-0.2c0,0,0-0.4,0-0.6c0-0.2,0-0.8,0-1h-0.2
				c-0.3,0-0.7,0-1,0.1l-0.2-0.3c0.6,0,1.1,0.1,1.4,0.1c0-0.2,0-0.8,0-1c0-0.3,0-1.4,0-1.7c-0.1,0.2-1,2.1-2.4,2.8l0,0
				c0.6-0.6,1.6-1.8,2.2-3.6h-0.7c-0.2,0-0.7,0-1,0.1l-0.2-0.3c0.4,0,0.9,0.1,1.3,0.1h0.7c0-0.6,0-1,0-1.2c0-0.3,0-0.3-0.1-0.5
				l0.7,0.2c0,0,0.1,0,0.1,0.1c0,0.1-0.2,0.2-0.3,0.2c0,0.5,0,0.7,0,1.2h1.5l0.3-0.3c0,0,0.1-0.1,0.1-0.1c0,0,0.1,0,0.1,0.1l0.4,0.3
				c0,0,0.1,0.1,0.1,0.1c0,0.1-0.1,0.1-0.1,0.1H991c0.4,1.5,1.7,3,2.8,3.3v0C993.7-60.1,993.3-60,993-59.7z"/>
			<path class="st2" d="M994.4-57.9c1.3-1.4,1.6-2.8,1.6-3.8c0-0.9-0.3-2.4-1.6-3.8l0.1-0.1c0.4,0.3,1.9,1.7,1.9,3.9
				c0,2.2-1.5,3.5-1.9,3.9L994.4-57.9z"/>
		</g>
	</g>
	<g class="st1">
		<g>
			<g>
				<g>
					<line class="st3" x1="795.8" y1="96.8" x2="795.8" y2="94.6"/>
					<line class="st4" x1="795.8" y1="90.3" x2="795.8" y2="-27.2"/>
					<line class="st3" x1="795.8" y1="-29.4" x2="795.8" y2="-31.5"/>
				</g>
			</g>
		</g>
		<g>
			<g>
				<g>
					<line class="st3" x1="764.8" y1="96.8" x2="764.8" y2="94.6"/>
					<line class="st4" x1="764.8" y1="90.3" x2="764.8" y2="-27.2"/>
					<line class="st3" x1="764.8" y1="-29.4" x2="764.8" y2="-31.5"/>
				</g>
			</g>
		</g>
	</g>
	<g class="st1">
		<polyline class="st3" points="0.9,-38 0.9,-49.7 764.3,-49.7 764.3,-38 		"/>
	</g>
	<g class="st1">
		<polyline class="st3" points="795.8,-38 795.8,-49.7 1124.3,-49.7 1124.3,-38 		"/>
	</g>
	<g class="st1">
		<g>
			<path class="st2" d="M754.8,124.7c0,0.9,0.6,1.3,1.1,1.4c0.3,0.1,0.6,0.1,1,0.1c1.1,0,1.6-0.1,2-0.2c0.1,0,0.2,0,0.3,0
				c0.2,0,0.4,0.1,0.4,0.3c0,0.1-0.2,0.2-0.3,0.2c-0.4,0.1-1.4,0.2-1.9,0.2c-1.7,0-2.9-0.3-2.9-1.6c0-0.6,0.2-0.7,0.3-0.8
				C754.9,124.3,754.8,124.4,754.8,124.7z M756.3,122.8c0.1-0.1,0.7-0.4,0.8-0.5c0.1-0.1,0.3-0.2,0.3-0.2c0,0-0.1-0.1-0.1-0.1
				c-1.1-0.2-1.9-0.3-1.9-1c0.7,0.6,1.7,0.6,1.9,0.6c1.2,0,1.2,0,1.5,0.2c0.2,0.1,0.2,0.2,0.2,0.3c0,0.2-0.1,0.2-0.5,0.2
				c-0.3,0-0.7,0-1,0.1C757.3,122.4,756.5,122.8,756.3,122.8L756.3,122.8z"/>
			<path class="st2" d="M764.5,126.8c2.4-0.8,2.5-2.5,2.5-3c0-1.4-1.3-2.2-2.5-2.2c-0.2,0-0.2,0-0.3,0c0.4,0.3,0.4,0.6,0.4,0.6
				c0,0.1,0,0.1-0.2,0.5c-1,2-1.1,2.2-1.5,2.9c0,0.1-0.3,0.4-0.5,0.5c0,0-0.1,0-0.2,0c-0.2,0-0.2-0.1-0.5-0.4
				c-0.1-0.1-0.1-0.1-0.2-0.2c-0.3-0.3-0.4-0.5-0.4-1.1c0-1.6,1.4-3.1,3.4-3.1c1.5,0,2.9,0.8,2.9,2.5
				C767.5,125.4,766.3,126.7,764.5,126.8L764.5,126.8z M763.6,123.7c0.2-0.4,0.5-1.1,0.5-1.4c0-0.3-0.2-0.4-0.2-0.5
				c-0.9,0.1-2.2,1.3-2.2,2.8c0,0.6,0.4,1.1,0.7,1.1c0,0,0.1,0,0.2-0.1c0.2-0.2,0.3-0.4,0.5-0.7L763.6,123.7z"/>
			<path class="st2" d="M775.7,127.2h-5.8c-0.2,0-0.6,0-1,0.1l-0.2-0.3c0.4,0,0.9,0.1,1.3,0.1h2v-1.9h-1.4c-0.2,0-0.6,0-1,0.1
				l-0.2-0.3c0.4,0,0.9,0.1,1.3,0.1h3.2l0.3-0.3c0.1-0.1,0.1-0.1,0.1-0.1c0,0,0.1,0.1,0.1,0.1l0.4,0.3c0,0,0.1,0.1,0.1,0.1
				c0,0.1-0.1,0.1-0.1,0.1h-2.4v1.9h2.3l0.3-0.3c0.1-0.1,0.1-0.1,0.1-0.1c0,0,0.1,0.1,0.2,0.1l0.4,0.3c0,0,0.1,0.1,0.1,0.1
				C775.8,127.2,775.7,127.2,775.7,127.2z M775.4,123.8c-0.4,0.1-1.4,0.1-1.8,0.1c-0.7,0-0.9,0-1-0.4c0-0.1,0-1.6,0-1.8h-2.8
				c0,0.2-0.1,0.3-0.2,0.5c-0.2,0.2-0.4,0.3-0.5,0.3c-0.2,0-0.3-0.1-0.3-0.2c0-0.2,0.1-0.3,0.4-0.5c0.4-0.2,0.4-0.5,0.4-0.7h0.1
				c0,0.1,0,0.1,0,0.4h2.2c0-0.7,0-0.9-0.1-1.1l0.6,0.2c0.1,0,0.2,0,0.2,0.1c0,0,0,0.1-0.1,0.1c0,0-0.2,0.1-0.2,0.1v0.6h2l0.3-0.2
				c0.1,0,0.1-0.1,0.2-0.1c0,0,0.1,0,0.1,0.1l0.4,0.4c0.1,0.1,0.1,0.1,0.1,0.1c0,0.2-0.2,0.2-0.5,0.2c-0.1,0.1-0.6,0.4-0.7,0.5l0,0
				c0.1-0.3,0.1-0.4,0.2-0.7H773v0.9c0,0.7,0,0.8,0,0.8c0,0,0.1,0.1,0.1,0.1c0,0,0.3,0,0.7,0c0.5,0,0.8,0,1-0.1
				c0.2-0.1,0.3-0.2,0.5-0.9h0.1c0,0.1,0.1,0.5,0.2,0.6c0,0.1,0.1,0.1,0.2,0.2c0,0,0.1,0.1,0.1,0.2
				C775.8,123.6,775.6,123.7,775.4,123.8z M771.5,122.3c-0.5,0.9-1,1.6-2.6,2l0-0.1c1.1-0.4,2-1.3,2.3-2.6l0.6,0.3
				c0.1,0,0.1,0.1,0.1,0.1C771.9,122.3,771.8,122.3,771.5,122.3z"/>
			<path class="st2" d="M781.8,125.8c-0.1,0-0.5-0.3-0.6-0.3c-0.5-0.2-1.4-0.4-2.1-0.4c-0.7,0-1.2,0.2-1.2,0.9
				c0,0.9,1.5,0.9,1.9,0.9c0.1,0,0.7,0,0.8,0c0.2,0,0.4,0.1,0.4,0.3c0,0.1,0,0.2-0.8,0.2c-0.3,0-1,0-1.5-0.2
				c-0.4-0.1-1.1-0.4-1.1-1.1c0-1.2,1.3-1.2,1.7-1.2c0.4,0,1.1,0.1,1.7,0.2c0,0,0.3,0.1,0.3,0.1c0,0,0.1,0,0.1-0.1
				c0,0,0-0.1-0.1-0.1c-0.2-0.3-0.6-0.9-0.9-1.4c-0.8,0.3-1.6,0.4-1.9,0.4c-0.4,0-0.8-0.2-0.9-0.6c0.4,0.2,0.5,0.2,0.9,0.2
				s1.1-0.1,1.8-0.4c-0.1-0.2-0.3-0.6-0.6-1.1c-0.4,0.1-0.9,0.2-1.1,0.2c-0.3,0-0.7-0.2-0.9-0.5c0.2,0.1,0.4,0.1,0.7,0.1
				c0.4,0,0.9-0.2,1.2-0.2c-0.1-0.1-0.3-0.8-0.4-0.9c-0.1-0.2-0.4-0.2-0.8-0.2c0.2-0.2,0.3-0.3,0.6-0.3c0.2,0,0.6,0.1,0.6,0.3
				c0,0.1,0,0.5,0.1,0.5c0,0.1,0.1,0.4,0.2,0.5c0.1,0,0.2-0.1,0.5-0.3c0.3-0.2,0.4-0.2,0.5-0.2c0.1,0,0.3,0.1,0.3,0.2
				c0,0.1-0.1,0.1-0.2,0.2c-0.5,0.2-0.6,0.3-0.9,0.4c0.1,0.3,0.3,0.6,0.6,1.1c0.3-0.1,0.4-0.2,0.7-0.4c0.2-0.1,0.2-0.1,0.4-0.1
				c0.2,0,0.3,0.1,0.3,0.2c0,0.1-0.1,0.2-0.2,0.2c-0.1,0.1-0.6,0.3-1,0.4c0.4,0.6,0.7,0.9,1,1.3c0.1,0.1,0.4,0.4,0.4,0.6
				C782,125.4,781.9,125.8,781.8,125.8z"/>
			<path class="st2" d="M784.4,122.2c0.2,0,0.4-0.1,1.3-0.3c1.2-0.3,3.6-0.8,3.7-0.8c0.1,0,0.6,0.1,0.6,0.4c0,0.2-0.2,0.2-0.3,0.2
				c-0.1,0-0.4,0-0.5,0c-0.9,0-1.3,0.2-1.8,0.6c-0.8,0.7-1.1,1.6-1.1,2.2c0,1.4,1.4,1.8,2,1.9c0.2,0,0.3,0.1,0.4,0.2
				c0.1,0.1,0.1,0.2,0.1,0.2c0,0.1-0.1,0.2-0.2,0.2c-0.8,0-2.7-0.6-2.7-2.4c0-1.4,1-2.2,1.9-2.9c-0.5,0.1-1.1,0.3-1.6,0.4
				c-1,0.2-1.3,0.4-1.7,0.6c0,0-0.1,0.1-0.2,0.1c-0.1,0-0.5-0.2-0.5-0.7c0-0.1,0-0.2,0.1-0.3C784.1,122.2,784.2,122.2,784.4,122.2z
				 M789,122.8c0.5,0.3,0.6,0.5,0.6,0.7c0,0.1,0,0.2-0.2,0.2c-0.1,0-0.1-0.1-0.2-0.2c-0.3-0.5-0.8-0.9-1-1.1
				C788.5,122.5,788.8,122.6,789,122.8z M790.5,123.2c0,0.2-0.1,0.2-0.1,0.2c-0.1,0-0.1-0.1-0.2-0.2c-0.3-0.4-0.7-0.7-1-1
				C789.6,122.3,790.5,122.6,790.5,123.2z"/>
			<path class="st2" d="M793.9,122.4h-1v1.5c0.5-0.2,0.7-0.3,0.8-0.4l0,0c-0.1,0.1-0.3,0.3-0.8,0.6c0,0.4,0,2.3,0,2.4
				c0,0.5-0.1,0.8-0.7,0.9c0-0.2,0-0.4-0.6-0.7l0,0c0.1,0,0.5,0,0.6,0c0.2,0,0.3,0,0.3-0.3v-2.1c-0.4,0.3-0.5,0.3-0.6,0.4
				c-0.1,0.2-0.1,0.3-0.2,0.3c0,0-0.1,0-0.1-0.1l-0.4-0.6c0.4,0,0.9-0.2,1.2-0.3l0-1.7c-0.1,0-0.5,0-0.9,0.1l-0.2-0.3
				c0.4,0,0.8,0,1.1,0.1c0-0.2,0-1.1,0-1.3c0-0.2,0-0.4-0.1-0.6l0.7,0.2c0,0,0.1,0,0.1,0.1c0,0.1-0.1,0.1-0.3,0.3v1.4h0.4l0.2-0.2
				c0,0,0.1-0.1,0.1-0.1c0.1,0,0.1,0,0.2,0.1l0.3,0.2c0,0,0.1,0.1,0.1,0.1C794,122.4,794,122.4,793.9,122.4z M795.9,123.4
				c0,0.3,0,1.5,0,1.7c0,0.1,0,0.6,0,0.9c0,0.2,0,0.6,0,0.6c0,0.2,0,0.4-0.2,0.5c-0.2,0.2-0.4,0.2-0.4,0.2c0-0.1-0.1-0.4-0.5-0.6v0
				c0.1,0,0.4,0,0.5,0c0.2,0,0.2-0.1,0.2-0.3v-1h-1.1v1.3c0,0.1,0,0.4,0,0.5c0,0.2-0.3,0.3-0.3,0.3c-0.1,0-0.1-0.1-0.1-0.2
				c0-0.1,0-0.8,0-0.9c0-1.8,0-1.8,0-2.2c0-0.9,0-1-0.1-1.4l0.5,0.2h1l0.2-0.2c0,0,0.1-0.1,0.1-0.1c0,0,0.1,0,0.1,0.1l0.3,0.2
				c0,0,0.1,0.1,0.1,0.1C796.1,123.3,796,123.3,795.9,123.4z M798.4,122.2h-3.2c-0.2,0-0.7,0-1,0.1l-0.2-0.3c0.4,0,0.9,0.1,1.3,0.1
				h0.9c0.1-0.3,0.3-0.6,0.3-0.9c0.1-0.3,0.1-0.4,0.1-0.6l0.7,0.3c0,0,0.1,0.1,0.1,0.1c0,0.1,0,0.1-0.1,0.1c0,0-0.2,0.1-0.3,0.1
				c-0.2,0.3-0.5,0.7-0.7,0.9h1.3l0.2-0.3c0-0.1,0.1-0.1,0.1-0.1c0,0,0.1,0,0.1,0.1l0.3,0.3c0,0,0.1,0.1,0.1,0.1
				C798.5,122.2,798.5,122.2,798.4,122.2z M795.5,123.3h-1.1v0.9h1.1V123.3z M795.5,124.3h-1.1v0.9h1.1V124.3z M795.2,121.8
				c-0.2,0-0.2-0.1-0.3-0.4c-0.1-0.3-0.2-0.5-0.4-0.8l0,0c0.2,0.1,1,0.4,1,0.9C795.4,121.7,795.3,121.8,795.2,121.8z M796.9,123.6
				c0,0.3,0,1.6,0,1.9c0,0.1,0,0.3,0,0.5c0,0,0,0.1,0,0.1c0,0.3-0.2,0.3-0.3,0.3c-0.1,0-0.1-0.1-0.1-0.2c0-0.1,0-1.6,0-2
				c0-0.6,0-0.9-0.1-1.2l0.6,0.2c0,0,0.1,0,0.1,0.1C797.1,123.4,797.1,123.5,796.9,123.6z M798,123.2c0,0.7,0,1.6,0,2.3
				c0,0.2,0,1,0,1.2c0,0.3,0,0.4-0.2,0.5c-0.2,0.2-0.4,0.3-0.5,0.3c0-0.1-0.1-0.4-0.6-0.6v0c0.5,0,0.7,0,0.8,0
				c0.1,0,0.1-0.1,0.1-0.3c0-0.7,0-1.7,0-2.4c0-1,0-1.2-0.1-1.5l0.6,0.2c0,0,0.1,0,0.1,0.1C798.2,123.1,798.2,123.1,798,123.2z"/>
			<path class="st2" d="M801.1,123.3c0.3,0,1.4-0.3,1.9-0.5c0.2-0.1,0.3-0.1,0.3-0.1c0.2,0,0.6,0.3,0.6,0.5c0,0.1,0,0.1-0.2,0.2
				c-0.3,0.2-0.8,0.5-2,1.8c0.1,0,0.2,0,0.4,0c0.6,0,0.8,0.3,0.8,0.7c0.2,0.7,0.3,0.9,1,0.9c0.3,0,0.6,0,0.8-0.1
				c0.1,0,0.4-0.1,0.5-0.1c0.1,0,0.4,0.1,0.4,0.3c0,0.1,0,0.1-0.1,0.2c-0.1,0.1-0.6,0.2-1.1,0.2c-1.4,0-1.6-0.3-1.8-1.1
				c-0.1-0.4-0.2-0.7-0.6-0.7c-0.4,0-0.5,0.2-1.1,1c-0.7,0.9-0.7,0.9-0.8,0.9c-0.2,0-0.2-0.3-0.2-0.3c0-0.3,0.1-0.3,0.3-0.5
				c0.3-0.2,0.4-0.4,1.8-1.8c0.2-0.2,1.1-1.2,1.2-1.3c0,0,0,0,0-0.1c0-0.1-0.1-0.1-0.2-0.1c-0.2,0-1,0.2-1.4,0.5
				c-0.1,0.1-0.2,0.1-0.3,0.1c-0.3,0-0.6-0.4-0.6-0.6c0,0,0.1-0.2,0.1-0.2C800.7,123.1,800.9,123.3,801.1,123.3z M801.9,121.8
				c0.3-0.2,0.3-0.2,0.6-0.4c0,0,0.1-0.1,0.1-0.1c0-0.1-0.1-0.2-0.3-0.3c-0.6-0.4-0.7-0.7-0.7-1c0.3,0.3,0.6,0.6,1.3,0.9
				c0.2,0.1,0.7,0.3,0.7,0.6c0,0.2-0.2,0.2-0.2,0.2c-0.1,0-0.4-0.1-0.5-0.1c-0.1,0-0.2,0-0.7,0.1C802,121.8,801.9,121.9,801.9,121.8
				L801.9,121.8z"/>
			<path class="st2" d="M808.5,121.3c0.2,0,1-0.2,1.5-0.3c0.1,0,0.4-0.1,0.4-0.1c0.2,0,0.5,0.3,0.5,0.5c0,0.1,0,0.1-0.2,0.2
				c-0.2,0.1-0.2,0.2-0.4,0.3c-0.2,0.3-1.3,1.6-1.5,1.8c-0.1,0.1-0.2,0.3-0.4,0.6c0.4-0.2,1.1-0.7,2-0.7c1.2,0,1.7,0.7,1.7,1.5
				c0,1.1-1,1.8-2.2,1.8c-0.7,0-1.5-0.3-1.5-0.9c0-0.5,0.5-0.7,0.8-0.7c0.7,0,1,0.4,1.2,1.1c0.8-0.1,1.2-0.8,1.2-1.4
				c0-0.8-0.6-1.2-1.4-1.2c-1.5,0-2.7,1.4-2.8,1.6c-0.2,0.3-0.3,0.5-0.5,0.5c-0.1,0-0.2-0.1-0.2-0.3c0-0.3,0.1-0.3,0.3-0.5
				c1.2-1.2,2.9-3.5,2.9-3.8c0-0.1-0.1-0.1-0.1-0.1c-0.1,0-0.9,0.2-1.2,0.4c-0.1,0.1-0.3,0.2-0.3,0.2c-0.2,0-0.7-0.3-0.7-0.7
				c0-0.1,0-0.1,0.1-0.2C808.1,121.2,808.3,121.3,808.5,121.3z M809.2,125.8c-0.2,0-0.4,0.1-0.4,0.3c0,0.4,0.9,0.6,1.1,0.6
				c0.1,0,0.1,0,0.3,0C810.1,126.2,809.5,125.8,809.2,125.8z"/>
		</g>
	</g>
	<polyline class="st5" points="-25.6,0 -37.9,0 -37.9,62 -25.6,62 	"/>
	<g class="st1">
		<g>
			<path class="st2" d="M-46.7,33.8v-0.3h0.3c0.3,0,0.3-0.2,0.3-0.3c0,0,0-0.1-0.1-0.3l-0.4-1.2H-49l-0.4,1.2c0,0-0.1,0.2-0.1,0.3
				c0,0.1,0,0.3,0.4,0.3h0.1v0.3h-1.6v-0.3h0.2c0.3,0,0.6-0.2,0.7-0.6l1.8-5.1l0.6-0.1l1.8,5.2c0.1,0.3,0.3,0.5,0.6,0.5h0.2v0.3
				H-46.7z M-47.7,28.3l-1.1,3.2h2.2L-47.7,28.3z"/>
		</g>
	</g>
	<polyline class="st5" points="795.3,-59.7 795.3,-72 764.2,-72 764.2,-59.7 	"/>
	<g class="st1">
		<g>
			<path class="st2" d="M772.6-78.1c-1.1,0-1.8-1.4-1.8-3.1c0-1.6,0.7-3.1,1.8-3.1c1.1,0,1.8,1.4,1.8,3.1
				C774.4-79.6,773.7-78.1,772.6-78.1z M772.6-84c-0.6,0-1.2,0.8-1.2,2.8c0,2.1,0.6,2.8,1.2,2.8c0.6,0,1.2-0.7,1.2-2.8
				C773.8-83.4,773.1-84,772.6-84z"/>
			<path class="st2" d="M775.5-78.1c-0.2,0-0.4-0.2-0.4-0.4c0-0.2,0.2-0.4,0.4-0.4c0.3,0,0.4,0.2,0.4,0.4
				C775.9-78.3,775.7-78.1,775.5-78.1z"/>
			<path class="st2" d="M778.4-78.1c-1,0-1.5-0.7-1.5-1.2c0-0.2,0.2-0.5,0.4-0.5c0.2,0,0.4,0.2,0.4,0.4c0,0.1-0.1,0.3-0.1,0.4
				c0,0.3,0.3,0.6,0.8,0.6c1,0,1.3-1,1.3-1.8c0-0.7-0.2-1.5-1.2-1.5c-0.6,0-0.9,0.3-1.3,0.7l-0.1-0.1l0.2-3.1h2.8l-0.1,0.5h-2.4
				l-0.1,2.2c0.2-0.2,0.3-0.3,0.6-0.4c0.3-0.1,0.5-0.2,0.7-0.2c0.6,0,1.6,0.5,1.6,1.8C780.3-79,779.4-78.1,778.4-78.1z"/>
			<path class="st2" d="M784.8-78.3v-0.3h0.3c0.3,0,0.3-0.2,0.3-0.3c0,0,0-0.1-0.1-0.3l-0.4-1.2h-2.4l-0.4,1.2c0,0-0.1,0.2-0.1,0.3
				c0,0.1,0,0.3,0.4,0.3h0.1v0.3h-1.6v-0.3h0.2c0.3,0,0.6-0.2,0.7-0.6l1.8-5.1l0.6-0.1l1.8,5.2c0.1,0.3,0.3,0.5,0.6,0.5h0.2v0.3
				H784.8z M783.7-83.8l-1.1,3.2h2.2L783.7-83.8z"/>
		</g>
	</g>
</g>
<g id="入力レイヤー">
	<g>
		<path class="st6" d="M813,14.2c0.9,0,2.1,0.5,3.5,1.6c1.2,0.9,1.8,1.7,1.8,2.6c0,0.3-0.2,0.6-0.6,1.1c-0.4,0.2-0.6,0.5-0.7,0.8
			c-0.9,1.6-1.7,3-2.5,4.2c4.1-0.2,7.6-0.5,10.6-0.9c0-3.4,0-7,0-10.8c0-2.9-0.6-5.3-1.7-7c0-0.3,0.3-0.5,0.9-0.5
			c1.2,0,2.4,0.2,3.5,0.6c2,0.9,2.9,1.7,2.9,2.5c0,0.4-0.1,1-0.2,1.6c-0.6,0.9-0.9,2.7-0.9,5.4c0,2.7,0,5.2,0,7.5
			c3-0.6,5.6-1.3,7.9-2.1c0.5-0.2,1-0.4,1.7-0.4c0.5,0,1.3,0.1,2.4,0.4c1.4,0.6,2.1,1.1,2.1,1.6c0,0.4-0.1,0.7-0.4,1
			c-0.2,0.3-0.6,0.6-1.1,0.6c-4.1,0.8-8.3,1.5-12.6,2.1c0,4,0,7.6-0.1,10.8c6.8-0.9,12.3-1.7,16.7-2.4c0.5,0,1-0.1,1.4-0.1
			c1.5,0,3.3,0.4,5.4,1.3c1.9,1.1,2.8,2.3,2.8,3.4c0,0.8-0.7,1.1-2,1.1c-1.5,0-4-0.1-7.5-0.4c-2.2-0.3-4.1-0.4-5.6-0.4
			c-4.1,0-7.8,0.1-11.1,0.2c-0.1,5.1-0.2,8.9-0.3,11.3c-0.1,5.8-0.5,10.4-1.1,13.7c-0.7,3.5-1.3,5.3-1.9,5.3c-0.4,0-0.6-1.9-0.8-5.6
			c-0.1-0.7-0.2-8.9-0.3-24.6c-2.2,0.1-4.3,0.3-6.2,0.5c-4.8,0.5-9.5,1.2-14,2.2c-1,0.3-2,0.5-2.9,0.5c-1.2,0-2.7-0.4-4.2-1.1
			c-1.3-0.7-1.9-1.2-1.9-1.4c0-0.4,0.2-0.6,0.6-0.6c3.6,0,11.3-0.6,23.1-1.9c1.9-0.2,3.8-0.5,5.5-0.6c0-3.3,0-6.9,0-10.8
			c-2.6,0.3-4.5,0.4-5.9,0.4c-2.8,0-4.7-0.3-5.7-1c-0.6,0.9-1.1,1.7-1.7,2.4c-2.1,2.4-4,4.3-5.7,5.5c-0.9,0.7-1.5,1.1-1.7,1.1
			c-0.2,0-0.3-0.2-0.3-0.6c2.1-3.1,3.9-6,5.2-8.7c1-2.2,1.8-4.3,2.4-6.5c0.3-1.3,0.5-2.2,0.5-2.7l-0.3-1.7
			C811.8,14.4,812.2,14.2,813,14.2z"/>
		<path class="st6" d="M871.8,27.6c0.7,0,1.7,0.2,3.2,0.7c1.6,0.7,2.4,1.5,2.4,2.4c0,0.4-0.3,0.9-0.9,1.4c-1.5,0.9-2.4,1.7-2.7,2.4
			c-1,2.4-1.5,4.1-1.5,4.9c0,0.2,0.1,0.6,0.2,1.1c1.6,2.8,2.4,5.3,2.4,7.4c0,0.8-0.3,1.8-0.8,2.9c2.8,0.4,7.6,1.7,14.4,3.7
			c3.5,1.1,7.7,2,12.3,2.6c2.6,0.5,10.4,0.8,23.3,1.1c0.2,0,0.3,0.2,0.3,0.6c0,0.1-0.2,0.2-0.6,0.4c-2.7,1.8-5.7,3.1-9,4.1
			c-2.6,0.9-4.5,1.4-5.8,1.4c-0.9,0-1.5-0.1-1.9-0.3c-3.3-1-6.1-1.9-8.6-2.8c-9.9-4.1-17.6-6.8-23.3-8.1c-1.1-0.2-2.1-0.3-3-0.3
			c-1.7,0-4.4,0.4-8,1.1c-0.7,0.1-1.2,0.2-1.4,0.2c-0.7,0-1.4-0.3-2.3-0.9c-1.1-0.7-1.7-1.4-1.7-2.2c0-0.3,0.1-0.5,0.3-0.5
			c6.5-0.2,10.9-0.3,13.2-0.3c0-0.1,0-0.2-0.1-0.3c0-1.4-0.3-2.9-0.9-4.5c-0.5-1.8-1.2-3.3-2.1-4.5c-0.3-0.7-0.4-1.4-0.4-2.1
			c0-1,0.8-3.1,2.3-6.3v-0.1c0-0.1-0.2-0.2-0.6-0.2c-2.6,0.7-4.6,1.1-6.2,1.1c-1.4,0-2.6-0.2-3.4-0.7c-0.7-0.4-1.1-0.8-1.1-1.2
			c0-0.2,0.2-0.3,0.6-0.3c1.7,0,3.5-0.3,5.3-0.9c1.7-0.5,3.2-1.3,4.7-2.5C871,27.8,871.4,27.6,871.8,27.6z M867.3,11.4
			c1.3,0,3,0.3,5,1c2,0.7,3.2,1.3,3.8,1.9c0.7,0.7,1,1.5,1,2.4c0,1.7-0.7,2.5-2,2.5c-1.3,0-2.9-1.1-5-3.2c-2.3-2.3-3.4-3.8-3.4-4.3
			C866.7,11.5,866.9,11.4,867.3,11.4z M896.1,26.6c-2.5-2.4-5.3-5-8.4-7.7c-0.4-0.6-0.6-1.2-0.6-1.7c0-0.2,0.1-0.3,0.3-0.3
			c0.2,0,0.7,0.2,1.3,0.6c7.9,4.7,14.2,8.9,18.8,12.3c2.7,2.3,5,4.5,6.7,6.7c1.6,1.8,2.4,3.5,2.4,5c0,1.9-0.6,2.8-1.7,2.8
			c-0.8,0-1.4-0.3-1.7-0.8c-0.8-0.6-1.7-1.5-2.7-2.7c-2.7-3.1-6.4-6.9-11.1-11.3c-0.1,0-0.2,0.1-0.2,0.1c-0.5,0.6-1.1,1.3-1.6,2.1
			c-1.8,2.6-3.6,4.9-5.5,6.9c-2.1,2.3-4.5,4.2-7,5.7c-2.2,1.3-4.7,2.4-7.8,3.4v-0.6c1.2-0.9,2.4-1.8,3.6-2.7
			c2.6-2.1,4.9-4.2,6.8-6.4c2.3-2.4,4.8-5.7,7.3-9.7C895.5,27.9,895.8,27.3,896.1,26.6z"/>
		<path class="st6" d="M943.4,21.7c0.6,0,1.6,0.3,3.1,0.9c1.9,1,2.8,1.8,2.8,2.4c0,0.3-0.3,0.6-0.9,0.9c-2.1,1.4-3.4,2.4-3.7,3
			c-1.4,2.1-2.8,4-4.2,5.7c1.8,1.8,2.7,3.2,2.7,4.2c0,0.3-0.1,0.9-0.4,1.8c-0.3,1.2-0.4,1.9-0.4,2.1l0.3,14.1c0,1-0.2,2-0.7,3.1
			c-0.6,1.5-1.1,2.2-1.5,2.2c-1,0-1.8-1.5-2.7-4.4c-0.3-0.7-0.4-1.3-0.4-1.8c0-0.9,0.5-3.3,1.7-7.2c0.4-1.3,0.6-3.7,0.6-7.1
			c0-1.9-0.2-3.6-0.6-5.1c-1.1,1.2-2.1,2.3-3.1,3.3c-2.7,3.3-5.9,5.9-9.5,7.9c-1.3,1-2.2,1.4-2.5,1.4c-0.1,0-0.2-0.1-0.2-0.3
			c0-0.2,0.2-0.5,0.7-1.1c3.7-3.3,6.6-6.2,8.5-8.6c3.1-3.7,5.9-7.8,8.4-12.2c0.2-0.4,0.4-0.6,0.4-0.8c0-0.2-0.2-0.3-0.6-0.3
			c-6.5,2.4-10.2,3.7-11.2,3.7c-1.1,0-2.2-0.5-3.4-1.4c-0.8-0.7-1.1-1.2-1.1-1.5c0-0.5,0.2-0.8,0.6-0.8c4.3-0.1,7.4-0.5,9.4-0.9
			c2.2-0.4,4.6-1.4,7.3-3C943.1,21.9,943.4,21.8,943.4,21.7z M940.3,8.6c1.1,0,2.5,0.3,4.3,0.9c1.7,0.7,2.8,1.3,3.3,1.9
			c0.5,0.6,0.8,1.4,0.8,2.2c0,1.9-0.7,2.8-2.2,2.8c-1.1,0-2.4-1-3.9-3.1c-1.9-2.2-2.8-3.7-2.8-4.2C939.8,8.8,939.9,8.6,940.3,8.6z
			 M943.1,34.1c0.2,0,0.6,0,1.1,0.1c0.9,0.3,1.9,0.7,2.9,1.1c1.2,0.7,2.1,1.3,2.4,1.9c0.4,0.5,0.6,1,0.6,1.7c0,0.5-0.2,1.1-0.5,1.7
			c-0.3,0.5-0.7,0.8-1.2,0.8c-0.4,0-0.6-0.1-0.8-0.3c-0.4-0.4-1-1.1-1.8-2.2c-1.1-1.9-1.9-3-2.3-3.4c-0.5-0.5-0.7-0.9-0.7-1.1
			C942.8,34.2,942.9,34.1,943.1,34.1z M951.8,22.9c0.8,0,1.8,0.1,2.9,0.4c0.5,0.2,1,0.5,1.3,0.8c3.1-0.3,5.9-0.7,8.5-1
			c0-3.4,0-7.1,0-10.9c0-2.9-0.6-5.2-1.7-7c0-0.4,0.3-0.6,0.8-0.6c1.2,0,2.4,0.2,3.5,0.6c2,0.9,2.9,1.7,2.9,2.5c0,0.5-0.1,1-0.2,1.6
			c-0.6,0.9-0.9,2.7-0.9,5.4c0,2.7,0,5.3,0,7.8c3.6-0.6,6.7-1.2,9.3-1.9c0.4-0.1,0.8-0.1,1.3-0.1c0.5,0,1.6,0.4,3.4,1.1
			c2.6,1.2,3.9,2.1,3.9,2.8c0,0.3-0.2,0.6-0.6,1.1c-1.2,1.2-2.1,2.7-2.6,4.6c-1.5,5.2-3.3,10.3-5.5,15.4c-0.4,0.2-1.1,0.3-1.9,0.3
			c-0.3,0-0.7-0.2-1-0.6c-0.2-0.5-0.4-0.9-0.4-1.3c0-0.1,0-0.2,0-0.2c-2.1,0-4.1,0.1-6.1,0.3c0,2.8-0.1,5-0.2,6.5
			c-0.1,5.8-0.5,10.3-1.1,13.6c-0.7,3.5-1.3,5.3-1.9,5.3c-0.4,0-0.7-1.8-0.9-5.5c-0.1-0.6-0.2-7.1-0.2-19.4c-0.1,0-0.1,0-0.1,0.1
			c-3.3,0.5-5.3,0.7-6.1,0.7c0,0-0.1,0-0.1,0c-0.2,0.8-0.5,1.1-1,1.1c-0.4,0-0.8-0.3-1.1-0.9c-0.3-0.5-0.5-1-0.5-1.3
			c-0.6-2-1.1-5.4-1.5-10.1c-0.3-2.9-0.8-5.2-1.4-6.9c-0.4-1.5-0.9-2.5-1.6-3.2C951,23.2,951.2,22.9,951.8,22.9z M958.2,42.7
			c1.5-0.1,3.4-0.4,5.7-0.8c0.2,0,0.4,0,0.6-0.1c0-2.3-0.1-4.9-0.1-7.5c-0.5,0-0.9,0.1-1.1,0.1c-1.2,0-2.3-0.1-3.3-0.3
			c-0.8-0.2-1.1-0.4-1.1-0.6c0-0.4,0.2-0.7,0.6-0.8c1.7-0.2,3.4-0.5,5-0.8c0-2.1,0-4.3,0-6.6c-2.5,0.4-5.1,0.8-7.8,1.1L958.2,42.7z
			 M969,24.8c0,2.2-0.1,4.3-0.1,6.3c0.3-0.1,0.6-0.2,0.9-0.2c0.6-0.1,1.1-0.2,1.4-0.2c2.6,0,3.9,0.6,3.9,1.7c0,0.2-0.2,0.4-0.6,0.5
			c-2,0.3-3.8,0.6-5.5,0.9c0,2.7-0.1,5.2-0.1,7.3c1-0.2,1.8-0.4,2.6-0.6c0.5-0.2,1-0.3,1.4-0.3c1.1,0,1.9,0.3,2.6,0.9
			c0.1,0.1,0.3,0.2,0.4,0.3c0.1-0.3,0.2-0.7,0.4-1.1c0.7-2.4,1.4-5.9,2-10.4c0.3-1.8,0.5-3.4,0.5-4.8c0-0.8-0.6-1.1-1.7-1.1
			c-1.1,0-2.7,0.1-4.8,0.4C971.2,24.5,970.1,24.7,969,24.8z"/>
		<path class="st6" d="M1035.2,45.3c-5.9,0-11,0.1-15.4,0.4v0.1c0.3,0,0.7,0.1,1.1,0.2c1.4,0.4,2.7,1,3.8,1.9
			c3.6,2.4,7.1,4.4,10.5,6c3.6,1.8,9.6,3.7,18,5.8v0.5c0,0.3-0.5,0.6-1.5,0.6c-4.6,0.7-8.7,1.1-12.2,1.1c-1.4,0-2.3-0.1-2.7-0.4
			c-3.3-2.1-7.3-5.5-12.3-10.2c-0.9-0.8-2.1-1.7-3.6-2.8c-0.3-0.3-0.7-0.5-1-0.6c0,1.7,0.2,3.6,0.4,5.5c0.3,3.5,0.4,6.8,0.4,9.9
			c0,1.3-0.3,2.4-0.9,3.2c-0.8,1.1-1.4,1.6-1.9,1.6c-0.5,0-0.9-0.4-1.1-1.3c-0.4-0.7-0.6-2.2-0.6-4.3c0.1-4.9,0.2-9.2,0.3-12.9
			c-0.1,0.1-0.2,0.3-0.3,0.4c-1.4,1.3-3,2.7-4.8,4.2c-2.5,2-5.1,3.6-7.9,5c-2.5,1.2-4.9,2.1-7.3,2.8c-2.2,0.6-3.5,0.9-3.9,0.9h-0.6
			c3.3-1.7,5.9-3.2,7.5-4.4c3.9-2.2,7.3-4.5,10-6.7c2.3-2.1,3.9-3.7,4.8-4.8c0.3-0.3,0.5-0.6,0.7-0.9c-0.5,0-0.9,0-1.3,0.1
			c-4.8,0.4-9.5,1-14.1,1.9c-1,0.3-2,0.4-2.9,0.4c-1.1,0-2.3-0.4-3.7-1.1c-1.1-0.7-1.7-1.2-1.7-1.4c0-0.2,0.2-0.3,0.5-0.3
			c3.5,0,11-0.5,22.4-1.7c0.8,0,1.5-0.1,2.3-0.2c-0.2-2-0.6-3.4-1.4-4.3c0-0.9,0.5-1.4,1.4-1.4c1,0,2,0.3,3.1,0.9
			c1.1,0.6,1.7,1.3,1.7,2.2c0,0.1-0.2,0.4-0.6,0.7c-0.3,0.4-0.6,0.9-0.7,1.5c8.3-0.9,14.9-1.7,19.8-2.4c0.5,0,1-0.1,1.4-0.1
			c1.3,0,2.8,0.4,4.7,1.1c1.6,1,2.4,1.9,2.4,2.9c0,0.7-0.6,1.1-1.7,1.1c-1.2,0-3.4-0.1-6.5-0.3C1038.1,45.4,1036.5,45.3,1035.2,45.3
			z M1006.8,27.9c0.2,0,0.3,0.1,0.3,0.3c0,0.2-0.1,0.6-0.4,1.1c-1.2,1.7-2.7,3.4-4.2,4.9c-1.2,1.2-2.4,2.4-3.4,3.5
			c-0.8,0.8-1.5,1.1-1.9,1.1c-0.5,0-1.4-0.6-2.6-1.7c-0.9-1.1-1.4-1.9-1.4-2.5c0-0.6,0.3-0.9,0.9-0.9c1.2-0.1,3.1-0.7,5.7-1.9
			c2.3-1.1,4.5-2.3,6.5-3.7C1006.5,28,1006.7,27.9,1006.8,27.9z M996.2,18.1c0.6,0,1.4,0.1,2.2,0.4c2.1,0.5,3.7,1.1,4.8,1.8
			c0.9,0.7,1.4,1.7,1.4,2.9c0,0.5-0.2,1-0.5,1.5c-0.4,0.5-0.8,0.7-1.1,0.7c-0.6,0-1.2-0.3-1.8-0.8c-1.2-0.9-2.9-2.8-5.1-5.6
			c-0.3-0.3-0.4-0.5-0.4-0.6C995.7,18.2,995.9,18.1,996.2,18.1z M1018.7,5.5c0.6,0,1.6,0.3,3.2,0.9c1.6,0.9,2.4,1.7,2.4,2.2
			c0,0.3-0.3,0.6-0.9,0.9c-0.6,0.3-1.3,0.9-2.2,1.7c-2.2,2.3-3.9,4-5.4,5.1c2-0.5,3.5-0.9,4.6-1.2c0.2-0.1,0.6-0.1,1-0.1
			c0.5,0,1.5,0.2,3.1,0.6c2.1,0.8,3.1,1.6,3.1,2.2c0,0.3-0.2,1-0.5,1.9c-0.2,0.6-0.4,1.6-0.4,3.2v11.8c0,0.6-0.3,1.6-0.9,2.9
			c-0.6,0.9-1.1,1.4-1.6,1.4c-0.3,0-0.8-0.6-1.4-1.7c-0.1-0.1-0.2-0.3-0.2-0.4c-1.9,0-3.8,0.2-5.6,0.5c-1.9,0.3-3,0.4-3.4,0.4
			c-0.1,0-0.2,0-0.3,0c0,0.5-0.1,0.9-0.3,1.2c-0.2,0.5-0.5,0.7-0.8,0.7c-0.2,0-0.6-0.4-1.1-1.1c-0.4-0.6-0.6-0.9-0.6-1.1l0.3-2.2
			c0-9.1-0.4-14.6-1.1-16.5c-0.2-0.8-0.3-1.4-0.3-1.7c0-0.6,0.3-0.9,0.8-0.9c0.4,0,1,0.1,1.7,0.4c0.4,0.1,0.8,0.3,1,0.5
			c0.5-0.1,0.9-0.2,1.4-0.3c0.5-0.9,0.9-1.7,1.1-2.4c0.8-1.4,1.4-3,1.9-4.7c0.3-0.9,0.5-1.6,0.5-1.9c0-0.2,0-0.5-0.1-0.7
			c-0.1-0.5-0.1-0.8-0.1-1C1017.5,5.7,1017.9,5.5,1018.7,5.5z M1013.3,35.9c0.8,0,1.7-0.2,2.8-0.5c1.7-0.2,3-0.5,4-0.9
			c0.2-0.1,0.5-0.1,0.8-0.1c0.5,0,1,0.1,1.4,0.3c0-0.1,0-0.2,0-0.3c0.2-0.9,0.3-5.2,0.3-12.9c0-1.3-0.3-2.5-1-3.5
			c-0.4-0.4-0.9-0.6-1.5-0.6c-0.5,0-1.1,0-1.9,0.1c-1.2,0.2-2.2,0.5-2.9,0.7c-0.6,0.1-1.2,0.2-2,0.2v7.3c2.2-0.5,3.5-0.9,4-1.1
			c0.1,0,0.3-0.1,0.5-0.1c2.1,0,3.1,0.4,3.1,1.1c0,0.3-0.1,0.6-0.3,0.9c-1.4,0.2-3.2,0.5-5.5,0.8c-0.1,0-0.3,0-0.4,0
			c-0.3,0-0.8,0-1.4-0.1V35.9z M1036.3,14.7c0.7,0,1.9,0.4,3.7,1.1c1.9,1.1,2.8,2,2.8,2.6c0,0.3-0.4,0.6-1.1,0.8
			c-0.8,0.2-1.7,0.7-2.8,1.4c-4.1,2.6-7.3,4.3-9.5,5.1c-0.2,0-0.3-0.1-0.3-0.3c1.1-1,2-1.9,2.7-2.7c1.2-1.2,2.2-2.5,3-3.9
			c0.5-0.7,0.8-1.2,0.8-1.6c0-0.2-0.1-0.5-0.3-0.7c-0.2-0.5-0.3-0.8-0.3-1C1034.9,15,1035.4,14.7,1036.3,14.7z M1030.8,28.2
			c0.3,0,0.9,0,1.7,0.1c1.5,0.4,3.1,0.9,4.7,1.5c2,0.8,3.3,1.6,3.9,2.2c0.6,0.6,0.9,1.3,0.9,2c0,0.7-0.2,1.4-0.6,2.2
			c-0.3,0.6-0.8,0.9-1.4,0.9c-0.5,0-0.9-0.1-1.1-0.3c-0.7-0.5-1.8-1.4-3.2-2.7c-2-2.3-3.3-3.8-4-4.3c-0.8-0.6-1.2-1.1-1.2-1.4
			C1030.5,28.3,1030.6,28.2,1030.8,28.2z"/>
		<path class="st6" d="M1074.3,29.3c0.4,0,1.1,0.1,2.1,0.4c1.2,0.5,1.8,0.9,1.8,1.3c0,0.3-0.1,0.6-0.2,0.9c-0.2,0.3-0.5,0.5-0.9,0.6
			c-2.3,0.7-4.6,1.3-7,1.8l-0.4,11.8c1.5-0.7,3.2-1.5,4.9-2.4c1.7-0.8,2.7-1.2,3.1-1.2c0.4,0,0.6,0.2,0.6,0.6c0,0.2-0.3,0.5-0.8,0.9
			c-1.9,1.6-4.9,3.8-9,6.6c-2.2,1.6-4.8,3.6-7.8,6c-0.4,0.5-0.7,0.7-0.9,0.7c-0.7,0-1.9-0.6-3.6-1.9c-1.3-1.2-2-2.1-2-2.6
			c0-0.6,0.3-0.9,0.9-0.9c1-0.1,2-0.4,2.9-0.9c2.1-0.8,4.6-1.8,7.8-3.2l0.4-12.9c-1.5,0.3-2.7,0.4-3.6,0.4c-2.7,0-4.4-0.3-5.2-0.9
			c-0.6-0.4-0.9-0.6-0.9-0.8c0-0.4,0.2-0.6,0.6-0.6c3.7-0.2,6.8-0.6,9.3-1.1l0.1-5.7c0-3.5-0.2-6.8-0.7-9.7
			c-0.1-1.4-0.7-2.7-1.8-3.9c-0.1-0.2-0.1-0.4-0.1-0.6c0-0.7,0.5-1.1,1.7-1.1c1.4,0,3,0.4,4.7,1.1c1.7,1,2.6,1.8,2.6,2.5
			c0,0.2-0.2,0.5-0.5,0.8c-0.7,1.1-1.2,3.4-1.6,6.9l-0.3,8.5c1.1-0.4,2-0.8,2.9-1.2C1073.5,29.5,1073.9,29.3,1074.3,29.3z
			 M1105.1,11.9c1.1,0,2.3,0.3,3.6,0.9c1.2,0.5,1.8,1.2,1.8,2.2c0,0.8-0.4,1.1-1.1,1.1c-4.8,0-9.3,0.5-13.4,1.5
			c-1.8,0.3-3.8,1-6,1.9c-0.8,0.4-1.2,0.6-1.4,0.6c-0.3,0-0.6,0-0.9-0.1c0,0.1-0.1,0.2-0.1,0.3c-0.1,3.9-0.4,7.3-0.6,10.3
			c4.6-0.8,9.5-2.2,14.6-4.1c0.6-0.2,1.1-0.3,1.7-0.3c0.5,0,1.7,0.3,3.5,0.9c1.8,1,2.7,1.7,2.7,2.2c0,0.4-0.5,0.9-1.4,1.5
			c-1,0.8-1.6,1.7-1.7,2.8c-1.3,5.9-2.7,10.2-4.1,12.9c-0.5,1-1,1.8-1.6,2.7c4,3.8,10.6,7.4,19.7,10.9c0,0.6-0.5,0.9-1.5,1.1
			c-6.2,1-9.8,1.5-10.8,1.5c-1.6,0-2.6-0.4-3.2-1.2c-2.1-2.8-4.3-5.9-6.7-9.4c-0.3,0.3-0.6,0.6-0.9,0.8c-3.3,2.5-6.3,4.3-9,5.4
			c-2.1,0.7-4.3,1.1-6.6,1.1h-0.3c0-0.2,0.3-0.5,0.9-0.8c6.3-3.3,10.8-6.5,13.6-9.6c0,0,0-0.1,0.1-0.1c-1.1-1.6-2.1-3.3-3.2-5
			c-1.4-2.2-2.9-4-4.6-5.2c-0.4-0.1-0.6-0.5-0.6-1.1c0-0.2,0.5-0.3,1.4-0.3c0.7,0,1.5,0.2,2.4,0.6c1.1,1,2.1,2.2,3.1,3.7
			c0.9,1.6,2.1,3.2,3.4,4.7c1.2-1.9,2.1-4.2,2.7-6.8c0.8-2.7,1.1-5.4,1.1-7.9c0-0.8-0.3-1.1-0.8-1.1c-0.5,0-1.1,0-1.6,0.1
			c-5.8,1.1-9.5,1.6-11.1,1.6c-0.5,0-1-0.1-1.5-0.3c-0.4,3.4-0.9,6.1-1.4,8.3c-1.2,5.3-2.8,9.6-4.7,12.9c-2,2.8-4.6,5.2-7.8,7.3
			c-1.9,1.1-3.1,1.6-3.6,1.6c-0.2,0-0.3-0.1-0.3-0.3c4-4.3,7-8.3,9-12.1c1.9-3.5,3.2-7.6,3.9-12.4c0.7-4.1,1.1-8.8,1.1-14
			c0-1.7-0.4-4-1.3-6.7c-0.1-0.1-0.1-0.3-0.1-0.5c0-0.4,0.4-0.6,1.1-0.6c1.4,0,2.7,0.2,3.9,0.6c0.8,0.2,1.3,0.6,1.5,1.1
			c2.3-0.6,4.5-1.1,6.5-1.7c2.8-0.8,5.6-1.8,8.5-2.9C1103.8,12,1104.5,11.9,1105.1,11.9z"/>
	</g>
	<g>
		<g>
			<g>
				<path class="st6" d="M675.6,22.1c-1.1,0.1-2.6-0.6-4.5-2.3c-2.5-2.1-5.3-3.8-8.6-5.3c-2.2-0.9-3.1-1.5-3-1.9
					c0.1-0.4,1-0.6,2.6-0.9c1.7-0.2,3.4-0.2,5.2-0.1c7.4,0.3,11.1,2.7,11.1,7.3C678.4,20.9,677.5,22,675.6,22.1z"/>
				<path class="st6" d="M709.5,21.9c-4.7,7.8-12,15.7-22,23.6c-3.3,2.6-6.8,5-10.6,7.5c-5.1,3.3-8,5-8.6,5
					c-0.7-0.1-1.6-0.8-2.6-2.2c-1-1.4-1.7-2.8-2.1-3.8c-0.4-1.2-1.1-3.4-0.1-3.3c1,0.1,3.5,0.6,4.9,0.5c0.6,0,1.3-0.2,1.7-0.4
					c8.9-4.2,16.4-9,24-15.2c3.8-3,8.3-7.3,13.7-13c1.1-1.2,1.9-1.8,2.3-1.8c0.1,0,0.2,0.1,0.2,0.2
					C710.6,19.4,710.4,20.4,709.5,21.9z"/>
			</g>
			<path class="st6" d="M541.4,36.1c-0.7,0-2.3,0.1-4.8,0.2c-0.6,0.1-1.4,0.2-2.2,0.5c-0.6,0.2-1,0.2-1.4,0.1
				c-0.7-0.2-1.6-1.5-2.4-3.4c0,0-0.7-1.5-0.9-2.3c-0.5-1.7-0.5-2.6,0.1-3c0.2-0.1,0.6,0,1.2,0.4c0.8,0.5,2.1,1,2.7,1.1
				c2.2,0.5,4.6,0.8,5.8,0.8l8.8,0h13.5c2.1-0.1,7.1-0.1,15.7-0.2l6.9-0.1c3.5,0.1,5.3,0.9,5.3,2.4c0.1,1.5-1.1,2.4-4.1,3
				c-1.8,0.4-5.3,0.4-10.3,0.4c-1.6-0.1-6.2,0-14.1-0.1c-4.8,0-9.1,0-12.1,0.1L541.4,36.1z"/>
			<path class="st6" d="M762.1,57.4c-1-0.1-2.2-0.7-3.5-2.1c-2.3-2.3-4.6-4.3-6.6-6.2c-2-1.8-4.3-3.7-6.9-5.5
				c-1.7-1.2-3.7-2.5-5.8-3.8c-3.1,3.4-6.6,6.3-10.2,9c-5.7,4.2-11.9,7.2-18.8,9c-1.8,0.4-2.7,0.4-2.9,0c-0.2-0.4,0.6-1,2.1-1.7
				c5.4-2.6,9.8-5.2,13.1-7.7c3.4-2.4,6.3-4.8,8.7-7.2c2.4-2.3,5.2-5.7,8.4-9.9c2.2-2.9,4.6-6.6,7.1-11.1c-0.2,0-4.2,0.6-12.2,1.9
				c-1.2,0.2-3,0.5-5.5,0.9c-0.6,0.1-1.3,0.2-2.2,0.5c-1,0.2-1.7,0.4-1.9,0.4c-1.7-0.1-3.4-1.3-5.2-3.6c-0.6-0.8-0.8-1.4-0.6-1.7
				c0.1-0.2,0.7-0.3,1.9-0.2c1.2,0,2.2,0,3,0c1.4,0,2.6,0,3.8-0.1c1.9-0.2,5.1-0.4,9.5-0.9c2.3-0.2,4.6-0.5,8.4-1
				c0.7-0.1,1.1-0.3,1.6-0.7c0.5-0.3,1.2-0.8,1.5-0.8c0.9-0.1,2.3,0.3,4.2,2.3c1.6,1.6,2.2,2.4,2.1,3.2c0,0.9-0.6,1.4-1.2,1.8
				c-0.8,0.5-1.6,1.2-2,1.5c-0.5,0.4-2,2.6-5.8,7.6c-1,1.3-2.7,3.5-5.2,6.6c1.7,0.6,4.7,1.8,8.7,3.7c3.8,1.8,6.4,3.1,7.9,4
				c1.2,0.7,2.8,2,4.9,3.7c1.6,1.8,2.3,3.7,2.2,5.5C764.7,56.5,763.8,57.5,762.1,57.4z"/>
			<g>
				<g>
					<path class="st6" d="M610.7,22.9L610.7,22.9c-0.2,0-0.3,0-0.4,0.1c-0.2,0.2-0.2,0.5-0.1,0.9c0.1,0.5,0.2,1.3-0.1,2.5
						c-0.6,2.2-1.7,4-2.7,5.6l-2.1,2.8c-1.8,2.3-3.4,4.3-5.3,6.2c-4.1,4.2-7.4,6.7-9.1,8l-0.1,0c-1.2,0.9-1.6,1.4-1.3,1.7
						c0.1,0.1,0.2,0.2,0.5,0.2l0,0c0.3,0,0.7-0.1,0.9-0.1c1.2-0.3,2.7-0.8,3.9-1.3c2.6-1.2,4.6-2.6,6.8-4.3c3.5-2.6,6.6-5.4,9.2-8.4
						l0.3-0.3c1.2-1.4,2.2-2.7,3.2-4c1.6-2.1,1.9-3.2,1.9-3.7c0-1.1-1-2.9-2.5-4.3C612.1,23.1,611.1,22.9,610.7,22.9z"/>
					<path class="st6" d="M649.1,45c-0.4-1.6-1.1-3.3-2.2-5.2c-1.1-1.9-2.4-3.8-3.9-5.6c-2-2.3-3.9-4.1-5.3-5.4
						c-4-3.7-9.2-6.6-10.7-7.4c-2.3-1.3-3.6-1.6-4.1-1.1c-0.2,0.2-0.2,0.3-0.2,0.5c0,0.4,0.4,0.7,1,1.2l0.3,0.2c0,0,2.4,1.8,3.4,2.6
						c2.6,2.3,5,5.1,7.5,8.5c1.2,1.7,2.6,4,4.1,7c0.6,1.2,1.2,2.4,1.7,3.6l0.4,0.9c0.5,1,1,2.1,1.5,3.1c1,1.8,1.9,2.7,3,2.9
						c0.2,0,0.5,0,0.7,0c1.3,0,2.3-0.7,2.8-2C649.6,47.8,649.4,46.2,649.1,45z"/>
				</g>
				<path class="st6" d="M639.8,16.6c-0.2,0.4-0.6,0.6-0.9,0.7c-0.8,0.2-1.4,0.1-2-0.3c-0.8-1-2-2.6-3.5-4.6
					c-0.6-0.7-1.1-1.3-1.7-1.7c-1.2-1-1.7-1.7-1.5-1.9c0.2-0.2,1-0.1,2.4,0.3c1.4,0.4,2.8,1,4.2,1.7c2.3,1.1,3.5,2.6,3.4,4.3
					C640.2,15.7,640.1,16.2,639.8,16.6z M646.7,11.8c-0.2,0.4-0.6,0.6-0.9,0.7c-0.8,0.2-1.4,0.2-2-0.2c-0.8-1-2-2.6-3.7-4.6
					c-0.4-0.5-1-1-1.7-1.7c-1.2-1-1.7-1.6-1.6-1.8c0.2-0.2,1-0.1,2.3,0.3c1.6,0.4,3,0.9,4.3,1.4c2.3,1,3.5,2.5,3.5,4.3
					C647,10.9,646.9,11.4,646.7,11.8z"/>
			</g>
			<path class="st6" d="M524.6,18c-1.7,0.3-2.9,0.6-3.7,1c-1.6,1.1-4.2,2.9-7.8,5.2c-2.8,1.7-5.7,3.3-8.5,4.7
				c-1.5,4.7-4.8,12.7-8.4,18.1c-3.8,5.6-8.1,10.4-12.1,13.2c-1.7,1.1-3.2,2.2-3.8,1.6c-0.4-0.4,0.5-1.3,1.3-2.1
				c4-4.2,7.1-8.6,10.3-14.6c3.2-6,5.1-11.2,6.1-17.3c0.2-1.5,0.3-3-0.2-4.5c-0.5-1.4-0.2-1.7,1.2-1.4c1.8,0.4,3.5,1.1,5.7,3.1
				c1.1-0.8,2.7-1.9,5.3-3.9c1.1-0.8,3.1-2.9,6.2-6c-12.1,0.4-22.6,1.3-31.4,2.6c-4.9,0.7-7.5,1-7.8,1c-0.9-0.2-2-1.2-3.3-2.8
				c-1-1.3-1.6-2.3-1.6-3.2c0-0.2,0.1-0.4,0.2-0.5c0.2-0.1,0.6-0.1,1.4,0.1c1.1,0.2,1.8,0.4,2,0.5c1.2,0.1,2.4,0.2,3.6,0.1
				c4.6-0.2,10-0.5,16.2-0.8c2.6-0.2,7.2-0.4,13.8-0.8c2.2-0.1,4.6-0.2,7.6-0.4c0.6-0.1,1.3-0.3,2.2-0.9c0.9-0.6,1.6-0.8,2.1-0.8
				c1,0.1,2.1,0.9,3.4,2.6c1.8,2.5,2.6,4.2,2.3,5C526.6,17.3,525.8,17.7,524.6,18z"/>
		</g>
		<g>
			<path class="st6" d="M81.2,37.8c-1.1,1.1-2.6,1.7-4.2,1.7c-1.7,0-3.1-0.6-4.3-1.7c-1.1-1.1-1.7-2.5-1.7-4.2c0-1.7,0.6-3,1.7-4.3
				c1.1-1.2,2.6-1.7,4.3-1.7c1.7,0,3.1,0.5,4.2,1.7c1.1,1.2,1.7,2.6,1.7,4.3C82.9,35.2,82.4,36.7,81.2,37.8z"/>
			<path class="st6" d="M143.1,5.6c-1.5-1.4-3.3-2.2-5.4-2.2c-1.9,0-3.5,0.7-4.8,2c-1.4,1.4-2,2.9-2,4.9c0,2.2,0.8,4,2.3,5.4
				c1.5,1.5,3.3,2.3,5.4,2.3c2,0,3.6-0.8,4.9-2.1c1.3-1.3,1.9-2.9,1.9-4.8C145.3,8.9,144.6,7.2,143.1,5.6z M141.2,13.9
				c-0.7,0.9-1.7,1.2-2.9,1.2c-1.2,0-2.2-0.5-3.1-1.4c-0.9-0.8-1.3-2-1.3-3.2c0-1.2,0.4-2.2,1.1-2.8c0.7-0.8,1.7-1.2,2.9-1.2
				c1.2,0,2.2,0.4,3.1,1.3c0.9,0.8,1.3,1.9,1.3,3.2C142.3,12.1,141.9,13.1,141.2,13.9z"/>
			<g>
				<path class="st6" d="M288.2,22.9L288.2,22.9c-0.2,0-0.3,0-0.4,0.1c-0.2,0.3-0.2,0.5-0.1,1c0.1,0.5,0.2,1.4-0.1,2.5
					c-0.6,2.3-1.6,4.1-2.7,5.7l-2.1,2.8c-1.8,2.3-3.4,4.3-5.3,6.2c-4.1,4.2-7.4,6.7-9.1,8l-0.1,0c-1.2,0.9-1.6,1.4-1.3,1.7
					c0.1,0.1,0.2,0.2,0.5,0.2h0c0.3,0,0.7-0.1,0.9-0.1c1.2-0.3,2.7-0.8,3.9-1.3c2.6-1.2,4.6-2.6,6.8-4.2c3.5-2.6,6.7-5.4,9.2-8.4
					l0.3-0.3c1.1-1.4,2.3-2.7,3.2-4c1.5-2.1,1.9-3.2,1.9-3.7c0-1.2-1-2.9-2.5-4.3C289.6,23.1,288.6,22.9,288.2,22.9z"/>
				<path class="st6" d="M326.6,45c-0.4-1.6-1.1-3.3-2.2-5.2c-1.1-1.9-2.4-3.8-3.9-5.6c-2-2.3-3.9-4.2-5.3-5.4
					c-4-3.7-9.2-6.6-10.7-7.4c-2.3-1.3-3.6-1.6-4.1-1.1c-0.2,0.2-0.2,0.3-0.2,0.5c0,0.4,0.4,0.8,1,1.2l0.3,0.2c0,0,2.4,1.8,3.4,2.6
					c2.6,2.4,5.1,5.1,7.5,8.5c1.2,1.7,2.6,4,4.2,7c0.6,1.3,1.1,2.4,1.7,3.6l0.4,0.9c0.5,1,1,2.1,1.5,3.1c1,1.8,1.9,2.7,3,2.9
					c0.2,0,0.5,0.1,0.7,0.1c1.3,0,2.3-0.7,2.8-2C327.1,47.8,326.9,46.2,326.6,45z"/>
			</g>
			<g>
				<path class="st6" d="M110.2,22.9L110.2,22.9c-0.2,0-0.3,0-0.4,0.1c-0.2,0.3-0.2,0.5-0.1,1c0.1,0.5,0.2,1.4-0.1,2.5
					c-0.6,2.3-1.6,4.1-2.7,5.7l-2.1,2.8c-1.8,2.3-3.4,4.3-5.3,6.2c-4.1,4.2-7.4,6.7-9.1,8l-0.1,0c-1.2,0.9-1.6,1.4-1.3,1.7
					c0.1,0.1,0.2,0.2,0.5,0.2l0,0c0.3,0,0.7-0.1,0.9-0.1c1.2-0.3,2.7-0.8,3.9-1.3c2.6-1.2,4.6-2.6,6.9-4.2c3.5-2.6,6.6-5.4,9.2-8.4
					l0.3-0.3c1.2-1.4,2.2-2.7,3.2-4c1.6-2.1,1.9-3.2,1.9-3.7c0-1.2-1-2.9-2.5-4.3C111.6,23.1,110.6,22.9,110.2,22.9z"/>
				<path class="st6" d="M148.6,45c-0.4-1.6-1.1-3.3-2.2-5.2c-1.1-1.9-2.4-3.8-3.9-5.6c-2-2.3-3.9-4.2-5.3-5.4
					c-4-3.7-9.2-6.6-10.7-7.4c-2.3-1.3-3.6-1.6-4.1-1.1c-0.2,0.2-0.2,0.3-0.2,0.5c0,0.4,0.4,0.8,1,1.2l0.3,0.2c0,0,2.4,1.8,3.4,2.6
					c2.6,2.4,5.1,5.1,7.5,8.5c1.2,1.7,2.6,4,4.1,7c0.6,1.3,1.2,2.4,1.7,3.6l0.4,0.9c0.5,1,1,2.1,1.5,3.1c1,1.8,1.9,2.7,3,2.9
					c0.2,0,0.5,0.1,0.7,0.1c1.3,0,2.3-0.7,2.8-2C149.1,47.8,148.9,46.2,148.6,45z"/>
			</g>
			<path class="st6" d="M58.2,12.5c-0.2,0.4-0.6,0.7-0.9,0.7c-0.8,0.2-1.5,0.1-2-0.3c-0.8-1.1-2-2.7-3.5-4.7
				c-0.6-0.7-1.1-1.3-1.7-1.7c-1.2-1-1.7-1.7-1.5-1.9c0.2-0.1,1-0.1,2.4,0.3c1.4,0.4,2.8,1,4.2,1.7c2.3,1.2,3.5,2.6,3.4,4.4
				C58.6,11.6,58.5,12.1,58.2,12.5z M65,7.7c-0.2,0.4-0.6,0.6-0.9,0.7c-0.8,0.2-1.4,0.2-2-0.2c-0.8-1-2-2.6-3.7-4.6
				c-0.4-0.5-1-1-1.7-1.7c-1.2-1-1.7-1.6-1.6-1.9c0.2-0.2,1-0.1,2.3,0.3c1.6,0.4,3,0.9,4.3,1.4c2.3,1,3.5,2.5,3.5,4.3
				C65.3,6.8,65.3,7.3,65,7.7z"/>
			<path class="st6" d="M39.1,5.4C41,6.2,42,7,42.3,7.8c0.1,0.3,0.1,0.8-0.1,1.4c-0.3,0.9-0.4,1.6-0.5,2.2c-0.2,2.4-0.2,4-0.2,4.8
				c0,0.8,0,1.3,0,2.7c0,1.5,0,2.6,0,3.2c1.4-0.1,3.3-0.2,5.8-0.3c1.8-0.3,3.7-0.6,5.4-1.1c1.4-0.4,2.3-0.5,2.9-0.5
				c0.9,0.1,1.9,0.7,2.8,1.7c1,1,1.5,2,1.6,2.8c0.1,0.9-0.1,1.4-0.6,1.6c-0.6,0.3-1.7,0.4-3.6,0.2c-1.2-0.1-2.9-0.2-5.2-0.3
				c-1-0.1-2.6-0.1-4.7,0l-4.3,0.1c0,1.7,0,4.2-0.1,7.3c-0.2,3.5-0.7,6.5-1.5,8.9c-1.2,3.9-3.2,7.6-6.9,11.3
				c-1.6,1.6-3.7,3.2-6.2,4.8c-2.3,1.4-4.2,2.5-6,3.1c-1.2,0.4-1.9,0.4-2,0.1c-0.1-0.3,0.2-0.9,1.1-1.5c0.9-0.7,2.3-1.5,4.1-3
				c5.8-4.8,8.2-8.1,10.1-13.2c1.4-3.6,2.1-7.9,2.2-13.1c0-1.7,0-3.2-0.1-4.6C30.7,26.6,26,26.9,22.9,27c0.1,0.8,0.2,2.5,0.2,5
				l0.2,4.6c0,1.6-0.1,2.8-0.3,3.6c-0.4,1.2-1,1.8-1.9,1.9c-1.2,0.1-2.2-0.8-2.9-2.6c-0.7-1.6-0.9-3.1-0.7-4.3
				c0.3-1.4,0.5-4.1,0.4-7.8c-1.5,0.2-3.7,0.4-7.1,0.7c-1.1,0.2-2.8,0.6-5.2,0.8c-0.7,0-1.3-0.1-2.1-0.5c-0.7-0.4-1.5-0.9-2.1-1.6
				C0.5,25.8,0,24.9,0,24.3c0-0.1,0-0.3,0.1-0.4c0.1-0.1,1.2-0.1,3.3,0.1c1.1,0.1,2.8,0,5.1-0.2c3.3-0.2,6.1-0.4,9.1-0.4
				c-0.1-1.6-0.2-4.2-0.4-7.8c-0.1-1.5-0.4-2.8-0.7-4c-0.2-0.5-0.2-1.3-0.7-2.1c-0.4-0.7-0.5-1.1-0.4-1.2c0.4-0.5,1.1-0.5,2.7,0.2
				c1.7,0.7,2.7,1.5,3.3,2.1c0.5,0.7,0.7,2,0.8,4.2c0,0.1,0.1,2.8,0.2,8.3c3.2-0.1,8-0.3,13.7-0.6c0.1-2.2-0.1-7-0.2-8.1
				c-0.1-1.1-0.3-3.6-0.8-5.8c-0.1-0.5-0.6-1.8-1.1-2.6c-0.4-0.6-0.5-1-0.4-1.2c0.4-0.6,1.4-0.6,3-0.1C37.6,4.8,39.1,5.4,39.1,5.4z"
				/>
			<path class="st6" d="M167.8,36.2c-0.7,0-2.3,0.1-4.8,0.2c-0.6,0.1-1.4,0.2-2.2,0.4c-0.6,0.2-1,0.2-1.4,0.1
				c-0.7-0.2-1.6-1.5-2.4-3.4c0,0-0.7-1.5-0.9-2.3c-0.5-1.7-0.5-2.6,0.1-3.1c0.2-0.1,0.6,0,1.1,0.5c0.8,0.5,2.1,0.9,2.7,1
				c2.2,0.6,4.6,0.8,5.8,0.9h8.8h13.5c2.1-0.1,7.1-0.2,15.7-0.3l6.9-0.1c3.5,0.1,5.3,0.9,5.3,2.5c0.1,1.5-1.1,2.4-4.1,3
				c-1.8,0.4-5.3,0.5-10.3,0.4c-1.6-0.1-6.2,0-14.1-0.1c-4.8,0-9.1,0-12.1,0.1L167.8,36.2z"/>
			<path class="st6" d="M438.5,57.4c-1-0.1-2.2-0.7-3.5-2.1c-2.3-2.3-4.6-4.3-6.6-6.2c-2-1.8-4.3-3.7-6.9-5.5
				c-1.7-1.2-3.7-2.5-5.8-3.8c-3.1,3.4-6.6,6.3-10.2,9c-5.7,4.2-11.9,7.2-18.7,9c-1.8,0.4-2.7,0.4-2.9,0c-0.2-0.4,0.6-1,2.1-1.7
				c5.4-2.7,9.8-5.2,13.1-7.7c3.4-2.4,6.3-4.8,8.7-7.2c2.4-2.4,5.2-5.7,8.4-9.9c2.2-2.9,4.6-6.6,7.1-11.1c-0.2,0-4.2,0.6-12.2,1.9
				c-1.2,0.1-3,0.5-5.5,0.8c-0.6,0.1-1.3,0.2-2.2,0.6c-1.1,0.2-1.7,0.4-1.9,0.4c-1.7-0.1-3.4-1.3-5.2-3.6c-0.6-0.9-0.8-1.4-0.6-1.7
				c0.1-0.2,0.7-0.3,1.9-0.2c1.2,0,2.2,0,3,0c1.4,0,2.7,0,3.8-0.1c1.9-0.2,5.1-0.5,9.5-0.9c2.3-0.2,4.6-0.5,8.4-1
				c0.7-0.1,1.1-0.4,1.6-0.7c0.6-0.3,1.2-0.7,1.5-0.8c0.9-0.1,2.3,0.3,4.2,2.3c1.6,1.6,2.2,2.4,2.1,3.2c0,0.8-0.6,1.4-1.2,1.8
				c-0.8,0.4-1.6,1.1-2,1.5c-0.5,0.4-2,2.5-5.8,7.6c-1,1.3-2.7,3.4-5.2,6.6c1.7,0.6,4.7,1.8,8.7,3.7c3.8,1.8,6.4,3.1,7.9,4
				c1.2,0.7,2.8,2,4.9,3.7c1.6,1.8,2.3,3.7,2.2,5.5C441.1,56.5,440.2,57.5,438.5,57.4z"/>
			<path class="st6" d="M383.1,20.7c-2.2-2.1-4.3-3.5-5.4-3.5c-1.2,0-2.3,1.7-3.1,1.8c-2.2,0.2-4.3,0.3-5.8,0.3
				c-3.1,0.2-5.2,0.4-6.5,0.5c0-1.2,0-1.8,0-2.6c0-0.7,0.1-2.5,0.3-5.2c0.1-0.7,0.3-1.5,0.5-2.4c0.2-0.6,0.2-1.2,0.1-1.5
				c-0.3-0.8-1.4-1.6-3.4-2.5c0,0-1.8-0.8-2.6-1c-1.8-0.6-2.8-0.5-3.3,0.1c-0.1,0.2,0,0.6,0.4,1.3c0.5,0.9,1,2.3,1.2,2.9
				c0.6,2.4,0.8,5,0.9,6.2c0,0.7,0.1,3.1,0.1,5.1c-8.2,0.7-12.9,1-14.3,1.1c-1.5-1.1-2.6-2.1-3.3-2.6c-1.4-1-2.3-1.5-2.9-1.5
				c-0.4-0.1-0.7,0.2-0.8,0.9c-0.1,0.3,0.1,1,0.5,2.2c0.4,1.2,0.7,2.2,1,3.3c0.6,2.2,1,4.3,1.4,6.4c0.7,3.5,1.2,6.3,1.5,8.4
				c0.2,1.2,0.5,2.3,1,3.4c0.9,1.8,2,2.6,3.3,2.6c1.8,0,2.7-1.4,2.3-4.4c-0.7-3.6-1.3-6.4-1.8-8.3c-0.6-3.1-1.1-5.3-1.5-6.6
				c7.1-0.5,12.4-0.9,16-1.2c8-0.5,13.4-0.7,16.1-0.7c-1.5,5.4-3.3,10.1-5.4,14.1c-2.3,4.3-5,8.2-8.1,11.7c-1.5,1.7-3.7,3.7-6.3,5.9
				c-2,1.7-4,3-5.8,4.2c-1.9,1.2-2.7,2.1-2.6,2.5c0.1,0.2,0.3,0.3,0.6,0.3c0.5,0,1.5-0.3,3.2-1c2.4-0.9,4.5-2,6.2-3.1
				c3.1-1.9,5.7-3.9,7.9-5.9c3.3-3,6.1-6.6,8.9-11c2.5-4,4.7-8.1,7.5-14.5c0.7-1.7,2.6-2.1,2.9-3.4
				C384.3,22.2,384.1,21.7,383.1,20.7z"/>
			<path class="st6" d="M271,21.1c-1.2,0.9-2,1.7-2.7,2.8c-0.7,1.1-1.8,2.9-3.4,5.4c-1.4,2.1-3,4.7-5,7.4c-3,4.1-6.2,7.9-9.7,11.2
				c-5.2,4.9-12.2,9.4-18.2,11.9c-2.3,0.9-4.2,1.6-5.5,2c-1.3,0.3-2.1,0.2-2.2-0.2c-0.1-0.3,0.4-0.8,1.5-1.4c6.4-3.5,13-8,17.1-11.8
				c2.9-2.6,5.6-5.5,8-8.6c2.7-3.4,5.2-7,7.6-10.9c0.4-0.9,2-3.6,4.6-8.5c-2.3,0.2-8,0.6-10.9,1.1c-2.5,0.4-3.6,0.6-3.4,0.6
				c-0.4-0.1-0.8-0.3-1.4-0.9c-0.6-0.4-1.1-0.8-1.6-1.2c-3.2,3.7-5.7,6.2-7.3,7.7c-1.1,1-2.7,2.3-4.8,4c-1.9,1.4-3.9,2.5-6.1,3.5
				c-1.8,0.9-2.9,1.1-3.2,0.6c-0.3-0.4,0.2-1.1,1.4-2.1c5-4.1,9-8.2,12.1-12.3c1.6-2.2,3-4,4.7-7.3c1.3-2.5,1.9-4.3,2.1-5.5
				c0.2-0.8,0.3-1.7,0.2-2.5c0-0.4-0.1-1.1,0.1-1.4c0.4-0.4,1.1,0,1.9,0.5c1,0.7,1.8,1.4,2.3,1.9c1.5,1.5,2.3,2.5,2.4,2.9
				c0,0.3-0.3,1-1,1.9c-0.2,0.3-0.6,0.8-1,1.5c-0.8,1.2-1.5,2-2.9,4.2c0,0,2.4-0.2,7.1-0.7c2.9-0.3,8.5-0.6,10.2-1.1
				c0.2-0.1,0.6-0.2,1.3-0.7c0.3-0.2,0.6-0.4,0.9-0.6c0.4-0.2,1-0.1,1.9,0.4c0.8,0.5,1.9,1.3,2.8,2.2c1.3,1.4,1.3,1.8,1.1,2.6
				C272,20.3,271.6,20.8,271,21.1z"/>
		</g>
	</g>
</g>
</svg>
