<?xml version="1.0" encoding="utf-8"?>
<!-- Generator: Adobe Illustrator 25.0.0, SVG Export Plug-In . SVG Version: 6.00 Build 0)  -->
<svg version="1.1" id="レイヤー_1" xmlns="http://www.w3.org/2000/svg" xmlns:xlink="http://www.w3.org/1999/xlink" x="0px"
	 y="0px" width="49.6px" height="72px" viewBox="0 0 49.6 72" style="enable-background:new 0 0 49.6 72;" xml:space="preserve">
<style type="text/css">
	.st0{fill:#FFFFFF;}
</style>
<g>
	<path class="st0" d="M48.4,17.9c-0.3-1-0.8-2-1.2-2.9C42.7,4,32.6,0,24.5,0C13.6,0,1.6,7.3,0,22.3v3.1c0,0.1,0,1.3,0.1,1.9
		C1,34.4,6.7,42,10.9,49.2c4.5,7.7,9.3,15.2,13.9,22.8c2.9-4.9,5.8-9.9,8.6-14.7c0.8-1.4,1.7-2.8,2.4-4.2c0.5-0.9,1.5-1.8,1.9-2.6
		c4.5-8.3,11.9-16.7,11.9-25v-3.4C49.6,21.3,48.5,18.1,48.4,17.9L48.4,17.9z M24.7,33.3c-3.2,0-6.7-1.6-8.4-6
		C16,26.6,16,25.2,16,25.1v-2c0-5.6,4.8-8.2,8.9-8.2c5.1,0,9.1,4.1,9.1,9.2C34,29.2,29.8,33.3,24.7,33.3L24.7,33.3z M24.7,33.3"/>
</g>
</svg>
