<?xml version="1.0" encoding="utf-8"?>
<!-- Generator: Adobe Illustrator 25.0.0, SVG Export Plug-In . SVG Version: 6.00 Build 0)  -->
<svg version="1.1" id="レイヤー_1" xmlns="http://www.w3.org/2000/svg" xmlns:xlink="http://www.w3.org/1999/xlink" x="0px"
	 y="0px" width="300.5px" height="384px" viewBox="0 0 300.5 384" style="enable-background:new 0 0 300.5 384;"
	 xml:space="preserve">
<style type="text/css">
	.st0{fill:#FFFFFF;}
</style>
<g>
	<path class="st0" d="M200.3,7.3v92.8h92.8L200.3,7.3z M200.3,7.3"/>
	<path class="st0" d="M187.8,125.2c-6.9,0-12.5-5.6-12.5-12.5V0H12.5C5.6,0,0,5.6,0,12.5v359c0,6.9,5.6,12.5,12.5,12.5H288
		c6.9,0,12.5-5.6,12.5-12.5V125.2H187.8z M162.8,308.9H62.6c-6.9,0-12.5-5.6-12.5-12.5s5.6-12.5,12.5-12.5h100.2
		c6.9,0,12.5,5.6,12.5,12.5S169.7,308.9,162.8,308.9L162.8,308.9z M237.9,258.8H62.6c-6.9,0-12.5-5.6-12.5-12.5
		c0-6.9,5.6-12.5,12.5-12.5h175.3c6.9,0,12.5,5.6,12.5,12.5C250.4,253.2,244.8,258.8,237.9,258.8L237.9,258.8z M237.9,208.7H62.6
		c-6.9,0-12.5-5.6-12.5-12.5c0-6.9,5.6-12.5,12.5-12.5h175.3c6.9,0,12.5,5.6,12.5,12.5C250.4,203.1,244.8,208.7,237.9,208.7
		L237.9,208.7z M237.9,208.7"/>
</g>
</svg>
