<?xml version="1.0" encoding="utf-8"?>
<!-- Generator: Adobe Illustrator 25.0.0, SVG Export Plug-In . SVG Version: 6.00 Build 0)  -->
<svg version="1.1" id="レイヤー_1" xmlns="http://www.w3.org/2000/svg" xmlns:xlink="http://www.w3.org/1999/xlink" x="0px"
	 y="0px" width="383.6px" height="383.6px" viewBox="0 0 383.6 383.6" style="enable-background:new 0 0 383.6 383.6;"
	 xml:space="preserve">
<style type="text/css">
	.st0{fill:#FFFFFF;}
</style>
<path class="st0" d="M159,224.6c-36.7-36.7-44.9-73.3-46.8-88c-0.5-4.1,0.9-8.1,3.8-11l29.7-29.6c4.4-4.4,5.1-11.2,1.9-16.4
	L100.3,6.2c-3.6-5.8-11-7.9-17.2-4.8L7.4,37.1c-4.9,2.4-7.8,7.7-7.3,13.2C4,88,20.5,180.8,111.7,271.9
	c91.2,91.2,183.9,107.6,221.7,111.6c5.5,0.6,10.7-2.3,13.2-7.3l35.7-75.8c3-6.1,1-13.5-4.8-17.1l-73.3-47.2
	c-5.2-3.3-12-2.5-16.4,1.9L258,267.6c-2.9,2.9-7,4.3-11,3.8C232.3,269.5,195.7,261.3,159,224.6L159,224.6z M159,224.6"/>
</svg>
