<?xml version="1.0" encoding="utf-8"?>
<!-- Generator: Adobe Illustrator 25.0.0, SVG Export Plug-In . SVG Version: 6.00 Build 0)  -->
<svg version="1.1" id="レイヤー_15" xmlns="http://www.w3.org/2000/svg" xmlns:xlink="http://www.w3.org/1999/xlink" x="0px"
	 y="0px" width="441.1px" height="439.3px" viewBox="0 0 441.1 439.3" style="enable-background:new 0 0 441.1 439.3;"
	 xml:space="preserve">
<style type="text/css">
	.st0{fill:none;stroke:#FFFFFF;stroke-width:17;stroke-linecap:round;stroke-linejoin:round;stroke-miterlimit:10;}
</style>
<circle class="st0" cx="165.3" cy="138.9" r="49.4"/>
<path class="st0" d="M109.5,222.8c6.9-5.9,16.4-10.4,24.5-10.4h66.6c9.4,0,22,9.1,26.8,16.3"/>
<path class="st0" d="M298,270.4l48.7-28.9c10.8-6.9,27.5-5.8,34.3,5l1.8,2.8c6.9,10.8,1.4,27.5-9.4,34.3l-56.2,37.9"/>
<path class="st0" d="M227.6,228.3l25.5,42c7.9,11,17.2,13.1,31.7,6.9l21.3-11.7"/>
<path class="st0" d="M96.8,355l10.9-14.5c7.4-10.5,7.1-27.3-3.4-34.7l-2.7-1.9c-10.5-7.4-27.3-2.7-34.7,7.8l-11.5,14.3"/>
<path class="st0" d="M58.2,321.7l-9.7,13.7c-7.4,10.5-4.9,25.1,5.6,32.5l2.7,1.9c10.5,7.4,25.1,4.9,32.5-5.6l10.2-13.5"/>
<path class="st0" d="M50.9,328.1l-40.4-48.5c-2.9-3.5-2.5-8.6,0.8-11.4l72-60.4c3.4-2.8,8.5-2.3,11.4,1.1l92.1,109.6
	c2.9,3.5,2.5,8.6-0.8,11.4l-72,60.4c-3.4,2.8-8.5,2.3-11.4-1.1L87,371.6"/>
<path class="st0" d="M233.1,430.8l6.9-92.3c0,0,13.8,1.4,33.1,1.4s44.1-17.9,44.1-17.9"/>
<line class="st0" x1="89.2" y1="379" x2="95.4" y2="430.8"/>
<path class="st0" d="M432.6,430.3V55.4c0-25.8-21.1-46.9-46.9-46.9h-275c-25.8,0-46.9,21.1-46.9,46.9v82.1"/>
<line class="st0" x1="50.2" y1="273.8" x2="83.9" y2="246"/>
</svg>
