<svg xmlns="http://www.w3.org/2000/svg" width="22.5" height="22.5" viewBox="0 0 22.5 22.5">
  <defs>
    <style>
      .cls-1 {
        fill: #eee;
      }

      .cls-2 {
        fill: #333;
        fill-rule: evenodd;
      }
    </style>
  </defs>
  <circle class="cls-1" cx="11.25" cy="11.25" r="11.25"/>
  <path class="cls-2" d="M6436.18,1130.6a0.968,0.968,0,0,0,.77-0.29,1.132,1.132,0,0,0,.27-0.81,1.014,1.014,0,0,0-.27-0.75,1.031,1.031,0,0,0-.77-0.27,1.1,1.1,0,0,0-.8.28,0.95,0.95,0,0,0-.3.74,1.1,1.1,0,0,0,.29.81,1.059,1.059,0,0,0,.81.29h0Zm-1.73,8.91c0.31,0,.56,0,0.74-0.02l1.06-.01,1.08,0.01c0.18,0.02.43,0.02,0.74,0.02,0.04,0,.05-0.03.05-0.11s-0.01-.1-0.05-0.1a0.963,0.963,0,0,1-.77-0.26,1.786,1.786,0,0,1-.2-0.99v-3.25q0-1.05.03-1.77v-0.39a0.322,0.322,0,0,0-.27-0.26l-0.05.02-2.72,1.26c-0.03.01-.04,0.05-0.02,0.12a0.123,0.123,0,0,0,.11.1h0.02a1.826,1.826,0,0,1,.67-0.2,0.421,0.421,0,0,1,.41.27,2.284,2.284,0,0,1,.13.88v3.22a1.786,1.786,0,0,1-.2.99,0.925,0.925,0,0,1-.76.26c-0.03,0-.05.03-0.05,0.1s0.02,0.11.05,0.11h0Z" transform="translate(-6424.75 -1122.75)"/>
  <path class="cls-2" d="M6436.18,1130.6a0.968,0.968,0,0,0,.77-0.29,1.132,1.132,0,0,0,.27-0.81,1.014,1.014,0,0,0-.27-0.75,1.031,1.031,0,0,0-.77-0.27,1.1,1.1,0,0,0-.8.28,0.95,0.95,0,0,0-.3.74,1.1,1.1,0,0,0,.29.81,1.059,1.059,0,0,0,.81.29h0Zm-1.73,8.91c0.31,0,.56,0,0.74-0.02l1.06-.01,1.08,0.01c0.18,0.02.43,0.02,0.74,0.02,0.04,0,.05-0.03.05-0.11s-0.01-.1-0.05-0.1a0.963,0.963,0,0,1-.77-0.26,1.786,1.786,0,0,1-.2-0.99v-3.25q0-1.05.03-1.77v-0.39a0.322,0.322,0,0,0-.27-0.26l-0.05.02-2.72,1.26c-0.03.01-.04,0.05-0.02,0.12a0.123,0.123,0,0,0,.11.1h0.02a1.826,1.826,0,0,1,.67-0.2,0.421,0.421,0,0,1,.41.27,2.284,2.284,0,0,1,.13.88v3.22a1.786,1.786,0,0,1-.2.99,0.925,0.925,0,0,1-.76.26c-0.03,0-.05.03-0.05,0.1s0.02,0.11.05,0.11h0Z" transform="translate(-6424.75 -1122.75)"/>
</svg>