<?xml version="1.0" encoding="utf-8"?>
<!-- Generator: Adobe Illustrator 25.0.0, SVG Export Plug-In . SVG Version: 6.00 Build 0)  -->
<svg version="1.1" id="レイヤー_12" xmlns="http://www.w3.org/2000/svg" xmlns:xlink="http://www.w3.org/1999/xlink" x="0px"
	 y="0px" width="377px" height="428.2px" viewBox="0 0 377 428.2" style="enable-background:new 0 0 377 428.2;"
	 xml:space="preserve">
<style type="text/css">
	.st0{fill:none;stroke:#FFFFFF;stroke-width:17;stroke-linecap:round;stroke-linejoin:round;stroke-miterlimit:10;}
</style>
<g>
	<path class="st0" d="M305.7,325.1H130.5c-10,0-18.3-8.2-18.3-18.3V203.3c0-10,8.2-18.3,18.3-18.3h175.2c10,0,18.3,8.2,18.3,18.3
		v103.5C324,316.9,315.7,325.1,305.7,325.1z"/>
	<path class="st0" d="M315.1,189l-80,80c-9.9,9.9-26,10.1-35.7,0.3l-78.6-78.6"/>
	<line class="st0" x1="120.8" y1="318" x2="166.1" y2="273.1"/>
	<line class="st0" x1="313.5" y1="318.2" x2="268.4" y2="273.1"/>
</g>
<path class="st0" d="M234.3,357.1v35.6c0,14.9-12.1,27-27,27H35.5c-14.9,0-27-12.1-27-27V35.5c0-14.9,12.1-27,27-27h171.9
	c14.9,0,27,12.1,27,27v9.6"/>
<line class="st0" x1="89.4" y1="23.4" x2="163.1" y2="23.4"/>
<line class="st0" x1="99" y1="391.9" x2="152.9" y2="391.9"/>
<g>
	<line class="st0" x1="311" y1="141.3" x2="311" y2="154.3"/>
	<line class="st0" x1="368.5" y1="188.6" x2="355.5" y2="188.9"/>
	<line class="st0" x1="348.3" y1="154.5" x2="338.7" y2="163.9"/>
</g>
<line class="st0" x1="223.1" y1="83.9" x2="223.1" y2="147.8"/>
<polyline class="st0" points="258.8,124.2 224.5,151.7 190.1,124.2 "/>
</svg>
