<?xml version="1.0" encoding="utf-8"?>
<!-- Generator: Adobe Illustrator 25.0.0, SVG Export Plug-In . SVG Version: 6.00 Build 0)  -->
<svg version="1.1" id="レイヤー_15" xmlns="http://www.w3.org/2000/svg" xmlns:xlink="http://www.w3.org/1999/xlink" x="0px"
	 y="0px" width="419px" height="443.7px" viewBox="0 0 419 443.7" style="enable-background:new 0 0 419 443.7;"
	 xml:space="preserve">
<style type="text/css">
	.st0{fill:none;stroke:#FFFFFF;stroke-width:17;stroke-linecap:round;stroke-linejoin:round;stroke-miterlimit:10;}
</style>
<path class="st0" d="M44.6,348l7.3,64.5c0,0,68-6.6,108.3,4.5c26.8,7.4,49.3,18.1,49.3,18.1"/>
<path class="st0" d="M209.5,256.9c0,0-11.4-18.3-36.6-31.7C144.3,210,29,210.5,29,210.5l5.9,53.3"/>
<line class="st0" x1="209.5" y1="294.1" x2="209.5" y2="431.9"/>
<path class="st0" d="M395.1,138.1"/>
<path class="st0" d="M396.5,135.6"/>
<circle class="st0" cx="209.2" cy="72" r="63.5"/>
<ellipse transform="matrix(0.851 -0.5252 0.5252 0.851 -147.9906 60.5365)" class="st0" cx="32.7" cy="291" rx="22.1" ry="28.9"/>
<path class="st0" d="M374.4,319l-7.3,93.5c0,0-68-6.6-108.3,4.5c-26.8,7.4-49.3,18.1-49.3,18.1"/>
<path class="st0" d="M209.5,256.9c0,0,11.4-18.3,36.6-31.7C274.7,210,390,210.5,390,210.5l-5.9,53.3"/>
<ellipse transform="matrix(0.5252 -0.851 0.851 0.5252 -64.2432 466.9443)" class="st0" cx="386.3" cy="291" rx="28.9" ry="22.1"/>
<path class="st0" d="M210.2,346"/>
<path class="st0" d="M168.8,353.5c0,0-19.4-6.4-41.8-9.8c-22.6-3.4-41.5-3.3-41.5-3.3"/>
<path class="st0" d="M168.8,299.5c0,0-19.4-6.4-41.8-9.8c-6.3-0.9-12.2-1.6-17.6-2.1"/>
<path class="st0" d="M251.5,353.5c0,0,19.4-6.4,41.8-9.8c22.6-3.4,41.5-3.3,41.5-3.3"/>
<path class="st0" d="M251.5,299.5c0,0,19.4-6.4,41.8-9.8c6.3-0.9,12.2-1.6,17.6-2.1"/>
<path class="st0" d="M101.2,209.7c24-30.8,63.3-51,107.6-51c45.6,0,85.8,21.2,109.6,53.5"/>
</svg>
