<?xml version="1.0" encoding="utf-8"?>
<!-- Generator: Adobe Illustrator 25.0.0, SVG Export Plug-In . SVG Version: 6.00 Build 0)  -->
<svg version="1.1" id="オンライン01" xmlns="http://www.w3.org/2000/svg" xmlns:xlink="http://www.w3.org/1999/xlink" x="0px"
	 y="0px" width="455.5px" height="367px" viewBox="0 0 455.5 367" style="enable-background:new 0 0 455.5 367;"
	 xml:space="preserve">
<style type="text/css">
	.st0{fill:none;stroke:#FFFFFF;stroke-width:17;stroke-linecap:round;stroke-linejoin:round;stroke-miterlimit:10;}
	.st1{fill:none;stroke:#000000;stroke-width:17;stroke-linecap:round;stroke-linejoin:round;stroke-miterlimit:10;}
</style>
<path d="M438.7,110.7"/>
<g>
	<polyline class="st0" points="356.8,135.6 333.3,157.4 310.7,135.6 	"/>
	<path class="st0" d="M310.9,135.6h-23.2c-7.2,0-13.2-5.9-13.2-13.2V22.3c0-7.2,5.9-13.2,13.2-13.2h103.1"/>
	<path class="st0" d="M415.1,9.2l18.7-0.7c7.2,0,13.2,5.9,13.2,13.2v100.1c0,7.2-5.9,13.2-13.2,13.2h-76.2"/>
</g>
<circle class="st0" cx="189.4" cy="112.6" r="34.6"/>
<path class="st0" d="M125.2,257v-48.2c0-22,18-40,40-40h48.2c22,0,40,18,40,40V257"/>
<path class="st1" d="M296.1,317.5"/>
<path class="st1" d="M72,303.5"/>
<path class="st0" d="M378.5,183.5v90c0,16.5-13.5,30-30,30H98.7"/>
<path class="st0" d="M72,303.5H38.5c-16.5,0-30-13.5-30-30v-204c0-16.5,13.5-30,30-30h201"/>
<line class="st0" x1="8.5" y1="257.4" x2="378.5" y2="257.4"/>
<polyline class="st0" points="147.1,310.5 116.5,358.5 269.9,358.5 238.3,310.5 "/>
<line class="st0" x1="315.2" y1="72.8" x2="325.1" y2="72.8"/>
<line class="st0" x1="355.2" y1="72.8" x2="365.1" y2="72.8"/>
<line class="st0" x1="395.2" y1="72.8" x2="405.1" y2="72.8"/>
</svg>
