<?xml version="1.0" encoding="utf-8"?>
<!-- Generator: Adobe Illustrator 25.0.0, SVG Export Plug-In . SVG Version: 6.00 Build 0)  -->
<svg version="1.1" id="レイヤー_8" xmlns="http://www.w3.org/2000/svg" xmlns:xlink="http://www.w3.org/1999/xlink" x="0px"
	 y="0px" width="542.9px" height="499.9px" viewBox="0 0 542.9 499.9" style="enable-background:new 0 0 542.9 499.9;"
	 xml:space="preserve">
<style type="text/css">
	.st0{fill:none;stroke:#000000;stroke-width:17;stroke-linecap:round;stroke-linejoin:round;stroke-miterlimit:10;}
</style>
<path class="st0" d="M234.3,357.1v35.6c0,14.9-12.1,27-27,27H35.5c-14.9,0-27-12.1-27-27V35.5c0-14.9,12.1-27,27-27h171.9
	c14.9,0,27,12.1,27,27v9.6V357.1z"/>
<line class="st0" x1="89.4" y1="23.4" x2="163.1" y2="23.4"/>
<line class="st0" x1="99" y1="391.9" x2="152.9" y2="391.9"/>
<path class="st0" d="M335.5,491.4h-20.3c-8.5,0-15.4-6.9-15.4-15.4V378c0-8.5,6.9-15.4,15.4-15.4H519c8.5,0,15.4,6.9,15.4,15.4V476
	c0,8.5-6.9,15.4-15.4,15.4h-5.5H335.5z"/>
<line class="st0" x1="525.9" y1="405.2" x2="525.9" y2="450.8"/>
<line class="st0" x1="323.1" y1="419.6" x2="323.1" y2="440.5"/>
<polyline class="st0" points="326.8,236.4 292.9,194 326.8,151.6 "/>
<path class="st0" d="M425,309.6c0-63.4-51.9-115.3-115.3-115.3"/>
</svg>
