<?xml version="1.0" encoding="utf-8"?>
<!-- Generator: Adobe Illustrator 25.0.0, SVG Export Plug-In . SVG Version: 6.00 Build 0)  -->
<svg version="1.1" id="レイヤー_1" xmlns="http://www.w3.org/2000/svg" xmlns:xlink="http://www.w3.org/1999/xlink" x="0px"
	 y="0px" width="124.1px" height="23.4px" viewBox="0 0 124.1 23.4" style="enable-background:new 0 0 124.1 23.4;"
	 xml:space="preserve">
<style type="text/css">
	.st0{fill:#231815;}
	.st1{fill:#D61518;}
</style>
<path class="st0" d="M31.8,20.5h19.3v2.1H31.8V20.5z M33.3,3.9h16.8v2.2H33.3V3.9z M33.8,11.9h15.5v2.2H33.8V11.9z"/>
<path class="st0" d="M63.3,12.7c-0.8,1.5-2.6,3.6-6.6,4.2l-0.8-1.6c2.6-0.2,4.5-1.5,5.4-2.6H56v-1.8h9V9.6h-9V7.9h8.9V6.6h1.9v1.3h9
	v1.7h-9v1.3h9v1.7h-6.4v1.5h3.9c0.5,0,0.7-0.3,0.7-1l1.7,0.8c-0.1,1.5-0.7,1.7-1.5,1.7h-5.1c-0.9,0-1.4-0.5-1.4-1.5v-1.6L63.3,12.7z
	 M61.1,18.8c-1,0.5-2.7,1.1-4.3,1.5l-1-1.6c3.1-0.5,6-1.8,8-3.6h2.3c-0.3,0.4-1,1.1-1.4,1.4h8.6c-1,1.6-3.1,3.5-4.8,4.4
	c2.2,0.6,4.8,0.7,7.2,0.6l-0.5,1.9c-4.3,0-6.8-0.3-9.3-1.3c-2.8,1-6.1,1.3-9.6,1.3l-0.5-1.9c2.4,0.1,5,0,7.8-0.6
	C63,20.5,62,19.7,61.1,18.8z M61,7.2V5.9h-5V4.1h5.1V2.8h1.8v1.3h6V2.8h1.8v1.3h5.2v1.8h-5.2v1.4h-1.8V5.9h-6v1.3H61z M66,20.1
	c1.4-0.5,2.5-1.2,3.5-2H63C63.6,18.6,65,19.7,66,20.1z"/>
<path class="st0" d="M86.1,7c-1.6,0.9-3.1,1.6-5,2.3l-0.9-1.9c2.8-0.7,6-2.3,8.8-4.7h3.4c3.4,2.8,6.4,4,8.7,4.7l-0.8,1.9
	c-1.8-0.7-3.4-1.3-5-2.4v1h-9.1L86.1,7z M98.1,16.9H84.4c-0.4,2.5-1.1,4.5-2.6,6.4l-1.4-1.6c2.5-3,2.3-5.9,2.3-8.6V9.3h15.5
	C98.2,9.3,98.2,16.9,98.1,16.9z M84.5,23.4v-5.7h13.7v5.7H84.5z M84.5,13.8v1.5h11.9v-1.5H84.5z M96.4,10.9H84.5v1.5h11.9V10.9z
	 M90.1,4.2c-0.8,0.7-1.9,1.5-3.1,2.2h7.3c-0.9-0.6-2.4-1.6-3.1-2.2H90.1z M96.4,19.3H86.2v2.5h10.1C96.3,21.8,96.3,19.3,96.4,19.3z"
	/>
<path class="st0" d="M117,6.3v1h7v1.8h-7v1.5h7v7.3h-7v1.5h7v1.8h-7v2.1h-1.8v-2.1h-7v-1.8h7v-1.5h-7v-7.4h7V9h-7V7.2h7v-1L117,6.3z
	 M107,5.8v5.5c0,3.6,0.1,8.3-1.8,12.1l-1.8-1.5c1.8-3.2,1.8-7.3,1.8-10.6V3.9h10V2.8h1.8v1.1h7.1v2H107V5.8z M110,12.1v1.4h5.2v-1.4
	H110z M110,16.3h5.2v-1.4H110V16.3z M122.1,12.1h-5.2v1.4h5.2V12.1z M122.1,16.3v-1.4h-5.2v1.4H122.1z"/>
<path class="st1" d="M13.6,15.6h-9L0,23.3h9L13.6,15.6z"/>
<path class="st1" d="M13.6,15.6h8.8l4.5,7.7H18L13.6,15.6z"/>
<path class="st1" d="M13.4,0l4.5,7.8l-4.3,7.8L9,7.8L13.4,0z"/>
</svg>
