<?xml version="1.0" encoding="utf-8"?>
<!-- Generator: Adobe Illustrator 25.0.0, SVG Export Plug-In . SVG Version: 6.00 Build 0)  -->
<svg version="1.1" xmlns="http://www.w3.org/2000/svg" xmlns:xlink="http://www.w3.org/1999/xlink" x="0px" y="0px" width="145.6px"
	 height="39.7px" viewBox="0 0 145.6 39.7" style="enable-background:new 0 0 145.6 39.7;" xml:space="preserve">
<style type="text/css">
	.st0{fill:#FFFFFF;}
	.st1{display:none;}
	.st2{display:inline;opacity:0.5;}
</style>
<g id="レイヤー_1">
	<g>
		<g>
			<g>
				<g>
					<path class="st0" d="M57.5,13.3L57.5,13.3c-0.1,0-0.1,0.4-0.1,0.4C57.3,14,57,14,55.4,14h-7.3c-0.5,0-0.6,0-0.8-0.4l0-0.1h-0.6
						l0,0.1c-0.2,1.1-0.6,2.5-0.9,3.4l-0.1,0.2h0.8l0-0.1c0.4-0.8,0.6-1.3,0.9-1.6c0.3-0.4,0.7-0.5,2.3-0.5c0,0,1,0,1.2,0
						c-0.1,0.3-2,9-2,9c-0.4,1.7-0.4,1.7-2,1.8l-0.1,0l-0.2,0.8h5.5l0.2-0.8l-0.2,0c-0.8-0.1-1.3-0.1-1.5-0.4
						c-0.1-0.1-0.1-0.2-0.1-0.4c0-0.2,0.1-0.6,0.1-1c0,0,1.8-8.9,1.9-9.1c0.2,0,1.2,0,1.2,0c1.2,0,2.2,0.1,3.1,0.2
						c-0.6,3.2-1.5,7.5-2.4,11.4l0,0.1l0.3,0.3l0.1,0c0.4-0.1,0.9-0.3,1.3-0.4l0.1,0l0-0.1c0.2-1,0.5-2.6,0.7-3.5
						c0.9-1.6,3.1-3.6,3.8-3.6c0.1,0,0.1,0,0.1,0c0.1,0.1,0.1,0.5-0.1,1.1l-1,4.5c-0.2,1-0.2,1.5,0,1.8c0.1,0.1,0.2,0.2,0.4,0.2
						c0.6,0,1.8-0.7,2.8-1.9l0.1-0.1L63,24.2l-0.1,0.1c-0.5,0.5-1.1,0.8-1.2,0.8c0,0,0,0,0,0c0-0.1,0-0.2,0.1-0.5l1-4.6
						c0.1-0.4,0.2-0.8,0.2-1.1c0-0.4-0.1-0.6-0.2-0.8c-0.1-0.2-0.4-0.3-0.6-0.3c-0.3,0-0.8,0.1-1.3,0.4c-0.6,0.3-1.9,1.1-3.3,2.8
						c0.1-0.6,0.5-2.2,0.5-2.2c0.4-1.8,0.7-3.5,1.1-5.2c0-0.2,0.1-0.3,0.1-0.4c0-0.1,0-0.2-0.1-0.2c0-0.1-0.1-0.1-0.2-0.1
						C58.6,12.8,57.9,13.1,57.5,13.3z"/>
				</g>
				<path class="st0" d="M66.3,18.9c-1.4,1.1-2.3,3-2.3,5c0,2.7,1.7,2.9,2.2,2.9c0.9,0,2.4-0.4,4.1-2.2l0.1-0.1l-0.5-0.6L69.7,24
					c-0.9,0.9-1.9,1.4-2.7,1.4c-1.2,0-1.3-1.3-1.3-2c0-0.2,0-0.3,0-0.5c2.3-0.6,5-1.7,5-3.5c0-0.9-0.8-1.6-1.8-1.6
					C68.2,17.8,67.1,18.2,66.3,18.9z M67.6,19.1L67.6,19.1c0.2-0.1,0.5-0.2,0.7-0.2c0.5,0,0.8,0.4,0.8,0.9c0,0.9-1,1.7-3.2,2.3
					C66.3,20,67.2,19.2,67.6,19.1z M67.4,18.8C67.4,18.8,67.4,18.8,67.4,18.8L67.4,18.8z"/>
				<path class="st0" d="M75.5,14l-0.2,0.7l0.2,0c0.7,0.1,1.1,0.2,1.2,0.3c0.1,0.2,0.1,0.5-0.1,1.3l-1.5,7.7
					c-0.3,1.6-0.4,1.6-1.8,1.7l-0.1,0L73,26.6h5.3l0.2-0.8l-0.1,0c-0.9-0.1-1.3-0.2-1.5-0.4c-0.1-0.1-0.1-0.2-0.1-0.4
					c0-0.2,0-0.5,0.1-0.9c0,0,0.5-2.6,0.5-2.8c0.2,0.1,1.1,0.4,1.1,0.4l0.8,0c2.2-0.1,4.6-1.5,4.6-4.3c0-2.2-1.4-3.3-4.1-3.3H75.5z
					 M78.5,15.8c0.1-0.6,0.2-0.7,0.4-0.8c0.2-0.1,0.5-0.1,0.8-0.1c1.5,0,2.4,0.9,2.4,2.4c0,2.6-2.1,3.3-3.2,3.3
					c-0.6,0-1-0.1-1.3-0.2C77.7,20.2,78.5,15.8,78.5,15.8z"/>
				<path class="st0" d="M85,19.3c-1.4,1.2-2.3,3.3-2.3,5.2c0,1.6,0.6,2.3,1.2,2.3c0.5,0,1.1-0.3,1.8-0.9c0.8-0.6,1.5-1.4,2.2-2.2
					c-0.1,0.5-0.3,1.3-0.3,1.3c-0.1,0.4-0.1,0.7-0.1,1c0,0.3,0.1,0.5,0.2,0.7c0.1,0.1,0.2,0.2,0.4,0.2c0.5,0,1.8-0.7,2.9-2l0.1-0.1
					L90.7,24l-0.1,0.1c-0.5,0.5-1.1,0.9-1.3,0.9c0,0,0,0,0-0.1c0-0.1,0-0.3,0.1-0.6c0.4-2.3,1-4.9,1.3-6.1l0-0.1l-0.1-0.2h-0.1
					c-0.2,0-0.4,0-0.6-0.1l-0.1,0c-0.4-0.1-0.8-0.1-1.2-0.1C87.5,17.8,86.1,18.4,85,19.3z M84.6,24.2c0-1.7,0.7-4,2-4.9
					c0.3-0.2,0.8-0.4,1.3-0.4c0.4,0,0.8,0.1,1.1,0.2c0,0.1,0,0.2,0,0.2c-0.1,0.7-0.4,1.7-0.6,2.4c-0.7,1.4-2.8,3.6-3.4,3.6
					C84.8,25.3,84.6,25,84.6,24.2z"/>
				<g>
					<path class="st0" d="M94.5,20.4c0-0.1,0.1-0.3,0.1-0.3c0.1-0.6,0.2-1.1,0.2-1.4c0-0.4-0.1-0.6-0.2-0.8
						c-0.1-0.1-0.2-0.2-0.3-0.2c-0.6,0-1.8,0.8-2.7,1.9l-0.1,0.1l0.4,0.7l0.1-0.1c0.5-0.5,1.1-0.8,1.2-0.9c0,0,0,0,0,0.1
						c0,0.2-0.1,0.5-0.1,0.6c-0.3,1.7-0.8,3.9-1.4,6.4l0,0.1l0.3,0.3l0.1,0c0.4-0.2,0.9-0.3,1.3-0.3l0.1,0l0-0.1
						c0.2-1.4,0.5-2.5,0.8-3.7c0.3-0.8,0.9-1.6,1.3-2.3c0.4-0.5,0.6-0.7,0.9-0.7c0.2,0,0.4,0.1,0.5,0.3c0.1,0.1,0.4,0.1,0.6,0
						c0.2-0.2,0.4-0.4,0.5-0.6c0.2-0.3,0.2-0.7,0-0.9c-0.2-0.3-0.6-0.5-0.9-0.5C96.3,17.8,95.3,19.1,94.5,20.4z"/>
				</g>
				<g>
					<path class="st0" d="M101.2,13c-0.5,0.2-1.3,0.4-2.3,0.5l-0.1,0l-0.1,0.7l0.7,0c0.3,0,0.5,0,0.6,0.1c0.1,0.1,0,0.3,0,0.6
						c-0.7,3.6-1.6,7.4-2.6,11.6l0,0.1l0.3,0.2l0.1,0c0.3-0.1,0.8-0.2,1.3-0.4l0.1,0l0.6-3c0,0,0.1-0.2,0.1-0.3
						c0.2-0.3,0.5-0.6,0.9-1l0,0c0.5,1.4,1,2.6,1.4,3.3c0.4,0.9,0.8,1.3,1.4,1.3c0.3,0,1.1-0.1,2.2-1.8l0-0.1l-0.5-0.6l-0.1,0.1
						c-0.5,0.6-0.9,0.8-1,0.8c-0.2,0-0.3-0.2-0.6-0.8c-0.4-0.8-1.2-2.4-1.5-3.6c0.7-0.7,1.6-1.5,2.3-1.5c0.3,0,0.5,0.1,0.7,0.1
						c0.1,0.1,0.3,0,0.4-0.1c0.2-0.2,0.4-0.6,0.4-0.9c0-0.3-0.3-0.7-0.9-0.7c-0.7,0-1.9,0.8-3.4,2.3l0,0c-0.4,0.4-0.8,0.8-1.3,1.3
						c0.2-0.7,1.8-7.9,1.8-7.9c0-0.2,0.1-0.3,0.1-0.4c0-0.1,0-0.2-0.1-0.2c0-0.1-0.1-0.1-0.2-0.1C101.6,12.9,101.4,12.9,101.2,13z"
						/>
				</g>
				<g>
					<path class="st0" d="M109.3,13c-0.5,0.2-1.3,0.4-2.2,0.5l-0.1,0l-0.1,0.7h0.7c0.3,0,0.5,0,0.5,0.1c0.1,0.1,0,0.4-0.1,0.8
						c-0.7,3.9-1.6,7.8-2.4,11.3l0,0.1l0.2,0.3l0.1,0c0.4-0.2,0.9-0.3,1.3-0.4l0.1,0l0-0.1c0.2-1,0.5-2.6,0.7-3.4
						c0.9-1.6,3.1-3.7,3.9-3.7c0.1,0,0.1,0,0.1,0c0.1,0.1,0.1,0.4-0.1,1.1l-1,4.4c-0.2,0.9-0.2,1.5,0,1.8c0.1,0.1,0.3,0.2,0.4,0.2
						c0.6,0,1.8-0.7,2.8-1.9l0.1-0.1l-0.4-0.7l-0.1,0.1c-0.6,0.5-1.1,0.8-1.2,0.8c0,0,0-0.1,0.1-0.5l1-4.2c0.3-1.2,0.3-1.9-0.1-2.3
						c-0.1-0.2-0.3-0.3-0.6-0.3c-0.4,0-0.8,0.1-1.3,0.4c-0.6,0.3-1.9,1.1-3.2,2.8c0.2-0.9,1.6-7.4,1.6-7.4c0-0.2,0.1-0.4,0.1-0.5
						c0-0.1,0-0.2-0.1-0.2c0-0.1-0.1-0.1-0.2-0.1C109.8,12.9,109.6,12.9,109.3,13z"/>
				</g>
				<path class="st0" d="M117.9,18.4c-1.4,0.7-2.9,2.5-2.9,5.3c0,1.5,0.7,3.1,2.6,3.1c1,0,2.1-0.4,3-1.2c1.3-1,2.1-2.9,2.1-4.7
					c0-1.9-1-3.1-2.6-3.1C119.4,17.8,118.6,18.1,117.9,18.4z M116.8,23.6c0-2.8,1.2-4.3,1.9-4.7c0.2-0.1,0.4-0.1,0.7-0.1
					c0.9,0,1.4,0.8,1.4,2.1c0,2.4-1,4.3-2,4.7c-0.2,0.1-0.3,0.1-0.5,0.1l0,0C117.4,25.8,116.8,25,116.8,23.6z"/>
				<g>
					<path class="st0" d="M131.6,17.8l-1.4,0.5c0,0-0.7,3-0.7,3.1c-0.8,1.5-2.8,3.8-3.8,3.8c0,0-0.1,0-0.1,0c-0.1-0.1-0.1-0.3,0-1
						l0.7-3.1l0.3-1.4c0.2-0.9,0.2-1.4,0.1-1.6c-0.1-0.1-0.2-0.2-0.4-0.2c-0.6,0-1.8,0.8-2.9,1.8l-0.1,0.1l0.3,0.7l0.1-0.1
						c0.7-0.6,1.1-0.8,1.2-0.8c0,0,0,0,0,0.1c0,0.1,0,0.2-0.1,0.4l-0.8,3.5l-0.2,0.8c-0.1,0.5-0.2,1-0.2,1.3c0,0.4,0.1,0.7,0.2,0.9
						c0.2,0.2,0.4,0.3,0.7,0.3l0,0c0.5,0,1.1-0.2,1.6-0.6c0.9-0.6,1.9-1.6,2.8-2.7c0,0.1-0.3,1.2-0.3,1.2c-0.1,0.5-0.2,1-0.2,1.3
						c0,0.3,0.1,0.5,0.2,0.7c0.1,0.1,0.2,0.2,0.4,0.2c0.7,0,1.9-0.9,2.8-2l0.1-0.1l-0.4-0.7l-0.1,0.1c-0.5,0.5-1.1,0.9-1.3,0.9
						c0,0,0,0,0-0.1c0-0.1,0-0.2,0.1-0.5c0.4-2.2,0.9-4.3,1.5-6.6l0-0.2H131.6z"/>
				</g>
				<g>
					<path class="st0" d="M134.6,18.8c-0.7,0.6-1,1.2-1,1.9c0,1,0.9,1.8,1.7,2.4c0.9,0.7,1,1.1,1,1.5c0,0.6-0.5,1-1.1,1
						c-0.6,0-1.2-0.4-1.7-1.1c-0.1-0.1-0.3-0.3-0.6-0.1c-0.4,0.3-0.6,0.6-0.6,0.9v0c0,0.7,1,1.5,2,1.5c1.5,0,3.6-1.5,3.6-3
						c0-0.9-0.6-1.5-1.6-2.3c-0.7-0.5-1.2-1-1.2-1.6c0-0.6,0.5-0.9,0.9-0.9c0.5,0,0.9,0.2,1.4,0.8c0.2,0.2,0.4,0.2,0.6,0.1
						c0.3-0.2,0.5-0.5,0.5-0.9c0-0.6-0.7-1.2-1.6-1.2C136.2,17.8,135.2,18.2,134.6,18.8z"/>
				</g>
				<path class="st0" d="M141.1,18.9c-1.4,1.1-2.3,3-2.3,5c0,2.7,1.7,2.9,2.2,2.9c0.9,0,2.4-0.4,4.1-2.2l0.1-0.1l-0.5-0.6l-0.1,0.1
					c-0.9,0.9-1.9,1.4-2.7,1.4c-1.2,0-1.3-1.3-1.3-2c0-0.2,0-0.3,0-0.5c2.3-0.6,5-1.7,5-3.5c0-0.9-0.8-1.6-1.8-1.6
					C143,17.8,142,18.2,141.1,18.9z M142.4,19.1L142.4,19.1c0.2-0.1,0.5-0.2,0.7-0.2c0.5,0,0.8,0.4,0.8,0.9c0,0.9-1.1,1.7-3.2,2.3
					C141.1,20,142.1,19.2,142.4,19.1z M142.2,18.8L142.2,18.8L142.2,18.8z"/>
			</g>
		</g>
		<path class="st0" d="M19.8,10.5c5.1,0,9.3,4.2,9.3,9.3c0,5.2-4.2,9.3-9.3,9.3c-0.9,0-1.8-0.1-2.6-0.4v1.3c0.8,0.2,1.7,0.3,2.6,0.3
			c2.9,0,5.5-1.2,7.5-3.1c1.9-1.9,3.1-4.5,3.1-7.5c0-2.9-1.2-5.5-3.1-7.5c-1.9-1.9-4.6-3.1-7.5-3.1c-5.8,0-10.5,4.8-10.6,10.6v16.8
			c0.4,0.3,0.8,0.5,1.2,0.7V19.8C10.6,14.8,14.8,10.5,19.8,10.5"/>
		<path class="st0" d="M19.8,4.3c8.6,0,15.5,7,15.5,15.5c0,8.6-7,15.5-15.5,15.5c-0.9,0-1.7-0.1-2.6-0.2v1.2
			c0.8,0.1,1.7,0.2,2.6,0.2c4.6,0,8.8-1.9,11.8-4.9c3-3,4.9-7.2,4.9-11.8c0-4.6-1.9-8.8-4.9-11.8c-3-3-7.2-4.9-11.8-4.9
			c-9.2,0-16.7,7.6-16.7,16.7l0,10.6c0.4,0.6,0.8,1.2,1.2,1.7V19.8C4.4,11.3,11.3,4.3,19.8,4.3"/>
		<path class="st0" d="M19.8,7.4c6.9,0,12.4,5.6,12.4,12.4c0,6.9-5.6,12.4-12.4,12.4c-0.9,0-1.7-0.1-2.6-0.3v1.2
			c0.8,0.2,1.7,0.2,2.6,0.2c3.8,0,7.2-1.5,9.7-4c2.5-2.5,4-5.9,4-9.6c0-3.8-1.5-7.2-4-9.6c-2.5-2.5-5.9-4-9.7-4
			c-7.5,0-13.6,6.2-13.7,13.6l0,14.4c0.4,0.4,0.8,0.7,1.2,1.1V19.8C7.5,13.1,13.1,7.4,19.8,7.4"/>
		<path class="st0" d="M33.9,5.8C30.3,2.2,25.3,0,19.8,0C8.9,0,0.1,9,0,19.8c0,0-0.1,3.6,1.2,6.9v-6.9C1.3,9.6,9.6,1.2,19.8,1.2
			c10.3,0,18.6,8.4,18.6,18.6c0,10.3-8.4,18.6-18.6,18.6c-0.9,0-1.7-0.1-2.6-0.2v1.2c0.8,0.1,1.7,0.2,2.6,0.2c5.5,0,10.4-2.2,14-5.8
			c3.6-3.6,5.8-8.5,5.8-14C39.7,14.4,37.5,9.4,33.9,5.8"/>
		<path class="st0" d="M26.1,19.8c0,3.5-2.8,6.3-6.3,6.3c-0.9,0-1.8-0.2-2.6-0.6v1.3c0.8,0.3,1.7,0.5,2.6,0.5c2.1,0,3.9-0.8,5.3-2.2
			c1.4-1.4,2.2-3.2,2.2-5.3c0-2.1-0.8-3.9-2.2-5.3c-1.4-1.4-3.2-2.2-5.3-2.2c-4.1,0-7.4,3.4-7.5,7.5v18.4c0.4,0.2,0.8,0.3,1.2,0.5
			V19.8c0.1-3.4,2.8-6.3,6.3-6.3C23.3,13.6,26.1,16.4,26.1,19.8"/>
	</g>
</g>
<g id="レイヤー_3" class="st1">
	
		<rect x="68.8" y="-29.2" transform="matrix(-1.836970e-16 1 -1 -1.836970e-16 116.4325 -29.1607)" class="st2" width="7.9" height="145.6"/>
	<rect x="0" y="-19.8" class="st2" width="45.8" height="19.8"/>
	<rect x="0" y="39.7" class="st2" width="45.8" height="19.8"/>
</g>
<g id="レイヤー_4" class="st1">
	
		<rect x="-49.6" y="9.9" transform="matrix(-1.836970e-16 1 -1 -1.836970e-16 9.9172 29.7518)" class="st2" width="79.3" height="19.8"/>
</g>
<g id="レイヤー_2" class="st1">
	<rect x="0" class="st2" width="39.7" height="39.7"/>
</g>
</svg>
