<?xml version="1.0" encoding="utf-8"?>
<!-- Generator: Adobe Illustrator 25.0.0, SVG Export Plug-In . SVG Version: 6.00 Build 0)  -->
<svg version="1.1" id="レイヤー_1" xmlns="http://www.w3.org/2000/svg" xmlns:xlink="http://www.w3.org/1999/xlink" x="0px"
	 y="0px" width="129.6px" height="18.5px" viewBox="0 0 129.6 18.5" style="enable-background:new 0 0 129.6 18.5;"
	 xml:space="preserve">
<style type="text/css">
	.st0{fill:#231815;}
	.st1{fill:#009043;}
</style>
<path class="st0" d="M29.5,4.2h5.9V1.7c0-0.5,0.1-0.9,0.4-1.1s0.6-0.3,1.1-0.3s0.9,0.1,1.2,0.3s0.4,0.6,0.4,1.1v2.5h6
	c0.5,0,0.9,0.1,1.2,0.3C45.9,4.7,46,5.1,46,5.6s-0.1,0.8-0.3,1c-0.3,0.3-0.7,0.5-1.2,0.5h-5.7c0.2,0.8,0.5,1.6,1,2.5
	c1,1.7,2.9,3.7,5.7,5.9c0.4,0.3,0.5,0.7,0.5,1.3c0,0.4-0.2,0.8-0.5,1c-0.4,0.3-0.8,0.4-1.2,0.4c-0.3,0-0.6-0.1-0.9-0.2
	c-0.2-0.1-0.5-0.2-0.7-0.4c-1.2-0.9-3-3-5.2-6.3c-0.2-0.3-0.4-0.4-0.5-0.4s-0.2,0.1-0.3,0.3c-1.5,2.5-3.3,4.7-5.7,6.6
	c-0.2,0.2-0.7,0.3-1.4,0.3c-0.5,0-0.9-0.2-1.2-0.6c-0.2-0.3-0.3-0.6-0.3-0.8c0-0.5,0.1-0.8,0.3-1.1c2.7-2,4.5-3.8,5.6-5.4
	c0.6-1.1,1.1-2.1,1.3-3.1h-5.8c-0.5,0-0.9-0.1-1.1-0.3S28,6.2,28,5.7s0.1-0.9,0.4-1.1C28.6,4.3,29,4.2,29.5,4.2z"/>
<path class="st0" d="M50.3,9.2h6.1V8.5c0-0.5,0.1-0.8,0.4-1.1C57,7.1,57.4,7,57.9,7s0.8,0.1,1.1,0.4s0.4,0.6,0.4,1.1v0.7h5.8
	c0.5,0,0.8,0.1,1,0.3s0.3,0.5,0.3,1c0,0.4-0.1,0.7-0.2,0.9c-0.2,0.3-0.6,0.4-1.1,0.4h-3.8c1.4,1.2,3,2.4,4.8,3.4
	c0.3,0.2,0.5,0.5,0.5,0.9s-0.1,0.7-0.4,1c-0.3,0.4-0.7,0.6-1.3,0.6c-0.4,0-0.8-0.1-1.1-0.3c-0.3-0.1-0.6-0.3-0.8-0.5
	c-1.3-1.1-2.5-2.4-3.7-3.9v3.7c0,0.4-0.1,0.7-0.3,1c-0.3,0.3-0.7,0.5-1.3,0.5c-0.5,0-0.9-0.2-1.2-0.5c-0.2-0.3-0.3-0.6-0.3-1V13
	c-0.9,1.1-2.1,2.2-3.7,3.4c-0.6,0.4-1.1,0.7-1.7,0.9c-0.3,0.1-0.6,0.2-1,0.2s-0.8-0.2-1.1-0.7c-0.2-0.2-0.3-0.5-0.3-1
	s0.2-0.8,0.7-0.9c1.2-0.5,2.4-1.2,3.6-2.2c0.5-0.4,0.9-0.7,1.3-1h-4c-0.5,0-0.8-0.1-1-0.3s-0.3-0.5-0.3-1s0.1-0.9,0.3-1
	C49.4,9.3,49.8,9.2,50.3,9.2z M52.5,0.3c0.2,0,0.4,0.1,0.5,0.2c0.3,0.2,0.5,0.5,0.8,0.9c0.6,0.9,1,1.6,1,2.1h1.9
	c-0.3-0.6-0.6-1.1-1-1.6c-0.1-0.1-0.2-0.3-0.2-0.5c0-0.5,0.2-0.8,0.6-1.1C56.4,0.1,56.8,0,57.2,0c0.2,0,0.4,0.1,0.5,0.2
	c0.3,0.2,0.5,0.5,0.8,0.9c0.7,1,1,1.8,1,2.2v0.1h1c0-0.1,0-0.1,0-0.1c0-0.1,0.1-0.3,0.2-0.5c0.1-0.1,0.2-0.3,0.3-0.5
	c0.3-0.4,0.5-0.8,0.7-1.1c0.2-0.4,0.4-0.7,0.5-0.8c0.2-0.2,0.5-0.3,0.9-0.3s0.7,0.1,1,0.4c0.4,0.3,0.6,0.6,0.6,1
	c0,0.3,0,0.5-0.1,0.7c-0.1,0.3-0.3,0.6-0.6,0.9c-0.1,0.2-0.2,0.3-0.3,0.4h0.9c1.3,0,2,0.7,2,2.1v1.9c0,0.5-0.1,0.8-0.4,1
	c-0.2,0.2-0.6,0.3-1,0.3c-0.5,0-0.9-0.1-1.2-0.3c-0.2-0.2-0.3-0.4-0.3-0.8V6.3c0-0.2-0.1-0.3-0.4-0.3H51.9c-0.2,0-0.3,0.1-0.3,0.3
	v1.5c0,0.4-0.1,0.7-0.3,0.8c-0.2,0.2-0.6,0.3-1.1,0.3s-0.8-0.1-1.1-0.3c-0.2-0.2-0.4-0.6-0.4-1v-2c0-1.4,0.7-2.1,2-2.1h1.1
	c-0.3-0.5-0.6-1-0.9-1.4c-0.1-0.1-0.2-0.3-0.2-0.4c0-0.5,0.2-0.8,0.6-1.1C51.7,0.4,52.1,0.3,52.5,0.3"/>
<path class="st0" d="M82.2,6.1c0.5,0,0.9,0.2,1.1,0.6c1.3,1.3,2.5,3.2,3.7,5.5c0.3,0.5,0.4,0.9,0.4,1.2c0,0.5-0.1,0.8-0.4,1
	c-0.3,0.3-0.7,0.4-1.1,0.4c-0.6,0-1.1-0.3-1.2-0.9c-1.1-2-2.3-3.9-3.6-5.6c-0.3-0.3-0.5-0.6-0.5-0.9c0-0.4,0.2-0.7,0.5-1
	C81.5,6.2,81.8,6.1,82.2,6.1z M70.5,1.2h15.4c0.5,0,0.9,0.1,1.2,0.3c0.2,0.2,0.3,0.5,0.3,1.1c0,0.5-0.1,0.8-0.3,1
	c-0.3,0.3-0.7,0.5-1.2,0.5h-5.8c-0.4,0.8-0.8,1.5-1.3,2.3C79,6.5,79.1,3,79.2,3.1c0.3,0.3,0.4,0.6,0.4,1.1V17c0,0.4-0.1,0.7-0.3,1
	s-0.6,0.5-1.2,0.5c-0.5,0-0.9-0.2-1.2-0.5c-0.2-0.3-0.3-0.6-0.3-1V9.2c-1.3,1.5-2.9,3-4.7,4.4c-0.5,0.4-1,0.6-1.6,0.6
	c-0.5-0.1-0.9-0.2-1.2-0.5s-0.4-0.6-0.4-1c0-0.2,0.1-0.5,0.3-0.9c3.7-2.8,6.3-5.4,7.7-7.7h-6.2c-0.5,0-0.9-0.1-1.1-0.4
	C69.2,3.5,69,3.1,69,2.6s0.1-0.9,0.4-1.1C69.6,1.3,69.9,1.2,70.5,1.2"/>
<path class="st0" d="M98.2,8.1v0.5h-1.5V7.8h1.2C98.1,7.8,98.2,7.9,98.2,8.1z M93.3,7.8h1.2v0.8H93V8.1C92.9,7.9,93,7.8,93.3,7.8
	 M92.9,10.4V9.9h1.5v0.8h-1.2C93,10.8,92.9,10.7,92.9,10.4 M99,0c-2.2,0.3-4.7,0.5-7.5,0.6c-0.7,0.1-1,0.4-1,0.9
	c0,0.8,0.3,1.2,1,1.2s1.7,0,2.9-0.1v0.9h-3.3c-0.3,0-0.6,0.1-0.8,0.2S90,4.1,90,4.4c0,0.4,0.1,0.6,0.3,0.8s0.4,0.2,0.8,0.2h3.3v0.8
	H92c-0.9,0-1.4,0.5-1.4,1.4v3.3c0,0.9,0.5,1.4,1.4,1.4h2.4V13h-3c-0.3,0-0.5,0.1-0.7,0.2c-0.1,0.1-0.2,0.3-0.2,0.7
	c0,0.3,0.1,0.5,0.2,0.7c0.2,0.1,0.4,0.2,0.7,0.2h3v1.1H91c-0.3,0-0.5,0.1-0.6,0.2c-0.2,0.1-0.3,0.4-0.3,0.8c0,0.3,0.1,0.6,0.2,0.7
	c0.2,0.2,0.4,0.3,0.8,0.3h8.5c0.3,0,0.2-0.1,0.3,0c0.2,0.2,0.6,0.4,1,0.4s0.7-0.1,1-0.4c1.3-2.1,2.2-4.5,2.7-7.2
	c0.3-1.6,0.4-3.2,0.4-4.6h0.7c0.3,0,0.5,0.2,0.5,0.5c0,3.8,0,6.4-0.1,7.8c-0.1,0.5-0.2,0.9-0.3,1.1s-0.3,0.3-0.5,0.3s-0.4,0-0.8-0.1
	c-0.1,0-0.2,0-0.3,0h-0.5c-0.2,0.1-0.4,0.2-0.6,0.4c-0.1,0.4-0.2,0.7-0.2,1s0.1,0.5,0.2,0.7s0.3,0.4,0.6,0.4c0.3,0.1,0.6,0.2,1,0.2
	h0.8c0.9,0,1.5-0.3,2-0.8c0.4-0.4,0.7-1.2,0.9-2.3c0.1-1.4,0.2-3.5,0.2-6.1c0-2.8-0.1-4.4-0.4-4.8c-0.2-0.5-0.8-0.8-1.7-0.8H105
	c0-0.7,0-1.4,0-2.1c0-0.4-0.1-0.7-0.3-0.9s-0.5-0.3-1-0.3c-0.4,0-0.7,0.1-0.9,0.3s-0.3,0.5-0.3,0.9v2.1h-0.6c-0.8,0-1.2,0.5-1.2,1.3
	s0.5,1.3,1.2,1.3h0.5c0,1.8-0.2,3.5-0.6,5.1s-1,3.6-1.8,5.1c-0.2-0.2-0.5-0.3-0.8-0.3h-2.6V15h2.5c0.3,0,0.5-0.1,0.7-0.3
	c0.1-0.1,0.2-0.3,0.2-0.6s-0.1-0.6-0.2-0.7s-0.4-0.2-0.7-0.2h-2.5v-0.7H99c0.9,0,1.4-0.5,1.4-1.4V7.8c0-0.9-0.5-1.4-1.4-1.4h-2.4
	V5.5h2.9c0.4,0,0.7-0.1,0.8-0.3s0.2-0.4,0.2-0.7c0-0.4-0.1-0.6-0.2-0.7c-0.2-0.1-0.4-0.2-0.8-0.2h-2.9V2.5c1.1-0.1,2-0.3,3-0.4
	c0.5-0.1,0.7-0.4,0.7-0.9c0-0.3-0.1-0.5-0.3-0.7s-0.4-0.3-0.7-0.3C99.4,0,99.2,0,99,0 M96.8,10h1.5v0.5c0,0.2-0.1,0.3-0.3,0.3h-1.2
	V10z"/>
<path class="st0" d="M122.7,4.1l-0.3,1.6h-3.5l-0.3-1.6H122.7z M119.4,8.5c0-0.2,0-0.4-0.1-0.6h2v1.4h-2
	C119.4,9.1,119.4,8.7,119.4,8.5 M119.3,0.3c-0.3,0.3-0.5,0.7-0.5,1.1v0.4H113c-0.4,0-0.7,0.1-0.9,0.2c-0.2,0.2-0.3,0.4-0.3,0.9
	c0,0.4,0.1,0.7,0.3,0.9s0.5,0.3,0.9,0.3h2.6l0.3,1.6h-1.3c-1.4,0-2.1,0.7-2.1,2v1.1c0,1.1,0,2.2-0.1,3.5c-0.2,1.5-0.6,2.9-1.2,4.4
	c-0.1,0.2-0.1,0.4-0.1,0.5c0,0.4,0.1,0.7,0.4,0.9c0.2,0.2,0.5,0.3,1,0.3c0.4,0,0.6-0.1,0.8-0.3s0.4-0.4,0.5-0.7
	c0.9-2.2,1.3-5,1.3-8.6V8.5c0-0.3,0.2-0.5,0.5-0.5h1.7v0.1c-0.4,1.1-0.9,2.2-1.5,3c-0.1,0.2-0.2,0.4-0.2,0.6c0,0.4,0.2,0.6,0.5,0.8
	c0.1,0.1,0.3,0.2,0.5,0.3c-0.1,0.1-0.2,0.4-0.2,0.7c0,0.4,0.1,0.6,0.2,0.8c0.2,0.2,0.4,0.2,0.8,0.2h4v1h-4.9c-0.4,0-0.7,0.1-0.9,0.3
	s-0.3,0.5-0.3,0.9s0.1,0.7,0.3,0.9s0.5,0.3,0.9,0.3h11.9c0.4,0,0.8-0.1,1-0.4c0.1-0.2,0.2-0.4,0.2-0.8c0-0.5-0.1-0.8-0.3-0.9
	c-0.2-0.2-0.5-0.3-0.9-0.3h-4.2v-1h3.4c0.4,0,0.7-0.1,0.8-0.3s0.2-0.4,0.2-0.7c0-0.4-0.1-0.6-0.2-0.7c-0.2-0.1-0.4-0.2-0.8-0.2h-3.4
	v-1h3.8c0.4,0,0.7-0.1,0.8-0.3s0.2-0.4,0.2-0.8s-0.1-0.7-0.2-0.8s-0.4-0.2-0.8-0.2h-3.8V8.1h4.2c0.7,0,1.1-0.4,1.1-1.2
	c0-0.7-0.4-1.1-1.1-1.2h-2.9l0.3-1.6h2.4c0.4,0,0.7-0.1,0.9-0.4c0.1-0.2,0.2-0.4,0.2-0.8s-0.1-0.7-0.3-0.8c-0.2-0.2-0.5-0.3-0.9-0.3
	h-5.9V1.4c0-0.5-0.2-0.8-0.5-1.1c-0.2-0.2-0.6-0.3-1.2-0.3C120,0,119.6,0.1,119.3,0.3 M117.8,12.3c0.2-0.2,0.3-0.5,0.5-0.8h2.9v1
	h-3.6C117.7,12.4,117.8,12.4,117.8,12.3"/>
<path class="st1" d="M0.8,11.2c0,0-0.1,0.5,0.3,0.5s4.8,0,4.8,0s0.4,0,0.5-0.4c0.1-0.5,1.4-5.5,1.4-5.5s0.1-0.4,0.4-0.4
	c0.3,0,6.9,0,6.9,0s0.6,0.1,0.5,0.7S14,12.2,14,12.2s0,0.7-0.7,0.7s-5.8,0-5.8,0s-0.3,0-0.4,0.4s-1.2,4.4-1.2,4.4s-0.2,0.6,0.3,0.6
	s10.9,0,10.9,0s0.5,0,0.6-0.5s4.5-17.3,4.5-17.3s0-0.5-0.5-0.5S3.9,0,3.9,0S3.5,0,3.3,0.4C3.5,0.7,0.8,11.2,0.8,11.2z"/>
<path class="st1" d="M7.6,11.2c0,0-0.1,0.5,0.5,0.5h4.4c0,0,0.4,0,0.5-0.3l1.2-4.2c0,0,0.2-0.5-0.3-0.7H9.3c0,0-0.4,0-0.6,0.4
	L7.6,11.2z"/>
<path class="st1" d="M0,15.2l0.5-1.9c0,0,0-0.4,0.4-0.4s4.7,0,4.7,0s0.4,0,0.4,0.5l-1.3,4.5c0,0-0.1,0.4-0.4,0.4s-1.9,0-1.9,0
	S1.9,18.2,2,17.9l0.5-2.1c0,0,0-0.3-0.3-0.3c-0.4,0-1.9,0-1.9,0S-0.1,15.5,0,15.2z"/>
</svg>
