<?xml version="1.0" encoding="utf-8"?>
<!-- Generator: Adobe Illustrator 25.0.0, SVG Export Plug-In . SVG Version: 6.00 Build 0)  -->
<svg version="1.1" xmlns="http://www.w3.org/2000/svg" xmlns:xlink="http://www.w3.org/1999/xlink" x="0px" y="0px" width="566.9px"
	 height="69.1px" viewBox="0 0 566.9 69.1" style="enable-background:new 0 0 566.9 69.1;" xml:space="preserve">
<style type="text/css">
	.st0{fill:#E60012;}
	.st1{display:none;}
	.st2{display:inline;}
	.st3{fill:none;}
</style>
<g id="logotype">
	<g>
		<g>
			<g>
				<g>
					<g>
						<polygon class="st0" points="13.3,46 39.9,46 26.6,69.1 0,69.1 						"/>
						<polygon class="st0" points="39.9,46 66.5,46 79.8,69.1 53.2,69.1 						"/>
						<polygon class="st0" points="39.9,0 53.2,23 39.9,46 26.6,23 						"/>
					</g>
				</g>
			</g>
		</g>
		<g>
			<g>
				<path d="M196.4,54.1h-23.2c2-1.4,3.8-3.1,5.3-5c0,0-7.3,0-7.4,0c-7,5.3-13.9,6.5-17.8,7.3v4.9c0.9-0.1,4.4-0.6,8.7-1.9
					c1.4,1.2,3,2.3,4.8,3.3c-5.1,0.8-10.1,1.2-13.5,1.2v5.1c8.7,0,16.4-0.9,22.9-2.7c6.4,1.8,14.1,2.7,23.2,2.7v-5.1
					c-4,0-8.9-0.3-13.7-1C190.3,60.6,194,57.6,196.4,54.1z M175.9,60.8c-2.6-0.8-5-1.8-6.8-3h14.8C181.8,58.9,179,59.9,175.9,60.8z
					 M217.7,38.1h3v-6.3h-3V23h-6.4v8.8h-3.6v6.3h3.6v19.1c-1.4,0.3-2.7,0.6-3.6,0.8v7c3.1-0.6,12.1-3.5,15.2-5.1v-6.2
					c-1.3,0.5-3.1,1.2-5.2,1.8V38.1z M192.6,23h-6.2v1.9h-20.3V23H160v1.9h-6.8v4.8h6.8v1.9h6.2v-1.9h20.3v1.9h6.2v-1.9h6.8v-4.8
					h-6.8V23z M179.3,38h18.1v-4.7h-18.1v-2h-6.2v2h-18.1V38h18.1v2.4h-20v4.7h10.1c-2.8,2-6.9,3.2-10.1,3.7v4.9
					c3-0.3,12.6-2.1,18.1-8.6h9.7c0,1.4,0,3.5,0,3.5c0,2.2,1.5,3.5,4.1,3.5c0,0,14,0,14.2,0v-4.6c-0.2,0-10.6,0-10.6,0
					c-1.3,0-1.3-0.9-1.3-1.4c0,0,0-0.5,0-1h12v-4.7h-20V38z M98.1,66.6h46.1v-6.6H98.1V66.6z M142,26h-41.8v6.6H142V26z M284.3,24.4
					H264v5.9h20.3V24.4z M140.9,48.8v-6.6h-39.5v6.6H140.9z M242.8,23h-6.4v8.4c-1.4,0.4-3.1,0.8-4.8,1.2v-5.5h-6.3v7.2
					c-1.3,0.3-2.2,0.6-2.3,0.6v6.8c0.1,0,0.9-0.2,2.3-0.6c0,9.8,0,21.2,0,21.2c0,3.1,1.8,6.8,6.9,6.8c0,0,21.3,0,21.7,0v-6.5
					c-1.8,0-19.3,0-19.3,0c-1.9,0-2.9-1-2.9-2.9c0,0,0-11,0-20.2c1.6-0.4,3.2-0.8,4.8-1.2v17.7h6.4V36.5c2.8-0.7,4.8-1.2,4.8-1.2
					s0,20.3,0,20.7h6.3V26.8c-0.3,0.1-6.8,1.8-11.1,2.9V23z M284.3,33.8h-19.8c0,0.3,0,14.9,0,14.9c0,2.7-0.2,12-2.6,20.3h6.8
					c1.1-2.9,1.9-9.7,2.3-15.2l0-0.4c0,0,13,0,13.3,0V33.8z M278.3,47.8h-7.2v-8h7.2V47.8z M294.3,30.5h0.4c2.3,0,10.3-0.3,14-1.3
					c0-0.2,0-5.9,0-6.3c-8.8,1.4-11.5,1.4-20.1,1.4c0,0-0.8,0-1.1,0c0,0.3,0,17.5,0,17.5c0,7.8-0.9,19.5-3.4,27.2h6.9
					c1.7-4.5,3.1-19.9,3.3-26h5.4v26h6.6v-26c2.2,0,3.8,0,3.8,0v-6.2c0,0-12.1,0-15.8,0V30.5z"/>
			</g>
			<g>
				<path d="M323.2,69.1h-2.4V24.6h7.3v37.2c14.3-1.8,23.4-9.3,26.8-23.1h7.6C359,55,347.8,68.2,323.2,69.1z"/>
				<path d="M474,33.4v-7.2c6.9,0.5,15.1,1.6,22.4,3v7.5C489,35.1,481,33.9,474,33.4z M474.6,69.1v-7c18.7-1.5,31.4-7.2,33.8-28.5
					h7.6C513.7,58.6,498.7,68.1,474.6,69.1z"/>
				<path d="M548.3,52.6c-7.5,8.4-17.3,13.7-26.4,16v-7.1c12.2-3.6,25.1-14.9,29.4-30.4h-26.9v-6.7h35.8c-0.9,8.1-3.5,15.9-7.1,21.7
					c3.2,7.4,8.8,12.2,13.8,15.3v7.7C558.7,65.8,552.3,59.6,548.3,52.6z"/>
			</g>
			<path d="M369.9,47v-6.7c6.9,0.2,16.1,0.9,22.8,2v6.8C385.7,48.1,376.3,47.2,369.9,47z M370.4,31.9v-6.6c6.9,0.2,15.8,1,22.8,2V34
				C386.3,33.1,377,32.1,370.4,31.9z M371.2,69.1v-6.9c22.2-0.8,32.9-8.4,35.1-29.2h7.5C411.6,59.2,395.8,68.7,371.2,69.1z
				 M401.7,30.8V23h4.5v7.8H401.7z M408.4,30.8V23h4.5v7.8H408.4z"/>
			<path d="M450.8,44.9c-1.9,14.9-12.2,22.4-25.4,24.1v-6.8c10.4-1.7,16.4-8.3,17.5-17.3h-22.4v-6.5h46.2v6.5H450.8z M463.4,28.4
				v2.8h-39.6v-6.6h32.2v-3.9h4.4v3.9h2.2v-3.9h4.5v7.8H463.4z"/>
		</g>
	</g>
</g>
<g id="guide" class="st1">
	<g class="st2">
		<rect x="0" class="st3" width="566.9" height="69.1"/>
		<g>
			<g>
				<line class="st3" x1="-34" y1="69.1" x2="-8.5" y2="69.1"/>
				<line class="st3" x1="0" y1="103.1" x2="0" y2="77.6"/>
				<line class="st3" x1="13.3" y1="-8.5" x2="13.3" y2="-24.2"/>
				<line class="st3" x1="13.3" y1="95.3" x2="13.3" y2="77.5"/>
				<line class="st3" x1="98.1" y1="-8.5" x2="98.1" y2="-24.2"/>
				<line class="st3" x1="98.1" y1="95.3" x2="98.1" y2="77.5"/>
			</g>
			<g>
				<line class="st3" x1="-34" y1="0" x2="-8.5" y2="0"/>
				<line class="st3" x1="0" y1="-34" x2="0" y2="-8.5"/>
			</g>
			<g>
				<line class="st3" x1="600.9" y1="0" x2="575.4" y2="0"/>
				<line class="st3" x1="566.9" y1="-34" x2="566.9" y2="-8.5"/>
			</g>
			<g>
				<line class="st3" x1="600.9" y1="69.1" x2="575.4" y2="69.1"/>
				<line class="st3" x1="566.9" y1="103.1" x2="566.9" y2="77.6"/>
			</g>
			<g>
				<line class="st3" x1="283.5" y1="-36" x2="283.5" y2="-12"/>
			</g>
			<g>
				<line class="st3" x1="283.5" y1="105.1" x2="283.5" y2="81.1"/>
			</g>
		</g>
	</g>
</g>
</svg>
