<?xml version="1.0" encoding="utf-8"?>
<!-- Generator: Adobe Illustrator 25.0.0, SVG Export Plug-In . SVG Version: 6.00 Build 0)  -->
<svg version="1.1" xmlns="http://www.w3.org/2000/svg" xmlns:xlink="http://www.w3.org/1999/xlink" x="0px" y="0px" width="764.8px"
	 height="145.9px" viewBox="0 0 764.8 145.9" style="enable-background:new 0 0 764.8 145.9;" xml:space="preserve">
<style type="text/css">
	.st0{display:none;}
	.st1{display:inline;}
	.st2{fill:#2A78B3;}
	.st3{fill:none;stroke:#2A78B3;stroke-width:0.3;}
	.st4{fill:none;stroke:#2A78B3;stroke-width:0.3;stroke-dasharray:4.3236,4.3236;}
	.st5{fill:none;stroke:#2A78B3;stroke-width:0.3;stroke-dasharray:4.4528,4.4528;}
	.st6{display:inline;fill:none;stroke:#2A78B3;stroke-width:0.3;}
	.st7{fill:#FFFFFF;}
</style>
<g id="レイヤー_2" class="st0">
	<g class="st1">
		<g>
			<path class="st2" d="M333.2-62.7h-1.4v0.6c0.1,0,0.5,0.1,0.8,0.3c0.1,0.1,0.4,0.3,0.4,0.6c0,0.2-0.1,0.3-0.2,0.3
				c-0.1,0-0.2-0.1-0.2-0.1c-0.4-0.6-0.5-0.7-0.8-0.9v0.9c0,0.2,0,1.8,0,2.6c0,0,0,0.1,0,0.2c0,0.2-0.2,0.3-0.3,0.3
				c-0.2,0-0.2-0.1-0.2-0.2c0-0.1,0-0.7,0-0.8c0-0.5,0-0.8,0.1-2.7c-0.5,0.9-1.1,1.7-1.9,2.2l-0.1,0c0.8-0.8,1.6-2.2,1.9-3.2h-0.6
				c-0.3,0-0.7,0-1,0.1l-0.2-0.3c0.6,0,1.2,0.1,1.3,0.1h0.5l0-1.4c-0.5,0.1-0.9,0.2-1.7,0.2v-0.1c0.7-0.2,1.4-0.5,1.9-0.7
				c0.4-0.2,0.6-0.3,0.8-0.5l0.5,0.5c0,0,0,0.1,0,0.1c0,0.1,0,0.1-0.1,0.1c0,0-0.2,0-0.3-0.1c-0.2,0.1-0.4,0.2-0.7,0.2
				c0,1,0,1.1,0,1.5h0.6l0.2-0.3c0.1-0.1,0.1-0.1,0.1-0.1c0,0,0.1,0.1,0.1,0.1l0.3,0.3c0,0,0.1,0.1,0.1,0.1
				C333.3-62.7,333.2-62.7,333.2-62.7z M336.6-63.9c0,0-0.2,0.1-0.2,0.2c0,1.5,0,2.5,0.1,3.6c0,0.3,0.1,0.9,0.1,1.2
				c0,0.1,0,0.2-0.2,0.3c-0.1,0-0.2,0-0.2,0c-0.2,0-0.2-0.1-0.2-0.3v-0.3H334c0,0.1,0,0.5,0,0.6c0,0.1-0.2,0.2-0.3,0.2
				c-0.1,0-0.2,0-0.2-0.2c0,0,0-0.2,0-0.3c0-0.1,0.1-0.8,0.1-2.5c0-0.9,0-2.3,0-3.2l0.6,0.4h1.6l0.3-0.3c0,0,0.1-0.1,0.1-0.1
				c0,0,0.1,0,0.1,0l0.4,0.3c0,0,0.1,0,0.1,0.1C336.7-64,336.6-63.9,336.6-63.9z M336-63.9H334v4.6h1.9V-63.9z"/>
			<path class="st2" d="M344.4-58.2c-1.2-0.3-2.2-0.8-2.9-1.6c0,0.1-0.1,0.1-0.1,0.2c-0.9,0.9-2.1,1.5-3.4,1.7v-0.1
				c2-0.6,2.8-1.6,3.2-2.1c-0.7-0.9-1.1-2-1.2-3.3h-1c-0.3,0-0.7,0-1,0.1l-0.2-0.3c0.6,0,1.2,0.1,1.3,0.1h2c0-1.1,0-1.2-0.2-1.7
				l0.8,0.2c0.1,0,0.1,0,0.1,0.1c0,0.1,0,0.1-0.1,0.2c-0.1,0.1-0.1,0.1-0.2,0.1c0,0.2,0,0.8,0,1.1h2.4l0.3-0.4c0,0,0.1-0.1,0.1-0.1
				c0,0,0.1,0.1,0.1,0.1l0.4,0.4c0,0,0.1,0.1,0.1,0.1c0,0.1-0.1,0.1-0.1,0.1h-2.3l0.5,0.2c0,0,0.1,0.1,0.1,0.1
				c0,0.1-0.2,0.2-0.4,0.2c-0.2,1-0.5,1.9-1.1,2.8c1.3,1.2,2.9,1.3,3.3,1.3v0.1C344.9-58.8,344.6-58.7,344.4-58.2z M340.2-63.5
				c0.1,1.1,0.5,2.1,1.2,3c0.9-1.3,1-2.7,1-3H340.2z"/>
			<path class="st2" d="M346.8-63.9c0.2,0,0.3,0.1,0.6,0.2c0.1,0.1,0.2,0.1,0.4,0.1c0.1,0,2.5-0.2,2.8-0.2c0.3,0,0.4-0.1,0.5-0.2
				c0.1-0.1,0.1-0.1,0.1-0.1c0.1,0,0.6,0.4,0.6,0.5c0,0,0,0,0,0.1c0,0.1,0,0.1-0.2,0.2c-0.1,0.1-0.2,0.1-0.3,0.6
				c-0.1,1-0.2,1.1-0.4,2.1c0,0,0,0,0,0.1c0,0.1,0,0.1,0.2,0.2c0.1,0.1,0.2,0.2,0.2,0.3c0,0.1-0.1,0.1-0.2,0.1c0,0-0.1,0-0.1,0
				c-0.4-0.1-0.6-0.1-1.3-0.1c-0.4,0-1.9,0.1-2.2,0.1c0,0.2,0,0.4-0.2,0.4c-0.3,0-0.3-0.6-0.3-0.6c0-0.1,0-0.5,0-0.5
				c0-0.8-0.1-2.4-0.2-2.8c-0.1-0.3-0.2-0.3-0.5-0.5C346.6-63.8,346.7-63.9,346.8-63.9z M347.6-60.3c0,0,0,0.1,0,0.1
				c0.4,0,2.1-0.1,2.5-0.1c0.2,0,0.4,0,0.6,0c0-0.5,0.3-2.7,0.3-3c0-0.2-0.1-0.2-0.2-0.2h0c-1.6,0-1.6,0.1-2.4,0.2c0,0-0.5,0-0.5,0
				c-0.1,0-0.1,0-0.2,0c-0.1,0-0.2-0.1-0.2-0.1c-0.1,0-0.1,0.1-0.1,0.1l0.1,1.6L347.6-60.3z"/>
			<path class="st2" d="M354.8-63.4c0.3,0,3.2-0.2,3.3-0.3c0,0,0.2-0.2,0.3-0.2c0.1,0,0.6,0.4,0.6,0.6c0,0.1,0,0.1-0.2,0.2
				c-0.1,0.1-0.2,0.2-0.2,0.3c-0.1,0.6-0.4,2-0.5,2.5c0.3,0.1,0.4,0.2,0.4,0.3c0,0.2-0.2,0.2-0.2,0.2c0,0-0.6,0-0.7,0
				c-0.2,0-2.2,0-2.9,0.2c0,0-0.2,0.1-0.3,0.1c-0.2,0-0.6-0.6-0.6-0.8c0-0.1,0-0.2,0.1-0.3c0.2,0.3,0.4,0.5,0.7,0.5
				c0.2,0,0.9-0.1,1.1-0.1c0.3,0,1.8-0.1,1.9-0.1c0.1-0.7,0.3-1.8,0.4-2.8c0,0,0-0.1,0-0.2c0-0.1,0-0.1-0.1-0.1
				c-0.6,0-2.7,0.2-3.1,0.3c0,0-0.4,0.1-0.4,0.1c-0.1,0-0.6-0.4-0.6-0.7c0-0.1,0-0.2,0.1-0.4C354.5-63.4,354.7-63.4,354.8-63.4z
				 M359.6-63.8c0,0.1-0.1,0.2-0.2,0.2c-0.1,0-0.1,0-0.4-0.3c-0.2-0.2-0.5-0.4-0.9-0.7C359-64.6,359.6-64.2,359.6-63.8z M360.3-64.4
				c0,0.2-0.1,0.2-0.2,0.2c-0.1,0-0.1,0-0.4-0.3c-0.2-0.2-0.5-0.4-0.8-0.6C359.6-65.1,360.3-64.8,360.3-64.4z"/>
			<path class="st2" d="M361-61.3c1.3-1.3,2-2.7,2-3c0-0.3-0.3-0.4-0.5-0.5c0.1,0,0.2-0.1,0.3-0.1c0.5,0,0.9,0.4,0.9,0.6
				c0,0.1,0,0.1-0.2,0.3c0,0-0.1,0.1-0.2,0.3c0.1,0,0.1,0,0.4,0c0.4,0,0.9-0.1,1.3-0.2c0.1,0,0.1-0.1,0.3-0.2c0.1,0,0.1-0.1,0.1-0.1
				c0.1,0,0.2,0.1,0.3,0.2c0.3,0.2,0.3,0.3,0.3,0.3c0,0.1-0.1,0.1-0.2,0.2c-0.2,0.1-0.3,0.2-0.5,0.6c-0.6,1.3-1.4,2.3-2.1,2.9
				c-0.9,0.8-1.8,1.1-2.1,1.2l0-0.1c1.8-1.1,2.5-2,2.8-2.4c-0.1,0-0.2-0.1-0.3-0.2c-0.5-0.5-0.6-0.7-1.2-1
				C361.8-61.6,361.3-61.4,361-61.3L361-61.3z M365.1-63.5c-0.2,0-1.3,0.2-1.6,0.2c-0.1,0-0.3-0.1-0.4-0.1c-0.2,0.3-0.5,0.7-0.6,0.8
				c-0.1,0.1-0.1,0.2-0.2,0.2c0.5,0.1,1.6,0.4,1.6,1.1C364.3-61.7,364.7-62.4,365.1-63.5z"/>
			<path class="st2" d="M367.1-60.6c1.9-1.4,3.4-2.8,4.1-3.7c0.1-0.2,0.1-0.3,0.1-0.3c0-0.1,0-0.1-0.1-0.2c0,0-0.3-0.2-0.3-0.2
				c0.1,0,0.2-0.1,0.3-0.1c0.3,0,0.6,0.2,0.8,0.4c0.1,0.1,0.1,0.2,0.1,0.3c0,0.1,0,0.1-0.2,0.2c-0.1,0-0.2,0.1-0.4,0.3
				c-0.9,0.9-1,1-1.3,1.2c0.2,0.1,0.4,0.2,0.4,0.3c0,0-0.1,0.2-0.1,0.2c0,0.1,0,0.2,0,0.5v2.7c0,0.3,0,0.5-0.2,0.5
				c-0.3,0-0.4-0.5-0.4-0.5c0-0.1,0.1-0.3,0.1-0.4c0.1-0.3,0.1-1.1,0.1-1.5c0-0.2-0.1-1.4-0.1-1.5c0-0.1,0-0.1-0.1-0.2
				C369.1-61.7,368.2-61,367.1-60.6L367.1-60.6z"/>
			<path class="st2" d="M375.1-58.6c1.1-0.6,2-1.6,2.3-2c0.7-1,1-2,1.2-2.8c-1.7,0.1-3.3,0.4-3.5,0.4c-0.1,0.1-0.2,0.1-0.2,0.1
				c-0.1,0-0.1,0.1-0.2,0.1c-0.1,0-0.2-0.2-0.3-0.2c-0.1-0.1-0.3-0.3-0.3-0.6c0-0.1,0-0.1,0-0.2c0.2,0.2,0.4,0.4,0.4,0.4
				c0.1,0.1,0.2,0.1,0.4,0.1c0.3,0,3.4-0.3,3.5-0.3c0.1,0,0.3-0.2,0.3-0.2c0.1,0,0.6,0.4,0.6,0.6c0,0.1,0,0.1-0.3,0.2
				c-0.2,0.1-0.2,0.1-0.3,0.4c-0.5,1.4-0.9,2.1-1.7,2.9C376.6-59.2,375.9-58.8,375.1-58.6L375.1-58.6z M380.1-63.7
				c-0.4,0-0.8-0.3-0.8-0.8c0-0.4,0.3-0.8,0.8-0.8c0.4,0,0.8,0.3,0.8,0.8C380.8-64,380.5-63.7,380.1-63.7z M380.1-64.9
				c-0.3,0-0.5,0.2-0.5,0.5c0,0.3,0.2,0.5,0.5,0.5c0.3,0,0.5-0.2,0.5-0.5C380.6-64.7,380.3-64.9,380.1-64.9z"/>
			<path class="st2" d="M384.4-57.8c-0.4-0.3-1.9-1.7-1.9-3.9c0-2.2,1.5-3.5,1.9-3.9l0.1,0.1c-1.3,1.4-1.6,2.8-1.6,3.8
				c0,0.9,0.3,2.4,1.6,3.8L384.4-57.8z"/>
			<path class="st2" d="M386-59.4c0.5-0.3,1-0.8,1.5-1.2c0.6-0.6,1.2-1.3,1.6-2.1c-0.6,0.1-1.7,0.2-2.1,0.4c-0.1,0-0.1,0.1-0.2,0.1
				c-0.3,0-0.7-0.4-0.7-0.7c0-0.1,0-0.1,0-0.3c0.3,0.4,0.3,0.5,0.7,0.5c0.3,0,2-0.2,2.4-0.2c0-0.1,0-0.7,0-0.9
				c0-0.5-0.1-0.7-0.2-0.7c0,0-0.4-0.2-0.5-0.2c0.1-0.1,0.3-0.1,0.5-0.1c0.4,0,0.8,0.3,0.8,0.4c0,0-0.1,0.2-0.1,0.3
				c-0.1,0.3-0.1,0.8-0.1,1.2c0.9-0.1,1-0.1,1.1-0.1c0.1,0,0.4-0.1,0.4-0.1c0.2,0,0.7,0.1,0.7,0.3c0,0,0,0.2-0.2,0.2
				c0,0-0.1,0-0.1,0c-0.3,0-0.7-0.1-1.1-0.1c-0.3,0-0.6,0-0.9,0c0,1.4,0,1.4,0,1.9c0,0.2,0,1,0,1.2c0,0.7-0.2,1.1-0.4,1.1
				c-0.1,0-0.2-0.1-0.2-0.2c0-0.1-0.1-0.2-0.2-0.4c-0.2-0.2-0.4-0.4-0.7-0.6l0,0c0.4,0.1,0.4,0.1,0.8,0.3c0.1,0,0.1,0,0.2,0
				c0.1,0,0.1,0,0.1-0.5c0-1.1,0-1.7,0-2.2C388.8-61.3,387.5-59.8,386-59.4L386-59.4z"/>
			<path class="st2" d="M394.6-61.7v0.3c0,0.1,0,0.5-0.2,0.5c-0.2,0-0.3-0.4-0.3-0.6c0-0.1,0-0.1,0-0.4c0-0.1,0-0.2,0-0.8
				c0-0.2,0-0.9-0.1-1.1c-0.1-0.1-0.1-0.2-0.5-0.3c0.2-0.1,0.3-0.2,0.4-0.2c0.1,0,0.7,0.1,0.7,0.3c0,0-0.1,0.3-0.1,0.3
				c0,0.3-0.1,1.1-0.1,1.7V-61.7z M395.2-58.4c1.6-1.2,1.9-2.2,1.9-4.8c0-0.2,0-1-0.1-1.1c-0.1-0.2-0.5-0.2-0.6-0.2
				c0.1-0.1,0.2-0.2,0.5-0.2c0.2,0,0.7,0.1,0.8,0.2c0.1,0,0.1,0.1,0.1,0.1c0,0.1-0.1,0.3-0.1,0.4c0,0.1,0,0.3,0,0.5
				c0,2-0.1,2.2-0.2,3C397.2-60.2,396.8-58.8,395.2-58.4L395.2-58.4z"/>
			<path class="st2" d="M400.4-62.8c0.4,0,1,0,1.2,0.2c0.2,0.2,0.4,0.4,0.4,0.6c0,0.1,0,0.2-0.2,0.2c-0.1,0-0.7-0.4-0.8-0.5
				c-0.3-0.2-0.6-0.3-1-0.4C400.1-62.8,400.2-62.8,400.4-62.8z M406-63c-1,1.6-2.3,3-4,3.9c-0.1,0.1-0.1,0.1-0.2,0.2
				c-0.1,0.1-0.2,0.2-0.2,0.2s-0.4-0.2-0.5-0.4c-0.2-0.2-0.2-0.4-0.2-0.8c0.4,0.4,0.5,0.5,0.6,0.5C401.8-59.4,403.8-60.6,406-63
				L406-63z M401.2-64.6c0.4,0,1.1,0.1,1.3,0.4c0.1,0.1,0.2,0.3,0.2,0.5c0,0.1,0,0.2-0.2,0.2c-0.1,0-0.1,0-0.5-0.3
				c-0.4-0.4-0.7-0.5-1.2-0.7C401.1-64.6,401.1-64.6,401.2-64.6z M405.3-64.1c0.1,0.1,0.3,0.2,0.3,0.5c0,0.2-0.1,0.2-0.2,0.2
				c-0.1,0-0.1,0-0.3-0.2c-0.4-0.5-0.7-0.7-0.8-0.8C404.5-64.4,404.8-64.4,405.3-64.1z M406.4-64.4c0,0.1-0.1,0.2-0.2,0.2
				c-0.1,0-0.1,0-0.3-0.2c-0.2-0.2-0.5-0.4-0.9-0.6C406-65.1,406.4-64.6,406.4-64.4z"/>
			<path class="st2" d="M408.7-58.3c1.6-1,1.8-2.6,1.9-4.1c-0.4,0.1-1.7,0.2-2,0.4c-0.1,0.1-0.2,0.1-0.2,0.1c-0.2,0-0.7-0.3-0.7-0.8
				c0-0.1,0-0.1,0-0.2c0.2,0.4,0.4,0.5,0.8,0.5c0.2,0,1.8-0.2,2.2-0.2c0-0.2,0-0.4,0-0.7c0-1.1-0.1-1.1-0.7-1.3
				c0.2-0.1,0.4-0.1,0.5-0.1c0.2,0,0.8,0.2,0.8,0.4c0,0.1,0,0.1-0.1,0.2c0,0.1-0.1,0.3-0.1,0.3c0,0.6,0,0.6-0.1,1.1
				c0.3,0,1.4-0.1,1.6-0.1c0,0,0.3-0.1,0.3-0.1c0.1,0,0.5,0.1,0.7,0.2c0.1,0,0.1,0.1,0.1,0.2c0,0,0,0.2-0.2,0.2c0,0-0.1,0-0.1,0
				c-1-0.2-1.1-0.2-1.5-0.2c-0.4,0-0.8,0-0.9,0C410.9-61.1,410.8-58.9,408.7-58.3L408.7-58.3z"/>
			<path class="st2" d="M414.6-58.9c0.5-0.4,0.9-1,1.1-1.5c0.4-0.9,0.4-1.6,0.4-2.3c0-0.7,0-0.7-0.6-0.9c0.1-0.1,0.2-0.2,0.4-0.2
				c0.2,0,0.7,0.2,0.7,0.4c0,0-0.1,0.3-0.1,0.3c0,0.1,0,0.7,0,0.8c0,0.8-0.2,1.7-0.8,2.6C415.5-59.4,415.1-59,414.6-58.9L414.6-58.9
				z M421.1-62.6c-0.4,1.1-1.3,2-2.2,2.7c-0.1,0.1-0.5,0.4-0.6,0.4c-0.2,0.3-0.2,0.3-0.3,0.3c-0.2,0-0.5-0.6-0.5-0.7
				c0,0,0.1-0.3,0.1-0.3c0.1-0.3,0.1-0.7,0.1-1.8c0-0.3,0-1.6,0-1.8c0-0.2-0.1-0.3-0.5-0.5c0.1,0,0.2-0.1,0.4-0.1
				c0.2,0,0.5,0.2,0.7,0.3c0,0,0.1,0.1,0.1,0.2c0,0-0.1,0.2-0.1,0.3c0,0.1-0.1,0.3-0.1,0.6c0,0.5,0,2.3,0,2.9c0,0.1,0,0.1,0,0.1
				C418.2-60,419.6-60.7,421.1-62.6L421.1-62.6z"/>
			<path class="st2" d="M429.2-63.5h-1.7c0,0.1,0,0.7,0,0.7c0,0.2-0.2,0.3-0.3,0.3c-0.1,0-0.1,0-0.1-0.2h-1.4v0.6h1.8l0.1-0.2
				c0,0,0.1-0.1,0.1-0.1c0,0,0.1,0,0.2,0.1l0.3,0.2c0.1,0.1,0.1,0.1,0.1,0.1c0,0.1-0.1,0.1-0.1,0.1h-2.5v0.6h2.7l0.2-0.3
				c0,0,0.1-0.1,0.1-0.1c0,0,0.1,0,0.2,0.1l0.3,0.3c0,0,0.1,0.1,0.1,0.1c0,0.1-0.1,0.1-0.1,0.1h-6c-0.2,0-0.7,0-1,0.1l-0.2-0.3
				c0.4,0,0.9,0.1,1.3,0.1h2v-0.6H424c-0.3,0-0.7,0-1,0.1l-0.2-0.3c0.4,0,0.9,0.1,1.3,0.1h1.1v-0.6h-1.3c-0.3,0-0.7,0-1,0.1
				l-0.2-0.3c0.4,0,0.9,0.1,1.3,0.1h1.2c0-0.3,0-0.4,0-0.6h-2c-0.2,0-0.7,0-1,0.1l-0.2-0.3c0.4,0,0.9,0.1,1.3,0.1h1.9l0-0.6H424
				c-0.3,0-0.7,0-1,0.1l-0.2-0.3c0.4,0,0.9,0.1,1.3,0.1h1.1c0-0.5,0-0.6-0.2-0.9l0.8,0.2c0,0,0.1,0,0.1,0.1c0,0.1-0.2,0.2-0.3,0.2
				c0,0.1,0,0.2,0,0.4h1.4l0.1-0.2c0,0,0.1-0.1,0.1-0.1c0,0,0.1,0,0.2,0.1l0.3,0.2c0.1,0,0.1,0.1,0.1,0.1c0,0.1-0.2,0.2-0.3,0.3
				c0,0,0,0.3,0,0.4h0.9l0.2-0.3c0.1-0.1,0.1-0.1,0.1-0.1c0,0,0.1,0.1,0.2,0.1l0.3,0.3c0,0,0.1,0.1,0.1,0.1
				C429.3-63.5,429.2-63.5,429.2-63.5z M427.7-60.2c0,0.1,0,1.2,0,1.5c0,0.1,0,0.2,0,0.3c0,0.2-0.2,0.3-0.3,0.3
				c-0.2,0-0.2-0.2-0.1-0.3h-3.5c0,0,0,0.1,0,0.1c0,0,0,0.3-0.3,0.3c-0.1,0-0.2,0-0.2-0.2c0-0.1,0-0.4,0-0.5c0-0.2,0-0.6,0-1
				c0-0.5,0-0.5-0.1-1.1l0.6,0.3h3.4l0.2-0.2c0,0,0.1-0.1,0.1-0.1c0,0,0.1,0,0.1,0.1l0.3,0.2c0,0,0.1,0.1,0.1,0.1
				C427.9-60.4,427.8-60.2,427.7-60.2z M427.2-60.4h-3.5v0.7h3.5V-60.4z M427.2-59.4h-3.5v0.8h3.5V-59.4z M427.1-63.5h-1.4
				c0,0.3,0,0.3,0,0.6h1.5V-63.5z M427.1-64.3h-1.4v0.6h1.4V-64.3z"/>
			<path class="st2" d="M432.6-64.8c-0.1,0.2-0.3,0.7-0.7,1.4l0.2,0.1c0,0,0.1,0.1,0.1,0.1c0,0,0,0.1,0,0.1l-0.2,0.2
				c0,0.3,0,1.8,0,2.1c0,0.1,0,2.2,0,2.4c0,0.1,0,0.2-0.1,0.3c-0.1,0.1-0.2,0.1-0.3,0.1c-0.2,0-0.2-0.2-0.2-0.2c0-0.1,0-0.7,0-0.9
				c0-0.4,0-2,0.1-3.8c-0.2,0.2-0.5,0.6-0.9,1.1c-0.3,0.3-0.5,0.5-0.6,0.5l0-0.1c1-1.3,1.4-2.2,1.9-3.4c0.2-0.5,0.2-0.6,0.2-0.7
				l0.7,0.4c0,0,0.1,0,0.1,0.1C433-64.9,432.8-64.8,432.6-64.8z M437-59.7c-1.1-0.9-1.9-2.6-2.1-3.3c0,0.5,0,0.6,0,2.2
				c0,0.1,0,0.8,0,0.9h0.6l0.2-0.3c0-0.1,0.1-0.1,0.1-0.1c0.1,0,0.1,0,0.2,0.1l0.3,0.3c0,0,0.1,0.1,0.1,0.1c0,0.1,0,0.1-0.1,0.1
				h-1.3c0,0.1,0,1.4,0,1.4c0,0.1,0,0.2-0.1,0.2c-0.1,0.1-0.2,0.1-0.3,0.1c-0.2,0-0.2-0.1-0.2-0.2c0,0,0-0.4,0-0.6c0-0.2,0-0.8,0-1
				h-0.2c-0.3,0-0.7,0-1,0.1l-0.2-0.3c0.6,0,1.1,0.1,1.4,0.1c0-0.2,0-0.8,0-1c0-0.3,0-1.4,0-1.7c-0.1,0.2-1,2.1-2.4,2.8l0,0
				c0.6-0.6,1.6-1.8,2.2-3.6h-0.7c-0.2,0-0.7,0-1,0.1l-0.2-0.3c0.4,0,0.9,0.1,1.3,0.1h0.7c0-0.6,0-1,0-1.2c0-0.3,0-0.3-0.1-0.5
				l0.7,0.2c0,0,0.1,0,0.1,0.1c0,0.1-0.2,0.2-0.3,0.2c0,0.5,0,0.7,0,1.2h1.5l0.3-0.3c0,0,0.1-0.1,0.1-0.1c0,0,0.1,0,0.1,0.1l0.4,0.3
				c0,0,0.1,0.1,0.1,0.1c0,0.1-0.1,0.1-0.1,0.1h-2.5c0.4,1.5,1.7,3,2.8,3.3v0C437.6-60.1,437.2-60,437-59.7z"/>
			<path class="st2" d="M438.4-57.9c1.3-1.4,1.6-2.8,1.6-3.8c0-0.9-0.3-2.4-1.6-3.8l0.1-0.1c0.4,0.3,1.9,1.7,1.9,3.9
				c0,2.2-1.5,3.5-1.9,3.9L438.4-57.9z"/>
		</g>
	</g>
	<g class="st1">
		<g>
			<path class="st2" d="M799.2,71.8c0,0.9,0.6,1.3,1.1,1.4c0.3,0.1,0.6,0.1,1,0.1c1.1,0,1.6-0.1,2-0.2c0.1,0,0.2,0,0.3,0
				c0.2,0,0.4,0.1,0.4,0.3c0,0.1-0.2,0.2-0.3,0.2c-0.4,0.1-1.4,0.2-1.9,0.2c-1.7,0-2.9-0.3-2.9-1.6c0-0.6,0.2-0.7,0.3-0.8
				C799.2,71.5,799.2,71.6,799.2,71.8z M800.6,69.9c0.1-0.1,0.7-0.4,0.8-0.5c0.1-0.1,0.3-0.2,0.3-0.2c0,0-0.1-0.1-0.1-0.1
				c-1.1-0.2-1.9-0.3-1.9-1c0.7,0.6,1.7,0.6,1.9,0.6c1.2,0,1.2,0,1.5,0.2c0.2,0.1,0.2,0.2,0.2,0.3c0,0.2-0.1,0.2-0.5,0.2
				c-0.3,0-0.7,0-1,0.1C801.6,69.6,800.8,69.9,800.6,69.9L800.6,69.9z"/>
			<path class="st2" d="M808.8,73.9c2.4-0.8,2.5-2.5,2.5-3c0-1.4-1.3-2.2-2.5-2.2c-0.2,0-0.2,0-0.3,0c0.4,0.3,0.4,0.6,0.4,0.6
				c0,0.1,0,0.1-0.2,0.5c-1,2-1.1,2.2-1.5,2.9c0,0.1-0.3,0.4-0.5,0.5c0,0-0.1,0-0.2,0c-0.2,0-0.2-0.1-0.5-0.4
				c-0.1-0.1-0.1-0.1-0.2-0.2c-0.3-0.3-0.4-0.5-0.4-1.1c0-1.6,1.4-3.1,3.4-3.1c1.5,0,2.9,0.8,2.9,2.5
				C811.8,72.5,810.6,73.8,808.8,73.9L808.8,73.9z M807.9,70.8c0.2-0.4,0.5-1.1,0.5-1.4c0-0.3-0.2-0.4-0.2-0.5
				c-0.9,0.1-2.2,1.3-2.2,2.8c0,0.6,0.4,1.1,0.7,1.1c0,0,0.1,0,0.2-0.1c0.2-0.2,0.3-0.4,0.5-0.7L807.9,70.8z"/>
			<path class="st2" d="M820,74.3h-5.8c-0.2,0-0.6,0-1,0.1l-0.2-0.3c0.4,0,0.9,0.1,1.3,0.1h2v-1.9H815c-0.2,0-0.6,0-1,0.1l-0.2-0.3
				c0.4,0,0.9,0.1,1.3,0.1h3.2l0.3-0.3c0.1-0.1,0.1-0.1,0.1-0.1c0,0,0.1,0.1,0.1,0.1l0.4,0.3c0,0,0.1,0.1,0.1,0.1
				c0,0.1-0.1,0.1-0.1,0.1h-2.4v1.9h2.3l0.3-0.3c0.1-0.1,0.1-0.1,0.1-0.1c0,0,0.1,0.1,0.2,0.1l0.4,0.3c0,0,0.1,0.1,0.1,0.1
				C820.1,74.3,820,74.3,820,74.3z M819.7,70.9c-0.4,0.1-1.4,0.1-1.8,0.1c-0.7,0-0.9,0-1-0.4c0-0.1,0-1.6,0-1.8h-2.8
				c0,0.2-0.1,0.3-0.2,0.5c-0.2,0.2-0.4,0.3-0.5,0.3c-0.2,0-0.3-0.1-0.3-0.2c0-0.2,0.1-0.3,0.4-0.5c0.4-0.2,0.4-0.5,0.4-0.7h0.1
				c0,0.1,0,0.1,0,0.4h2.2c0-0.7,0-0.9-0.1-1.1l0.6,0.2c0.1,0,0.2,0,0.2,0.1c0,0,0,0.1-0.1,0.1c0,0-0.2,0.1-0.2,0.1v0.6h2l0.3-0.2
				c0.1,0,0.1-0.1,0.2-0.1c0,0,0.1,0,0.1,0.1l0.4,0.4c0.1,0.1,0.1,0.1,0.1,0.1c0,0.2-0.2,0.2-0.5,0.2c-0.1,0.1-0.6,0.4-0.7,0.5l0,0
				c0.1-0.3,0.1-0.4,0.2-0.7h-1.5v0.9c0,0.7,0,0.8,0,0.8c0,0,0.1,0.1,0.1,0.1c0,0,0.3,0,0.7,0c0.5,0,0.8,0,1-0.1
				c0.2-0.1,0.3-0.2,0.5-0.9h0.1c0,0.1,0.1,0.5,0.2,0.6c0,0.1,0.1,0.1,0.2,0.2c0,0,0.1,0.1,0.1,0.2
				C820.2,70.7,819.9,70.9,819.7,70.9z M815.9,69.5c-0.5,0.9-1,1.6-2.6,2l0-0.1c1.1-0.4,2-1.3,2.3-2.6l0.6,0.3
				c0.1,0,0.1,0.1,0.1,0.1C816.2,69.4,816.2,69.4,815.9,69.5z"/>
			<path class="st2" d="M826.1,73c-0.1,0-0.5-0.3-0.6-0.3c-0.5-0.2-1.4-0.4-2.1-0.4c-0.7,0-1.2,0.2-1.2,0.9c0,0.9,1.5,0.9,1.9,0.9
				c0.1,0,0.7,0,0.8,0c0.2,0,0.4,0.1,0.4,0.3c0,0.1,0,0.2-0.8,0.2c-0.3,0-1,0-1.5-0.2c-0.4-0.1-1.1-0.4-1.1-1.1
				c0-1.2,1.3-1.2,1.7-1.2c0.4,0,1.1,0.1,1.7,0.2c0,0,0.3,0.1,0.3,0.1c0,0,0.1,0,0.1-0.1c0,0,0-0.1-0.1-0.1
				c-0.2-0.3-0.6-0.9-0.9-1.4c-0.8,0.3-1.6,0.4-1.9,0.4c-0.4,0-0.8-0.2-0.9-0.6c0.4,0.2,0.5,0.2,0.9,0.2c0.4,0,1.1-0.1,1.8-0.4
				c-0.1-0.2-0.3-0.6-0.6-1.1c-0.4,0.1-0.9,0.2-1.1,0.2c-0.3,0-0.7-0.2-0.9-0.5c0.2,0.1,0.4,0.1,0.7,0.1c0.4,0,0.9-0.2,1.2-0.2
				c-0.1-0.1-0.3-0.8-0.4-0.9c-0.1-0.2-0.4-0.2-0.8-0.2c0.2-0.2,0.3-0.3,0.6-0.3c0.2,0,0.6,0.1,0.6,0.3c0,0.1,0,0.5,0.1,0.5
				c0,0.1,0.1,0.4,0.2,0.5c0.1,0,0.2-0.1,0.5-0.3c0.3-0.2,0.4-0.2,0.5-0.2c0.1,0,0.3,0.1,0.3,0.2c0,0.1-0.1,0.1-0.2,0.2
				c-0.5,0.2-0.6,0.3-0.9,0.4c0.1,0.3,0.3,0.6,0.6,1.1c0.3-0.1,0.4-0.2,0.7-0.4c0.2-0.1,0.2-0.1,0.4-0.1c0.2,0,0.3,0.1,0.3,0.2
				c0,0.1-0.1,0.2-0.2,0.2c-0.1,0.1-0.6,0.3-1,0.4c0.4,0.6,0.7,0.9,1,1.3c0.1,0.1,0.4,0.4,0.4,0.6C826.3,72.6,826.3,73,826.1,73z"/>
			<path class="st2" d="M828.8,69.4c0.2,0,0.4-0.1,1.3-0.3c1.2-0.3,3.6-0.8,3.7-0.8c0.1,0,0.6,0.1,0.6,0.4c0,0.2-0.2,0.2-0.3,0.2
				c-0.1,0-0.4,0-0.5,0c-0.9,0-1.3,0.2-1.8,0.6c-0.8,0.7-1.1,1.6-1.1,2.2c0,1.4,1.4,1.8,2,1.9c0.2,0,0.3,0.1,0.4,0.2
				c0.1,0.1,0.1,0.2,0.1,0.2c0,0.1-0.1,0.2-0.2,0.2c-0.8,0-2.7-0.6-2.7-2.4c0-1.4,1-2.2,1.9-2.9c-0.5,0.1-1.1,0.3-1.6,0.4
				c-1,0.2-1.3,0.4-1.7,0.6c0,0-0.1,0.1-0.2,0.1c-0.1,0-0.5-0.2-0.5-0.7c0-0.1,0-0.2,0.1-0.3C828.5,69.3,828.5,69.4,828.8,69.4z
				 M833.3,69.9c0.5,0.3,0.6,0.5,0.6,0.7c0,0.1,0,0.2-0.2,0.2c-0.1,0-0.1-0.1-0.2-0.2c-0.3-0.5-0.8-0.9-1-1.1
				C832.8,69.7,833.1,69.8,833.3,69.9z M834.9,70.3c0,0.2-0.1,0.2-0.1,0.2c-0.1,0-0.1-0.1-0.2-0.2c-0.3-0.4-0.7-0.7-1-1
				C834,69.5,834.9,69.8,834.9,70.3z"/>
			<path class="st2" d="M838.2,69.6h-1v1.5c0.5-0.2,0.7-0.3,0.8-0.4l0,0c-0.1,0.1-0.3,0.3-0.8,0.6c0,0.4,0,2.3,0,2.4
				c0,0.5-0.1,0.8-0.7,0.9c0-0.2,0-0.4-0.6-0.7l0,0c0.1,0,0.5,0,0.6,0c0.2,0,0.3,0,0.3-0.3v-2.1c-0.4,0.3-0.5,0.3-0.6,0.4
				c-0.1,0.2-0.1,0.3-0.2,0.3c0,0-0.1,0-0.1-0.1l-0.4-0.6c0.4,0,0.9-0.2,1.2-0.3l0-1.7c-0.1,0-0.5,0-0.9,0.1l-0.2-0.3
				c0.4,0,0.8,0,1.1,0.1c0-0.2,0-1.1,0-1.3c0-0.2,0-0.4-0.1-0.6l0.7,0.2c0,0,0.1,0,0.1,0.1c0,0.1-0.1,0.1-0.3,0.3v1.4h0.4l0.2-0.2
				c0,0,0.1-0.1,0.1-0.1c0.1,0,0.1,0,0.2,0.1l0.3,0.2c0,0,0.1,0.1,0.1,0.1C838.4,69.6,838.3,69.6,838.2,69.6z M840.2,70.6
				c0,0.3,0,1.5,0,1.7c0,0.1,0,0.6,0,0.9c0,0.2,0,0.6,0,0.6c0,0.2,0,0.4-0.2,0.5c-0.2,0.2-0.4,0.2-0.4,0.2c0-0.1-0.1-0.4-0.5-0.6v0
				c0.1,0,0.4,0,0.5,0c0.2,0,0.2-0.1,0.2-0.3v-1h-1.1v1.3c0,0.1,0,0.4,0,0.5c0,0.2-0.3,0.3-0.3,0.3c-0.1,0-0.1-0.1-0.1-0.2
				c0-0.1,0-0.8,0-0.9c0-1.8,0-1.8,0-2.2c0-0.9,0-1-0.1-1.4l0.5,0.2h1l0.2-0.2c0,0,0.1-0.1,0.1-0.1c0,0,0.1,0,0.1,0.1l0.3,0.2
				c0,0,0.1,0.1,0.1,0.1C840.4,70.4,840.3,70.5,840.2,70.6z M842.8,69.3h-3.2c-0.2,0-0.7,0-1,0.1l-0.2-0.3c0.4,0,0.9,0.1,1.3,0.1
				h0.9c0.1-0.3,0.3-0.6,0.3-0.9c0.1-0.3,0.1-0.4,0.1-0.6l0.7,0.3c0,0,0.1,0.1,0.1,0.1c0,0.1,0,0.1-0.1,0.1c0,0-0.2,0.1-0.3,0.1
				c-0.2,0.3-0.5,0.7-0.7,0.9h1.3l0.2-0.3c0-0.1,0.1-0.1,0.1-0.1c0,0,0.1,0,0.1,0.1l0.3,0.3c0,0,0.1,0.1,0.1,0.1
				C842.9,69.3,842.8,69.3,842.8,69.3z M839.8,70.4h-1.1v0.9h1.1V70.4z M839.8,71.5h-1.1v0.9h1.1V71.5z M839.5,69
				c-0.2,0-0.2-0.1-0.3-0.4c-0.1-0.3-0.2-0.5-0.4-0.8l0,0c0.2,0.1,1,0.4,1,0.9C839.8,68.9,839.7,69,839.5,69z M841.3,70.8
				c0,0.3,0,1.6,0,1.9c0,0.1,0,0.3,0,0.5c0,0,0,0.1,0,0.1c0,0.3-0.2,0.3-0.3,0.3c-0.1,0-0.1-0.1-0.1-0.2c0-0.1,0-1.6,0-2
				c0-0.6,0-0.9-0.1-1.2l0.6,0.2c0,0,0.1,0,0.1,0.1C841.5,70.6,841.5,70.6,841.3,70.8z M842.4,70.4c0,0.7,0,1.6,0,2.3
				c0,0.2,0,1,0,1.2c0,0.3,0,0.4-0.2,0.5c-0.2,0.2-0.4,0.3-0.5,0.3c0-0.1-0.1-0.4-0.6-0.6v0c0.5,0,0.7,0,0.8,0
				c0.1,0,0.1-0.1,0.1-0.3c0-0.7,0-1.7,0-2.4c0-1,0-1.2-0.1-1.5l0.6,0.2c0,0,0.1,0,0.1,0.1C842.6,70.2,842.5,70.3,842.4,70.4z"/>
			<path class="st2" d="M845.4,70.4c0.3,0,1.4-0.3,1.9-0.5c0.2-0.1,0.3-0.1,0.3-0.1c0.2,0,0.6,0.3,0.6,0.5c0,0.1,0,0.1-0.2,0.2
				c-0.3,0.2-0.8,0.5-2,1.8c0.1,0,0.2,0,0.4,0c0.6,0,0.8,0.3,0.8,0.7c0.2,0.7,0.3,0.9,1,0.9c0.3,0,0.6,0,0.8-0.1
				c0.1,0,0.4-0.1,0.5-0.1c0.1,0,0.4,0.1,0.4,0.3c0,0.1,0,0.1-0.1,0.2c-0.1,0.1-0.6,0.2-1.1,0.2c-1.4,0-1.6-0.3-1.8-1.1
				c-0.1-0.4-0.2-0.7-0.6-0.7c-0.4,0-0.5,0.2-1.1,1c-0.7,0.9-0.7,0.9-0.8,0.9c-0.2,0-0.2-0.3-0.2-0.3c0-0.3,0.1-0.3,0.3-0.5
				c0.3-0.2,0.4-0.4,1.8-1.8c0.2-0.2,1.1-1.2,1.2-1.3c0,0,0,0,0-0.1c0-0.1-0.1-0.1-0.2-0.1c-0.2,0-1,0.2-1.4,0.5
				c-0.1,0.1-0.2,0.1-0.3,0.1c-0.3,0-0.6-0.4-0.6-0.6c0,0,0.1-0.2,0.1-0.2C845,70.3,845.2,70.4,845.4,70.4z M846.2,69
				c0.3-0.2,0.3-0.2,0.6-0.4c0,0,0.1-0.1,0.1-0.1c0-0.1-0.1-0.2-0.3-0.3c-0.6-0.4-0.7-0.7-0.7-1c0.3,0.3,0.6,0.6,1.3,0.9
				c0.2,0.1,0.7,0.3,0.7,0.6c0,0.2-0.2,0.2-0.2,0.2c-0.1,0-0.4-0.1-0.5-0.1c-0.1,0-0.2,0-0.7,0.1C846.4,69,846.3,69,846.2,69
				L846.2,69z"/>
			<path class="st2" d="M852.9,68.5c0.2,0,1-0.2,1.5-0.3c0.1,0,0.4-0.1,0.4-0.1c0.2,0,0.5,0.3,0.5,0.5c0,0.1,0,0.1-0.2,0.2
				c-0.2,0.1-0.2,0.2-0.4,0.3c-0.2,0.3-1.3,1.6-1.5,1.8c-0.1,0.1-0.2,0.3-0.4,0.6c0.4-0.2,1.1-0.7,2-0.7c1.2,0,1.7,0.7,1.7,1.5
				c0,1.1-1,1.8-2.2,1.8c-0.7,0-1.5-0.3-1.5-0.9c0-0.5,0.5-0.7,0.8-0.7c0.7,0,1,0.4,1.2,1.1c0.8-0.1,1.2-0.8,1.2-1.4
				c0-0.8-0.6-1.2-1.4-1.2c-1.5,0-2.7,1.4-2.8,1.6c-0.2,0.3-0.3,0.5-0.5,0.5c-0.1,0-0.2-0.1-0.2-0.3c0-0.3,0.1-0.3,0.3-0.5
				c1.2-1.2,2.9-3.5,2.9-3.8c0-0.1-0.1-0.1-0.1-0.1c-0.1,0-0.9,0.2-1.2,0.4c-0.1,0.1-0.3,0.2-0.3,0.2c-0.2,0-0.7-0.3-0.7-0.7
				c0-0.1,0-0.1,0.1-0.2C852.4,68.4,852.6,68.5,852.9,68.5z M853.5,73c-0.2,0-0.4,0.1-0.4,0.3c0,0.4,0.9,0.6,1.1,0.6
				c0.1,0,0.1,0,0.3,0C854.4,73.3,853.9,73,853.5,73z"/>
		</g>
	</g>
	<g class="st1">
		<g>
			<path class="st2" d="M-6.4,156.8h-1v1.5c0.5-0.2,0.7-0.3,0.8-0.4l0,0c-0.1,0.1-0.3,0.3-0.8,0.6c0,0.4,0,2.3,0,2.4
				c0,0.5-0.1,0.8-0.7,0.9c0-0.2,0-0.4-0.6-0.7l0,0c0.1,0,0.5,0,0.6,0c0.2,0,0.3,0,0.3-0.3v-2.1c-0.4,0.3-0.5,0.3-0.6,0.4
				c-0.1,0.2-0.1,0.3-0.2,0.3c0,0-0.1,0-0.1-0.1l-0.4-0.6c0.4,0,0.9-0.2,1.2-0.3l0-1.7c-0.1,0-0.5,0-0.9,0.1l-0.2-0.3
				c0.4,0,0.8,0,1.1,0.1c0-0.2,0-1.1,0-1.3c0-0.2,0-0.4-0.1-0.6l0.7,0.2c0,0,0.1,0,0.1,0.1c0,0.1-0.1,0.1-0.3,0.3v1.4H-7l0.2-0.2
				c0,0,0.1-0.1,0.1-0.1c0.1,0,0.1,0,0.2,0.1l0.3,0.2c0,0,0.1,0.1,0.1,0.1C-6.3,156.8-6.3,156.8-6.4,156.8z M-4.4,157.8
				c0,0.3,0,1.5,0,1.7c0,0.1,0,0.6,0,0.9c0,0.2,0,0.6,0,0.6c0,0.2,0,0.4-0.2,0.5c-0.2,0.2-0.4,0.2-0.4,0.2c0-0.1-0.1-0.4-0.5-0.6v0
				c0.1,0,0.4,0,0.5,0c0.2,0,0.2-0.1,0.2-0.3v-1h-1.1v1.3c0,0.1,0,0.4,0,0.5c0,0.2-0.3,0.3-0.3,0.3c-0.1,0-0.1-0.1-0.1-0.2
				c0-0.1,0-0.8,0-0.9c0-1.8,0-1.8,0-2.2c0-0.9,0-1-0.1-1.4l0.5,0.2h1l0.2-0.2c0,0,0.1-0.1,0.1-0.1c0,0,0.1,0,0.1,0.1l0.3,0.2
				c0,0,0.1,0.1,0.1,0.1C-4.2,157.6-4.3,157.7-4.4,157.8z M-1.9,156.5h-3.2c-0.2,0-0.7,0-1,0.1l-0.2-0.3c0.4,0,0.9,0.1,1.3,0.1h0.9
				c0.1-0.3,0.3-0.6,0.3-0.9c0.1-0.3,0.1-0.4,0.1-0.6l0.7,0.3c0,0,0.1,0.1,0.1,0.1c0,0.1,0,0.1-0.1,0.1c0,0-0.2,0.1-0.3,0.1
				c-0.2,0.3-0.5,0.7-0.7,0.9h1.3l0.2-0.3c0-0.1,0.1-0.1,0.1-0.1c0,0,0.1,0,0.1,0.1l0.3,0.3c0,0,0.1,0.1,0.1,0.1
				C-1.7,156.5-1.8,156.5-1.9,156.5z M-4.8,157.6h-1.1v0.9h1.1V157.6z M-4.8,158.7h-1.1v0.9h1.1V158.7z M-5.1,156.2
				c-0.2,0-0.2-0.1-0.3-0.4c-0.1-0.3-0.2-0.5-0.4-0.8l0,0c0.2,0.1,1,0.4,1,0.9C-4.9,156.1-5,156.2-5.1,156.2z M-3.4,158
				c0,0.3,0,1.6,0,1.9c0,0.1,0,0.3,0,0.5c0,0,0,0.1,0,0.1c0,0.3-0.2,0.3-0.3,0.3c-0.1,0-0.1-0.1-0.1-0.2c0-0.1,0-1.6,0-2
				c0-0.6,0-0.9-0.1-1.2l0.6,0.2c0,0,0.1,0,0.1,0.1C-3.2,157.8-3.2,157.8-3.4,158z M-2.3,157.6c0,0.7,0,1.6,0,2.3c0,0.2,0,1,0,1.2
				c0,0.3,0,0.4-0.2,0.5c-0.2,0.2-0.4,0.3-0.5,0.3c0-0.1-0.1-0.4-0.6-0.6v0c0.5,0,0.7,0,0.8,0c0.1,0,0.1-0.1,0.1-0.3
				c0-0.7,0-1.7,0-2.4c0-1,0-1.2-0.1-1.5l0.6,0.2c0,0,0.1,0,0.1,0.1C-2,157.4-2.1,157.5-2.3,157.6z"/>
			<path class="st2" d="M0.8,157.6c0.3,0,1.4-0.3,1.9-0.5C2.9,157,2.9,157,3,157c0.2,0,0.6,0.3,0.6,0.5c0,0.1,0,0.1-0.2,0.2
				c-0.3,0.2-0.8,0.5-2,1.8c0.1,0,0.2,0,0.4,0c0.6,0,0.8,0.3,0.8,0.7c0.2,0.7,0.3,0.9,1,0.9c0.3,0,0.6,0,0.8-0.1
				c0.1,0,0.4-0.1,0.5-0.1c0.1,0,0.4,0.1,0.4,0.3c0,0.1,0,0.1-0.1,0.2c-0.1,0.1-0.6,0.2-1.1,0.2c-1.4,0-1.6-0.3-1.8-1.1
				c-0.1-0.4-0.2-0.7-0.6-0.7c-0.4,0-0.5,0.2-1.1,1c-0.7,0.9-0.7,0.9-0.8,0.9c-0.2,0-0.2-0.3-0.2-0.3c0-0.3,0.1-0.3,0.3-0.5
				c0.3-0.2,0.4-0.4,1.8-1.8c0.2-0.2,1.1-1.2,1.2-1.3c0,0,0,0,0-0.1c0-0.1-0.1-0.1-0.2-0.1c-0.2,0-1,0.2-1.4,0.5
				c-0.1,0.1-0.2,0.1-0.3,0.1c-0.3,0-0.6-0.4-0.6-0.6c0,0,0.1-0.2,0.1-0.2C0.4,157.5,0.6,157.6,0.8,157.6z M1.6,156.2
				c0.3-0.2,0.3-0.2,0.6-0.4c0,0,0.1-0.1,0.1-0.1c0-0.1-0.1-0.2-0.3-0.3c-0.6-0.4-0.7-0.7-0.7-1c0.3,0.3,0.6,0.6,1.3,0.9
				c0.2,0.1,0.7,0.3,0.7,0.6c0,0.2-0.2,0.2-0.2,0.2c-0.1,0-0.4-0.1-0.5-0.1c-0.1,0-0.2,0-0.7,0.1C1.7,156.2,1.7,156.2,1.6,156.2
				L1.6,156.2z"/>
			<path class="st2" d="M8.2,155.7c0.2,0,1-0.2,1.5-0.3c0.1,0,0.4-0.1,0.4-0.1c0.2,0,0.5,0.3,0.5,0.5c0,0.1,0,0.1-0.2,0.2
				c-0.2,0.1-0.2,0.2-0.4,0.3c-0.2,0.3-1.3,1.6-1.5,1.8c-0.1,0.1-0.2,0.3-0.4,0.6c0.4-0.2,1.1-0.7,2-0.7c1.2,0,1.7,0.7,1.7,1.5
				c0,1.1-1,1.8-2.2,1.8c-0.7,0-1.5-0.3-1.5-0.9c0-0.5,0.5-0.7,0.8-0.7c0.7,0,1,0.4,1.2,1.1c0.8-0.1,1.2-0.8,1.2-1.4
				c0-0.8-0.6-1.2-1.4-1.2c-1.5,0-2.7,1.4-2.8,1.6c-0.2,0.3-0.3,0.5-0.5,0.5c-0.1,0-0.2-0.1-0.2-0.3c0-0.3,0.1-0.3,0.3-0.5
				c1.2-1.2,2.9-3.5,2.9-3.8c0-0.1-0.1-0.1-0.1-0.1c-0.1,0-0.9,0.2-1.2,0.4c-0.1,0.1-0.3,0.2-0.3,0.2c-0.2,0-0.7-0.3-0.7-0.7
				c0-0.1,0-0.1,0.1-0.2C7.8,155.6,8,155.7,8.2,155.7z M8.9,160.2c-0.2,0-0.4,0.1-0.4,0.3c0,0.4,0.9,0.6,1.1,0.6c0.1,0,0.1,0,0.3,0
				C9.8,160.5,9.3,160.2,8.9,160.2z"/>
		</g>
	</g>
	<g class="st1">
		<g>
			<path class="st2" d="M124,196.4h-1c0,0.9,0,1.8,0,2.7c0.2-0.1,1-0.3,1.1-0.4l0,0.1c-0.4,0.2-0.8,0.5-1.2,0.6
				c-0.6,0.3-0.8,0.4-1,0.5c-0.1,0.2-0.1,0.2-0.2,0.2c0,0-0.1,0-0.1-0.1l-0.4-0.6c0.5,0,0.6-0.1,1.3-0.3v-2.8h-0.1
				c-0.3,0-0.7,0-1,0.1l-0.2-0.3c0.5,0,0.9,0.1,1.3,0.1c0-1.2,0-1.3,0-1.7c0-0.4-0.1-0.6-0.1-0.7l0.7,0.3c0.1,0,0.1,0,0.1,0.1
				c0,0.1-0.2,0.2-0.3,0.3c0,0.8,0,1.1,0,1.7h0.4l0.2-0.2c0-0.1,0.1-0.1,0.1-0.1c0,0,0.1,0.1,0.1,0.1l0.2,0.2c0,0,0.1,0.1,0.1,0.1
				C124.1,196.4,124.1,196.4,124,196.4z M127.6,200.5c-0.1,0-1.6,0-1.9,0c-0.9,0-1,0-1.2-0.1c-0.2-0.1-0.2-0.3-0.2-0.5
				c0-0.4,0-2.4,0-2.8c-0.4,0.2-0.7,0.3-0.9,0.5l-0.3-0.2c0.2,0,0.5-0.2,1.2-0.4c0-0.2,0-1.2,0-1.4c0-0.3,0-0.5-0.1-0.9l0.7,0.2
				c0,0,0.1,0,0.1,0.1c0,0,0,0.1-0.3,0.3c0,0.2,0,1.3,0,1.5l1-0.4c0-1.9,0-2.1-0.1-2.6l0.7,0.2c0,0,0.1,0,0.1,0.1c0,0,0,0.1-0.1,0.1
				c-0.1,0.1-0.2,0.2-0.2,0.2c0,0.3,0,0.6,0,1.8l0.9-0.4l0.2-0.3c0.1-0.1,0.1-0.1,0.1-0.1c0,0,0.1,0,0.1,0l0.4,0.2
				c0,0,0.1,0,0.1,0.1c0,0.1,0,0.1-0.2,0.3c0,1.5,0,2.1-0.1,2.4c-0.1,0.6-0.5,0.7-0.7,0.8c-0.1-0.4-0.4-0.5-0.5-0.5l0-0.1
				c0.1,0,0.2,0,0.3,0c0.4,0,0.4-0.2,0.5-0.3c0.1-0.3,0.1-1.6,0.1-2c0-0.1,0-0.3,0-0.5l-1.1,0.5c0,0.2,0,1.3,0,1.5
				c0,0.1,0,1.3,0,1.4c0,0.1,0,0.4-0.4,0.4c-0.1,0-0.2,0-0.2-0.1c0-0.1,0-0.4,0-0.5c0-0.4,0-0.9,0-2.4l-1,0.4c0,0.3,0,2.9,0,3
				c0,0.2,0.2,0.2,0.2,0.2c0,0,1.1,0,1.2,0c1.1,0,1.2,0,1.3-0.1c0.2-0.1,0.2-0.2,0.3-0.4c0.1-0.1,0.1-0.2,0.3-0.8h0.1
				c0,0.1,0,0.5,0,0.6c0,0.1,0,0.3,0.2,0.4c0.1,0,0.1,0,0.1,0.1C128.3,200.1,128.1,200.4,127.6,200.5z"/>
			<path class="st2" d="M135.6,198.2c0,0.1,0.1,1.6,0.1,2.1c0,0,0,0.2,0,0.2c0,0.2-0.3,0.3-0.4,0.3c-0.2,0-0.2-0.1-0.2-0.2
				c0,0,0-0.2,0-0.3H132c0,0.1,0,0.3,0,0.4c-0.1,0.1-0.3,0.2-0.4,0.2c-0.1,0-0.1-0.1-0.1-0.2c0,0,0-0.2,0-0.3c0-0.7,0-1.8,0-2.1
				c-1,0.7-1.8,0.9-2.3,1l0-0.1c0.8-0.4,1.5-0.8,2.3-1.4c0-0.2,0-0.3,0-0.4l0.3,0.2c0.5-0.4,0.8-0.7,1.4-1.4c0.1-0.1,0.8-0.9,1-1.4
				h-2.7c-0.1,0.1-0.2,0.2-0.4,0.6c0.4,0.1,1.5,0.5,1.5,1.2c0,0.1-0.1,0.3-0.3,0.3c-0.2,0-0.2,0-0.4-0.4c-0.2-0.4-0.6-0.8-0.9-1
				c-0.3,0.4-0.7,0.8-1.6,1.4l-0.1-0.1c1-0.9,1.7-2,2.2-2.9c0.1-0.3,0.2-0.4,0.2-0.5l0.6,0.3c0,0,0.1,0.1,0.1,0.1
				c0,0.1-0.1,0.1-0.3,0.2c-0.1,0.2-0.2,0.2-0.4,0.6h2.6l0.3-0.2c0,0,0.1-0.1,0.1-0.1c0,0,0.1,0,0.1,0.1l0.3,0.3
				c0,0,0.1,0.1,0.1,0.1c0,0.1,0,0.1-0.5,0.2c-0.4,0.6-1.2,1.7-2.5,2.7h2.8l0.3-0.3c0,0,0.1-0.1,0.1-0.1c0,0,0.1,0,0.1,0.1l0.3,0.2
				c0.1,0.1,0.1,0.1,0.1,0.2C136,198,135.8,198.1,135.6,198.2z M135.2,198H132v2.1h3.2V198z"/>
			<path class="st2" d="M140.2,201.1c-0.4-0.3-1.9-1.7-1.9-3.9c0-2.2,1.5-3.5,1.9-3.9l0.1,0.1c-1.3,1.4-1.6,2.8-1.6,3.8
				c0,0.9,0.3,2.4,1.6,3.8L140.2,201.1z"/>
			<path class="st2" d="M141.1,200h0.3c0.3,0,0.5-0.2,0.5-0.5v-4.3c0-0.3-0.2-0.5-0.5-0.5h-0.3v-0.3h2.5c1.7,0,2.7,1.1,2.7,2.9
				c0,1.4-0.7,2.9-2.8,2.9h-2.5V200z M143,194.7c-0.4,0-0.5,0.2-0.5,0.5v4.3c0,0.4,0.3,0.5,0.6,0.5h0.4c1.8,0,2.4-1.2,2.4-2.7
				c0-1.2-0.4-2.6-2.1-2.6H143z"/>
			<path class="st2" d="M151.9,195.9c-0.3-0.5-0.5-0.7-0.7-0.8c-0.4-0.3-0.7-0.4-1.3-0.4H149c-0.4,0-0.6,0.2-0.6,0.5v1.9h0.9
				c0.5,0,0.6-0.3,0.7-0.4c0.1-0.1,0.1-0.3,0.1-0.6h0.3v2.3h-0.3v-0.1c0-0.5-0.3-0.9-0.9-0.9h-0.9v2c0,0.3,0.1,0.7,0.6,0.7h0.3v0.3
				h-2.2V200h0.3c0.2,0,0.6-0.1,0.6-0.7v-4.1c0-0.2-0.1-0.5-0.5-0.5h-0.4v-0.3h4.5l0.5,1.4L151.9,195.9z"/>
			<path class="st2" d="M159.2,195.6c-0.1,0.1-0.1,0.1-0.2,0.1c0,0.3,0,0.5,0,1c0,0.1,0,1.3,0,1.3c0,0.3-0.3,0.3-0.4,0.3
				c-0.2,0-0.2-0.1-0.1-0.5h-2.2c0,0.6,0,1.8,0,2.3c0,0,0,0.2,0,0.2c0,0.3-0.3,0.3-0.4,0.3c-0.2,0-0.2-0.2-0.2-0.2
				c0-0.1,0.1-2,0.1-2.2v-0.4h-2.2c0,0.4,0,0.5,0,0.5c0,0.1-0.2,0.2-0.3,0.2c-0.1,0-0.2-0.1-0.2-0.2c0,0,0-0.2,0-0.2
				c0-0.3,0-1.4,0-2.1c0-0.5,0-0.8-0.1-1.1l0.7,0.3h2c0-0.3,0-1-0.1-1.3c0-0.2-0.1-0.2-0.1-0.3l0.7,0.2c0.1,0,0.1,0,0.1,0.1
				c0,0.1-0.1,0.2-0.2,0.3c0,0.2,0,0.5,0,1.1h2.1l0.2-0.2c0,0,0.1-0.1,0.1-0.1c0,0,0.1,0,0.1,0l0.3,0.2c0.1,0.1,0.1,0.1,0.1,0.1
				C159.3,195.5,159.3,195.6,159.2,195.6z M155.9,195.6h-2.2v2.2h2.2C156,196.1,156,196,155.9,195.6z M158.6,195.6h-2.2
				c0,0.3,0,1,0,2.2h2.2V195.6z"/>
			<path class="st2" d="M163.3,195.5h-1v1.1c0.2,0,1,0.3,1,0.7c0,0,0,0.2-0.2,0.2c-0.2,0-0.2,0-0.4-0.4c-0.1-0.2-0.2-0.4-0.4-0.4
				v0.6c0,0.2,0,3.1,0,3.3c0,0.1,0,0.2-0.1,0.2c-0.1,0.1-0.2,0.1-0.2,0.1c-0.1,0-0.2-0.1-0.2-0.2c0-0.2,0-0.5,0-0.6
				c0.1-1,0.1-1.6,0-3.3c-0.1,0.2-0.7,1.8-1.5,2.5l0,0c0.8-1.3,1.4-3.1,1.5-3.7c-0.4,0-0.8,0-1.1,0.1l-0.2-0.3
				c0.7,0.1,1.3,0.1,1.4,0.1c0-0.2,0-0.9,0-1.1c0-0.2-0.1-0.5-0.1-0.7l0.6,0.2c0.1,0,0.1,0.1,0.1,0.1c0,0.1-0.2,0.2-0.2,0.2
				c0,0.1,0,0.6,0,1.2h0.4l0.1-0.2c0.1-0.1,0.1-0.1,0.1-0.1c0,0,0.1,0.1,0.2,0.1l0.2,0.2c0,0,0.1,0.1,0.1,0.1
				C163.4,195.5,163.3,195.5,163.3,195.5z M165.3,195.1h-0.9c0,0.4,0,0.9,0,1.2c0.3-0.1,0.7-0.1,1-0.2l0,0.1c0,0-0.4,0.1-0.5,0.2
				c-0.2,0.1-0.9,0.4-1,0.4c0,0.1,0,0.2-0.2,0.2c-0.1,0-0.1,0-0.1-0.1l-0.3-0.5c0.4,0,0.5,0,0.7,0c0-0.6,0-1.5,0-2.1
				c0-0.4,0-0.6-0.1-0.8l0.6,0.2c0.1,0,0.1,0,0.1,0.1c0,0.1,0,0.1-0.2,0.2v0.8h0.4l0.2-0.2c0.1-0.1,0.1-0.1,0.1-0.1
				c0.1,0,0.1,0,0.1,0.1l0.2,0.2c0,0,0.1,0.1,0.1,0.1C165.4,195.1,165.3,195.1,165.3,195.1z M166.8,198c0,0.4,0,1.4,0,1.5
				c0,0.1,0,0.7,0,0.8c0,0.3-0.4,0.3-0.4,0.3c-0.1,0-0.1-0.1-0.1-0.4h-2.3c0,0.1,0,0.2,0,0.3c-0.1,0.1-0.2,0.2-0.3,0.2
				c-0.1,0-0.2-0.1-0.2-0.2c0-0.2,0-0.9,0-1c0-0.5,0-0.9,0-1.2c0-0.5,0-0.9,0-1.1l0.6,0.3h0.5c0.2-0.5,0.2-0.6,0.2-0.9l0.6,0.2
				c0,0,0.1,0,0.1,0.1c0,0.1-0.2,0.1-0.3,0.1c-0.1,0.1-0.3,0.3-0.5,0.5h1.4l0.2-0.2c0.1-0.1,0.1-0.1,0.1-0.1c0,0,0.1,0,0.1,0.1
				l0.2,0.2c0.1,0,0.1,0.1,0.1,0.1C167.1,197.8,167,197.9,166.8,198z M166.4,197.8h-2.3v1h2.3V197.8z M166.4,199h-2.3v1.1h2.3V199z
				 M166.6,196.7c-0.8,0-1.1,0-1.1-0.5c0-0.3,0-0.7,0-1c0-0.2,0-0.9,0-1.1c0-0.3,0-0.4-0.1-0.5l0.6,0.2c0.1,0,0.2,0,0.2,0.1
				c0,0.1,0,0.1-0.3,0.2c0,0.1,0,0.6,0,0.9c0.3-0.2,0.7-0.4,0.7-0.4c0.2-0.2,0.4-0.3,0.4-0.4l0.4,0.4c0.1,0.1,0.1,0.1,0.1,0.1
				c0,0.1-0.1,0.1-0.1,0.1c0,0-0.1,0-0.2-0.1c-0.5,0.2-1.2,0.4-1.3,0.4c0,0.2,0,0.9,0,1c0,0.2,0.1,0.2,0.3,0.2c0.5,0,0.7,0,0.8,0
				c0.2,0,0.3-0.1,0.4-0.8h0.1c0,0.1,0.1,0.6,0.2,0.7c0.1,0.1,0.1,0.1,0.1,0.2C167.8,196.7,167.4,196.7,166.6,196.7z"/>
			<path class="st2" d="M175.8,195.4h-1.7c0,0.1,0,0.7,0,0.7c0,0.2-0.2,0.3-0.3,0.3c-0.1,0-0.1,0-0.1-0.2h-1.4v0.6h1.8l0.1-0.2
				c0,0,0.1-0.1,0.1-0.1c0,0,0.1,0,0.2,0.1l0.3,0.2c0.1,0.1,0.1,0.1,0.1,0.1c0,0.1-0.1,0.1-0.1,0.1h-2.5v0.6h2.7l0.2-0.3
				c0,0,0.1-0.1,0.1-0.1c0,0,0.1,0,0.2,0.1l0.3,0.3c0,0,0.1,0.1,0.1,0.1c0,0.1-0.1,0.1-0.1,0.1h-6c-0.2,0-0.7,0-1,0.1l-0.2-0.3
				c0.4,0,0.9,0.1,1.3,0.1h2V197h-1.2c-0.3,0-0.7,0-1,0.1l-0.2-0.3c0.4,0,0.9,0.1,1.3,0.1h1.1v-0.6h-1.3c-0.3,0-0.7,0-1,0.1
				l-0.2-0.3c0.4,0,0.9,0.1,1.3,0.1h1.2c0-0.3,0-0.4,0-0.6h-2c-0.2,0-0.7,0-1,0.1l-0.2-0.3c0.4,0,0.9,0.1,1.3,0.1h1.9l0-0.6h-1.2
				c-0.3,0-0.7,0-1,0.1l-0.2-0.3c0.4,0,0.9,0.1,1.3,0.1h1.1c0-0.5,0-0.6-0.2-0.9l0.8,0.2c0,0,0.1,0,0.1,0.1c0,0.1-0.2,0.2-0.3,0.2
				c0,0.1,0,0.2,0,0.4h1.4l0.1-0.2c0,0,0.1-0.1,0.1-0.1c0,0,0.1,0,0.2,0.1l0.3,0.2c0.1,0,0.1,0.1,0.1,0.1c0,0.1-0.2,0.2-0.3,0.3
				c0,0,0,0.3,0,0.4h0.9l0.2-0.3c0.1-0.1,0.1-0.1,0.1-0.1c0,0,0.1,0.1,0.2,0.1l0.3,0.3c0,0,0.1,0.1,0.1,0.1
				C176,195.4,175.9,195.4,175.8,195.4z M174.3,198.8c0,0.1,0,1.2,0,1.5c0,0.1,0,0.2,0,0.3c0,0.2-0.2,0.3-0.3,0.3
				c-0.2,0-0.2-0.2-0.1-0.3h-3.5c0,0,0,0.1,0,0.1c0,0,0,0.3-0.3,0.3c-0.1,0-0.2,0-0.2-0.2c0-0.1,0-0.4,0-0.5c0-0.2,0-0.6,0-1
				c0-0.5,0-0.5-0.1-1.1l0.6,0.3h3.4l0.2-0.2c0,0,0.1-0.1,0.1-0.1c0,0,0.1,0,0.1,0.1l0.3,0.2c0,0,0.1,0.1,0.1,0.1
				C174.6,198.6,174.4,198.7,174.3,198.8z M173.9,198.6h-3.5v0.7h3.5V198.6z M173.9,199.5h-3.5v0.8h3.5V199.5z M173.7,195.4h-1.4
				c0,0.3,0,0.3,0,0.6h1.5V195.4z M173.7,194.7h-1.4v0.6h1.4V194.7z"/>
			<path class="st2" d="M179.3,194.2c-0.1,0.2-0.3,0.7-0.7,1.4l0.2,0.1c0,0,0.1,0.1,0.1,0.1c0,0,0,0.1,0,0.1l-0.2,0.2
				c0,0.3,0,1.8,0,2.1c0,0.1,0,2.2,0,2.4c0,0.1,0,0.2-0.1,0.3c-0.1,0.1-0.2,0.1-0.3,0.1c-0.2,0-0.2-0.2-0.2-0.2c0-0.1,0-0.7,0-0.9
				c0-0.4,0-2,0.1-3.8c-0.2,0.2-0.5,0.6-0.9,1.1c-0.3,0.3-0.5,0.5-0.6,0.5l0-0.1c1-1.3,1.4-2.2,1.9-3.4c0.2-0.5,0.2-0.6,0.2-0.7
				l0.7,0.4c0,0,0.1,0,0.1,0.1C179.6,194.1,179.5,194.1,179.3,194.2z M183.6,199.2c-1.1-0.9-1.9-2.6-2.1-3.3c0,0.5,0,0.6,0,2.2
				c0,0.1,0,0.8,0,0.9h0.6l0.2-0.3c0-0.1,0.1-0.1,0.1-0.1c0.1,0,0.1,0,0.2,0.1l0.3,0.3c0,0,0.1,0.1,0.1,0.1c0,0.1,0,0.1-0.1,0.1
				h-1.3c0,0.1,0,1.4,0,1.4c0,0.1,0,0.2-0.1,0.2c-0.1,0.1-0.2,0.1-0.3,0.1c-0.2,0-0.2-0.1-0.2-0.2c0,0,0-0.4,0-0.6c0-0.2,0-0.8,0-1
				h-0.2c-0.3,0-0.7,0-1,0.1l-0.2-0.3c0.6,0,1.1,0.1,1.4,0.1c0-0.2,0-0.8,0-1c0-0.3,0-1.4,0-1.7c-0.1,0.2-1,2.1-2.4,2.8l0,0
				c0.6-0.6,1.6-1.8,2.2-3.6h-0.7c-0.2,0-0.7,0-1,0.1l-0.2-0.3c0.4,0,0.9,0.1,1.3,0.1h0.7c0-0.6,0-1,0-1.2c0-0.3,0-0.3-0.1-0.5
				l0.7,0.2c0,0,0.1,0,0.1,0.1c0,0.1-0.2,0.2-0.3,0.2c0,0.5,0,0.7,0,1.2h1.5l0.3-0.3c0,0,0.1-0.1,0.1-0.1c0,0,0.1,0,0.1,0.1l0.4,0.3
				c0,0,0.1,0.1,0.1,0.1c0,0.1-0.1,0.1-0.1,0.1h-2.5c0.4,1.5,1.7,3,2.8,3.3v0C184.3,198.8,183.9,198.9,183.6,199.2z"/>
			<path class="st2" d="M185.1,201c1.3-1.4,1.6-2.8,1.6-3.8c0-0.9-0.3-2.4-1.6-3.8l0.1-0.1c0.4,0.3,1.9,1.7,1.9,3.9
				c0,2.2-1.5,3.5-1.9,3.9L185.1,201z"/>
		</g>
	</g>
	<g class="st1">
		<g>
			<g>
				<g>
					<line class="st3" x1="786.9" y1="62" x2="784.7" y2="62"/>
					<line class="st4" x1="780.4" y1="62" x2="4.3" y2="62"/>
					<line class="st3" x1="2.2" y1="62" x2="0" y2="62"/>
				</g>
			</g>
		</g>
		<g>
			<g>
				<g>
					<line class="st3" x1="786.9" y1="80.6" x2="784.7" y2="80.6"/>
					<line class="st4" x1="780.4" y1="80.6" x2="4.3" y2="80.6"/>
					<line class="st3" x1="2.2" y1="80.6" x2="0" y2="80.6"/>
				</g>
			</g>
		</g>
	</g>
	<g class="st1">
		<g>
			<g>
				<line class="st3" x1="0" y1="-3.2" x2="0" y2="-1"/>
				<line class="st5" x1="0" y1="3.4" x2="0" y2="143.7"/>
				<line class="st3" x1="0" y1="145.9" x2="0" y2="148.1"/>
			</g>
		</g>
	</g>
	<g class="st1">
		<polyline class="st3" points="0.9,-38 0.9,-49.7 764.8,-49.7 764.8,-38 		"/>
	</g>
	<g class="st1">
		<polyline class="st3" points="326.9,172.3 326.9,184 -0.3,184 -0.3,172.3 		"/>
	</g>
	<polyline class="st6" points="-41.6,61.6 -41.6,80.6 -29.3,80.6 	"/>
	<g class="st1">
		<g>
			<path class="st2" d="M-62.8,75.7c-1.1,0-1.8-1.4-1.8-3.1c0-1.6,0.7-3.1,1.8-3.1c1.1,0,1.8,1.4,1.8,3.1
				C-61,74.3-61.6,75.7-62.8,75.7z M-62.8,69.8c-0.6,0-1.2,0.8-1.2,2.8c0,2.1,0.6,2.8,1.2,2.8c0.6,0,1.2-0.7,1.2-2.8
				C-61.5,70.5-62.2,69.8-62.8,69.8z"/>
			<path class="st2" d="M-59.8,75.7c-0.2,0-0.4-0.2-0.4-0.4c0-0.2,0.2-0.4,0.4-0.4c0.3,0,0.4,0.2,0.4,0.4
				C-59.4,75.5-59.6,75.7-59.8,75.7z"/>
			<path class="st2" d="M-55,74c0,0.9-0.8,1.7-1.9,1.7c-1,0-1.6-0.6-1.6-1.2c0-0.3,0.1-0.5,0.4-0.5c0.3,0,0.4,0.2,0.4,0.4
				c0,0.1-0.1,0.3-0.1,0.4c0,0.2,0.3,0.6,0.9,0.6c0.7,0,1.3-0.6,1.3-1.4c0-0.8-0.5-1.4-1.3-1.4c0,0-0.3,0-0.3,0c0,0-0.2,0-0.2-0.2
				c0-0.1,0.1-0.1,0.2-0.1c0,0,0.3,0,0.3,0c0.4,0,1.2-0.4,1.2-1.3c0-0.8-0.5-1.2-1.1-1.2c-0.5,0-0.8,0.3-0.8,0.5c0,0,0,0.2,0,0.3
				c0,0.2-0.1,0.5-0.4,0.5c-0.2,0-0.3-0.2-0.3-0.4c0-0.6,0.7-1.2,1.5-1.2c0.9,0,1.6,0.6,1.6,1.4c0,0.6-0.5,1.3-1.4,1.5
				C-55.3,72.6-55,73.5-55,74z"/>
			<path class="st2" d="M-50.5,75.5v-0.3h0.3c0.3,0,0.3-0.2,0.3-0.3c0,0,0-0.1-0.1-0.3l-0.4-1.2h-2.4l-0.4,1.2c0,0-0.1,0.2-0.1,0.3
				c0,0.1,0,0.3,0.4,0.3h0.1v0.3h-1.6v-0.3h0.2c0.3,0,0.6-0.2,0.7-0.6l1.8-5.1l0.6-0.1l1.8,5.2c0.1,0.3,0.3,0.5,0.6,0.5h0.2v0.3
				H-50.5z M-51.5,70l-1.1,3.2h2.2L-51.5,70z"/>
		</g>
	</g>
	<polyline class="st6" points="-29.3,0 -41.6,0 -41.6,62 -29.3,62 	"/>
	<g class="st1">
		<g>
			<path class="st2" d="M-50.4,33.8v-0.3h0.3c0.3,0,0.3-0.2,0.3-0.3c0,0,0-0.1-0.1-0.3l-0.4-1.2h-2.4l-0.4,1.2c0,0-0.1,0.2-0.1,0.3
				c0,0.1,0,0.3,0.4,0.3h0.1v0.3h-1.6v-0.3h0.2c0.3,0,0.6-0.2,0.7-0.6l1.8-5.1l0.6-0.1l1.8,5.2c0.1,0.3,0.3,0.5,0.6,0.5h0.2v0.3
				H-50.4z M-51.5,28.3l-1.1,3.2h2.2L-51.5,28.3z"/>
		</g>
	</g>
</g>
<g id="入力レイヤー">
	<g>
		<path class="st7" d="M17.2,90.1c0.9,0,2.1,0.5,3.5,1.6c1.2,0.9,1.8,1.7,1.8,2.6c0,0.3-0.2,0.6-0.6,1.1c-0.4,0.2-0.6,0.5-0.7,0.8
			c-0.9,1.6-1.7,3-2.5,4.2c4.1-0.2,7.6-0.5,10.6-0.9c0-3.4,0-7,0-10.8c0-2.9-0.6-5.3-1.7-7c0-0.3,0.3-0.5,0.9-0.5
			c1.2,0,2.4,0.2,3.5,0.6c2,0.9,2.9,1.7,2.9,2.5c0,0.4-0.1,1-0.2,1.6c-0.6,0.9-0.9,2.7-0.9,5.4c0,2.7,0,5.2,0,7.5
			c3-0.6,5.6-1.3,7.9-2.1c0.5-0.2,1-0.4,1.7-0.4c0.5,0,1.3,0.1,2.4,0.4c1.4,0.6,2.1,1.1,2.1,1.6c0,0.4-0.1,0.7-0.4,1
			c-0.2,0.3-0.6,0.6-1.1,0.6c-4.1,0.8-8.3,1.5-12.6,2.1c0,4,0,7.6-0.1,10.8c6.8-0.9,12.3-1.7,16.7-2.4c0.5,0,1-0.1,1.4-0.1
			c1.5,0,3.3,0.4,5.4,1.3c1.9,1.1,2.8,2.3,2.8,3.4c0,0.8-0.7,1.1-2,1.1c-1.5,0-4-0.1-7.5-0.4c-2.2-0.3-4.1-0.4-5.6-0.4
			c-4.1,0-7.8,0.1-11.1,0.2c-0.1,5.1-0.2,8.9-0.3,11.3c-0.1,5.8-0.5,10.4-1.1,13.7c-0.7,3.5-1.3,5.3-1.9,5.3c-0.4,0-0.6-1.9-0.8-5.6
			c-0.1-0.7-0.2-8.9-0.3-24.6c-2.2,0.1-4.3,0.3-6.2,0.5c-4.8,0.5-9.5,1.2-14,2.2c-1,0.3-2,0.5-2.9,0.5c-1.2,0-2.7-0.4-4.2-1.1
			c-1.3-0.7-1.9-1.2-1.9-1.4c0-0.4,0.2-0.6,0.6-0.6c3.6,0,11.3-0.6,23.1-1.9c1.9-0.2,3.8-0.5,5.5-0.6c0-3.3,0-6.9,0-10.8
			c-2.6,0.3-4.5,0.4-5.9,0.4c-2.8,0-4.7-0.3-5.7-1c-0.6,0.9-1.1,1.7-1.7,2.4c-2.1,2.4-4,4.3-5.7,5.5c-0.9,0.7-1.5,1.1-1.7,1.1
			c-0.2,0-0.3-0.2-0.3-0.6c2.1-3.1,3.9-6,5.2-8.7c1-2.2,1.8-4.3,2.4-6.5c0.3-1.3,0.5-2.2,0.5-2.7l-0.3-1.7
			C16.1,90.3,16.4,90.1,17.2,90.1z"/>
		<path class="st7" d="M76,103.6c0.7,0,1.7,0.2,3.2,0.7c1.6,0.7,2.4,1.5,2.4,2.4c0,0.4-0.3,0.9-0.9,1.4c-1.5,0.9-2.4,1.7-2.7,2.4
			c-1,2.4-1.5,4.1-1.5,4.9c0,0.2,0.1,0.6,0.2,1.1c1.6,2.8,2.4,5.3,2.4,7.4c0,0.8-0.3,1.8-0.8,2.9c2.8,0.4,7.6,1.7,14.4,3.7
			c3.5,1.1,7.7,2,12.3,2.6c2.6,0.5,10.4,0.8,23.3,1.1c0.2,0,0.3,0.2,0.3,0.6c0,0.1-0.2,0.2-0.6,0.4c-2.7,1.8-5.7,3.1-9,4.1
			c-2.6,0.9-4.5,1.4-5.8,1.4c-0.9,0-1.5-0.1-1.9-0.3c-3.3-1-6.1-1.9-8.6-2.8c-9.9-4.1-17.6-6.8-23.3-8.1c-1.1-0.2-2.1-0.3-3-0.3
			c-1.7,0-4.4,0.4-8,1.1c-0.7,0.1-1.2,0.2-1.4,0.2c-0.7,0-1.4-0.3-2.3-0.9c-1.1-0.7-1.7-1.4-1.7-2.2c0-0.3,0.1-0.5,0.3-0.5
			c6.5-0.2,10.9-0.3,13.2-0.3c0-0.1,0-0.2-0.1-0.3c0-1.4-0.3-2.9-0.9-4.5c-0.5-1.8-1.2-3.3-2.1-4.5c-0.3-0.7-0.4-1.4-0.4-2.1
			c0-1,0.8-3.1,2.3-6.3v-0.1c0-0.1-0.2-0.2-0.6-0.2c-2.6,0.7-4.6,1.1-6.2,1.1c-1.4,0-2.6-0.2-3.4-0.7c-0.7-0.4-1.1-0.8-1.1-1.2
			c0-0.2,0.2-0.3,0.6-0.3c1.7,0,3.5-0.3,5.3-0.9c1.7-0.5,3.2-1.3,4.7-2.5C75.2,103.8,75.7,103.6,76,103.6z M71.5,87.3
			c1.3,0,3,0.3,5,1c2,0.7,3.2,1.3,3.8,1.9c0.7,0.7,1,1.5,1,2.4c0,1.7-0.7,2.5-2,2.5c-1.3,0-2.9-1.1-5-3.2c-2.3-2.3-3.4-3.8-3.4-4.3
			C70.9,87.4,71.1,87.3,71.5,87.3z M100.4,102.6c-2.5-2.4-5.3-5-8.4-7.7c-0.4-0.6-0.6-1.2-0.6-1.7c0-0.2,0.1-0.3,0.3-0.3
			c0.2,0,0.7,0.2,1.3,0.6c7.9,4.7,14.2,8.9,18.8,12.3c2.7,2.3,5,4.5,6.7,6.7c1.6,1.8,2.4,3.5,2.4,5c0,1.9-0.6,2.8-1.7,2.8
			c-0.8,0-1.4-0.3-1.7-0.8c-0.8-0.6-1.7-1.5-2.7-2.7c-2.7-3.1-6.4-6.9-11.1-11.3c-0.1,0-0.2,0.1-0.2,0.1c-0.5,0.6-1.1,1.3-1.6,2.1
			c-1.8,2.6-3.6,4.9-5.5,6.9c-2.1,2.3-4.5,4.2-7,5.7c-2.2,1.3-4.7,2.4-7.8,3.4v-0.6c1.2-0.9,2.4-1.8,3.6-2.7
			c2.6-2.1,4.9-4.2,6.8-6.4c2.3-2.4,4.8-5.7,7.3-9.7C99.7,103.8,100.1,103.2,100.4,102.6z"/>
		<path class="st7" d="M147.7,97.7c0.6,0,1.6,0.3,3.1,0.9c1.9,1,2.8,1.8,2.8,2.4c0,0.3-0.3,0.6-0.9,0.9c-2.1,1.4-3.4,2.4-3.7,3
			c-1.4,2.1-2.8,4-4.2,5.7c1.8,1.8,2.7,3.2,2.7,4.2c0,0.3-0.1,0.9-0.4,1.8c-0.3,1.2-0.4,1.9-0.4,2.1l0.3,14.1c0,1-0.2,2-0.7,3.1
			c-0.6,1.5-1.1,2.2-1.5,2.2c-1,0-1.8-1.5-2.7-4.4c-0.3-0.7-0.4-1.3-0.4-1.8c0-0.9,0.5-3.3,1.7-7.2c0.4-1.3,0.6-3.7,0.6-7.1
			c0-1.9-0.2-3.6-0.6-5.1c-1.1,1.2-2.1,2.3-3.1,3.3c-2.7,3.3-5.9,5.9-9.5,7.9c-1.3,1-2.2,1.4-2.5,1.4c-0.1,0-0.2-0.1-0.2-0.3
			c0-0.2,0.2-0.5,0.7-1.1c3.7-3.3,6.6-6.2,8.5-8.6c3.1-3.7,5.9-7.8,8.4-12.2c0.2-0.4,0.4-0.6,0.4-0.8c0-0.2-0.2-0.3-0.6-0.3
			c-6.5,2.4-10.2,3.7-11.2,3.7c-1.1,0-2.2-0.5-3.4-1.4c-0.8-0.7-1.1-1.2-1.1-1.5c0-0.5,0.2-0.8,0.6-0.8c4.3-0.1,7.4-0.5,9.4-0.9
			c2.2-0.4,4.6-1.4,7.3-3C147.3,97.8,147.7,97.7,147.7,97.7z M144.6,84.5c1.1,0,2.5,0.3,4.3,0.9c1.7,0.7,2.8,1.3,3.3,1.9
			c0.5,0.6,0.8,1.4,0.8,2.2c0,1.9-0.7,2.8-2.2,2.8c-1.1,0-2.4-1-3.9-3.1c-1.9-2.2-2.8-3.7-2.8-4.2C144,84.8,144.2,84.6,144.6,84.5z
			 M147.4,110c0.2,0,0.6,0,1.1,0.1c0.9,0.3,1.9,0.7,2.9,1.1c1.2,0.7,2.1,1.3,2.4,1.9c0.4,0.5,0.6,1,0.6,1.7c0,0.5-0.2,1.1-0.5,1.7
			c-0.3,0.5-0.7,0.8-1.2,0.8c-0.4,0-0.6-0.1-0.8-0.3c-0.4-0.4-1-1.1-1.8-2.2c-1.1-1.9-1.9-3-2.3-3.4c-0.5-0.5-0.7-0.9-0.7-1.1
			C147.1,110.1,147.2,110,147.4,110z M156.1,98.8c0.8,0,1.8,0.1,2.9,0.4c0.5,0.2,1,0.5,1.3,0.8c3.1-0.3,5.9-0.7,8.5-1
			c0-3.4,0-7.1,0-10.9c0-2.9-0.6-5.2-1.7-7c0-0.4,0.3-0.6,0.8-0.6c1.2,0,2.4,0.2,3.5,0.6c2,0.9,2.9,1.7,2.9,2.5c0,0.5-0.1,1-0.2,1.6
			c-0.6,0.9-0.9,2.7-0.9,5.4c0,2.7,0,5.3,0,7.8c3.6-0.6,6.7-1.2,9.3-1.9c0.4-0.1,0.8-0.1,1.3-0.1c0.5,0,1.6,0.4,3.4,1.1
			c2.6,1.2,3.9,2.1,3.9,2.8c0,0.3-0.2,0.6-0.6,1.1c-1.2,1.2-2.1,2.7-2.6,4.6c-1.5,5.2-3.3,10.3-5.5,15.4c-0.4,0.2-1.1,0.3-1.9,0.3
			c-0.3,0-0.7-0.2-1-0.6c-0.2-0.5-0.4-0.9-0.4-1.3c0-0.1,0-0.2,0-0.2c-2.1,0-4.1,0.1-6.1,0.3c0,2.8-0.1,5-0.2,6.5
			c-0.1,5.8-0.5,10.3-1.1,13.6c-0.7,3.5-1.3,5.3-1.9,5.3c-0.4,0-0.7-1.8-0.9-5.5c-0.1-0.6-0.2-7.1-0.2-19.4c-0.1,0-0.1,0-0.1,0.1
			c-3.3,0.5-5.3,0.7-6.1,0.7c0,0-0.1,0-0.1,0c-0.2,0.8-0.5,1.1-1,1.1c-0.4,0-0.8-0.3-1.1-0.9c-0.3-0.5-0.5-1-0.5-1.3
			c-0.6-2-1.1-5.4-1.5-10.1c-0.3-2.9-0.8-5.2-1.4-6.9c-0.4-1.5-0.9-2.5-1.6-3.2C155.2,99.1,155.5,98.8,156.1,98.8z M162.4,118.6
			c1.5-0.1,3.4-0.4,5.7-0.8c0.2,0,0.4,0,0.6-0.1c0-2.3-0.1-4.9-0.1-7.5c-0.5,0-0.9,0.1-1.1,0.1c-1.2,0-2.3-0.1-3.3-0.3
			c-0.8-0.2-1.1-0.4-1.1-0.6c0-0.4,0.2-0.7,0.6-0.8c1.7-0.2,3.4-0.5,5-0.8c0-2.1,0-4.3,0-6.6c-2.5,0.4-5.1,0.8-7.8,1.1L162.4,118.6z
			 M173.2,100.8c0,2.2-0.1,4.3-0.1,6.3c0.3-0.1,0.6-0.2,0.9-0.2c0.6-0.1,1.1-0.2,1.4-0.2c2.6,0,3.9,0.6,3.9,1.7
			c0,0.2-0.2,0.4-0.6,0.5c-2,0.3-3.8,0.6-5.5,0.9c0,2.7-0.1,5.2-0.1,7.3c1-0.2,1.8-0.4,2.6-0.6c0.5-0.2,1-0.3,1.4-0.3
			c1.1,0,1.9,0.3,2.6,0.9c0.1,0.1,0.3,0.2,0.4,0.3c0.1-0.3,0.2-0.7,0.4-1.1c0.7-2.4,1.4-5.9,2-10.4c0.3-1.8,0.5-3.4,0.5-4.8
			c0-0.8-0.6-1.1-1.7-1.1c-1.1,0-2.7,0.1-4.8,0.4C175.4,100.5,174.3,100.6,173.2,100.8z"/>
		<path class="st7" d="M239.4,121.2c-5.9,0-11,0.1-15.4,0.4v0.1c0.3,0,0.7,0.1,1.1,0.2c1.4,0.4,2.7,1,3.8,1.9
			c3.6,2.4,7.1,4.4,10.5,6c3.6,1.8,9.6,3.7,18,5.8v0.5c0,0.3-0.5,0.6-1.5,0.6c-4.6,0.7-8.7,1.1-12.2,1.1c-1.4,0-2.3-0.1-2.7-0.4
			c-3.3-2.1-7.3-5.5-12.3-10.2c-0.9-0.8-2.1-1.7-3.6-2.8c-0.3-0.3-0.7-0.5-1-0.6c0,1.7,0.2,3.6,0.4,5.5c0.3,3.5,0.4,6.8,0.4,9.9
			c0,1.3-0.3,2.4-0.9,3.2c-0.8,1.1-1.4,1.6-1.9,1.6c-0.5,0-0.9-0.4-1.1-1.3c-0.4-0.7-0.6-2.2-0.6-4.3c0.1-4.9,0.2-9.2,0.3-12.9
			c-0.1,0.1-0.2,0.3-0.3,0.4c-1.4,1.3-3,2.7-4.8,4.2c-2.5,2-5.1,3.6-7.9,5c-2.5,1.2-4.9,2.1-7.3,2.8c-2.2,0.6-3.5,0.9-3.9,0.9h-0.6
			c3.3-1.7,5.9-3.2,7.5-4.4c3.9-2.2,7.3-4.5,10-6.7c2.3-2.1,3.9-3.7,4.8-4.8c0.3-0.3,0.5-0.6,0.7-0.9c-0.5,0-0.9,0-1.3,0.1
			c-4.8,0.4-9.5,1-14.1,1.9c-1,0.3-2,0.4-2.9,0.4c-1.1,0-2.3-0.4-3.7-1.1c-1.1-0.7-1.7-1.2-1.7-1.4c0-0.2,0.2-0.3,0.5-0.3
			c3.5,0,11-0.5,22.4-1.7c0.8,0,1.5-0.1,2.3-0.2c-0.2-2-0.6-3.4-1.4-4.3c0-0.9,0.5-1.4,1.4-1.4c1,0,2,0.3,3.1,0.9
			c1.1,0.6,1.7,1.3,1.7,2.2c0,0.1-0.2,0.4-0.6,0.7c-0.3,0.4-0.6,0.9-0.7,1.5c8.3-0.9,14.9-1.7,19.8-2.4c0.5,0,1-0.1,1.4-0.1
			c1.3,0,2.8,0.4,4.7,1.1c1.6,1,2.4,1.9,2.4,2.9c0,0.7-0.6,1.1-1.7,1.1c-1.2,0-3.4-0.1-6.5-0.3C242.3,121.3,240.7,121.2,239.4,121.2
			z M211.1,103.8c0.2,0,0.3,0.1,0.3,0.3c0,0.2-0.1,0.6-0.4,1.1c-1.2,1.7-2.7,3.4-4.2,4.9c-1.2,1.2-2.4,2.4-3.4,3.5
			c-0.8,0.8-1.5,1.1-1.9,1.1c-0.5,0-1.4-0.6-2.6-1.7c-0.9-1.1-1.4-1.9-1.4-2.5c0-0.6,0.3-0.9,0.9-0.9c1.2-0.1,3.1-0.7,5.7-1.9
			c2.3-1.1,4.5-2.3,6.5-3.7C210.7,103.9,210.9,103.8,211.1,103.8z M200.5,94c0.6,0,1.4,0.1,2.2,0.4c2.1,0.5,3.7,1.1,4.8,1.8
			c0.9,0.7,1.4,1.7,1.4,2.9c0,0.5-0.2,1-0.5,1.5c-0.4,0.5-0.8,0.7-1.1,0.7c-0.6,0-1.2-0.3-1.8-0.8c-1.2-0.9-2.9-2.8-5.1-5.6
			c-0.3-0.3-0.4-0.5-0.4-0.6C200,94.1,200.2,94,200.5,94z M222.9,81.4c0.6,0,1.6,0.3,3.2,0.9c1.6,0.9,2.4,1.7,2.4,2.2
			c0,0.3-0.3,0.6-0.9,0.9c-0.6,0.3-1.3,0.9-2.2,1.7c-2.2,2.3-3.9,4-5.4,5.1c2-0.5,3.5-0.9,4.6-1.2c0.2-0.1,0.6-0.1,1-0.1
			c0.5,0,1.5,0.2,3.1,0.6c2.1,0.8,3.1,1.6,3.1,2.2c0,0.3-0.2,1-0.5,1.9c-0.2,0.6-0.4,1.6-0.4,3.2v11.8c0,0.6-0.3,1.6-0.9,2.9
			c-0.6,0.9-1.1,1.4-1.6,1.4c-0.3,0-0.8-0.6-1.4-1.7c-0.1-0.1-0.2-0.3-0.2-0.4c-1.9,0-3.8,0.2-5.6,0.5c-1.9,0.3-3,0.4-3.4,0.4
			c-0.1,0-0.2,0-0.3,0c0,0.5-0.1,0.9-0.3,1.2c-0.2,0.5-0.5,0.7-0.8,0.7c-0.2,0-0.6-0.4-1.1-1.1c-0.4-0.6-0.6-0.9-0.6-1.1l0.3-2.2
			c0-9.1-0.4-14.6-1.1-16.5c-0.2-0.8-0.3-1.4-0.3-1.7c0-0.6,0.3-0.9,0.8-0.9c0.4,0,1,0.1,1.7,0.4c0.4,0.1,0.8,0.3,1,0.5
			c0.5-0.1,0.9-0.2,1.4-0.3c0.5-0.9,0.9-1.7,1.1-2.4c0.8-1.4,1.4-3,1.9-4.7c0.3-0.9,0.5-1.6,0.5-1.9c0-0.2,0-0.5-0.1-0.7
			c-0.1-0.5-0.1-0.8-0.1-1C221.8,81.6,222.2,81.4,222.9,81.4z M217.5,111.9c0.8,0,1.7-0.2,2.8-0.5c1.7-0.2,3-0.5,4-0.9
			c0.2-0.1,0.5-0.1,0.8-0.1c0.5,0,1,0.1,1.4,0.3c0-0.1,0-0.2,0-0.3c0.2-0.9,0.3-5.2,0.3-12.9c0-1.3-0.3-2.5-1-3.5
			c-0.4-0.4-0.9-0.6-1.5-0.6c-0.5,0-1.1,0-1.9,0.1c-1.2,0.2-2.2,0.5-2.9,0.7c-0.6,0.1-1.2,0.2-2,0.2v7.3c2.2-0.5,3.5-0.9,4-1.1
			c0.1,0,0.3-0.1,0.5-0.1c2.1,0,3.1,0.4,3.1,1.1c0,0.3-0.1,0.6-0.3,0.9c-1.4,0.2-3.2,0.5-5.5,0.8c-0.1,0-0.3,0-0.4,0
			c-0.3,0-0.8,0-1.4-0.1V111.9z M240.6,90.6c0.7,0,1.9,0.4,3.7,1.1c1.9,1.1,2.8,2,2.8,2.6c0,0.3-0.4,0.6-1.1,0.8
			c-0.8,0.2-1.7,0.7-2.8,1.4c-4.1,2.6-7.3,4.3-9.5,5.1c-0.2,0-0.3-0.1-0.3-0.3c1.1-1,2-1.9,2.7-2.7c1.2-1.2,2.2-2.5,3-3.9
			c0.5-0.7,0.8-1.2,0.8-1.6c0-0.2-0.1-0.5-0.3-0.7c-0.2-0.5-0.3-0.8-0.3-1C239.2,90.9,239.6,90.6,240.6,90.6z M235,104.1
			c0.3,0,0.9,0,1.7,0.1c1.5,0.4,3.1,0.9,4.7,1.5c2,0.8,3.3,1.6,3.9,2.2c0.6,0.6,0.9,1.3,0.9,2c0,0.7-0.2,1.4-0.6,2.2
			c-0.3,0.6-0.8,0.9-1.4,0.9c-0.5,0-0.9-0.1-1.1-0.3c-0.7-0.5-1.8-1.4-3.2-2.7c-2-2.3-3.3-3.8-4-4.3c-0.8-0.6-1.2-1.1-1.2-1.4
			C234.7,104.2,234.8,104.1,235,104.1z"/>
		<path class="st7" d="M278.6,105.3c0.4,0,1.1,0.1,2.1,0.4c1.2,0.5,1.8,0.9,1.8,1.3c0,0.3-0.1,0.6-0.2,0.9c-0.2,0.3-0.5,0.5-0.9,0.6
			c-2.3,0.7-4.6,1.3-7,1.8l-0.4,11.8c1.5-0.7,3.2-1.5,4.9-2.4c1.7-0.8,2.7-1.2,3.1-1.2c0.4,0,0.6,0.2,0.6,0.6c0,0.2-0.3,0.5-0.8,0.9
			c-1.9,1.6-4.9,3.8-9,6.6c-2.2,1.6-4.8,3.6-7.8,6c-0.4,0.5-0.7,0.7-0.9,0.7c-0.7,0-1.9-0.6-3.6-1.9c-1.3-1.2-2-2.1-2-2.6
			c0-0.6,0.3-0.9,0.9-0.9c1-0.1,2-0.4,2.9-0.9c2.1-0.8,4.6-1.8,7.8-3.2l0.4-12.9c-1.5,0.3-2.7,0.4-3.6,0.4c-2.7,0-4.4-0.3-5.2-0.9
			c-0.6-0.4-0.9-0.6-0.9-0.8c0-0.4,0.2-0.6,0.6-0.6c3.7-0.2,6.8-0.6,9.3-1.1l0.1-5.7c0-3.5-0.2-6.8-0.7-9.7
			c-0.1-1.4-0.7-2.7-1.8-3.9c-0.1-0.2-0.1-0.4-0.1-0.6c0-0.7,0.5-1.1,1.7-1.1c1.4,0,3,0.4,4.7,1.1c1.7,1,2.6,1.8,2.6,2.5
			c0,0.2-0.2,0.5-0.5,0.8c-0.7,1.1-1.2,3.4-1.6,6.9l-0.3,8.5c1.1-0.4,2-0.8,2.9-1.2C277.8,105.4,278.1,105.3,278.6,105.3z
			 M309.4,87.8c1.1,0,2.3,0.3,3.6,0.9c1.2,0.5,1.8,1.2,1.8,2.2c0,0.8-0.4,1.1-1.1,1.1c-4.8,0-9.3,0.5-13.4,1.5c-1.8,0.3-3.8,1-6,1.9
			c-0.8,0.4-1.2,0.6-1.4,0.6c-0.3,0-0.6,0-0.9-0.1c0,0.1-0.1,0.2-0.1,0.3c-0.1,3.9-0.4,7.3-0.6,10.3c4.6-0.8,9.5-2.2,14.6-4.1
			c0.6-0.2,1.1-0.3,1.7-0.3c0.5,0,1.7,0.3,3.5,0.9c1.8,1,2.7,1.7,2.7,2.2c0,0.4-0.5,0.9-1.4,1.5c-1,0.8-1.6,1.7-1.7,2.8
			c-1.3,5.9-2.7,10.2-4.1,12.9c-0.5,1-1,1.8-1.6,2.7c4,3.8,10.6,7.4,19.7,10.9c0,0.6-0.5,0.9-1.5,1.1c-6.2,1-9.8,1.5-10.8,1.5
			c-1.6,0-2.6-0.4-3.2-1.2c-2.1-2.8-4.3-5.9-6.7-9.4c-0.3,0.3-0.6,0.6-0.9,0.8c-3.3,2.5-6.3,4.3-9,5.4c-2.1,0.7-4.3,1.1-6.6,1.1
			h-0.3c0-0.2,0.3-0.5,0.9-0.8c6.3-3.3,10.8-6.5,13.6-9.6c0,0,0-0.1,0.1-0.1c-1.1-1.6-2.1-3.3-3.2-5c-1.4-2.2-2.9-4-4.6-5.2
			c-0.4-0.1-0.6-0.5-0.6-1.1c0-0.2,0.5-0.3,1.4-0.3c0.7,0,1.5,0.2,2.4,0.6c1.1,1,2.1,2.2,3.1,3.7c0.9,1.6,2.1,3.2,3.4,4.7
			c1.2-1.9,2.1-4.2,2.7-6.8c0.8-2.7,1.1-5.4,1.1-7.9c0-0.8-0.3-1.1-0.8-1.1c-0.5,0-1.1,0-1.6,0.1c-5.8,1.1-9.5,1.6-11.1,1.6
			c-0.5,0-1-0.1-1.5-0.3c-0.4,3.4-0.9,6.1-1.4,8.3c-1.2,5.3-2.8,9.6-4.7,12.9c-2,2.8-4.6,5.2-7.8,7.3c-1.9,1.1-3.1,1.6-3.6,1.6
			c-0.2,0-0.3-0.1-0.3-0.3c4-4.3,7-8.3,9-12.1c1.9-3.5,3.2-7.6,3.9-12.4c0.7-4.1,1.1-8.8,1.1-14c0-1.7-0.4-4-1.3-6.7
			c-0.1-0.1-0.1-0.3-0.1-0.5c0-0.4,0.4-0.6,1.1-0.6c1.4,0,2.7,0.2,3.9,0.6c0.8,0.2,1.3,0.6,1.5,1.1c2.3-0.6,4.5-1.1,6.5-1.7
			c2.8-0.8,5.6-1.8,8.5-2.9C308.1,88,308.7,87.8,309.4,87.8z"/>
	</g>
	<g>
		<g>
			<g>
				<path class="st7" d="M675.6,22.1c-1.1,0.1-2.6-0.6-4.5-2.3c-2.5-2.1-5.3-3.8-8.6-5.3c-2.2-0.9-3.1-1.5-3-1.9
					c0.1-0.4,1-0.6,2.6-0.9c1.7-0.2,3.4-0.2,5.2-0.1c7.4,0.3,11.1,2.7,11.1,7.3C678.4,20.9,677.5,22,675.6,22.1z"/>
				<path class="st7" d="M709.5,21.9c-4.7,7.8-12,15.7-22,23.6c-3.3,2.6-6.8,5-10.6,7.5c-5.1,3.3-8,5-8.6,5
					c-0.7-0.1-1.6-0.8-2.6-2.2c-1-1.4-1.7-2.8-2.1-3.8c-0.4-1.2-1.1-3.4-0.1-3.3c1,0.1,3.5,0.6,4.9,0.5c0.6,0,1.3-0.2,1.7-0.4
					c8.9-4.2,16.4-9,24-15.2c3.8-3,8.3-7.3,13.7-13c1.1-1.2,1.9-1.8,2.3-1.8c0.1,0,0.2,0.1,0.2,0.2
					C710.6,19.4,710.4,20.4,709.5,21.9z"/>
			</g>
			<path class="st7" d="M541.4,36.1c-0.7,0-2.3,0.1-4.8,0.2c-0.6,0.1-1.4,0.2-2.2,0.5c-0.6,0.2-1,0.2-1.4,0.1
				c-0.7-0.2-1.6-1.5-2.4-3.4c0,0-0.7-1.5-0.9-2.3c-0.5-1.7-0.5-2.6,0.1-3c0.2-0.1,0.6,0,1.2,0.4c0.8,0.5,2.1,1,2.7,1.1
				c2.2,0.5,4.6,0.8,5.8,0.8l8.8,0h13.5c2.1-0.1,7.1-0.1,15.7-0.2l6.9-0.1c3.5,0.1,5.3,0.9,5.3,2.4c0.1,1.5-1.1,2.4-4.1,3
				c-1.8,0.4-5.3,0.4-10.3,0.4c-1.6-0.1-6.2,0-14.1-0.1c-4.8,0-9.1,0-12.1,0.1L541.4,36.1z"/>
			<path class="st7" d="M762.1,57.4c-1-0.1-2.2-0.7-3.5-2.1c-2.3-2.3-4.6-4.3-6.6-6.2c-2-1.8-4.3-3.7-6.9-5.5
				c-1.7-1.2-3.7-2.5-5.8-3.8c-3.1,3.4-6.6,6.3-10.2,9c-5.7,4.2-11.9,7.2-18.8,9c-1.8,0.4-2.7,0.4-2.9,0c-0.2-0.4,0.6-1,2.1-1.7
				c5.4-2.6,9.8-5.2,13.1-7.7c3.4-2.4,6.3-4.8,8.7-7.2c2.4-2.3,5.2-5.7,8.4-9.9c2.2-2.9,4.6-6.6,7.1-11.1c-0.2,0-4.2,0.6-12.2,1.9
				c-1.2,0.2-3,0.5-5.5,0.9c-0.6,0.1-1.3,0.2-2.2,0.5c-1,0.2-1.7,0.4-1.9,0.4c-1.7-0.1-3.4-1.3-5.2-3.6c-0.6-0.8-0.8-1.4-0.6-1.7
				c0.1-0.2,0.7-0.3,1.9-0.2c1.2,0,2.2,0,3,0c1.4,0,2.6,0,3.8-0.1c1.9-0.2,5.1-0.4,9.5-0.9c2.3-0.2,4.6-0.5,8.4-1
				c0.7-0.1,1.1-0.3,1.6-0.7c0.5-0.3,1.2-0.8,1.5-0.8c0.9-0.1,2.3,0.3,4.2,2.3c1.6,1.6,2.2,2.4,2.1,3.2c0,0.9-0.6,1.4-1.2,1.8
				c-0.8,0.5-1.6,1.2-2,1.5c-0.5,0.4-2,2.6-5.8,7.6c-1,1.3-2.7,3.5-5.2,6.6c1.7,0.6,4.7,1.8,8.7,3.7c3.8,1.8,6.4,3.1,7.9,4
				c1.2,0.7,2.8,2,4.9,3.7c1.6,1.8,2.3,3.7,2.2,5.5C764.7,56.5,763.8,57.5,762.1,57.4z"/>
			<g>
				<g>
					<path class="st7" d="M610.7,22.9L610.7,22.9c-0.2,0-0.3,0-0.4,0.1c-0.2,0.2-0.2,0.5-0.1,0.9c0.1,0.5,0.2,1.3-0.1,2.5
						c-0.6,2.2-1.7,4-2.7,5.6l-2.1,2.8c-1.8,2.3-3.4,4.3-5.3,6.2c-4.1,4.2-7.4,6.7-9.1,8l-0.1,0c-1.2,0.9-1.6,1.4-1.3,1.7
						c0.1,0.1,0.2,0.2,0.5,0.2l0,0c0.3,0,0.7-0.1,0.9-0.1c1.2-0.3,2.7-0.8,3.9-1.3c2.6-1.2,4.6-2.6,6.8-4.3c3.5-2.6,6.6-5.4,9.2-8.4
						l0.3-0.3c1.2-1.4,2.2-2.7,3.2-4c1.6-2.1,1.9-3.2,1.9-3.7c0-1.1-1-2.9-2.5-4.3C612.1,23.1,611.1,22.9,610.7,22.9z"/>
					<path class="st7" d="M649.1,45c-0.4-1.6-1.1-3.3-2.2-5.2c-1.1-1.9-2.4-3.8-3.9-5.6c-2-2.3-3.9-4.1-5.3-5.4
						c-4-3.7-9.2-6.6-10.7-7.4c-2.3-1.3-3.6-1.6-4.1-1.1c-0.2,0.2-0.2,0.3-0.2,0.5c0,0.4,0.4,0.7,1,1.2l0.3,0.2c0,0,2.4,1.8,3.4,2.6
						c2.6,2.3,5,5.1,7.5,8.5c1.2,1.7,2.6,4,4.1,7c0.6,1.2,1.2,2.4,1.7,3.6l0.4,0.9c0.5,1,1,2.1,1.5,3.1c1,1.8,1.9,2.7,3,2.9
						c0.2,0,0.5,0,0.7,0c1.3,0,2.3-0.7,2.8-2C649.6,47.8,649.4,46.2,649.1,45z"/>
				</g>
				<path class="st7" d="M639.8,16.6c-0.2,0.4-0.6,0.6-0.9,0.7c-0.8,0.2-1.4,0.1-2-0.3c-0.8-1-2-2.6-3.5-4.6
					c-0.6-0.7-1.1-1.3-1.7-1.7c-1.2-1-1.7-1.7-1.5-1.9c0.2-0.2,1-0.1,2.4,0.3c1.4,0.4,2.8,1,4.2,1.7c2.3,1.1,3.5,2.6,3.4,4.3
					C640.2,15.7,640.1,16.2,639.8,16.6z M646.7,11.8c-0.2,0.4-0.6,0.6-0.9,0.7c-0.8,0.2-1.4,0.2-2-0.2c-0.8-1-2-2.6-3.7-4.6
					c-0.4-0.5-1-1-1.7-1.7c-1.2-1-1.7-1.6-1.6-1.8c0.2-0.2,1-0.1,2.3,0.3c1.6,0.4,3,0.9,4.3,1.4c2.3,1,3.5,2.5,3.5,4.3
					C647,10.9,646.9,11.4,646.7,11.8z"/>
			</g>
			<path class="st7" d="M524.6,18c-1.7,0.3-2.9,0.6-3.7,1c-1.6,1.1-4.2,2.9-7.8,5.2c-2.8,1.7-5.7,3.3-8.5,4.7
				c-1.5,4.7-4.8,12.7-8.4,18.1c-3.8,5.6-8.1,10.4-12.1,13.2c-1.7,1.1-3.2,2.2-3.8,1.6c-0.4-0.4,0.5-1.3,1.3-2.1
				c4-4.2,7.1-8.6,10.3-14.6c3.2-6,5.1-11.2,6.1-17.3c0.2-1.5,0.3-3-0.2-4.5c-0.5-1.4-0.2-1.7,1.2-1.4c1.8,0.4,3.5,1.1,5.7,3.1
				c1.1-0.8,2.7-1.9,5.3-3.9c1.1-0.8,3.1-2.9,6.2-6c-12.1,0.4-22.6,1.3-31.4,2.6c-4.9,0.7-7.5,1-7.8,1c-0.9-0.2-2-1.2-3.3-2.8
				c-1-1.3-1.6-2.3-1.6-3.2c0-0.2,0.1-0.4,0.2-0.5c0.2-0.1,0.6-0.1,1.4,0.1c1.1,0.2,1.8,0.4,2,0.5c1.2,0.1,2.4,0.2,3.6,0.1
				c4.6-0.2,10-0.5,16.2-0.8c2.6-0.2,7.2-0.4,13.8-0.8c2.2-0.1,4.6-0.2,7.6-0.4c0.6-0.1,1.3-0.3,2.2-0.9c0.9-0.6,1.6-0.8,2.1-0.8
				c1,0.1,2.1,0.9,3.4,2.6c1.8,2.5,2.6,4.2,2.3,5C526.6,17.3,525.8,17.7,524.6,18z"/>
		</g>
		<g>
			<path class="st7" d="M81.2,37.8c-1.1,1.1-2.6,1.7-4.2,1.7c-1.7,0-3.1-0.6-4.3-1.7c-1.1-1.1-1.7-2.5-1.7-4.2c0-1.7,0.6-3,1.7-4.3
				c1.1-1.2,2.6-1.7,4.3-1.7c1.7,0,3.1,0.5,4.2,1.7c1.1,1.2,1.7,2.6,1.7,4.3C82.9,35.2,82.4,36.7,81.2,37.8z"/>
			<path class="st7" d="M143.1,5.6c-1.5-1.4-3.3-2.2-5.4-2.2c-1.9,0-3.5,0.7-4.8,2c-1.4,1.4-2,2.9-2,4.9c0,2.2,0.8,4,2.3,5.4
				c1.5,1.5,3.3,2.3,5.4,2.3c2,0,3.6-0.8,4.9-2.1c1.3-1.3,1.9-2.9,1.9-4.8C145.3,8.9,144.6,7.2,143.1,5.6z M141.2,13.9
				c-0.7,0.9-1.7,1.2-2.9,1.2c-1.2,0-2.2-0.5-3.1-1.4c-0.9-0.8-1.3-2-1.3-3.2c0-1.2,0.4-2.2,1.1-2.8c0.7-0.8,1.7-1.2,2.9-1.2
				c1.2,0,2.2,0.4,3.1,1.3c0.9,0.8,1.3,1.9,1.3,3.2C142.3,12.1,141.9,13.1,141.2,13.9z"/>
			<g>
				<path class="st7" d="M288.2,22.9L288.2,22.9c-0.2,0-0.3,0-0.4,0.1c-0.2,0.3-0.2,0.5-0.1,1c0.1,0.5,0.2,1.4-0.1,2.5
					c-0.6,2.3-1.6,4.1-2.7,5.7l-2.1,2.8c-1.8,2.3-3.4,4.3-5.3,6.2c-4.1,4.2-7.4,6.7-9.1,8l-0.1,0c-1.2,0.9-1.6,1.4-1.3,1.7
					c0.1,0.1,0.2,0.2,0.5,0.2h0c0.3,0,0.7-0.1,0.9-0.1c1.2-0.3,2.7-0.8,3.9-1.3c2.6-1.2,4.6-2.6,6.8-4.2c3.5-2.6,6.7-5.4,9.2-8.4
					l0.3-0.3c1.1-1.4,2.3-2.7,3.2-4c1.5-2.1,1.9-3.2,1.9-3.7c0-1.2-1-2.9-2.5-4.3C289.6,23.1,288.6,22.9,288.2,22.9z"/>
				<path class="st7" d="M326.6,45c-0.4-1.6-1.1-3.3-2.2-5.2c-1.1-1.9-2.4-3.8-3.9-5.6c-2-2.3-3.9-4.2-5.3-5.4
					c-4-3.7-9.2-6.6-10.7-7.4c-2.3-1.3-3.6-1.6-4.1-1.1c-0.2,0.2-0.2,0.3-0.2,0.5c0,0.4,0.4,0.8,1,1.2l0.3,0.2c0,0,2.4,1.8,3.4,2.6
					c2.6,2.4,5.1,5.1,7.5,8.5c1.2,1.7,2.6,4,4.2,7c0.6,1.3,1.1,2.4,1.7,3.6l0.4,0.9c0.5,1,1,2.1,1.5,3.1c1,1.8,1.9,2.7,3,2.9
					c0.2,0,0.5,0.1,0.7,0.1c1.3,0,2.3-0.7,2.8-2C327.1,47.8,326.9,46.2,326.6,45z"/>
			</g>
			<g>
				<path class="st7" d="M110.2,22.9L110.2,22.9c-0.2,0-0.3,0-0.4,0.1c-0.2,0.3-0.2,0.5-0.1,1c0.1,0.5,0.2,1.4-0.1,2.5
					c-0.6,2.3-1.6,4.1-2.7,5.7l-2.1,2.8c-1.8,2.3-3.4,4.3-5.3,6.2c-4.1,4.2-7.4,6.7-9.1,8l-0.1,0c-1.2,0.9-1.6,1.4-1.3,1.7
					c0.1,0.1,0.2,0.2,0.5,0.2l0,0c0.3,0,0.7-0.1,0.9-0.1c1.2-0.3,2.7-0.8,3.9-1.3c2.6-1.2,4.6-2.6,6.9-4.2c3.5-2.6,6.6-5.4,9.2-8.4
					l0.3-0.3c1.2-1.4,2.2-2.7,3.2-4c1.6-2.1,1.9-3.2,1.9-3.7c0-1.2-1-2.9-2.5-4.3C111.6,23.1,110.6,22.9,110.2,22.9z"/>
				<path class="st7" d="M148.6,45c-0.4-1.6-1.1-3.3-2.2-5.2c-1.1-1.9-2.4-3.8-3.9-5.6c-2-2.3-3.9-4.2-5.3-5.4
					c-4-3.7-9.2-6.6-10.7-7.4c-2.3-1.3-3.6-1.6-4.1-1.1c-0.2,0.2-0.2,0.3-0.2,0.5c0,0.4,0.4,0.8,1,1.2l0.3,0.2c0,0,2.4,1.8,3.4,2.6
					c2.6,2.4,5.1,5.1,7.5,8.5c1.2,1.7,2.6,4,4.1,7c0.6,1.3,1.2,2.4,1.7,3.6l0.4,0.9c0.5,1,1,2.1,1.5,3.1c1,1.8,1.9,2.7,3,2.9
					c0.2,0,0.5,0.1,0.7,0.1c1.3,0,2.3-0.7,2.8-2C149.1,47.8,148.9,46.2,148.6,45z"/>
			</g>
			<path class="st7" d="M58.2,12.5c-0.2,0.4-0.6,0.7-0.9,0.7c-0.8,0.2-1.5,0.1-2-0.3c-0.8-1.1-2-2.7-3.5-4.7
				c-0.6-0.7-1.1-1.3-1.7-1.7c-1.2-1-1.7-1.7-1.5-1.9c0.2-0.1,1-0.1,2.4,0.3c1.4,0.4,2.8,1,4.2,1.7c2.3,1.2,3.5,2.6,3.4,4.4
				C58.6,11.6,58.5,12.1,58.2,12.5z M65,7.7c-0.2,0.4-0.6,0.6-0.9,0.7c-0.8,0.2-1.4,0.2-2-0.2c-0.8-1-2-2.6-3.7-4.6
				c-0.4-0.5-1-1-1.7-1.7c-1.2-1-1.7-1.6-1.6-1.8c0.2-0.2,1-0.1,2.3,0.3c1.6,0.4,3,0.9,4.3,1.4c2.3,1,3.5,2.5,3.5,4.3
				C65.3,6.8,65.3,7.3,65,7.7z"/>
			<path class="st7" d="M39.1,5.4C41,6.2,42,7,42.3,7.8c0.1,0.3,0.1,0.8-0.1,1.4c-0.3,0.9-0.4,1.6-0.5,2.2c-0.2,2.4-0.2,4-0.2,4.8
				c0,0.8,0,1.3,0,2.7c0,1.5,0,2.6,0,3.2c1.4-0.1,3.3-0.2,5.8-0.3c1.8-0.2,3.7-0.6,5.4-1.1c1.4-0.4,2.3-0.5,2.9-0.5
				c0.9,0.1,1.9,0.7,2.8,1.7c1,1,1.5,2,1.6,2.8c0.1,0.9-0.1,1.4-0.6,1.6c-0.6,0.3-1.7,0.4-3.6,0.2c-1.2-0.1-2.9-0.2-5.2-0.3
				c-1-0.1-2.6-0.1-4.7,0l-4.3,0.1c0,1.7,0,4.2-0.1,7.3c-0.2,3.5-0.7,6.5-1.5,8.9c-1.2,3.9-3.2,7.6-6.9,11.3
				c-1.6,1.6-3.7,3.2-6.2,4.8c-2.3,1.4-4.2,2.5-6,3.1c-1.2,0.4-1.9,0.4-2,0.1c-0.1-0.3,0.2-0.9,1.1-1.5c0.9-0.7,2.3-1.5,4.1-3
				c5.8-4.8,8.2-8.1,10.1-13.2c1.4-3.6,2.1-7.9,2.2-13.1c0-1.7,0-3.2-0.1-4.6C30.7,26.6,26,26.9,22.9,27c0.1,0.8,0.2,2.5,0.2,5
				l0.2,4.6c0,1.6-0.1,2.8-0.3,3.6c-0.4,1.2-1,1.8-1.9,1.9c-1.2,0.1-2.2-0.8-2.9-2.6c-0.7-1.6-0.9-3.1-0.7-4.3
				c0.3-1.4,0.5-4.1,0.4-7.8c-1.5,0.2-3.7,0.4-7.1,0.7c-1.1,0.2-2.8,0.6-5.2,0.8c-0.7,0-1.3-0.1-2.1-0.5c-0.7-0.4-1.5-0.9-2.1-1.6
				C0.5,25.8,0,24.9,0,24.3c0-0.1,0-0.3,0.1-0.4c0.1-0.1,1.2-0.1,3.3,0.1c1.1,0.1,2.8,0,5.1-0.2c3.3-0.2,6.1-0.4,9.1-0.4
				c-0.1-1.6-0.2-4.2-0.4-7.8c-0.1-1.5-0.4-2.8-0.7-4c-0.2-0.5-0.2-1.3-0.7-2.1c-0.4-0.7-0.5-1.1-0.4-1.2c0.4-0.5,1.1-0.5,2.7,0.2
				c1.7,0.7,2.7,1.5,3.3,2.1c0.5,0.7,0.7,2,0.8,4.2c0,0.1,0.1,2.8,0.2,8.3c3.2-0.1,8-0.3,13.7-0.6c0.1-2.2-0.1-7-0.2-8.1
				c-0.1-1.1-0.3-3.6-0.8-5.8c-0.1-0.5-0.6-1.8-1.1-2.6c-0.4-0.6-0.5-1-0.4-1.2c0.4-0.6,1.4-0.6,3-0.1C37.6,4.8,39.1,5.4,39.1,5.4z"
				/>
			<path class="st7" d="M167.8,36.2c-0.7,0-2.3,0.1-4.8,0.2c-0.6,0.1-1.4,0.2-2.2,0.4c-0.6,0.2-1,0.2-1.4,0.1
				c-0.7-0.2-1.6-1.5-2.4-3.4c0,0-0.7-1.5-0.9-2.3c-0.5-1.7-0.5-2.6,0.1-3.1c0.2-0.1,0.6,0,1.1,0.5c0.8,0.5,2.1,0.9,2.7,1
				c2.2,0.6,4.6,0.8,5.8,0.9h8.8h13.5c2.1-0.1,7.1-0.2,15.7-0.3l6.9-0.1c3.5,0.1,5.3,0.9,5.3,2.5c0.1,1.5-1.1,2.4-4.1,3
				c-1.8,0.4-5.3,0.4-10.3,0.4c-1.6-0.1-6.2,0-14.1-0.1c-4.8,0-9.1,0-12.1,0.1L167.8,36.2z"/>
			<path class="st7" d="M438.5,57.4c-1-0.1-2.2-0.7-3.5-2.1c-2.3-2.3-4.6-4.3-6.6-6.2c-2-1.8-4.3-3.7-6.9-5.5
				c-1.7-1.2-3.7-2.5-5.8-3.8c-3.1,3.4-6.6,6.3-10.2,9c-5.7,4.2-11.9,7.2-18.7,9c-1.8,0.4-2.7,0.4-2.9,0c-0.2-0.4,0.6-1,2.1-1.7
				c5.4-2.7,9.8-5.2,13.1-7.7c3.4-2.4,6.3-4.8,8.7-7.2c2.4-2.4,5.2-5.7,8.4-9.9c2.2-2.9,4.6-6.6,7.1-11.1c-0.2,0-4.2,0.6-12.2,1.9
				c-1.2,0.1-3,0.5-5.5,0.8c-0.6,0.1-1.3,0.2-2.2,0.6c-1.1,0.2-1.7,0.4-1.9,0.4c-1.7-0.1-3.4-1.3-5.2-3.6c-0.6-0.9-0.8-1.4-0.6-1.7
				c0.1-0.2,0.7-0.3,1.9-0.2c1.2,0,2.2,0,3,0c1.4,0,2.7,0,3.8-0.1c1.9-0.2,5.1-0.5,9.5-0.9c2.3-0.2,4.6-0.5,8.4-1
				c0.7-0.1,1.1-0.4,1.6-0.7c0.6-0.3,1.2-0.7,1.5-0.8c0.9-0.1,2.3,0.3,4.2,2.2c1.6,1.6,2.2,2.4,2.1,3.2c0,0.8-0.6,1.4-1.2,1.8
				c-0.8,0.4-1.6,1.1-2,1.5c-0.5,0.4-2,2.5-5.8,7.6c-1,1.3-2.7,3.4-5.2,6.6c1.7,0.6,4.7,1.8,8.7,3.7c3.8,1.8,6.4,3.1,7.9,4
				c1.2,0.7,2.8,2,4.9,3.7c1.6,1.8,2.3,3.7,2.2,5.5C441.1,56.5,440.2,57.5,438.5,57.4z"/>
			<path class="st7" d="M383.1,20.7c-2.2-2.1-4.3-3.5-5.4-3.5c-1.2,0-2.3,1.7-3.1,1.8c-2.2,0.2-4.3,0.3-5.8,0.3
				c-3.1,0.2-5.2,0.4-6.5,0.5c0-1.2,0-1.8,0-2.6c0-0.7,0.1-2.5,0.3-5.2c0.1-0.7,0.3-1.5,0.5-2.4c0.2-0.6,0.2-1.2,0.1-1.5
				c-0.3-0.8-1.4-1.6-3.4-2.5c0,0-1.8-0.8-2.6-1c-1.8-0.6-2.8-0.5-3.3,0.1c-0.1,0.2,0,0.6,0.4,1.3c0.5,0.9,1,2.3,1.2,2.9
				c0.6,2.4,0.8,5,0.9,6.2c0,0.7,0.1,3.1,0.1,5.1c-8.2,0.7-12.9,1-14.3,1.1c-1.5-1.1-2.6-2.1-3.3-2.6c-1.4-1-2.3-1.5-2.9-1.5
				c-0.4-0.1-0.7,0.2-0.8,0.9c-0.1,0.3,0.1,1,0.5,2.2c0.4,1.2,0.7,2.2,1,3.3c0.6,2.2,1,4.3,1.4,6.4c0.7,3.5,1.2,6.3,1.5,8.4
				c0.2,1.2,0.5,2.3,1,3.4c0.9,1.8,2,2.6,3.3,2.6c1.8,0,2.7-1.4,2.3-4.4c-0.7-3.6-1.3-6.4-1.8-8.3c-0.6-3.1-1.1-5.3-1.5-6.6
				c7.1-0.5,12.4-0.9,16-1.2c8-0.5,13.4-0.7,16.1-0.7c-1.5,5.4-3.3,10.1-5.4,14c-2.3,4.3-5,8.2-8.1,11.7c-1.5,1.7-3.7,3.7-6.3,5.9
				c-2,1.7-4,3-5.8,4.2c-1.9,1.2-2.7,2.1-2.6,2.5c0.1,0.2,0.3,0.3,0.6,0.3c0.5,0,1.5-0.3,3.2-1c2.4-0.9,4.5-2,6.2-3.1
				c3.1-1.9,5.7-3.9,7.9-5.9c3.3-3,6.1-6.6,8.9-11c2.5-4,4.7-8.1,7.5-14.5c0.7-1.7,2.6-2.1,2.9-3.4
				C384.3,22.2,384.1,21.7,383.1,20.7z"/>
			<path class="st7" d="M271,21.1c-1.2,0.9-2,1.7-2.7,2.8c-0.7,1.1-1.8,2.9-3.4,5.4c-1.4,2.1-3,4.7-5,7.4c-3,4.1-6.2,7.9-9.7,11.2
				c-5.2,4.9-12.2,9.4-18.2,11.9c-2.3,0.9-4.2,1.6-5.5,2c-1.3,0.3-2.1,0.2-2.2-0.2c-0.1-0.3,0.4-0.8,1.5-1.4c6.4-3.5,13-8,17.1-11.8
				c2.9-2.6,5.6-5.5,8-8.6c2.7-3.4,5.2-7,7.6-10.9c0.4-0.9,2-3.6,4.6-8.5c-2.3,0.2-8,0.6-10.9,1.1c-2.5,0.4-3.6,0.6-3.4,0.6
				c-0.4-0.1-0.8-0.3-1.4-0.9c-0.6-0.4-1.1-0.8-1.6-1.2c-3.2,3.7-5.7,6.2-7.3,7.7c-1.1,1-2.7,2.3-4.8,4c-1.9,1.4-3.9,2.5-6.1,3.5
				c-1.8,0.9-2.9,1.1-3.2,0.6c-0.3-0.4,0.2-1.1,1.4-2.1c5-4.1,9-8.2,12.1-12.3c1.6-2.2,3-4,4.7-7.3c1.3-2.5,1.9-4.3,2.1-5.5
				c0.2-0.8,0.3-1.7,0.2-2.5c0-0.4-0.1-1.1,0.1-1.4c0.4-0.4,1.1,0,1.9,0.5c1,0.7,1.8,1.4,2.3,1.9c1.5,1.5,2.3,2.5,2.4,2.9
				c0,0.3-0.3,1-1,1.9c-0.2,0.3-0.6,0.8-1,1.5c-0.8,1.2-1.5,2-2.9,4.2c0,0,2.4-0.2,7.1-0.7c2.9-0.3,8.5-0.6,10.2-1.1
				c0.2-0.1,0.6-0.2,1.3-0.7c0.3-0.2,0.6-0.4,0.9-0.6c0.4-0.2,1-0.1,1.9,0.4c0.8,0.5,1.9,1.3,2.8,2.2c1.3,1.4,1.3,1.8,1.1,2.6
				C272,20.3,271.6,20.8,271,21.1z"/>
		</g>
	</g>
</g>
</svg>
